<?xml version="1.0" encoding="utf-8"?>
<!-- Generated by IcoMoon.io -->
<!DOCTYPE svg PUBLIC "-//W3C//DTD SVG 1.1//EN" "http://www.w3.org/Graphics/SVG/1.1/DTD/svg11.dtd">
<svg version="1.1" xmlns="http://www.w3.org/2000/svg" xmlns:xlink="http://www.w3.org/1999/xlink" width="32" height="32" viewBox="0 0 32 32">
<path d="M25.753 11.653c0 0.2-0.1 0.3-0.2 0.4l-8.4 8.4c-0.3 0.3-0.7 0.5-1.2 0.5s-0.9-0.2-1.2-0.5l-8.4-8.4c-0.2-0.2-0.2-0.6 0-0.8s0.6-0.2 0.8 0l8.4 8.4c0.1 0.1 0.2 0.1 0.4 0.1s0.3 0 0.4-0.1l8.4-8.4c0.2-0.2 0.6-0.2 0.8 0 0.1 0.1 0.2 0.2 0.2 0.4z"></path>
</svg>
