<?xml version="1.0" encoding="utf-8"?>
<!-- Generator: Adobe Illustrator 21.0.2, SVG Export Plug-In . SVG Version: 6.00 Build 0)  -->
<svg version="1.1" xmlns="http://www.w3.org/2000/svg" xmlns:xlink="http://www.w3.org/1999/xlink" x="0px" y="0px"
	 viewBox="0 0 141.7 141.7" style="enable-background:new 0 0 141.7 141.7;" xml:space="preserve">
<style type="text/css">
	.st0{clip-path:url(#SVGID_2_);fill:#ECEDED;}
	.st1{clip-path:url(#SVGID_2_);fill:#C5E7F4;}
	.st2{clip-path:url(#SVGID_2_);fill:none;stroke:#ECEDED;stroke-width:8;stroke-miterlimit:10;}
	.st3{clip-path:url(#SVGID_2_);fill:#FFFFFF;}
	.st4{clip-path:url(#SVGID_2_);fill:#B3CFD1;}
	.st5{clip-path:url(#SVGID_2_);fill:#BDD5D6;}
	.st6{clip-path:url(#SVGID_2_);fill:#43A9CC;}
	.st7{clip-path:url(#SVGID_2_);fill:#F9E0D7;}
	.st8{clip-path:url(#SVGID_2_);fill:#FAD8D7;}
	.st9{clip-path:url(#SVGID_2_);}
	.st10{fill:#E0A5B3;}
	.st11{clip-path:url(#SVGID_2_);fill:#B3CCDB;}
	.st12{clip-path:url(#SVGID_2_);fill:#3E626D;}
	.st13{clip-path:url(#SVGID_2_);fill:#48727C;}
	.st14{clip-path:url(#SVGID_2_);fill:#C07F8B;}
	.st15{clip-path:url(#SVGID_2_);fill:#EAADB8;}
	.st16{clip-path:url(#SVGID_2_);fill:none;stroke:#D39AA0;stroke-linecap:round;stroke-miterlimit:10;}
	.st17{fill:#EDB7B7;}
	.st18{clip-path:url(#SVGID_2_);fill:none;stroke:#B3CFD1;stroke-width:2;stroke-miterlimit:10;}
	.st19{clip-path:url(#SVGID_2_);fill:none;stroke:#092B33;stroke-width:0.5733;stroke-miterlimit:10;}
	.st20{clip-path:url(#SVGID_2_);fill:#C98B98;}
	.st21{clip-path:url(#SVGID_2_);fill:#B37481;}
	.st22{fill:#3E626D;}
	.st23{clip-path:url(#SVGID_2_);fill:#12576F;}
	.st24{clip-path:url(#SVGID_2_);fill:#156382;}
	.st25{clip-path:url(#SVGID_2_);fill:#1186B9;}
	.st26{clip-path:url(#SVGID_2_);fill:#D9DADB;}
	.st27{clip-path:url(#SVGID_2_);fill:#F6F6F6;}
	.st28{clip-path:url(#SVGID_2_);fill:#D8B2B2;}
	.st29{clip-path:url(#SVGID_2_);fill:#D6ABAB;}
	.st30{fill:#092B33;}
	.st31{clip-path:url(#SVGID_2_);fill:none;stroke:#76585D;stroke-width:4;stroke-linecap:round;stroke-miterlimit:10;}
	.st32{fill:#D39AA0;}
	.st33{clip-path:url(#SVGID_2_);fill:#CADFE0;}
	.st34{clip-path:url(#SVGID_2_);fill:#DB838E;}
	.st35{clip-path:url(#SVGID_2_);fill:#A8BFC1;}
	.st36{clip-path:url(#SVGID_2_);fill:#829A9E;}
	.st37{clip-path:url(#SVGID_2_);fill:#092B33;}
	.st38{clip-path:url(#SVGID_2_);fill:none;stroke:#7F424B;stroke-width:1.1466;stroke-linecap:round;stroke-miterlimit:10;}
	.st39{clip-path:url(#SVGID_2_);fill:none;stroke:#6C4157;stroke-width:2.2931;stroke-miterlimit:10;}
	.st40{clip-path:url(#SVGID_2_);fill:#A86F7E;}
	.st41{clip-path:url(#SVGID_2_);fill:none;stroke:#426970;stroke-width:0.5733;stroke-miterlimit:10;}
	.st42{clip-path:url(#SVGID_2_);fill:none;stroke:#9E6571;stroke-width:5.7329;stroke-linecap:round;stroke-miterlimit:10;}
	.st43{fill:#E9C8B7;}
	.st44{clip-path:url(#SVGID_2_);fill:none;stroke:#B79E92;stroke-width:1.1481;stroke-linecap:round;stroke-miterlimit:10;}
	.st45{clip-path:url(#SVGID_2_);fill:none;stroke:#8BBDC1;stroke-width:1.1481;stroke-linecap:round;stroke-miterlimit:10;}
	.st46{clip-path:url(#SVGID_2_);fill:#D39AA0;}
	.st47{clip-path:url(#SVGID_2_);fill:#CE97A4;}
	.st48{clip-path:url(#SVGID_2_);fill:#DAEFFA;}
	.st49{clip-path:url(#SVGID_2_);fill:none;stroke:#EBA7B3;stroke-miterlimit:10;}
	.st50{fill:#B3CCDB;}
	.st51{clip-path:url(#SVGID_2_);fill:none;stroke:#B3CCDB;stroke-miterlimit:10;}
	.st52{clip-path:url(#SVGID_4_);fill:#C5E7F4;}
	.st53{clip-path:url(#SVGID_4_);fill:#E0D6D3;}
	.st54{clip-path:url(#SVGID_4_);fill:#DBC7C5;}
	.st55{clip-path:url(#SVGID_4_);fill:#CEC1B3;}
	.st56{clip-path:url(#SVGID_4_);fill:#F4EEEA;}
	.st57{clip-path:url(#SVGID_4_);fill:#EEE2DE;}
	.st58{clip-path:url(#SVGID_4_);fill:#B9C4C6;}
	.st59{clip-path:url(#SVGID_4_);fill:#E1E9EA;}
	.st60{clip-path:url(#SVGID_4_);fill:#697C7F;}
	.st61{clip-path:url(#SVGID_4_);fill:#D1B4BA;}
	.st62{clip-path:url(#SVGID_4_);fill:#B9A7AB;}
	.st63{clip-path:url(#SVGID_4_);fill:#3A2F31;}
	.st64{clip-path:url(#SVGID_4_);fill:#253F44;}
	.st65{clip-path:url(#SVGID_4_);fill:#092B33;}
	.st66{clip-path:url(#SVGID_4_);fill:#D9DADB;}
	.st67{clip-path:url(#SVGID_4_);fill:#C6C7C8;}
	.st68{clip-path:url(#SVGID_4_);fill:none;stroke:#1186B9;stroke-width:4;stroke-miterlimit:10;stroke-dasharray:2,3;}
	.st69{clip-path:url(#SVGID_4_);fill:#B37780;}
	.st70{clip-path:url(#SVGID_4_);fill:#C07F8B;}
	.st71{clip-path:url(#SVGID_4_);fill:#A56F79;}
	.st72{clip-path:url(#SVGID_4_);fill:#F6F6F6;}
	.st73{clip-path:url(#SVGID_4_);fill:#B3CCDB;}
	.st74{clip-path:url(#SVGID_4_);fill:#97BBCC;}
	.st75{clip-path:url(#SVGID_4_);fill:#DB838E;}
	.st76{clip-path:url(#SVGID_4_);fill:#184B57;}
	.st77{clip-path:url(#SVGID_4_);fill:none;stroke:#092B33;stroke-width:4;stroke-linecap:round;stroke-miterlimit:10;}
	.st78{clip-path:url(#SVGID_4_);fill:none;stroke:#A55867;stroke-width:3;stroke-linecap:round;stroke-miterlimit:10;}
	.st79{clip-path:url(#SVGID_4_);}
	.st80{fill:#B37780;}
	.st81{clip-path:url(#SVGID_4_);fill:#FFFFFF;}
	.st82{clip-path:url(#SVGID_4_);fill:#1186B9;}
	.st83{clip-path:url(#SVGID_4_);fill:none;stroke:#B3CCDB;stroke-width:0.75;stroke-miterlimit:10;}
	.st84{fill:#FFFFFF;}
	.st85{clip-path:url(#SVGID_4_);fill:#ECEDED;}
	.st86{clip-path:url(#SVGID_4_);fill:none;stroke:#184B57;stroke-width:4;stroke-miterlimit:10;}
	.st87{clip-path:url(#SVGID_6_);fill:#C5E7F4;}
	.st88{clip-path:url(#SVGID_6_);fill:#B9C4C6;}
	.st89{clip-path:url(#SVGID_6_);fill:#FFFFFF;}
	.st90{clip-path:url(#SVGID_6_);}
	.st91{fill:#5B7677;}
	.st92{fill:#446063;}
	.st93{fill:#CFE0E5;}
	.st94{fill:#DFF0F7;}
	.st95{fill:#D9DADB;}
	.st96{fill:none;stroke:#5B7677;stroke-miterlimit:10;}
	.st97{fill:none;stroke:#446063;stroke-width:0.75;stroke-miterlimit:10;}
	.st98{fill:#B9BEC1;}
	.st99{clip-path:url(#SVGID_6_);fill:#DFF0F7;}
	.st100{clip-path:url(#SVGID_6_);fill:#5B7677;}
	.st101{fill:#F9D4CC;}
	.st102{fill:#1186B9;}
	.st103{fill:#DB838E;}
	.st104{opacity:0.5;fill:#DB838E;}
	.st105{opacity:0.3;fill:#EFBBBD;}
	.st106{opacity:0.4;fill:#1186B9;}
	.st107{fill:none;stroke:#DB838E;stroke-width:3;stroke-linecap:round;stroke-miterlimit:10;}
	.st108{fill:none;stroke:#1186B9;stroke-width:4;stroke-linecap:round;stroke-miterlimit:10;}
	.st109{fill:none;stroke:#092B33;stroke-width:4;stroke-miterlimit:10;}
	.st110{fill:#F2C7C7;}
	.st111{fill:none;stroke:#DB838E;stroke-width:4;stroke-miterlimit:10;}
	.st112{fill:#F6F6F6;}
	.st113{fill:#C6C7C8;}
	.st114{fill:#E3E4E4;}
	.st115{fill:#C699A1;}
	.st116{fill:#A38289;}
	.st117{fill:none;stroke:#1186B9;stroke-width:4;stroke-miterlimit:10;stroke-dasharray:2,3;}
	.st118{fill:#ECEDED;}
	.st119{clip-path:url(#SVGID_8_);}
	.st120{opacity:0.3;fill:#F9D4CC;}
	.st121{fill:none;stroke:#C6C7C8;stroke-width:2;stroke-miterlimit:10;}
	.st122{fill:#E9D1D1;}
	.st123{fill:#105168;}
	.st124{fill:#F9D7C8;}
	.st125{fill:#91ADAF;}
	.st126{fill:none;stroke:#D9DADB;stroke-width:3;stroke-miterlimit:10;}
	.st127{fill:#B2838D;}
	.st128{opacity:0.4;fill:#91ADAF;}
	.st129{fill:#FEF3EE;stroke:#092B33;stroke-miterlimit:10;}
	.st130{fill:#D8C4B6;stroke:#092B33;stroke-width:0.75;stroke-miterlimit:10;}
	.st131{fill:#FEF9F8;stroke:#092B33;stroke-width:0.5;stroke-miterlimit:10;}
	.st132{fill:#A5898F;stroke:#092B33;stroke-miterlimit:10;}
	.st133{fill:#1186B9;stroke:#092B33;stroke-width:0.75;stroke-miterlimit:10;}
	.st134{fill:#B3CFD1;stroke:#092B33;stroke-width:0.75;stroke-miterlimit:10;}
	.st135{fill:#B3CFD1;stroke:#092B33;stroke-miterlimit:10;}
	.st136{fill:#F9D7C8;stroke:#092B33;stroke-width:0.5;stroke-miterlimit:10;}
	.st137{opacity:0.5;fill:#B1B3B4;}
	.st138{fill:#F9D7C8;stroke:#092B33;stroke-miterlimit:10;}
	.st139{fill:#3E3D40;stroke:#092B33;stroke-width:0.5;stroke-miterlimit:10;}
	.st140{opacity:0.6;fill:#B1B3B4;}
	.st141{fill:#DFDB00;stroke:#000000;stroke-miterlimit:10;}
	.st142{fill:#5F4C3F;stroke:#000000;stroke-miterlimit:10;}
	.st143{fill:#74C1E8;stroke:#000000;stroke-width:0.5;stroke-miterlimit:10;}
	.st144{fill:none;stroke:#000000;stroke-miterlimit:10;}
	.st145{fill:#FCD5A2;stroke:#000000;stroke-miterlimit:10;}
	.st146{fill:#FCD5A2;stroke:#000000;stroke-width:0.75;stroke-miterlimit:10;}
	.st147{fill:#3E3D40;stroke:#000000;stroke-miterlimit:10;}
	.st148{fill:#FFF7CB;stroke:#000000;stroke-width:0.5;stroke-miterlimit:10;}
	.st149{fill:#FCD5A2;}
	.st150{fill:#DFDB00;stroke:#000000;stroke-width:0.5;stroke-miterlimit:10;}
	.st151{fill:#FCD5A2;stroke:#000000;stroke-width:0.5;stroke-miterlimit:10;}
	.st152{fill:#3E3D40;stroke:#000000;stroke-width:0.5;stroke-miterlimit:10;}
	.st153{fill:#DB838E;stroke:#092B33;stroke-miterlimit:10;}
	.st154{fill:none;stroke:#092B33;stroke-miterlimit:10;}
	.st155{fill:#092B33;stroke:#092B33;stroke-miterlimit:10;}
	.st156{fill:#DFDB00;stroke:#092B33;stroke-width:0.5;stroke-miterlimit:10;}
	.st157{fill:#F9D7C8;stroke:#092B33;stroke-width:0.75;stroke-miterlimit:10;}
	.st158{fill:#B2979C;stroke:#092B33;stroke-width:0.5;stroke-miterlimit:10;}
	.st159{fill:#DB838E;stroke:#092B33;stroke-width:0.5;stroke-miterlimit:10;}
	.st160{fill:#FEF3EE;stroke:#092B33;stroke-width:0.5;stroke-miterlimit:10;}
	.st161{fill:#B2979C;stroke:#092B33;stroke-width:0.75;stroke-miterlimit:10;}
	.st162{fill:none;stroke:#092B33;stroke-width:0.5;stroke-miterlimit:10;}
	.st163{fill:#B3CFD1;stroke:#092B33;stroke-width:0.25;stroke-miterlimit:10;}
	.st164{fill:#B3CFD1;stroke:#092B33;stroke-width:0.5;stroke-miterlimit:10;}
	.st165{fill:#D8C4B6;}
	.st166{fill:#E7C0B8;}
	.st167{fill:none;stroke:#092B33;stroke-width:0.75;stroke-linecap:round;stroke-miterlimit:10;}
	.st168{fill:none;stroke:#B3CCDB;stroke-width:0.75;stroke-miterlimit:10;}
	.st169{fill:none;stroke:#DB838E;stroke-width:4.7096;stroke-miterlimit:10;}
	.st170{opacity:0.6;}
	.st171{fill:none;stroke:#EAB9B9;stroke-width:1.4504;stroke-linecap:round;stroke-miterlimit:10;}
	.st172{opacity:0.2;fill:#EAB9B9;}
	.st173{fill:#AA9498;}
	.st174{opacity:0.5;fill:#8F797D;}
	.st175{fill:#8F797D;}
	.st176{fill:#DBBDBD;}
	.st177{fill:#9C9E9F;}
	.st178{fill:#0B72B5;}
	.st179{fill:none;stroke:#1186B9;stroke-width:2.7092;stroke-miterlimit:10;}
	.st180{fill:#58585A;}
	.st181{fill:none;stroke:#C6C7C8;stroke-miterlimit:10;}
	.st182{fill:none;stroke:#B3CCDB;stroke-width:2;stroke-miterlimit:10;}
	.st183{fill:#2D6282;}
	.st184{fill:#55B0C7;}
	.st185{fill:#4297A8;}
	.st186{fill:#45ABCA;}
	.st187{fill:#A4D9E7;}
	.st188{fill:#3E91B2;}
	.st189{fill:#47BDD4;}
	.st190{fill:#62C3DA;}
	.st191{fill:#2B7191;}
	.st192{fill:#1B5E82;}
	.st193{fill:#29B6D2;}
	.st194{fill:#163D44;}
	.st195{fill:#12576F;}
	.st196{fill:#007FAA;}
	.st197{fill:#4F696D;}
	.st198{fill:#9BD5E4;}
	.st199{fill:#253F44;}
	.st200{fill:#E3D6CF;}
	.st201{fill:#C6B9B3;}
	.st202{fill:#87888A;}
	.st203{fill:none;stroke:#D9DADB;stroke-width:2;stroke-miterlimit:10;}
	.st204{fill:none;stroke:#D9DADB;stroke-width:0.5187;stroke-miterlimit:10;}
	.st205{fill:#DEF0F9;}
	.st206{clip-path:url(#SVGID_10_);}
	.st207{fill:#CFCFCF;}
	.st208{clip-path:url(#SVGID_12_);}
	.st209{fill:#898989;}
	.st210{fill:#F1F1F1;}
	.st211{fill:#020202;}
	.st212{fill:#888888;}
	.st213{fill:#3A3A3A;}
	.st214{clip-path:url(#SVGID_14_);}
	.st215{clip-path:url(#SVGID_16_);}
	.st216{fill:#959595;}
	.st217{fill:#DADADA;}
	.st218{fill:#C4C4C4;}
	.st219{fill:none;stroke:#4B4B4B;stroke-width:0.1536;stroke-miterlimit:10;}
	.st220{opacity:0.6;fill:#B3CCDB;}
	.st221{opacity:0.7;fill:#C7DBE5;}
	.st222{clip-path:url(#SVGID_18_);}
	.st223{fill:#A3A3A3;}
	.st224{fill:#DEDEDE;}
	.st225{fill:none;stroke:#B8B8B8;stroke-width:0.3139;stroke-linecap:round;stroke-miterlimit:10;}
	.st226{opacity:0.2;fill:#C1C1C1;}
	.st227{clip-path:url(#SVGID_20_);}
	.st228{fill:#C5C5C5;}
	.st229{fill:#A5A5A5;}
	.st230{clip-path:url(#SVGID_22_);}
	.st231{fill:#F2F2F2;}
	.st232{fill:#BCBCBC;}
	.st233{clip-path:url(#SVGID_24_);}
	.st234{fill:#4B4B4B;}
	.st235{fill:#787878;}
	.st236{clip-path:url(#SVGID_26_);}
	.st237{fill:#FADBDB;}
	.st238{fill:none;stroke:#E5AEB9;stroke-width:0.3469;stroke-linecap:round;stroke-miterlimit:10;}
	.st239{opacity:0.2;fill:#E8BAC4;}
	.st240{clip-path:url(#SVGID_28_);}
	.st241{fill:#663854;}
	.st242{fill:#865462;}
	.st243{clip-path:url(#SVGID_30_);}
	.st244{clip-path:url(#SVGID_32_);}
	.st245{fill:none;stroke:#2D6282;stroke-width:0.1757;stroke-miterlimit:10;}
	.st246{fill:#F8CCCD;}
	.st247{fill:#A17986;}
	.st248{clip-path:url(#SVGID_34_);}
	.st249{fill:#041A1E;}
	.st250{fill:#9DBAC6;}
	.st251{fill:#377493;}
	.st252{fill:#A7C3D1;}
	.st253{fill:#0A81AA;}
	.st254{fill:none;stroke:#E5AEB9;stroke-width:1.3147;stroke-linecap:round;stroke-miterlimit:10;}
	.st255{fill:none;stroke:#1186B9;stroke-width:0.6798;stroke-linecap:round;stroke-miterlimit:10;}
	.st256{fill:none;stroke:#E5AEB9;stroke-width:0.4532;stroke-linecap:round;stroke-miterlimit:10;}
	.st257{fill:#B1B3B4;}
	.st258{fill:none;stroke:#9E6C79;stroke-width:0.9065;stroke-linecap:round;stroke-miterlimit:10;}
	.st259{fill:none;stroke:#092B33;stroke-width:0.9065;stroke-linecap:round;stroke-miterlimit:10;}
	.st260{fill:none;stroke:#663854;stroke-width:2.0929;stroke-linecap:round;stroke-miterlimit:10;}
	.st261{fill:#CF7987;}
	.st262{fill:#B27A83;}
</style>
<g id="Layer_1">
</g>
<g id="Layer_2">
	<g>
		<path class="st204" d="M137,128.5c0,5.5-4.5,10-10,10H14.7c-5.5,0-10-4.5-10-10V16.2c0-5.5,4.5-10,10-10H127c5.5,0,10,4.5,10,10
			V128.5z"/>
		<path class="st205" d="M14.7,134c-3,0-5.5-2.5-5.5-5.5V16.2c0-3,2.5-5.5,5.5-5.5H127c3,0,5.5,2.5,5.5,5.5v112.3
			c0,3-2.5,5.5-5.5,5.5H14.7z"/>
		<path class="st246" d="M129.8,76.2c0.4-2.2,2.2-3,3.1-3.9s2.6-4.8,2.4-5.2s-1.6,1.7-2.6,2.2c-1,0.5,1.5-3.6,1.1-4.7
			c-0.3-1.1-1-3.4-1.8-3.6c-0.8-0.2-2.9,3.6-3.6,4.9c-1.1,2-1.9,1.3-2.2,0.5c-1.3-4.1-1.2,1.6-1.1,3.6c0,1.3,0.3,2.1,0.1,5
			L129.8,76.2z"/>
		<path class="st247" d="M16.8,54.8c0-0.5,0.2-4.6-1.6-6.6c-2-2.2-1-4-1-4s-1.7-0.9-2.3,0.7c-0.5,1.4,0.3,2.9,0.3,2.9
			s-1.7-2.2-3.6-2.9c-2-0.7-1.3,2.5-1.6,2.7c-0.3,0.1-1,5.5-0.7,6.3s2.1,2.4,4.4,2.9c0.6,0.1,1.1,0.2,1.6,0.2l0,0
			c0.8,0.9,1.3,1.9,1.5,2.2l3.2-4L16.8,54.8z"/>
		<g>
			<path class="st184" d="M61.7,12.9c0,5.3-9.6,17-9.6,17s-9.6-11.6-9.6-17s4.3-9.6,9.6-9.6S61.7,7.5,61.7,12.9z"/>
			<circle class="st183" cx="52.1" cy="12.8" r="4"/>
		</g>
		<g>
			<path class="st184" d="M110.8,17.3c0,5.3-9.6,17-9.6,17s-9.6-11.6-9.6-17s4.3-9.6,9.6-9.6S110.8,12,110.8,17.3z"/>
			<ellipse transform="matrix(0.8006 -0.5992 0.5992 0.8006 9.8419 64.0184)" class="st183" cx="101.1" cy="17.2" rx="4" ry="4"/>
		</g>
		<g>
			<defs>
				<path id="SVGID_33_" d="M14.7,134c-3,0-5.5-2.5-5.5-5.5V16.2c0-3,2.5-5.5,5.5-5.5H127c3,0,5.5,2.5,5.5,5.5v112.3
					c0,3-2.5,5.5-5.5,5.5H14.7z"/>
			</defs>
			<clipPath id="SVGID_2_">
				<use xlink:href="#SVGID_33_"  style="overflow:visible;"/>
			</clipPath>
			<g class="st9">
				<path class="st30" d="M41.6,122.2c0,0.6-1,6-0.6,13.9c0.5,7.9,34.7,0.5,34.7,0.5l-2.4-17.3L41.6,122.2z"/>
				<path class="st249" d="M73.4,119.4l-4.7,0.4l-10,3.5L56,127c4.3,1.6,5.8,3.2,6.2,4.4c0.2,0.7,0.6,4.4,0.9,7.4
					c6.9-0.9,12.7-2.2,12.7-2.2L73.4,119.4z"/>
				<path class="st246" d="M101.9,72.8c3,1.7,11.1,11.2,16.2,10.8c2.1-0.1,6.9-6.1,7.2-8.5c0.3-2,5.5-3.3,4.5,1.5
					c-0.5,2.1-7,19.4-11.5,20c-4.3,0.5-22-2.2-22.6-8.5C95.2,81.7,95.8,69.2,101.9,72.8z"/>
				<path class="st84" d="M113.5,94.6c2.5-3.6,2.8-7.3,3-11.1c-6.1-4.3-13-9.7-14.7-10.7c-6.1-3.6-6.7,8.9-6.2,15.2
					c0.5,6,11.1,7.7,15.6,9.3C111.7,96.8,113.2,95.1,113.5,94.6z"/>
				<path class="st112" d="M113.5,94.6c-3.4-3.3-7.4-16.4-7.3-16.9L107,96c1.7,0.5,3.2,0.9,4.4,1.3
					C111.7,96.8,113.2,95.1,113.5,94.6z"/>
				<path class="st50" d="M43,72.4c0.5-6.3,5.4-10.4,13.8-9.9c8.4,0.5,22.1,8,20.7,12.1c-3.2,9.7-3.4,44.8-4.1,46
					c-5.2,9.4-32.9,7.3-33.6,1.2c-0.7-6.1,2.6-18,2.6-26S42.5,78.4,43,72.4z"/>
				<path class="st250" d="M72.3,68.1c-1.7,1.9-2.2,5-2,7.4c0.2,2.9-0.2,8.9-6.5,4.6s-3.1,37-2.4,38.3c0.7,1.3,6.8,2.4,6.8,6.4
					c2.4-1,4.2-2.4,5.2-4.2c0.7-1.2,0.8-36.3,4.1-46C78.1,72.8,75.8,70.3,72.3,68.1z"/>
				<path class="st183" d="M85.8,45c-1.5,3.2-4.6,2.3-5.4,7.2c-0.9,5.4,2.3,4.7,1.8,9.4c-0.3,2.7-5.4,1.2-4.8,8.4
					c0.4,4.7-2.9,3.8-4.2,6.6c-3.2,7.2,3,12.7,6.5,12.5c3.6-0.2,22.8-9.4,24.1-13c1.4-3.6,7.4,0.9,6.5-8.1c-0.4-4.2,1.6-3.9,2.7-6.4
					c1.6-3.3,1-6.8-1.6-10.3c-2.5-3.5-0.5-6.6-1.5-10.1c-1-3.5-5.5-4-8.8-2.9C99,39,96.8,35.5,91,37.4C86,39.2,86.6,43.2,85.8,45z"
					/>
				<path class="st251" d="M110.1,41.2c-1-3.5-5.5-4-8.8-2.9c-1.7,0.5-3.4-1.3-6.5-1.5c-2.9,1.6-5.8,4.4-4.2,7.1
					c2,3.6-3.5,2.2-3.9,5.2c-0.3,2.9,2,4.5,3,4.5s-5.5,4.2-2.4,7.5c3.2,3.3,7.8,1.1,8.8-0.3c1-1.3,4.5-6.7,4.5-6.7l9.8-4.9
					C109.7,46.6,110.9,44,110.1,41.2z"/>
				<path class="st251" d="M111.6,51.4c-1.1-1.5-1.4-3-1.4-4.5l-2,0.4l0.5,6.1l0.9,3.8c-0.2,3.6,1.5,5.6,3.6,4.5
					C114.7,58.3,114.1,54.8,111.6,51.4z"/>
				<path class="st252" d="M17.1,55.1l-3.5,4.4c0,0,4.3,17.1,8.7,20.3c4.4,3.2,24,5.9,24.1,3.7s8.6-20.7,4.3-20.1S32,71.2,27.9,68.5
					C23.9,65.8,19,57.6,17.1,55.1z"/>
				<path class="st102" d="M44.5,64.4c-1.4,1.3-3.8,14.9-3.1,19.8c0.7,4.9-0.6,23.1-1.6,27.3c-1,4.2,8.8,6.1,8.8,6.1l0.8-1.6
					l0.6,1.6c0,0,14.7,3.1,22.3-1.9c4.6-3-0.5-10-0.7-24.7c0-1.5-0.9-2.9-2.1-3.8c-2-1.6-4.8-4.9-4.5-10.4c0.2-4,0.5-8.4,2.5-11.1
					c0.6-0.8-6.4-2.8-6.4-2.8s-2.7,16.8-9.5,16.2s-4.4-14.8-4.4-14.8l-0.7-0.8L44.5,64.4z"/>
				<path class="st253" d="M72.3,115.8c4.6-3-0.5-10-0.7-24.7c0-1.5-0.9-2.9-2.1-3.8c-1.6-1.3-3.7-3.6-4.3-7.3
					c-0.6,5.3,0.6,7.8,1.7,10.8c1.5,3.9,0.1,22.5-2.4,27.5C67.4,118,70.1,117.3,72.3,115.8z"/>
				<path class="st103" d="M93.5,69.9c-2.8,0.5-10.1,2.6-13.4,7.5c-3,4.3-4.3,29.5-3.7,37.3c0.8,10.1,1.6,18.5,1.6,18.5
					s4.4,9.6,12.7,7.3c8.4-2.4,19.7,6,18.8-6.6c-0.7-9.7-1.7-22.9-1.4-30.2c0.2-6,3.7-9.1,2.3-14.6C109.2,83.9,105.4,67.7,93.5,69.9
					z"/>
				<path class="st237" d="M94.3,44.4c-11.9,3.9-7.7,8.5-6.5,14.7c0.6,3.2,2.1,9.6,2,12.2s3.6,13.5,12.1,11.6
					c6.7-1.5-2.4-12.4-0.5-13.9c0.7-0.5,3-0.1,5.1-2.4c1.5-1.7,5.4-6.4,3.6-15C108.1,42,98.3,43.1,94.3,44.4z"/>
				<path class="st254" d="M106,56.1c-0.1,1-0.1,2.3,0.4,3.2"/>
				
					<ellipse transform="matrix(0.9913 -0.1315 0.1315 0.9913 -6.9153 13.6533)" class="st239" cx="99.9" cy="59.2" rx="2.7" ry="2.7"/>
				<line class="st255" x1="103.1" y1="54.6" x2="103.1" y2="55.8"/>
				<line class="st255" x1="108.7" y1="54.9" x2="108.7" y2="56.1"/>
				<g>
					<path class="st84" d="M101.8,71.6c0,0.3,0,0.7,0.1,1.1c1.3,10.8-9.6,3.1-11.5-3.1l-0.6,0.1c0.1,0.6,0.1,1.1,0.1,1.5
						C89.7,74,94,85.9,102.4,84C107.9,82.8,102.5,75.1,101.8,71.6z"/>
				</g>
				<path class="st256" d="M102.3,62.3c0.8,0.7,2.2,1.1,3.2,1"/>
				<g>
					<path class="st183" d="M100.4,52c0.4-0.6,1-1,1.6-1.2c0.6-0.2,1.2-0.4,1.9-0.3c0.1,0,0.2,0.1,0.2,0.3c0,0.1-0.1,0.2-0.2,0.2
						l0,0c-0.5,0-1.1,0.2-1.6,0.4c-0.5,0.3-0.9,0.6-1.1,1.1c-0.1,0.2-0.4,0.3-0.6,0.2C100.3,52.5,100.2,52.2,100.4,52
						C100.3,52,100.4,52,100.4,52z"/>
				</g>
				<g>
					<path class="st183" d="M108.4,50.9c0.5,0.1,0.9,0.3,1.3,0.6c0.4,0.3,0.6,0.7,0.8,1.1c0,0.1,0,0.2-0.1,0.2c-0.1,0-0.2,0-0.2-0.1
						c-0.4-0.7-1.2-1-1.9-1c-0.3,0-0.5-0.2-0.5-0.5s0.2-0.5,0.5-0.5C108.3,50.9,108.4,50.9,108.4,50.9L108.4,50.9z"/>
				</g>
				<polygon class="st102" points="101.5,86.4 102,92.3 109.5,90.7 109,85.7 				"/>
				
					<ellipse transform="matrix(0.115 -0.9934 0.9934 0.115 3.8199 181.3386)" class="st205" cx="103.7" cy="88.5" rx="1.5" ry="1.2"/>
				<polygon class="st50" points="105.7,87.6 105.8,88.5 108.5,87.9 108.4,87.3 				"/>
				<polygon class="st50" points="105.8,89.1 105.9,89.8 108.2,89.2 108.2,88.7 				"/>
				<polygon class="st257" points="105.5,86.4 105.2,85.1 106.1,85.1 106.1,86.2 				"/>
				<path class="st205" d="M47.4,69.3c0,3.2,0.7,19.2,4,23.4s-1,0-1,0s-3.9-7.3-4.1-14.6s0.3-11.8,0.9-13.6c0.6-1.8,1.2,2.8,1.2,2.8
					L47.4,69.3z"/>
				<path class="st205" d="M59.2,62.6l1,1.5c0,0,0,0,0,0c0,0.1,0,0.2,0,0.4c0.1,1.7-6.1,24.7-7.4,27.8c0,0,0.5,0.2,0.6,0.4
					c0.1,0.1,3.2-7.4,4.4-11.8c2.7-9.3,3.6-16.9,3.6-16.9C61.5,62.8,60.5,63,59.2,62.6z"/>
				<g>
					<polygon class="st84" points="48.6,91.7 48.6,97.3 56,97.9 56,91.6 					"/>
					
						<ellipse transform="matrix(4.467616e-02 -0.999 0.999 4.467616e-02 -46.3711 140.3712)" class="st205" cx="50.2" cy="94.4" rx="1.3" ry="1"/>
					<polygon class="st50" points="52,93.4 52,94 54.8,94.2 54.8,93.4 					"/>
					<polygon class="st50" points="52,95 51.9,95.7 54.8,96 54.8,95 					"/>
				</g>
				<path class="st241" d="M44.5,35.8c-1.8,0.2-3.4,3-3.7,4c-0.3,1,0,4.2,0,4.2l5.3-7.7L44.5,35.8z"/>
				<path class="st127" d="M52.4,34.4c12,1.4,7.4,16.9,6.7,21.5c-1.3,8.4,1.1,5.8,1,8.5c-0.1,2.3-5.2,13.8-9.8,10.9
					c-4.6-2.9-2.2-8.1-3.2-9.9c-1.1-2-2-2.2-3.9-4c-2.3-2.1-4.4-7-2.8-17C41.7,36.3,47.7,33.9,52.4,34.4z"/>
				<g>
					<path class="st242" d="M47.6,48c0.1,0.9-0.1,1.8-0.3,2.6c-0.1,0.4-0.2,0.8-0.4,1.2c-0.2,0.4-0.3,0.8-0.5,1.3l0,0
						c-0.3,0.5-0.9,0.7-1.4,0.5c-0.5-0.3-0.7-0.9-0.5-1.4c0-0.1,0.1-0.2,0.2-0.2c0.2-0.2,0.5-0.6,0.7-0.9c0.2-0.3,0.4-0.6,0.6-1
						c0.4-0.7,0.7-1.4,0.8-2.1l0,0c0-0.2,0.3-0.4,0.5-0.3C47.5,47.6,47.6,47.8,47.6,48z"/>
				</g>
				<path class="st258" d="M49.2,56.3c1.1,0,3.1-0.9,3.6-1.7"/>
				<line class="st259" x1="43.8" y1="46.2" x2="43.8" y2="47.6"/>
				<line class="st259" x1="50.9" y1="46.2" x2="50.9" y2="47.6"/>
				<path class="st260" d="M41.4,42.8c1.2-1.3,3.1-0.8,3.1-0.8"/>
				<path class="st247" d="M52.4,34.4c-0.4,0-0.7-0.1-1.1-0.1L50,36.8c-0.6,2.5-0.6,5.5-0.6,5.5s3.9-1.6,4.3,0.5s5.4,12.6,0,17
					C48.3,64.1,42,60.2,42,60.2c0.4,0.6,0.8,1.1,1.2,1.5c1.9,1.7,2.9,2,3.9,4c0.3,0.5,0.3,1.2,0.3,2.1c0.7,0.8,3.1,3.3,4.6,2
					c1.8-1.6,5.3-5.7,6.2-4.3c0.4,0.6,0.8,1.2,1.1,1.8c0.5-1.2,0.7-2.1,0.8-2.7c0.1-2.7-2.3-0.1-1-8.5
					C59.8,51.3,64.5,35.8,52.4,34.4z"/>
				<path class="st241" d="M43.8,36.8c-0.7,1.7,4.7,3.6,7.1,1.9c2.4-1.6,6.4,1.5,5.1,4.4c-1.3,2.9,0.9,2.6,1.2,7.1
					c0.3,4.4,0.5-2.6,1.8-4c0.6-0.6,1.5,0.7,0.8,5.4c-0.2,1.5,2.6-5.2,2.3-9.2c-0.3-4-2.9-7.7-6.1-8.8S45.6,32.8,43.8,36.8z"/>
				<path class="st260" d="M53.1,42.8C52,41.5,50,42,50,42"/>
				<g>
					<path class="st246" d="M99.9,66.6c-6-3.5-0.9-15.1,0.4-17.8l-0.4-3.2L95.5,46l-4.9,8.4c0,0-4.8,7.5,0.2,16.5
						c4.9,8.7,9.7,2.9,10.9,1c-0.5-1.3-0.8-2.4-0.3-2.8c0.6-0.5,2.4-0.2,4.2-1.6c0.4-0.4,0.8-0.7,0.9-0.8
						C106.1,66.9,103.7,68.8,99.9,66.6z"/>
					<path class="st246" d="M106.4,66.6C106.4,66.6,106.4,66.6,106.4,66.6C106.4,66.6,106.4,66.6,106.4,66.6z"/>
				</g>
				<path class="st183" d="M106.2,44.4c0.4,5-5.6,3.8-7.9,6.1c-2.2,2.2-0.4,4.3-1,7.7c-0.8,4.7-4.1,3.5-4.1,7.2
					c0,7.2-5.9,6.1-7.7,6.7c-1.5,0.5-0.5-15-0.5-15l0-8.7l2.6-4.8l7.2-4.9l7.6,1.5L106.2,44.4z"/>
				<path class="st251" d="M102.4,40.2l-7.6-1.5l-4.6,3.1c-0.1,0.7,0,1.4,0.4,2.1c2,3.6-3.5,2.2-3.9,5.2c-0.3,2.9,2,4.5,3,4.5
					s-5.5,4.2-2.4,7.5c3.2,3.3,7.8,1.1,8.8-0.3c0,0,0,0,0,0c0,0,0-0.1,0.1-0.1c0.4-0.6,0.8-1.4,1-2.6c0.6-3.4-1.2-5.5,1-7.7
					c2.3-2.3,8.3-1.1,7.9-6.1L102.4,40.2z"/>
				<path class="st261" d="M96.1,97.3c-7.2-1.6-6-11.6-6-11.6s-2.1-7.3-2.1-8s-0.8-3.6,1.9-6.3l0,0c-3,0.1-7.3,2.4-9.7,6
					c-3,4.3-4.3,29.5-3.7,37.3c0.8,10.1,1.6,18.5,1.6,18.5s4.4,9.6,12.7,7.3c0-1-0.2-2-1-3.3c-4.2-7.2,0.2-29.5,1.7-32.5
					S103.3,98.8,96.1,97.3z"/>
				<path class="st237" d="M78.6,80.3c-5,8.2-6.5,20.5-6.8,25.6c-0.3,6.3,1.1,19.8,2.3,22.2c1,1.9,4.4,0.1,4.4-2
					c0-6.7,1.7-18.2,3.6-22.8C83.8,99.2,93,85,90,78.7C87.3,73,81.4,75.6,78.6,80.3z"/>
				<path class="st237" d="M73.6,126.6l1.2,8.4H84c0,0,0-4.2-2.8-6.1c-2.8-1.9-3.4-4.7-3.4-4.7L73.6,126.6z"/>
				<path class="st246" d="M73.6,126.6l1.2,8.4h0.7c-0.3-1.9-0.6-5.3-0.9-9L73.6,126.6z"/>
				<path class="st246" d="M84.3,92.7l-8.5-2.9l-1.4,0.5c-1.7,6.2-2.4,12.3-2.6,15.5c-0.3,6.3,1.1,19.8,2.3,22.2
					c0.2,0.3,0.4,0.6,0.7,0.7c-0.4-4.5-0.8-10-0.9-14c-0.1-2.6,1-12.8,1.4-14.1c0.4-1.2,3.8-3.2,8-5.1L84.3,92.7z"/>
				<path class="st84" d="M86.1,96.6c2.5-5.8,5.9-13.9,3.9-17.9c-2.7-5.7-8.6-3.1-11.5,1.5c-2.7,4.4-5.3,10-6.3,15
					C76.1,96.6,83.1,96.7,86.1,96.6z"/>
				<path class="st112" d="M81.1,96.6c-0.4-8.4,4.6-17.6,7-20.3c-3-2.1-7.2,0.3-9.5,4c-2.7,4.4-5.3,10-6.3,15
					C74.5,96.1,78,96.4,81.1,96.6z"/>
			</g>
		</g>
	</g>
</g>
<g id="Layer_3">
</g>
</svg>
