<?xml version="1.0" encoding="utf-8"?>
<!-- Generator: Adobe Illustrator 21.0.2, SVG Export Plug-In . SVG Version: 6.00 Build 0)  -->
<svg version="1.1" xmlns="http://www.w3.org/2000/svg" xmlns:xlink="http://www.w3.org/1999/xlink" x="0px" y="0px"
	 viewBox="0 0 141.7 141.7" style="enable-background:new 0 0 141.7 141.7;" xml:space="preserve">
<style type="text/css">
	.st0{clip-path:url(#SVGID_2_);fill:#ECEDED;}
	.st1{clip-path:url(#SVGID_2_);fill:#C5E7F4;}
	.st2{clip-path:url(#SVGID_2_);fill:none;stroke:#ECEDED;stroke-width:8;stroke-miterlimit:10;}
	.st3{clip-path:url(#SVGID_2_);fill:#FFFFFF;}
	.st4{clip-path:url(#SVGID_2_);fill:#B3CFD1;}
	.st5{clip-path:url(#SVGID_2_);fill:#BDD5D6;}
	.st6{clip-path:url(#SVGID_2_);fill:#43A9CC;}
	.st7{clip-path:url(#SVGID_2_);fill:#F9E0D7;}
	.st8{clip-path:url(#SVGID_2_);fill:#FAD8D7;}
	.st9{clip-path:url(#SVGID_2_);}
	.st10{fill:#E0A5B3;}
	.st11{clip-path:url(#SVGID_2_);fill:#B3CCDB;}
	.st12{clip-path:url(#SVGID_2_);fill:#3E626D;}
	.st13{clip-path:url(#SVGID_2_);fill:#48727C;}
	.st14{clip-path:url(#SVGID_2_);fill:#C07F8B;}
	.st15{clip-path:url(#SVGID_2_);fill:#EAADB8;}
	.st16{clip-path:url(#SVGID_2_);fill:none;stroke:#D39AA0;stroke-linecap:round;stroke-miterlimit:10;}
	.st17{fill:#EDB7B7;}
	.st18{clip-path:url(#SVGID_2_);fill:none;stroke:#B3CFD1;stroke-width:2;stroke-miterlimit:10;}
	.st19{clip-path:url(#SVGID_2_);fill:none;stroke:#092B33;stroke-width:0.5733;stroke-miterlimit:10;}
	.st20{clip-path:url(#SVGID_2_);fill:#C98B98;}
	.st21{clip-path:url(#SVGID_2_);fill:#B37481;}
	.st22{fill:#3E626D;}
	.st23{clip-path:url(#SVGID_2_);fill:#12576F;}
	.st24{clip-path:url(#SVGID_2_);fill:#156382;}
	.st25{clip-path:url(#SVGID_2_);fill:#1186B9;}
	.st26{clip-path:url(#SVGID_2_);fill:#D9DADB;}
	.st27{clip-path:url(#SVGID_2_);fill:#F6F6F6;}
	.st28{clip-path:url(#SVGID_2_);fill:#D8B2B2;}
	.st29{clip-path:url(#SVGID_2_);fill:#D6ABAB;}
	.st30{fill:#092B33;}
	.st31{clip-path:url(#SVGID_2_);fill:none;stroke:#76585D;stroke-width:4;stroke-linecap:round;stroke-miterlimit:10;}
	.st32{fill:#D39AA0;}
	.st33{clip-path:url(#SVGID_2_);fill:#CADFE0;}
	.st34{clip-path:url(#SVGID_2_);fill:#DB838E;}
	.st35{clip-path:url(#SVGID_2_);fill:#A8BFC1;}
	.st36{clip-path:url(#SVGID_2_);fill:#829A9E;}
	.st37{clip-path:url(#SVGID_2_);fill:#092B33;}
	.st38{clip-path:url(#SVGID_2_);fill:none;stroke:#7F424B;stroke-width:1.1466;stroke-linecap:round;stroke-miterlimit:10;}
	.st39{clip-path:url(#SVGID_2_);fill:none;stroke:#6C4157;stroke-width:2.2931;stroke-miterlimit:10;}
	.st40{clip-path:url(#SVGID_2_);fill:#A86F7E;}
	.st41{clip-path:url(#SVGID_2_);fill:none;stroke:#426970;stroke-width:0.5733;stroke-miterlimit:10;}
	.st42{clip-path:url(#SVGID_2_);fill:none;stroke:#9E6571;stroke-width:5.7329;stroke-linecap:round;stroke-miterlimit:10;}
	.st43{fill:#E9C8B7;}
	.st44{clip-path:url(#SVGID_2_);fill:none;stroke:#B79E92;stroke-width:1.1481;stroke-linecap:round;stroke-miterlimit:10;}
	.st45{clip-path:url(#SVGID_2_);fill:none;stroke:#8BBDC1;stroke-width:1.1481;stroke-linecap:round;stroke-miterlimit:10;}
	.st46{clip-path:url(#SVGID_2_);fill:#D39AA0;}
	.st47{clip-path:url(#SVGID_2_);fill:#CE97A4;}
	.st48{clip-path:url(#SVGID_2_);fill:#DAEFFA;}
	.st49{clip-path:url(#SVGID_2_);fill:none;stroke:#EBA7B3;stroke-miterlimit:10;}
	.st50{fill:#B3CCDB;}
	.st51{clip-path:url(#SVGID_2_);fill:none;stroke:#B3CCDB;stroke-miterlimit:10;}
	.st52{clip-path:url(#SVGID_4_);fill:#C5E7F4;}
	.st53{clip-path:url(#SVGID_4_);fill:#E0D6D3;}
	.st54{clip-path:url(#SVGID_4_);fill:#DBC7C5;}
	.st55{clip-path:url(#SVGID_4_);fill:#CEC1B3;}
	.st56{clip-path:url(#SVGID_4_);fill:#F4EEEA;}
	.st57{clip-path:url(#SVGID_4_);fill:#EEE2DE;}
	.st58{clip-path:url(#SVGID_4_);fill:#B9C4C6;}
	.st59{clip-path:url(#SVGID_4_);fill:#E1E9EA;}
	.st60{clip-path:url(#SVGID_4_);fill:#697C7F;}
	.st61{clip-path:url(#SVGID_4_);fill:#D1B4BA;}
	.st62{clip-path:url(#SVGID_4_);fill:#B9A7AB;}
	.st63{clip-path:url(#SVGID_4_);fill:#3A2F31;}
	.st64{clip-path:url(#SVGID_4_);fill:#253F44;}
	.st65{clip-path:url(#SVGID_4_);fill:#092B33;}
	.st66{clip-path:url(#SVGID_4_);fill:#D9DADB;}
	.st67{clip-path:url(#SVGID_4_);fill:#C6C7C8;}
	.st68{clip-path:url(#SVGID_4_);fill:none;stroke:#1186B9;stroke-width:4;stroke-miterlimit:10;stroke-dasharray:2,3;}
	.st69{clip-path:url(#SVGID_4_);fill:#B37780;}
	.st70{clip-path:url(#SVGID_4_);fill:#C07F8B;}
	.st71{clip-path:url(#SVGID_4_);fill:#A56F79;}
	.st72{clip-path:url(#SVGID_4_);fill:#F6F6F6;}
	.st73{clip-path:url(#SVGID_4_);fill:#B3CCDB;}
	.st74{clip-path:url(#SVGID_4_);fill:#97BBCC;}
	.st75{clip-path:url(#SVGID_4_);fill:#DB838E;}
	.st76{clip-path:url(#SVGID_4_);fill:#184B57;}
	.st77{clip-path:url(#SVGID_4_);fill:none;stroke:#092B33;stroke-width:4;stroke-linecap:round;stroke-miterlimit:10;}
	.st78{clip-path:url(#SVGID_4_);fill:none;stroke:#A55867;stroke-width:3;stroke-linecap:round;stroke-miterlimit:10;}
	.st79{clip-path:url(#SVGID_4_);}
	.st80{fill:#B37780;}
	.st81{clip-path:url(#SVGID_4_);fill:#FFFFFF;}
	.st82{clip-path:url(#SVGID_4_);fill:#1186B9;}
	.st83{clip-path:url(#SVGID_4_);fill:none;stroke:#B3CCDB;stroke-width:0.75;stroke-miterlimit:10;}
	.st84{fill:#FFFFFF;}
	.st85{clip-path:url(#SVGID_4_);fill:#ECEDED;}
	.st86{clip-path:url(#SVGID_4_);fill:none;stroke:#184B57;stroke-width:4;stroke-miterlimit:10;}
	.st87{clip-path:url(#SVGID_6_);fill:#C5E7F4;}
	.st88{clip-path:url(#SVGID_6_);fill:#B9C4C6;}
	.st89{clip-path:url(#SVGID_6_);fill:#FFFFFF;}
	.st90{clip-path:url(#SVGID_6_);}
	.st91{fill:#5B7677;}
	.st92{fill:#446063;}
	.st93{fill:#CFE0E5;}
	.st94{fill:#DFF0F7;}
	.st95{fill:#D9DADB;}
	.st96{fill:none;stroke:#5B7677;stroke-miterlimit:10;}
	.st97{fill:none;stroke:#446063;stroke-width:0.75;stroke-miterlimit:10;}
	.st98{fill:#B9BEC1;}
	.st99{clip-path:url(#SVGID_6_);fill:#DFF0F7;}
	.st100{clip-path:url(#SVGID_6_);fill:#5B7677;}
	.st101{fill:#F9D4CC;}
	.st102{fill:#1186B9;}
	.st103{fill:#DB838E;}
	.st104{opacity:0.5;fill:#DB838E;}
	.st105{opacity:0.3;fill:#EFBBBD;}
	.st106{opacity:0.4;fill:#1186B9;}
	.st107{fill:none;stroke:#DB838E;stroke-width:3;stroke-linecap:round;stroke-miterlimit:10;}
	.st108{fill:none;stroke:#1186B9;stroke-width:4;stroke-linecap:round;stroke-miterlimit:10;}
	.st109{fill:none;stroke:#092B33;stroke-width:4;stroke-miterlimit:10;}
	.st110{fill:#F2C7C7;}
	.st111{fill:none;stroke:#DB838E;stroke-width:4;stroke-miterlimit:10;}
	.st112{fill:#F6F6F6;}
	.st113{fill:#C6C7C8;}
	.st114{fill:#E3E4E4;}
	.st115{fill:#C699A1;}
	.st116{fill:#A38289;}
	.st117{fill:none;stroke:#1186B9;stroke-width:4;stroke-miterlimit:10;stroke-dasharray:2,3;}
	.st118{fill:#ECEDED;}
	.st119{clip-path:url(#SVGID_8_);}
	.st120{opacity:0.3;fill:#F9D4CC;}
	.st121{fill:none;stroke:#C6C7C8;stroke-width:2;stroke-miterlimit:10;}
	.st122{fill:#E9D1D1;}
	.st123{fill:#105168;}
	.st124{fill:#F9D7C8;}
	.st125{fill:#91ADAF;}
	.st126{fill:none;stroke:#D9DADB;stroke-width:3;stroke-miterlimit:10;}
	.st127{fill:#B2838D;}
	.st128{opacity:0.4;fill:#91ADAF;}
	.st129{fill:#FEF3EE;stroke:#092B33;stroke-miterlimit:10;}
	.st130{fill:#D8C4B6;stroke:#092B33;stroke-width:0.75;stroke-miterlimit:10;}
	.st131{fill:#FEF9F8;stroke:#092B33;stroke-width:0.5;stroke-miterlimit:10;}
	.st132{fill:#A5898F;stroke:#092B33;stroke-miterlimit:10;}
	.st133{fill:#1186B9;stroke:#092B33;stroke-width:0.75;stroke-miterlimit:10;}
	.st134{fill:#B3CFD1;stroke:#092B33;stroke-width:0.75;stroke-miterlimit:10;}
	.st135{fill:#B3CFD1;stroke:#092B33;stroke-miterlimit:10;}
	.st136{fill:#F9D7C8;stroke:#092B33;stroke-width:0.5;stroke-miterlimit:10;}
	.st137{opacity:0.5;fill:#B1B3B4;}
	.st138{fill:#F9D7C8;stroke:#092B33;stroke-miterlimit:10;}
	.st139{fill:#3E3D40;stroke:#092B33;stroke-width:0.5;stroke-miterlimit:10;}
	.st140{opacity:0.6;fill:#B1B3B4;}
	.st141{fill:#DFDB00;stroke:#000000;stroke-miterlimit:10;}
	.st142{fill:#5F4C3F;stroke:#000000;stroke-miterlimit:10;}
	.st143{fill:#74C1E8;stroke:#000000;stroke-width:0.5;stroke-miterlimit:10;}
	.st144{fill:none;stroke:#000000;stroke-miterlimit:10;}
	.st145{fill:#FCD5A2;stroke:#000000;stroke-miterlimit:10;}
	.st146{fill:#FCD5A2;stroke:#000000;stroke-width:0.75;stroke-miterlimit:10;}
	.st147{fill:#3E3D40;stroke:#000000;stroke-miterlimit:10;}
	.st148{fill:#FFF7CB;stroke:#000000;stroke-width:0.5;stroke-miterlimit:10;}
	.st149{fill:#FCD5A2;}
	.st150{fill:#DFDB00;stroke:#000000;stroke-width:0.5;stroke-miterlimit:10;}
	.st151{fill:#FCD5A2;stroke:#000000;stroke-width:0.5;stroke-miterlimit:10;}
	.st152{fill:#3E3D40;stroke:#000000;stroke-width:0.5;stroke-miterlimit:10;}
	.st153{fill:#DB838E;stroke:#092B33;stroke-miterlimit:10;}
	.st154{fill:none;stroke:#092B33;stroke-miterlimit:10;}
	.st155{fill:#092B33;stroke:#092B33;stroke-miterlimit:10;}
	.st156{fill:#DFDB00;stroke:#092B33;stroke-width:0.5;stroke-miterlimit:10;}
	.st157{fill:#F9D7C8;stroke:#092B33;stroke-width:0.75;stroke-miterlimit:10;}
	.st158{fill:#B2979C;stroke:#092B33;stroke-width:0.5;stroke-miterlimit:10;}
	.st159{fill:#DB838E;stroke:#092B33;stroke-width:0.5;stroke-miterlimit:10;}
	.st160{fill:#FEF3EE;stroke:#092B33;stroke-width:0.5;stroke-miterlimit:10;}
	.st161{fill:#B2979C;stroke:#092B33;stroke-width:0.75;stroke-miterlimit:10;}
	.st162{fill:none;stroke:#092B33;stroke-width:0.5;stroke-miterlimit:10;}
	.st163{fill:#B3CFD1;stroke:#092B33;stroke-width:0.25;stroke-miterlimit:10;}
	.st164{fill:#B3CFD1;stroke:#092B33;stroke-width:0.5;stroke-miterlimit:10;}
	.st165{fill:#D8C4B6;}
	.st166{fill:#E7C0B8;}
	.st167{fill:none;stroke:#092B33;stroke-width:0.75;stroke-linecap:round;stroke-miterlimit:10;}
	.st168{fill:none;stroke:#B3CCDB;stroke-width:0.75;stroke-miterlimit:10;}
	.st169{fill:none;stroke:#DB838E;stroke-width:4.7096;stroke-miterlimit:10;}
	.st170{opacity:0.6;}
	.st171{fill:none;stroke:#EAB9B9;stroke-width:1.4504;stroke-linecap:round;stroke-miterlimit:10;}
	.st172{opacity:0.2;fill:#EAB9B9;}
	.st173{fill:#AA9498;}
	.st174{opacity:0.5;fill:#8F797D;}
	.st175{fill:#8F797D;}
	.st176{fill:#DBBDBD;}
	.st177{fill:#9C9E9F;}
	.st178{fill:#0B72B5;}
	.st179{fill:none;stroke:#1186B9;stroke-width:2.7092;stroke-miterlimit:10;}
	.st180{fill:#58585A;}
	.st181{fill:none;stroke:#C6C7C8;stroke-miterlimit:10;}
	.st182{fill:none;stroke:#B3CCDB;stroke-width:2;stroke-miterlimit:10;}
	.st183{fill:#2D6282;}
	.st184{fill:#55B0C7;}
	.st185{fill:#4297A8;}
	.st186{fill:#45ABCA;}
	.st187{fill:#A4D9E7;}
	.st188{fill:#3E91B2;}
	.st189{fill:#47BDD4;}
	.st190{fill:#62C3DA;}
	.st191{fill:#2B7191;}
	.st192{fill:#1B5E82;}
	.st193{fill:#29B6D2;}
	.st194{fill:#163D44;}
	.st195{fill:#12576F;}
	.st196{fill:#007FAA;}
	.st197{fill:#4F696D;}
	.st198{fill:#9BD5E4;}
	.st199{fill:#253F44;}
	.st200{fill:#E3D6CF;}
	.st201{fill:#C6B9B3;}
	.st202{fill:#87888A;}
	.st203{fill:none;stroke:#D9DADB;stroke-width:2;stroke-miterlimit:10;}
	.st204{fill:none;stroke:#D9DADB;stroke-width:0.5187;stroke-miterlimit:10;}
	.st205{fill:#E6F4F6;}
	.st206{fill:#DEF0F9;}
	.st207{clip-path:url(#SVGID_10_);}
	.st208{fill:#CFCFCF;}
	.st209{clip-path:url(#SVGID_12_);}
	.st210{fill:#898989;}
	.st211{fill:#F1F1F1;}
	.st212{fill:#020202;}
	.st213{fill:#888888;}
	.st214{fill:#3A3A3A;}
	.st215{clip-path:url(#SVGID_14_);}
	.st216{clip-path:url(#SVGID_16_);}
	.st217{fill:#959595;}
	.st218{fill:#DADADA;}
	.st219{fill:#C4C4C4;}
	.st220{fill:none;stroke:#4B4B4B;stroke-width:0.1536;stroke-miterlimit:10;}
	.st221{opacity:0.6;fill:#B3CCDB;}
	.st222{opacity:0.7;fill:#C7DBE5;}
	.st223{clip-path:url(#SVGID_18_);}
	.st224{fill:#A3A3A3;}
	.st225{fill:#DEDEDE;}
	.st226{fill:none;stroke:#B8B8B8;stroke-width:0.3139;stroke-linecap:round;stroke-miterlimit:10;}
	.st227{opacity:0.2;fill:#C1C1C1;}
	.st228{clip-path:url(#SVGID_20_);}
	.st229{fill:#C5C5C5;}
	.st230{fill:#A5A5A5;}
	.st231{clip-path:url(#SVGID_22_);}
	.st232{fill:#F2F2F2;}
	.st233{fill:#BCBCBC;}
	.st234{clip-path:url(#SVGID_24_);}
	.st235{fill:#4B4B4B;}
	.st236{fill:#787878;}
	.st237{clip-path:url(#SVGID_26_);}
	.st238{fill:#FADBDB;}
	.st239{fill:none;stroke:#E5AEB9;stroke-width:0.3469;stroke-linecap:round;stroke-miterlimit:10;}
	.st240{opacity:0.2;fill:#E8BAC4;}
	.st241{clip-path:url(#SVGID_28_);}
	.st242{fill:#663854;}
	.st243{fill:#865462;}
	.st244{clip-path:url(#SVGID_30_);}
	.st245{clip-path:url(#SVGID_32_);}
	.st246{fill:none;stroke:#2D6282;stroke-width:0.1757;stroke-miterlimit:10;}
	.st247{fill:#F8CCCD;}
	.st248{fill:#A17986;}
	.st249{clip-path:url(#SVGID_34_);}
	.st250{fill:#041A1E;}
	.st251{fill:#9DBAC6;}
	.st252{fill:#377493;}
	.st253{fill:#A7C3D1;}
	.st254{fill:#0A81AA;}
	.st255{fill:none;stroke:#E5AEB9;stroke-width:1.3147;stroke-linecap:round;stroke-miterlimit:10;}
	.st256{fill:none;stroke:#1186B9;stroke-width:0.6798;stroke-linecap:round;stroke-miterlimit:10;}
	.st257{fill:none;stroke:#E5AEB9;stroke-width:0.4532;stroke-linecap:round;stroke-miterlimit:10;}
	.st258{fill:#B1B3B4;}
	.st259{fill:none;stroke:#9E6C79;stroke-width:0.9065;stroke-linecap:round;stroke-miterlimit:10;}
	.st260{fill:none;stroke:#092B33;stroke-width:0.9065;stroke-linecap:round;stroke-miterlimit:10;}
	.st261{fill:none;stroke:#663854;stroke-width:2.0929;stroke-linecap:round;stroke-miterlimit:10;}
	.st262{fill:#CF7987;}
	.st263{fill:#B27A83;}
</style>
<g id="Layer_1">
</g>
<g id="Layer_2">
	<g>
		<path class="st204" d="M137,129.5c0,5.5-4.5,10-10,10H14.7c-5.5,0-10-4.5-10-10V17.2c0-5.5,4.5-10,10-10H127c5.5,0,10,4.5,10,10
			V129.5z"/>
		<path class="st205" d="M14.7,135c-3,0-5.5-2.5-5.5-5.5V17.2c0-3,2.5-5.5,5.5-5.5H127c3,0,5.5,2.5,5.5,5.5v112.3
			c0,3-2.5,5.5-5.5,5.5H14.7z"/>
		<g>
			<path class="st112" d="M29.2,45l-7.3,78.8c0,0,54.4,6.7,54.4,6.3c0-0.4,6.2-65.6,3.8-76.4L29.2,45z"/>
			<polygon class="st221" points="31.2,92.6 30.2,96.8 59.5,100.6 60.1,95.7 			"/>
			<polygon class="st221" points="29.4,106.7 28.8,111.2 58.7,115.1 59.1,111.7 			"/>
			<polygon class="st221" points="30.3,99.4 29.8,103.1 44,104.9 44.3,102.5 			"/>
			<polygon class="st221" points="28.7,114.5 28.3,117.8 39,118.8 39,115.8 			"/>
			<polygon class="st221" points="42.5,116.3 41.8,119.5 57.9,121 58.3,118.3 			"/>
			<g>
				<path class="st50" d="M37.7,52.8c-1.5-0.2-3,0.9-3.1,2.5l-2.9,24.9c-0.2,1.5,0.9,2.9,2.5,3.1l33.3,3c1.6,0.1,3.1-1,3.3-2.5
					l4.3-23.3c0.3-1.5-0.7-2.9-2.3-3.1L37.7,52.8z"/>
			</g>
		</g>
		<polygon class="st222" points="37.6,46.5 35.1,46.1 31.8,122.8 76.5,127 77,122.5 		"/>
		<g>
			<path class="st112" d="M37.6,39.4l-0.2,81.9c0,0,56.7,1.8,56.7,1.5c0-0.4,0.3-68.2-3.1-79.1L37.6,39.4z"/>
			<path class="st50" d="M44,87.1c-1.1,0-1.9-0.8-1.9-1.8l1.4-34.7c0-0.9,0.9-1.7,2-1.6l40.1,1.6c1.1,0,1.9,0.8,1.9,1.8l-1.4,34.7
				c0,0.9-0.9,1.7-2,1.6L44,87.1z"/>
			<polygon class="st221" points="44.3,93.6 44.3,98.6 80.7,99.5 80.7,95 			"/>
			<polygon class="st221" points="44.3,103.1 44,107.9 78.3,107.9 78.5,104.9 			"/>
		</g>
		<polygon class="st222" points="47.9,40.2 46.2,40.1 53.3,115.9 94.3,112.1 94.4,95.3 		"/>
		<g>
			<path class="st84" d="M45.6,22.6l11.6,89.8c0,0,62.4-6.2,62.3-6.6s-9.6-74.8-14.9-86.2L45.6,22.6z"/>
			<polygon class="st102" points="63.1,74.1 63.8,78.7 109.3,73.5 109.1,68.9 			"/>
			<polygon class="st102" points="66.4,90.1 66.4,95 112.1,89.9 111.7,86.1 			"/>
			<polygon class="st50" points="64.9,81.3 65.3,85.6 81.5,84.1 81.3,81.3 			"/>
			<polygon class="st50" points="66.9,97.8 67.2,101.6 79.4,100 78.7,96.7 			"/>
			<polygon class="st50" points="82.8,96.3 85.2,99.5 112.7,96.7 112.1,93.6 			"/>
			<path class="st102" d="M87.1,38.6L86.2,38l0,0c0,0,0,0,0,0c-0.3-0.2-0.9-0.5-1.3-0.5c-0.3,0-1,0.5-1.4,1.3
				c-0.2,0.4-0.2,0.8-0.1,0.9c0.1,0.1,0.2,0.1,0.3,0.1c0.7,0,1.5,0.4,1.8,0.9c0.3,0.5,0.5,1.3,0.5,1.8c0,0.6-0.4,1.2-0.9,1.3
				c-0.7,0.1-1.8-1-2.5-1.8c-0.9-1.1-1.8-1.7-2.1-1.7h-1.3c-0.4,0-0.8-0.5-0.8-1c0-0.3-0.4-0.6-0.8-0.6c-0.5,0-1.3-0.2-1.6-0.3
				c-0.2-0.1-0.8-0.2-1.5-0.2c-0.5,0-1.2,0.3-1.4,0.6C73,38.9,73,39,73,39.1c0.1,0.2,0.3,0.3,0.6,0.4c0.6,0.2,1.3,0.6,1.5,1
				c0.1,0.3,0.2,0.8,0.2,1.1c0,0.8-2.4,0.8-2.7,0.8h-1.3c-0.2,0.7-0.6,1.5-1.1,1.5c-0.3,0-0.8,0.3-1,0.6c-0.1,0.1-0.2,0.3-0.4,0.5
				l0.6,0.4c0.4,0.3,0.8,0.9,0.8,1.4c0,0.3,0.1,0.9,0.2,1.2c0.1,0.3,0.3,0.5,0.3,0.5l1,0c0.6,0,1,0.5,1,1.1c0,0.5-0.4,1.4-0.8,1.9
				c-0.4,0.4-0.8,1.3-1,1.9c-0.1,0.6-0.1,1.5,0,2c0.1,0.5,0.3,0.7,0.4,0.8c0.2,0,0.5,0.2,0.6,0.4c0.2,0.2,0.2,0.6,0.1,0.9
				c0,0.1,0,0.3,0.2,0.5c0.2,0.3,0.8,1,1.2,1.7c0.2,0.3,0.4,0.4,0.5,0.4c0.2,0,0.3-0.2,0.3-0.4c0.1-0.3,0.6-1.4,1.1-1.4
				c0.3,0,0.6,0.4,0.6,0.9c0,0.1,0,0.1,0.1,0.1c0.1,0.1,0.2,0.1,0.5,0c0.4-0.1,0.6-0.3,0.7-0.4c0-0.4,0.6-0.6,1.2-0.6
				c0.6,0,1.3,0.4,1.5,0.9c0.2,0.4,0.3,0.9,0.3,1.2c0,0.1,0.1,0.1,0.1,0.1c0.3,0,0.8,0.2,1.3,0.5c0.3,0.2,0.9,0,1.3-0.3
				c0.5-0.4,1.5-0.9,2.3-1.1c0.5-0.1,1.6-0.2,2,0.1l0.6,0.6c0.1,0.1,0.6,0.4,1.1,0.7c0.4,0.2,0.9,0,1.1-0.4c0.3-0.4,0.5-1.4,0.5-2.1
				c0-0.5,0.2-1,0.5-1.2c0.2-0.2,0.5-0.2,0.7-0.1c0,0,0.1,0,0.2,0c0.2-0.1,0.6-0.6,0.7-1.3c0.2-1.2,0.9-2,1.5-1.9
				c0.6,0.1,1.1,0.5,1.1,0.9c0,0.2,0.2,0.3,0.4,0.3c0.5,0,1,0.6,1.2,1.1c0.1,0.3,0.3,0.5,0.4,0.5c0.2-0.1,0.4-0.6,0.4-1.2
				c0-0.8,0.3-1.4,0.8-1.4c0.2,0,1-0.3,1.9-0.8c0.6-0.3,1.7-0.8,2.1-0.8c0.1,0,0.3-0.3,0.4-0.9c0.1-0.5-0.2-1.3-0.5-1.6
				c-0.4-0.3-1.1-0.6-1.6-0.6c-0.5,0-1.5,0-2.2,0.1c-0.7,0.1-1.5,0-1.8-0.2c-0.2-0.1-0.8-0.3-1.5-0.4c-0.6-0.1-1.9-0.1-2.6,0
				c-0.9,0.1-2-0.5-2.4-1.4c-0.4-0.9-0.5-2-0.2-2.6c0.2-0.5,0.3-1.2,0.3-1.4c-0.1-0.2-0.6-0.9-1.5-1.7c-0.7-0.6-1.4-1.6-1.1-2.2
				C87.7,39.4,87.5,38.9,87.1,38.6z"/>
			<path class="st50" d="M73.7,28.9H74v0.6c0,0.3,0.2,0.8,0.6,1.2c0.4,0.5,0.6,1.2,0.4,1.6c-0.1,0.2-0.2,0.3-0.4,0.3
				c-0.4,0.1-1-0.1-1.6-0.5c-0.7-0.5-2-0.9-2.7-0.9c-0.8,0-1.6,0.3-1.7,0.5c-0.3,0.4-0.8,0.8-1.3,0.9c-0.1,0-0.2,0.1-0.2,0.2
				c-0.1,0.1-0.1,0.3,0,0.5c0.1,0.4,0.6,0.7,1,0.7c0.5,0.1,0.9,0,1-0.1c0.1,0,0.2-0.1,0.3-0.1c0.4,0,0.8,0.5,1.1,0.9
				c0.4,0.6,0.9,1.1,1.1,1.2c0.2,0.1,0.5,0.2,0.6,0.2c0.5,0,0.8,1.1,0.8,1.2l0.1,0.6c0.4-0.3,1-0.5,1.5-0.5c0.6,0,1.4,0.1,1.7,0.2
				c0.2,0.1,0.8,0.2,1.4,0.3c0.7,0.1,1.3,0.6,1.3,1.1c0,0.3,0.2,0.5,0.3,0.5h1.3c0.6,0,1.7,1,2.5,1.9c0.9,1.1,1.8,1.6,2,1.6
				c0.3-0.1,0.5-0.4,0.5-0.8c0-0.4-0.2-1.1-0.4-1.6c-0.2-0.4-0.8-0.7-1.4-0.7c-0.3,0-0.6-0.1-0.7-0.4c-0.2-0.3-0.2-0.9,0.1-1.4
				c0.4-0.8,1.2-1.6,1.8-1.6c0.5,0,1.2,0.3,1.6,0.6l0,0l0,0c0,0,0,0,0.1,0c0.3,0,0.8-0.5,1.2-1.2c0.3-0.5,0.4-1.1,0.3-1.5
				c-0.1-0.2-0.2-0.4-0.4-0.6c-0.8-0.4-1.4-1.2-1.4-1.8c0-0.5,0.3-1.4,0.6-2c0.3-0.5,0.5-1.2,0.5-1.6l0-0.8l0.3,0L73.7,28.9z"/>
			<path class="st50" d="M95.9,63.4c-0.3-0.3-0.7-0.9-0.7-1.3c0-0.2,0.1-0.3,0.2-0.4c0.2-0.2,0.7-0.3,1.3-0.2c0.4,0.1,0.7,0,0.8,0
				c0-0.1-0.2-0.3-0.3-0.5c-0.2-0.2-0.5-0.5-0.7-0.6C96.3,60.3,96,60,96,59.8v-1.2c0-0.6,0.3-1.2,0.7-1.5l0.2-0.1
				c-0.2-0.1-0.3-0.3-0.4-0.6c-0.2-0.5-0.6-0.8-0.8-0.8c-0.5,0-0.9-0.4-0.9-0.8c0-0.1-0.3-0.4-0.7-0.4c-0.3,0-0.8,0.5-1,1.5
				c-0.1,0.8-0.5,1.4-0.9,1.6c-0.2,0.1-0.4,0.2-0.6,0.1c-0.1,0-0.2,0-0.3,0C91.1,57.7,91,58,91,58.4c0,0.8-0.2,1.9-0.6,2.4
				c-0.4,0.6-1.1,0.8-1.7,0.6c-0.5-0.2-1-0.6-1.2-0.8L86.8,60c-0.1-0.1-0.7-0.1-1.5,0c-0.7,0.2-1.7,0.6-2.1,1
				c-0.3,0.3-0.8,0.5-1.3,0.5c-0.2,0-0.4,0-0.6-0.1c-0.4-0.2-0.9-0.4-1-0.4c-0.3,0-0.6-0.3-0.6-0.6c0-0.2-0.1-0.6-0.3-1
				c-0.1-0.3-0.6-0.6-1.1-0.6c-0.4,0-0.7,0.1-0.7,0.2c0,0.4-0.5,0.7-1,0.9c-0.3,0.1-0.7,0.1-0.9-0.1c-0.2-0.1-0.3-0.3-0.3-0.5
				c0-0.2,0-0.3-0.1-0.4c-0.1,0.1-0.4,0.5-0.6,1.1c-0.2,0.4-0.4,0.6-0.8,0.7c-0.4,0-0.7-0.2-1-0.6c-0.4-0.7-1-1.4-1.2-1.7
				c-0.2-0.3-0.4-0.7-0.3-1c0-0.1,0-0.2-0.1-0.4c-0.1-0.1-0.2-0.2-0.3-0.2c-0.4,0-0.7-0.8-0.8-1.2c-0.2-0.6-0.2-1.6,0-2.3
				c0.2-0.7,0.7-1.6,1.1-2.1c0.4-0.4,0.7-1.1,0.7-1.5c0-0.3-0.2-0.6-0.5-0.6h-1c-0.4,0-0.6-0.5-0.8-0.8c-0.1-0.4-0.2-1-0.2-1.4
				c0-0.2-0.2-0.7-0.6-1l-0.7-0.5c-0.3,0.2-0.5,0.4-0.8,0.5c-0.2,0.1-0.3,0.2-0.4,0.4c-0.1,0.2,0,0.5,0.2,0.8c0.5,0.7,0.5,1.7,0,2.2
				c-0.5,0.5-1.4,0.9-2.2,0.9c-0.6,0-1.3,0.7-1.4,1.5c-0.2,0.9-0.8,2.2-1.3,2.8c-0.5,0.5-0.8,1.2-0.8,1.5c0,0.5-0.3,0.9-0.7,0.9
				c-0.1,0-0.7,0.4-1.3,1L59,58.3l1,6.1c0.2,1.5,1.7,2.7,3.3,2.5l33.1-3.1C96.2,63.8,96.1,63.6,95.9,63.4z"/>
			<path class="st50" d="M59.3,57.3c0.4-0.4,1.2-1.1,1.6-1.1c0.1,0,0.2-0.2,0.2-0.4c0-0.5,0.5-1.3,0.9-1.8c0.4-0.5,1-1.7,1.2-2.6
				c0.2-1,1.1-1.8,1.9-1.8c0.7,0,1.5-0.3,1.9-0.7c0.3-0.4,0.3-1.1,0-1.6c-0.2-0.4-0.3-0.8-0.2-1.2c0.1-0.3,0.3-0.6,0.6-0.8
				c0.5-0.3,1.2-0.8,1.4-1.1c0.3-0.5,0.9-0.8,1.4-0.8c0.2,0,0.6-0.5,0.7-1.2l0-0.2h1.8c1.3,0,2.1-0.3,2.2-0.4c0-0.2-0.1-0.7-0.2-0.9
				c-0.1-0.1-0.5-0.5-1.2-0.7c-0.4-0.1-0.8-0.4-0.9-0.7c-0.1-0.2,0-0.4,0-0.6l-0.2-1c-0.1-0.5-0.3-0.8-0.4-0.9
				c-0.2,0-0.6-0.1-0.8-0.3c-0.3-0.2-0.9-0.8-1.3-1.3c-0.3-0.4-0.6-0.7-0.7-0.7c-0.3,0.2-0.9,0.2-1.3,0.2c-0.6-0.1-1.2-0.5-1.4-1.1
				c-0.1-0.3-0.1-0.6,0.1-0.9c0.1-0.2,0.3-0.4,0.6-0.4c0.3-0.1,0.8-0.4,1-0.7c0.3-0.5,1.3-0.8,2.2-0.8c0.9,0,2.2,0.4,3,1
				c0.5,0.4,1,0.5,1.2,0.4c0.1,0,0.1,0,0.1,0c0.1-0.2,0-0.7-0.3-1.1c-0.4-0.4-0.7-1.1-0.7-1.5V29l-16.2,0.8
				c-1.6,0.1-2.6,1.4-2.4,2.9l4,24.9L59.3,57.3z"/>
			<path class="st50" d="M106,60.2l-4.3-29.8c-0.2-1.5-1.7-2.7-3.2-2.7l-10.8,0.6l0,0.8c0,0.5-0.2,1.3-0.6,1.9
				c-0.3,0.5-0.5,1.3-0.5,1.7c0,0.3,0.5,1,1.2,1.3c0.3,0.2,0.6,0.5,0.7,0.9c0.2,0.6,0,1.3-0.3,1.9c-0.4,0.6-0.8,1-1.2,1.3l0.4,0.3
				c0.6,0.4,0.9,1.2,0.7,1.7c-0.1,0.2,0.3,1,1,1.6c0.7,0.6,1.5,1.5,1.6,1.9c0.1,0.4-0.1,1.2-0.3,1.7c-0.2,0.5-0.1,1.5,0.2,2.2
				c0.3,0.7,1.2,1.2,1.9,1.1c0.8-0.1,2.1-0.1,2.8,0c0.6,0.1,1.4,0.3,1.7,0.5c0.1,0.1,0.8,0.2,1.5,0.1c0.7-0.1,1.7-0.1,2.2-0.1
				c0.6,0,1.4,0.3,1.9,0.7c0.5,0.4,0.8,1.3,0.7,2.1c-0.1,0.7-0.4,1.3-0.9,1.3c0,0,0,0,0,0c-0.2,0-1,0.3-1.9,0.7
				c-0.8,0.4-1.8,0.8-2.1,0.8c-0.1,0-0.3,0.3-0.3,0.9c0,0.6-0.2,1.4-0.6,1.6c-0.1,0.1-0.2,0.1-0.3,0.1l-0.4,0.3
				c-0.2,0.1-0.5,0.6-0.5,1.1v1.2c0,0,0.1,0.2,0.3,0.2c0.2,0.1,0.6,0.4,0.9,0.7c0.2,0.2,0.5,0.6,0.5,0.9c0,0.1,0,0.2-0.1,0.3
				c-0.3,0.3-1.1,0.2-1.3,0.1c-0.5-0.1-0.8,0.1-0.9,0.1c0,0.2,0.2,0.7,0.5,1c0.2,0.2,0.4,0.5,0.5,0.8l6.7-0.6
				C105.1,63.1,106.2,61.7,106,60.2z"/>
		</g>
		<g>
			<path class="st184" d="M93.7,28.9c0,5.3-9.6,17-9.6,17s-9.6-11.6-9.6-17s4.3-9.6,9.6-9.6S93.7,23.5,93.7,28.9z"/>
			<ellipse transform="matrix(0.7071 -0.7071 0.7071 0.7071 4.28 67.8299)" class="st183" cx="84" cy="28.7" rx="4" ry="4"/>
		</g>
	</g>
</g>
<g id="Layer_3">
</g>
</svg>
