<?xml version="1.0" encoding="utf-8"?>
<!-- Generator: Adobe Illustrator 21.0.2, SVG Export Plug-In . SVG Version: 6.00 Build 0)  -->
<svg version="1.1" id="Layer_1" xmlns="http://www.w3.org/2000/svg" xmlns:xlink="http://www.w3.org/1999/xlink" x="0px" y="0px"
	 viewBox="0 0 201.8 200" style="enable-background:new 0 0 201.8 200;" xml:space="preserve">
<style type="text/css">
	.st0{fill:#2C6182;}
	.st1{fill:#54B1C8;}
	.st2{fill:#4296A6;}
	.st3{fill:#A2DCEA;}
	.st4{fill:#DEFAFF;}
	.st5{fill:#FFFFFF;}
	.st6{fill:#DCDDDE;}
</style>
<g>
	<rect class="st4" width="201.8" height="200"/>
	<path class="st3" d="M118.2,112.1H83.6c-14.9,0-28.7,4.9-39.8,13.1V200h114.3v-74.8C146.9,116.9,133.1,112.1,118.2,112.1z"/>
	<path class="st5" d="M16.6,179v21h27.1v-74.8C27.3,137.4,16.6,157,16.6,179z"/>
	<path class="st5" d="M185.2,179c0-22.1-10.7-41.6-27.1-53.8V200h27.1V179z"/>
	<path class="st6" d="M137.9,64.1c0-22.9-13.9-39.1-36.7-39.3c-19.3-0.1-35.1,14.4-37,33.5c-1.9,18.9,5.8,37.5,20.3,45.5
		c1.4,0.8,2.3,2.2,2.3,3.8l0,0c0,2.4-2,4.4-4.4,4.4h-1.6c0,0,0,27.6,20.1,27.6S121,112,121,112h-1.4c-2.4,0-4.4-2-4.4-4.4v-0.1
		c0-1.6,0.9-3,2.2-3.8C130.4,96.6,137.9,80.9,137.9,64.1z"/>
</g>
</svg>
