<?xml version="1.0" encoding="utf-8"?>
<!-- Generator: Adobe Illustrator 21.0.2, SVG Export Plug-In . SVG Version: 6.00 Build 0)  -->
<svg version="1.1" xmlns="http://www.w3.org/2000/svg" xmlns:xlink="http://www.w3.org/1999/xlink" x="0px" y="0px"
	 viewBox="0 0 141.7 141.7" style="enable-background:new 0 0 141.7 141.7;" xml:space="preserve">
<style type="text/css">
	.st0{clip-path:url(#SVGID_2_);fill:#ECEDED;}
	.st1{clip-path:url(#SVGID_2_);fill:#C5E7F4;}
	.st2{clip-path:url(#SVGID_2_);fill:none;stroke:#ECEDED;stroke-width:8;stroke-miterlimit:10;}
	.st3{clip-path:url(#SVGID_2_);fill:#FFFFFF;}
	.st4{clip-path:url(#SVGID_2_);fill:#B3CFD1;}
	.st5{clip-path:url(#SVGID_2_);fill:#BDD5D6;}
	.st6{clip-path:url(#SVGID_2_);fill:#43A9CC;}
	.st7{clip-path:url(#SVGID_2_);fill:#F9E0D7;}
	.st8{clip-path:url(#SVGID_2_);fill:#FAD8D7;}
	.st9{clip-path:url(#SVGID_2_);}
	.st10{fill:#E0A5B3;}
	.st11{clip-path:url(#SVGID_2_);fill:#B3CCDB;}
	.st12{clip-path:url(#SVGID_2_);fill:#3E626D;}
	.st13{clip-path:url(#SVGID_2_);fill:#48727C;}
	.st14{clip-path:url(#SVGID_2_);fill:#C07F8B;}
	.st15{clip-path:url(#SVGID_2_);fill:#EAADB8;}
	.st16{clip-path:url(#SVGID_2_);fill:none;stroke:#D39AA0;stroke-linecap:round;stroke-miterlimit:10;}
	.st17{fill:#EDB7B7;}
	.st18{clip-path:url(#SVGID_2_);fill:none;stroke:#B3CFD1;stroke-width:2;stroke-miterlimit:10;}
	.st19{clip-path:url(#SVGID_2_);fill:none;stroke:#092B33;stroke-width:0.5733;stroke-miterlimit:10;}
	.st20{clip-path:url(#SVGID_2_);fill:#C98B98;}
	.st21{clip-path:url(#SVGID_2_);fill:#B37481;}
	.st22{fill:#3E626D;}
	.st23{clip-path:url(#SVGID_2_);fill:#12576F;}
	.st24{clip-path:url(#SVGID_2_);fill:#156382;}
	.st25{clip-path:url(#SVGID_2_);fill:#1186B9;}
	.st26{clip-path:url(#SVGID_2_);fill:#D9DADB;}
	.st27{clip-path:url(#SVGID_2_);fill:#F6F6F6;}
	.st28{clip-path:url(#SVGID_2_);fill:#D8B2B2;}
	.st29{clip-path:url(#SVGID_2_);fill:#D6ABAB;}
	.st30{fill:#092B33;}
	.st31{clip-path:url(#SVGID_2_);fill:none;stroke:#76585D;stroke-width:4;stroke-linecap:round;stroke-miterlimit:10;}
	.st32{fill:#D39AA0;}
	.st33{clip-path:url(#SVGID_2_);fill:#CADFE0;}
	.st34{clip-path:url(#SVGID_2_);fill:#DB838E;}
	.st35{clip-path:url(#SVGID_2_);fill:#A8BFC1;}
	.st36{clip-path:url(#SVGID_2_);fill:#829A9E;}
	.st37{clip-path:url(#SVGID_2_);fill:#092B33;}
	.st38{clip-path:url(#SVGID_2_);fill:none;stroke:#7F424B;stroke-width:1.1466;stroke-linecap:round;stroke-miterlimit:10;}
	.st39{clip-path:url(#SVGID_2_);fill:none;stroke:#6C4157;stroke-width:2.2931;stroke-miterlimit:10;}
	.st40{clip-path:url(#SVGID_2_);fill:#A86F7E;}
	.st41{clip-path:url(#SVGID_2_);fill:none;stroke:#426970;stroke-width:0.5733;stroke-miterlimit:10;}
	.st42{clip-path:url(#SVGID_2_);fill:none;stroke:#9E6571;stroke-width:5.7329;stroke-linecap:round;stroke-miterlimit:10;}
	.st43{fill:#E9C8B7;}
	.st44{clip-path:url(#SVGID_2_);fill:none;stroke:#B79E92;stroke-width:1.1481;stroke-linecap:round;stroke-miterlimit:10;}
	.st45{clip-path:url(#SVGID_2_);fill:none;stroke:#8BBDC1;stroke-width:1.1481;stroke-linecap:round;stroke-miterlimit:10;}
	.st46{clip-path:url(#SVGID_2_);fill:#D39AA0;}
	.st47{clip-path:url(#SVGID_2_);fill:#CE97A4;}
	.st48{clip-path:url(#SVGID_2_);fill:#DAEFFA;}
	.st49{clip-path:url(#SVGID_2_);fill:none;stroke:#EBA7B3;stroke-miterlimit:10;}
	.st50{fill:#B3CCDB;}
	.st51{clip-path:url(#SVGID_2_);fill:none;stroke:#B3CCDB;stroke-miterlimit:10;}
	.st52{clip-path:url(#SVGID_4_);fill:#C5E7F4;}
	.st53{clip-path:url(#SVGID_4_);fill:#E0D6D3;}
	.st54{clip-path:url(#SVGID_4_);fill:#DBC7C5;}
	.st55{clip-path:url(#SVGID_4_);fill:#CEC1B3;}
	.st56{clip-path:url(#SVGID_4_);fill:#F4EEEA;}
	.st57{clip-path:url(#SVGID_4_);fill:#EEE2DE;}
	.st58{clip-path:url(#SVGID_4_);fill:#B9C4C6;}
	.st59{clip-path:url(#SVGID_4_);fill:#E1E9EA;}
	.st60{clip-path:url(#SVGID_4_);fill:#697C7F;}
	.st61{clip-path:url(#SVGID_4_);fill:#D1B4BA;}
	.st62{clip-path:url(#SVGID_4_);fill:#B9A7AB;}
	.st63{clip-path:url(#SVGID_4_);fill:#3A2F31;}
	.st64{clip-path:url(#SVGID_4_);fill:#253F44;}
	.st65{clip-path:url(#SVGID_4_);fill:#092B33;}
	.st66{clip-path:url(#SVGID_4_);fill:#D9DADB;}
	.st67{clip-path:url(#SVGID_4_);fill:#C6C7C8;}
	.st68{clip-path:url(#SVGID_4_);fill:none;stroke:#1186B9;stroke-width:4;stroke-miterlimit:10;stroke-dasharray:2,3;}
	.st69{clip-path:url(#SVGID_4_);fill:#B37780;}
	.st70{clip-path:url(#SVGID_4_);fill:#C07F8B;}
	.st71{clip-path:url(#SVGID_4_);fill:#A56F79;}
	.st72{clip-path:url(#SVGID_4_);fill:#F6F6F6;}
	.st73{clip-path:url(#SVGID_4_);fill:#B3CCDB;}
	.st74{clip-path:url(#SVGID_4_);fill:#97BBCC;}
	.st75{clip-path:url(#SVGID_4_);fill:#DB838E;}
	.st76{clip-path:url(#SVGID_4_);fill:#184B57;}
	.st77{clip-path:url(#SVGID_4_);fill:none;stroke:#092B33;stroke-width:4;stroke-linecap:round;stroke-miterlimit:10;}
	.st78{clip-path:url(#SVGID_4_);fill:none;stroke:#A55867;stroke-width:3;stroke-linecap:round;stroke-miterlimit:10;}
	.st79{clip-path:url(#SVGID_4_);}
	.st80{fill:#B37780;}
	.st81{clip-path:url(#SVGID_4_);fill:#FFFFFF;}
	.st82{clip-path:url(#SVGID_4_);fill:#1186B9;}
	.st83{clip-path:url(#SVGID_4_);fill:none;stroke:#B3CCDB;stroke-width:0.75;stroke-miterlimit:10;}
	.st84{fill:#FFFFFF;}
	.st85{clip-path:url(#SVGID_4_);fill:#ECEDED;}
	.st86{clip-path:url(#SVGID_4_);fill:none;stroke:#184B57;stroke-width:4;stroke-miterlimit:10;}
	.st87{clip-path:url(#SVGID_6_);fill:#C5E7F4;}
	.st88{clip-path:url(#SVGID_6_);fill:#B9C4C6;}
	.st89{clip-path:url(#SVGID_6_);fill:#FFFFFF;}
	.st90{clip-path:url(#SVGID_6_);}
	.st91{fill:#5B7677;}
	.st92{fill:#446063;}
	.st93{fill:#CFE0E5;}
	.st94{fill:#DFF0F7;}
	.st95{fill:#D9DADB;}
	.st96{fill:none;stroke:#5B7677;stroke-miterlimit:10;}
	.st97{fill:none;stroke:#446063;stroke-width:0.75;stroke-miterlimit:10;}
	.st98{fill:#B9BEC1;}
	.st99{clip-path:url(#SVGID_6_);fill:#DFF0F7;}
	.st100{clip-path:url(#SVGID_6_);fill:#5B7677;}
	.st101{fill:#F9D4CC;}
	.st102{fill:#1186B9;}
	.st103{fill:#DB838E;}
	.st104{opacity:0.5;fill:#DB838E;}
	.st105{opacity:0.3;fill:#EFBBBD;}
	.st106{opacity:0.4;fill:#1186B9;}
	.st107{fill:none;stroke:#DB838E;stroke-width:3;stroke-linecap:round;stroke-miterlimit:10;}
	.st108{fill:none;stroke:#1186B9;stroke-width:4;stroke-linecap:round;stroke-miterlimit:10;}
	.st109{fill:none;stroke:#092B33;stroke-width:4;stroke-miterlimit:10;}
	.st110{fill:#F2C7C7;}
	.st111{fill:none;stroke:#DB838E;stroke-width:4;stroke-miterlimit:10;}
	.st112{fill:#F6F6F6;}
	.st113{fill:#C6C7C8;}
	.st114{fill:#E3E4E4;}
	.st115{fill:#C699A1;}
	.st116{fill:#A38289;}
	.st117{fill:none;stroke:#1186B9;stroke-width:4;stroke-miterlimit:10;stroke-dasharray:2,3;}
	.st118{fill:#ECEDED;}
	.st119{clip-path:url(#SVGID_8_);}
	.st120{opacity:0.3;fill:#F9D4CC;}
	.st121{fill:none;stroke:#C6C7C8;stroke-width:2;stroke-miterlimit:10;}
	.st122{fill:#E9D1D1;}
	.st123{fill:#105168;}
	.st124{fill:#F9D7C8;}
	.st125{fill:#91ADAF;}
	.st126{fill:none;stroke:#D9DADB;stroke-width:3;stroke-miterlimit:10;}
	.st127{fill:#B2838D;}
	.st128{opacity:0.4;fill:#91ADAF;}
	.st129{fill:#FEF3EE;stroke:#092B33;stroke-miterlimit:10;}
	.st130{fill:#D8C4B6;stroke:#092B33;stroke-width:0.75;stroke-miterlimit:10;}
	.st131{fill:#FEF9F8;stroke:#092B33;stroke-width:0.5;stroke-miterlimit:10;}
	.st132{fill:#A5898F;stroke:#092B33;stroke-miterlimit:10;}
	.st133{fill:#1186B9;stroke:#092B33;stroke-width:0.75;stroke-miterlimit:10;}
	.st134{fill:#B3CFD1;stroke:#092B33;stroke-width:0.75;stroke-miterlimit:10;}
	.st135{fill:#B3CFD1;stroke:#092B33;stroke-miterlimit:10;}
	.st136{fill:#F9D7C8;stroke:#092B33;stroke-width:0.5;stroke-miterlimit:10;}
	.st137{opacity:0.5;fill:#B1B3B4;}
	.st138{fill:#F9D7C8;stroke:#092B33;stroke-miterlimit:10;}
	.st139{fill:#3E3D40;stroke:#092B33;stroke-width:0.5;stroke-miterlimit:10;}
	.st140{opacity:0.6;fill:#B1B3B4;}
	.st141{fill:#DFDB00;stroke:#000000;stroke-miterlimit:10;}
	.st142{fill:#5F4C3F;stroke:#000000;stroke-miterlimit:10;}
	.st143{fill:#74C1E8;stroke:#000000;stroke-width:0.5;stroke-miterlimit:10;}
	.st144{fill:none;stroke:#000000;stroke-miterlimit:10;}
	.st145{fill:#FCD5A2;stroke:#000000;stroke-miterlimit:10;}
	.st146{fill:#FCD5A2;stroke:#000000;stroke-width:0.75;stroke-miterlimit:10;}
	.st147{fill:#3E3D40;stroke:#000000;stroke-miterlimit:10;}
	.st148{fill:#FFF7CB;stroke:#000000;stroke-width:0.5;stroke-miterlimit:10;}
	.st149{fill:#FCD5A2;}
	.st150{fill:#DFDB00;stroke:#000000;stroke-width:0.5;stroke-miterlimit:10;}
	.st151{fill:#FCD5A2;stroke:#000000;stroke-width:0.5;stroke-miterlimit:10;}
	.st152{fill:#3E3D40;stroke:#000000;stroke-width:0.5;stroke-miterlimit:10;}
	.st153{fill:#DB838E;stroke:#092B33;stroke-miterlimit:10;}
	.st154{fill:none;stroke:#092B33;stroke-miterlimit:10;}
	.st155{fill:#092B33;stroke:#092B33;stroke-miterlimit:10;}
	.st156{fill:#DFDB00;stroke:#092B33;stroke-width:0.5;stroke-miterlimit:10;}
	.st157{fill:#F9D7C8;stroke:#092B33;stroke-width:0.75;stroke-miterlimit:10;}
	.st158{fill:#B2979C;stroke:#092B33;stroke-width:0.5;stroke-miterlimit:10;}
	.st159{fill:#DB838E;stroke:#092B33;stroke-width:0.5;stroke-miterlimit:10;}
	.st160{fill:#FEF3EE;stroke:#092B33;stroke-width:0.5;stroke-miterlimit:10;}
	.st161{fill:#B2979C;stroke:#092B33;stroke-width:0.75;stroke-miterlimit:10;}
	.st162{fill:none;stroke:#092B33;stroke-width:0.5;stroke-miterlimit:10;}
	.st163{fill:#B3CFD1;stroke:#092B33;stroke-width:0.25;stroke-miterlimit:10;}
	.st164{fill:#B3CFD1;stroke:#092B33;stroke-width:0.5;stroke-miterlimit:10;}
	.st165{fill:#D8C4B6;}
	.st166{fill:#E7C0B8;}
	.st167{fill:none;stroke:#092B33;stroke-width:0.75;stroke-linecap:round;stroke-miterlimit:10;}
	.st168{fill:none;stroke:#B3CCDB;stroke-width:0.75;stroke-miterlimit:10;}
	.st169{fill:none;stroke:#DB838E;stroke-width:4.7096;stroke-miterlimit:10;}
	.st170{opacity:0.6;}
	.st171{fill:none;stroke:#EAB9B9;stroke-width:1.4504;stroke-linecap:round;stroke-miterlimit:10;}
	.st172{opacity:0.2;fill:#EAB9B9;}
	.st173{fill:#AA9498;}
	.st174{opacity:0.5;fill:#8F797D;}
	.st175{fill:#8F797D;}
	.st176{fill:#DBBDBD;}
	.st177{fill:#9C9E9F;}
	.st178{fill:#0B72B5;}
	.st179{fill:none;stroke:#1186B9;stroke-width:2.7092;stroke-miterlimit:10;}
	.st180{fill:#58585A;}
	.st181{fill:none;stroke:#C6C7C8;stroke-miterlimit:10;}
	.st182{fill:none;stroke:#B3CCDB;stroke-width:2;stroke-miterlimit:10;}
	.st183{fill:#2D6282;}
	.st184{fill:#55B0C7;}
	.st185{fill:#4297A8;}
	.st186{fill:#45ABCA;}
	.st187{fill:#A4D9E7;}
	.st188{fill:#3E91B2;}
	.st189{fill:#47BDD4;}
	.st190{fill:#62C3DA;}
	.st191{fill:#2B7191;}
	.st192{fill:#1B5E82;}
	.st193{fill:#29B6D2;}
	.st194{fill:#163D44;}
	.st195{fill:#12576F;}
	.st196{fill:#007FAA;}
	.st197{fill:#4F696D;}
	.st198{fill:#9BD5E4;}
	.st199{fill:#253F44;}
	.st200{fill:#E3D6CF;}
	.st201{fill:#C6B9B3;}
	.st202{fill:#87888A;}
	.st203{fill:none;stroke:#D9DADB;stroke-width:2;stroke-miterlimit:10;}
	.st204{fill:none;stroke:#D9DADB;stroke-width:0.5187;stroke-miterlimit:10;}
	.st205{fill:#E6F4F6;}
	.st206{fill:#DEF0F9;}
	.st207{clip-path:url(#SVGID_10_);}
	.st208{fill:#CFCFCF;}
	.st209{clip-path:url(#SVGID_12_);}
	.st210{fill:#898989;}
	.st211{fill:#F1F1F1;}
	.st212{fill:#020202;}
	.st213{fill:#888888;}
	.st214{fill:#3A3A3A;}
	.st215{clip-path:url(#SVGID_14_);}
	.st216{clip-path:url(#SVGID_16_);}
	.st217{fill:#959595;}
	.st218{fill:#DADADA;}
	.st219{fill:#C4C4C4;}
	.st220{fill:none;stroke:#4B4B4B;stroke-width:0.1536;stroke-miterlimit:10;}
	.st221{opacity:0.6;fill:#B3CCDB;}
	.st222{opacity:0.7;fill:#C7DBE5;}
	.st223{clip-path:url(#SVGID_18_);}
	.st224{fill:#A3A3A3;}
	.st225{fill:#DEDEDE;}
	.st226{fill:none;stroke:#B8B8B8;stroke-width:0.3139;stroke-linecap:round;stroke-miterlimit:10;}
	.st227{opacity:0.2;fill:#C1C1C1;}
	.st228{clip-path:url(#SVGID_20_);}
	.st229{fill:#C5C5C5;}
	.st230{fill:#A5A5A5;}
	.st231{clip-path:url(#SVGID_22_);}
	.st232{fill:#F2F2F2;}
	.st233{fill:#BCBCBC;}
	.st234{clip-path:url(#SVGID_24_);}
	.st235{fill:#4B4B4B;}
	.st236{fill:#787878;}
	.st237{clip-path:url(#SVGID_26_);}
	.st238{fill:#FADBDB;}
	.st239{fill:none;stroke:#E5AEB9;stroke-width:0.3469;stroke-linecap:round;stroke-miterlimit:10;}
	.st240{opacity:0.2;fill:#E8BAC4;}
	.st241{clip-path:url(#SVGID_28_);}
	.st242{fill:#663854;}
	.st243{fill:#865462;}
	.st244{clip-path:url(#SVGID_30_);}
	.st245{clip-path:url(#SVGID_32_);}
	.st246{fill:none;stroke:#2D6282;stroke-width:0.1757;stroke-miterlimit:10;}
	.st247{fill:#F8CCCD;}
	.st248{fill:#A17986;}
	.st249{clip-path:url(#SVGID_34_);}
	.st250{fill:#041A1E;}
	.st251{fill:#9DBAC6;}
	.st252{fill:#377493;}
	.st253{fill:#A7C3D1;}
	.st254{fill:#0A81AA;}
	.st255{fill:none;stroke:#E5AEB9;stroke-width:1.3147;stroke-linecap:round;stroke-miterlimit:10;}
	.st256{fill:none;stroke:#1186B9;stroke-width:0.6798;stroke-linecap:round;stroke-miterlimit:10;}
	.st257{fill:none;stroke:#E5AEB9;stroke-width:0.4532;stroke-linecap:round;stroke-miterlimit:10;}
	.st258{fill:#B1B3B4;}
	.st259{fill:none;stroke:#9E6C79;stroke-width:0.9065;stroke-linecap:round;stroke-miterlimit:10;}
	.st260{fill:none;stroke:#092B33;stroke-width:0.9065;stroke-linecap:round;stroke-miterlimit:10;}
	.st261{fill:none;stroke:#663854;stroke-width:2.0929;stroke-linecap:round;stroke-miterlimit:10;}
	.st262{fill:#CF7987;}
	.st263{fill:#B27A83;}
</style>
<g id="Layer_1">
</g>
<g id="Layer_2">
	<g>
		<path class="st204" d="M137,129.5c0,5.5-4.5,10-10,10H14.7c-5.5,0-10-4.5-10-10V17.2c0-5.5,4.5-10,10-10H127c5.5,0,10,4.5,10,10
			V129.5z"/>
		<path class="st205" d="M14.7,135c-3,0-5.5-2.5-5.5-5.5V17.2c0-3,2.5-5.5,5.5-5.5H127c3,0,5.5,2.5,5.5,5.5v112.3
			c0,3-2.5,5.5-5.5,5.5H14.7z"/>
		<g>
			<path class="st112" d="M29.2,45l-7.3,78.8c0,0,54.4,6.7,54.4,6.3c0-0.4,6.2-65.6,3.8-76.4L29.2,45z"/>
			<path class="st206" d="M28.9,102.2c-0.3,0-0.5-0.3-0.5-0.6l1.4-10.9c0-0.3,0.3-0.5,0.6-0.5l10.9,1.4c0.3,0,0.5,0.3,0.5,0.6
				l-1.4,10.9c0,0.3-0.3,0.5-0.6,0.5L28.9,102.2z"/>
			<path class="st206" d="M32.7,72.8c-0.3,0-0.5-0.3-0.5-0.6l1.4-10.9c0-0.3,0.3-0.5,0.6-0.5l10.9,1.4c0.3,0,0.5,0.3,0.5,0.6
				l-1.4,10.9c0,0.3-0.3,0.5-0.6,0.5L32.7,72.8z"/>
			<path class="st206" d="M30.8,87.5c-0.3,0-0.5-0.3-0.5-0.6l1.4-10.9c0-0.3,0.3-0.5,0.6-0.5l10.9,1.4c0.3,0,0.5,0.3,0.5,0.6
				l-1.4,10.9c0,0.3-0.3,0.5-0.6,0.5L30.8,87.5z"/>
			<path class="st206" d="M27,116.8c-0.3,0-0.5-0.3-0.5-0.6l1.4-10.9c0-0.3,0.3-0.5,0.6-0.5l10.9,1.4c0.3,0,0.5,0.3,0.5,0.6
				l-1.4,10.9c0,0.3-0.3,0.5-0.6,0.5L27,116.8z"/>
			<g class="st170">
				<defs>
					<path id="SVGID_9_" class="st170" d="M32.7,72.8c-0.3,0-0.5-0.3-0.5-0.6l1.4-10.9c0-0.3,0.3-0.5,0.6-0.5l10.9,1.4
						c0.3,0,0.5,0.3,0.5,0.6l-1.4,10.9c0,0.3-0.3,0.5-0.6,0.5L32.7,72.8z"/>
				</defs>
				<clipPath id="SVGID_2_">
					<use xlink:href="#SVGID_9_"  style="overflow:visible;"/>
				</clipPath>
				<g class="st9">
					<path class="st208" d="M33.5,71c-0.2,1.8,0.3,3,1.1,3c0.8,0.1,5.5-1.5,5.9-2.3c0.4-0.8,1.7,0.4,1.7-1.7c0-1,0.5-0.9,0.8-1.4
						c0.5-0.7,0.4-1.5-0.1-2.4s0.1-1.5,0-2.4c-0.1-0.8-1.1-1.1-1.9-0.9c-0.5,0.1-0.9-0.6-2.3-0.5C33.9,62.9,33.8,69,33.5,71z"/>
					<path class="st84" d="M35.9,76c0.7-1.2,1.8-3,1.4-4c-0.5-1.4-1.9-1-2.7,0c-0.8,0.9-1.5,2.1-1.9,3.2
						C33.6,75.7,35.2,75.9,35.9,76z"/>
				</g>
			</g>
			<g class="st170">
				<defs>
					<path id="SVGID_11_" class="st170" d="M28.9,102.2c-0.3,0-0.5-0.3-0.5-0.6l1.4-10.9c0-0.3,0.3-0.5,0.6-0.5l10.9,1.4
						c0.3,0,0.5,0.3,0.5,0.6l-1.4,10.9c0,0.3-0.3,0.5-0.6,0.5L28.9,102.2z"/>
				</defs>
				<clipPath id="SVGID_4_">
					<use xlink:href="#SVGID_11_"  style="overflow:visible;"/>
				</clipPath>
				<g class="st79">
					<path class="st208" d="M32.2,100.3c0,0-1.2,1.1-1.5,2.1c-0.3,0.8,1.9,0,1.9,0L32.2,100.3z"/>
					<path class="st208" d="M38.5,100.5c0.9,0.4,1.6,1,2,1.9c0.2,0.4,0.3,1.5,0.3,1.5l-1.7,0.2c0,0-1.1-1.4-1.1-1.5
						S38.5,100.5,38.5,100.5z"/>
					<path class="st208" d="M31.8,101.1c0.3-1.5,2.1-2.2,4.2-1.8s3.2,1.6,3.6,2.6c0.4,1-0.1,8.8-1.5,11.8c-1.4,2.9-8.1,1-8-0.5
						c0-1.5,1.2-4.3,1.5-6.3C31.7,105,31.5,102.6,31.8,101.1z"/>
					<path class="st210" d="M32.9,99.4c-0.4,0.3-1.4,3.5-1.4,4.7c0,1.2-0.9,5.6-1.3,6.6c-0.4,1,1.9,1.8,1.9,1.8l0.2-0.4l0.1,0.4
						c0,0,3.2,1.2,4.7,0.4c1.5-0.8,1.4-6.8,1.4-6.8s-1.5-1-1.2-3c0.2-1,0.4-2,1-2.6c0.2-0.2-1.5-0.9-1.5-0.9s-1.2,4-2.8,3.7
						c-1.6-0.4-0.6-3.7-0.6-3.7l-0.2-0.2L32.9,99.4z"/>
					<path class="st211" d="M33.5,100.7c-0.1,0.8-0.4,4.7,0.2,5.8c0.7,1.1-0.2,0-0.2,0s-0.7-1.9-0.5-3.7c0.2-1.8,0.5-2.9,0.7-3.3
						c0.2-0.4,0.2,0.7,0.2,0.7L33.5,100.7z"/>
					<path class="st211" d="M36.6,99.4l0.2,0.4l0,0c0,0,0,0.1,0,0.1c0,0.4-2.3,5.8-2.7,6.5c0,0,0.1,0.1,0.1,0.1c0,0,1-1.7,1.4-2.7
						c0.9-2.2,1.4-4,1.4-4C37.1,99.5,36.9,99.6,36.6,99.4z"/>
					<path class="st212" d="M33.8,92.4c-0.4,0-0.9,0.6-1,0.9c-0.1,0.2-0.1,1-0.1,1l1.5-1.7L33.8,92.4z"/>
					<path class="st213" d="M35.8,92.4c2.9,0.7,1.3,4.3,0.9,5.5c-0.6,2,0.1,1.5,0,2.1c-0.1,0.6-1.7,3.2-2.7,2.4s-0.3-2-0.5-2.5
						c-0.2-0.5-0.4-0.6-0.8-1.1c-0.5-0.6-0.9-1.8-0.2-4.2C33.1,92.5,34.7,92.1,35.8,92.4z"/>
					<g>
						<path class="st214" d="M34.2,95.5c0,0.2-0.1,0.4-0.1,0.6c-0.1,0.2-0.2,0.4-0.3,0.6c-0.1,0.1-0.2,0.2-0.4,0.1
							c-0.1-0.1-0.2-0.2-0.1-0.4c0,0,0,0,0-0.1c0.1-0.1,0.3-0.3,0.4-0.4c0.1-0.2,0.2-0.3,0.3-0.5C34,95.4,34.1,95.4,34.2,95.5
							C34.2,95.4,34.2,95.5,34.2,95.5z"/>
					</g>
					<path class="st212" d="M33.7,92.7c-0.2,0.4,1,1,1.7,0.7s1.5,0.6,1.1,1.2c-0.4,0.7,0.1,0.7,0.1,1.8c-0.1,1.1,0.2-0.6,0.6-0.9
						c0.2-0.1,0.3,0.2,0,1.3c-0.1,0.4,0.8-1.2,0.8-2.2s-0.5-2-1.2-2.3C36,91.9,34.2,91.7,33.7,92.7z"/>
				</g>
			</g>
			<g class="st170">
				<defs>
					<path id="SVGID_13_" class="st170" d="M27,116.8c-0.3,0-0.5-0.3-0.5-0.6l1.4-10.9c0-0.3,0.3-0.5,0.6-0.5l10.9,1.4
						c0.3,0,0.5,0.3,0.5,0.6l-1.4,10.9c0,0.3-0.3,0.5-0.6,0.5L27,116.8z"/>
				</defs>
				<clipPath id="SVGID_6_">
					<use xlink:href="#SVGID_13_"  style="overflow:visible;"/>
				</clipPath>
				<g class="st90">
					<path class="st208" d="M30.7,112.7c-0.9,0.2-3.8,0.6-4.8,1.7c-1,1.1-2,3.2-2.3,4.1c-0.3,0.9-4.7,5.3-4.5,6
						c0.2,0.7,2,2.6,3.4,2.9s6,1,6.7,0.5c0.7-0.5,4.5-7.3,4.8-8.5c0.5-1.5,0.4-3.2-0.1-4.1C32.9,113.5,32.1,112.4,30.7,112.7z"/>
					<path class="st84" d="M24.5,117.7c0.4-1.5,1.7-3.8,3.3-2.5c1.3,1,3,7,3.9,7.9c0.3,0.3,0.6,0.7,1,1.1c-0.1,0.7-0.5,2.1-2,2.7
						c-0.8-0.5-1.4-1.1-1.8-1.5C26.9,123.5,23.7,120.8,24.5,117.7z"/>
				</g>
			</g>
			<g class="st170">
				<defs>
					<path id="SVGID_15_" class="st170" d="M30.8,87.5c-0.3,0-0.5-0.3-0.5-0.6l1.4-10.9c0-0.3,0.3-0.5,0.6-0.5l10.9,1.4
						c0.3,0,0.5,0.3,0.5,0.6l-1.4,10.9c0,0.3-0.3,0.5-0.6,0.5L30.8,87.5z"/>
				</defs>
				<clipPath id="SVGID_8_">
					<use xlink:href="#SVGID_15_"  style="overflow:visible;"/>
				</clipPath>
				<g class="st119">
					<g>
						<path class="st217" d="M39.9,81c0.2-0.2,0.3-0.4,0.1-0.6c0.2-0.2,0.2-0.4,0-0.6c0.2-0.2,0.1-0.4-0.2-0.6
							c0.1-0.3,0-0.5-0.3-0.5c0.1-0.3-0.1-0.4-0.4-0.5c0-0.3-0.2-0.4-0.4-0.4c-0.1-0.3-0.2-0.4-0.5-0.3c-0.1-0.3-0.3-0.3-0.6-0.2
							c-0.2-0.2-0.4-0.3-0.6-0.1c-0.2-0.2-0.4-0.2-0.6,0c-0.2-0.2-0.4-0.1-0.6,0.2c-0.3-0.1-0.5,0-0.5,0.3c-0.3-0.1-0.4,0.1-0.5,0.4
							c-0.3,0-0.4,0.2-0.4,0.4c-0.3,0.1-0.4,0.2-0.3,0.5c-0.3,0.1-0.3,0.3-0.2,0.6c-0.2,0.2-0.3,0.4-0.1,0.6c-0.2,0.2-0.2,0.4,0,0.6
							c-0.2,0.2-0.1,0.4,0.2,0.6c-0.1,0.3,0,0.5,0.3,0.5c-0.1,0.3,0.1,0.4,0.4,0.5c0,0.3,0.2,0.4,0.4,0.4c0.1,0.3,0.2,0.4,0.5,0.3
							c0.1,0.3,0.3,0.3,0.6,0.2c0.2,0.2,0.4,0.3,0.6,0.1c0.2,0.2,0.4,0.2,0.6,0c0.2,0.2,0.4,0.1,0.6-0.2c0.3,0.1,0.5,0,0.5-0.3
							c0.3,0.1,0.4-0.1,0.5-0.4c0.3,0,0.4-0.2,0.4-0.4c0.3-0.1,0.4-0.2,0.3-0.5C39.9,81.5,40,81.3,39.9,81z"/>
					</g>
					<path class="st210" d="M35.7,86.6c0.1-0.8,2.3-3.4,4.5-3c3.8,0.8,5.4,4.3,5.5,6.5c0.1,2.2-0.2,7.8-1.6,9.3
						c-1.4,1.5-6.7-2.5-7.8-3.8c-1.2-1.4,0.8-2.3,0.8-3.8C37.1,89.5,35.5,88.6,35.7,86.6z"/>
					<path class="st218" d="M36.4,77.9c3.2,0.1,2.3,3.1,2.3,4.6c0,0.8,1.6,1,1.7,1.6c0.1,0.6-0.6,4.5-2,4.1
						c-1.4-0.4-0.6-3.1-1.1-3.3c-0.5-0.2-1.2,0.4-1.8,0.2s-2-1.5-1.7-4.2C34.1,78.4,35.1,77.9,36.4,77.9z"/>
					<g>
						<path class="st219" d="M34,82.9c0.1-0.2,0.3-0.5,0.4-0.8l0.1-0.4c0-0.1,0.1-0.3,0.1-0.4l0,0c0-0.1,0.1-0.1,0.1-0.1
							c0.1,0,0.1,0.1,0.1,0.1c0,0.2,0,0.3-0.1,0.5l-0.1,0.4c-0.1,0.3-0.2,0.6-0.3,0.8c0,0.1-0.1,0.1-0.2,0.1
							C33.9,83.1,33.9,83,34,82.9C33.9,82.9,34,82.9,34,82.9L34,82.9z"/>
					</g>
					
						<ellipse transform="matrix(0.1288 -0.9917 0.9917 0.1288 -51.7155 104.6597)" class="st220" cx="33.7" cy="81.8" rx="0.5" ry="0.5"/>
					
						<ellipse transform="matrix(0.1288 -0.9917 0.9917 0.1288 -50.4758 106.5046)" class="st220" cx="35.4" cy="82" rx="0.5" ry="0.5"/>
					<path class="st220" d="M34.2,81.8c0.1-0.1,0.4-0.2,0.6,0.1"/>
					<path class="st217" d="M34.5,78.5c0.1,0.5,0.4,0.8,0.6,0.8c0.3,0.1,1.5-0.8,2-0.5c0.5,0.3-0.3,2.3-0.3,2.3s0.5,0.1,0.3,0.7
						c-0.2,0.6,0.2,0.3,0.2,0c0.1-0.3,0.5-1.1,0.7-0.6s0.3,1.4,0.8,1.6l0.3-3l-0.6-1.7c0,0-1.1-0.5-1.2-0.6c-0.1,0-1.3,0-1.4,0
						s-1,0.4-1,0.4L34.5,78.5z"/>
					<path class="st84" d="M40.2,83.8c0.1,0.6,0.2,1.4-0.2,2c-0.8,1.4-2.2,1-2.5,0.1c0,0.9,0,2.1,0.9,2.3c1.4,0.4,2.1-3.5,2-4.1
						C40.4,84,40.3,83.9,40.2,83.8z"/>
					<polygon class="st210" points="35.7,86.6 35,89.2 37,89.2 36.1,86.6 					"/>
				</g>
			</g>
			<polygon class="st221" points="48.2,63 48,68 74.5,71.5 75.1,67.1 			"/>
			<polygon class="st221" points="47.5,77.4 47.3,81.9 72.8,84.9 73.3,80.8 			"/>
			<polygon class="st221" points="45.6,92.7 44.5,96.9 73.8,100.7 74.5,95.9 			"/>
			<polygon class="st221" points="43.7,106.8 43.1,111.4 73,115.2 73.5,111.9 			"/>
			
				<rect x="53.2" y="65.8" transform="matrix(0.1288 -0.9917 0.9917 0.1288 -24.5229 117.2786)" class="st221" width="2.6" height="13.5"/>
			<polygon class="st221" points="64.1,72.5 63.8,75.1 75,76.6 75,73.9 			"/>
			<polygon class="st221" points="47.2,84.7 46.2,87.7 56.8,89.1 57.1,86.8 			"/>
			<polygon class="st221" points="60.7,87 60.4,89.2 72.1,90.2 72.4,88 			"/>
			<polygon class="st221" points="44.7,99.5 44.2,103.2 58.4,105.1 58.7,102.6 			"/>
			<polygon class="st221" points="43.1,114.6 42.7,117.9 53.4,119 53.3,115.9 			"/>
			<polygon class="st221" points="56.9,116.4 56.1,119.7 72.3,121.2 72.6,118.5 			"/>
			<ellipse transform="matrix(0.3517 -0.9361 0.9361 0.3517 -26.027 71.2616)" class="st50" cx="38.4" cy="54.4" rx="4.1" ry="5"/>
			<polygon class="st221" points="45.3,52 45.1,56.3 68.3,59.8 74.3,60.7 74.7,56.5 			"/>
		</g>
		<polygon class="st222" points="37.6,46.5 35.1,46.1 31.8,122.8 76.5,127 77,122.5 		"/>
		<g>
			<path class="st112" d="M37.6,39.4l-0.2,81.9c0,0,56.7,1.8,56.7,1.5c0-0.4,0.3-68.2-3.1-79.1L37.6,39.4z"/>
			<path class="st206" d="M42.6,98.3c-0.3,0-0.5-0.3-0.5-0.6l0.5-11.4c0-0.3,0.3-0.5,0.6-0.5l11.4,0.5c0.3,0,0.5,0.3,0.5,0.6
				l-0.5,11.4c0,0.3-0.3,0.5-0.6,0.5L42.6,98.3z"/>
			<path class="st206" d="M43.8,67.7c-0.3,0-0.5-0.3-0.5-0.6l0.5-11.4c0-0.3,0.3-0.5,0.6-0.5l11.4,0.5c0.3,0,0.5,0.3,0.5,0.6
				l-0.5,11.4c0,0.3-0.3,0.5-0.6,0.5L43.8,67.7z"/>
			<path class="st206" d="M43.2,83c-0.3,0-0.5-0.3-0.5-0.6L43.1,71c0-0.3,0.3-0.5,0.6-0.5l11.4,0.5c0.3,0,0.5,0.3,0.5,0.6l-0.5,11.4
				c0,0.3-0.3,0.5-0.6,0.5L43.2,83z"/>
			<path class="st206" d="M42,113.6c-0.3,0-0.5-0.3-0.5-0.6l0.5-11.4c0-0.3,0.3-0.5,0.6-0.5l11.4,0.5c0.3,0,0.5,0.3,0.5,0.6
				l-0.5,11.4c0,0.3-0.3,0.5-0.6,0.5L42,113.6z"/>
			<g class="st170">
				<defs>
					<path id="SVGID_17_" class="st170" d="M43.2,83c-0.3,0-0.5-0.3-0.5-0.6L43.1,71c0-0.3,0.3-0.5,0.6-0.5l11.4,0.5
						c0.3,0,0.5,0.3,0.5,0.6l-0.5,11.4c0,0.3-0.3,0.5-0.6,0.5L43.2,83z"/>
				</defs>
				<clipPath id="SVGID_10_">
					<use xlink:href="#SVGID_17_"  style="overflow:visible;"/>
				</clipPath>
				<g class="st207">
					<path class="st224" d="M45.9,77.2c-1.1,3-1.7,3.2-2.1,3.9c-0.8,1.7,0.6,3,1.4,3s5.5-2,5.9-2.9c0.4-0.9,1.8,0.3,1.6-1.9
						c-0.1-1,0.4-0.9,0.7-1.5c0.4-0.8,0.3-1.6-0.3-2.5c-0.6-0.9-0.1-1.6-0.3-2.4c-0.2-0.8-1.3-1-2.1-0.8c-0.5,0.2-1.1-0.7-2.4-0.3
						C47.3,72.3,46.9,74.7,45.9,77.2z"/>
					<path class="st84" d="M53.3,85.8c0.6-0.8,0.7-1.4,0.8-2.3c-1.4-1.1-3-2.7-3.4-3c-1.4-0.9-1.7,2.1-1.6,3.6
						c0.1,1.4,2.6,1.9,3.6,2.4C52.8,86.3,53.2,85.9,53.3,85.8z"/>
					<path class="st210" d="M48.8,79.7c-0.7,0.1-2.4,0.5-3.3,1.7c-0.7,1-1.3,7-1.2,8.9c0.1,2.4,0.2,4.4,0.2,4.4s1,2.3,3,1.9
						c2-0.5,4.7,1.6,4.5-1.4c-0.1-2.3-0.2-5.5,0-7.2c0.1-1.4,1-2.1,0.7-3.5C52.4,83.2,51.6,79.3,48.8,79.7z"/>
					<path class="st225" d="M49.2,73.6c-2.9,0.8-1.9,2-1.7,3.4c0.1,0.8,0.4,2.3,0.4,2.9c0,0.6,0.7,3.2,2.8,2.9c1.6-0.3-0.4-3,0-3.3
						c0.2-0.1,0.7,0,1.2-0.5c0.4-0.4,1.4-1.5,1-3.5C52.5,73.2,50.2,73.3,49.2,73.6z"/>
					<path class="st226" d="M51.9,76.5c0,0.2-0.1,0.5,0.1,0.8"/>
					
						<ellipse transform="matrix(0.9958 -9.209210e-02 9.209210e-02 0.9958 -6.8935 4.9698)" class="st227" cx="50.4" cy="77.2" rx="0.6" ry="0.6"/>
					<path class="st84" d="M46.7,86c0.6-1.4,1.5-3.3,1.1-4.2c-0.6-1.4-2-0.8-2.7,0.3c-0.7,1-1.4,2.3-1.7,3.5
						C44.4,85.9,46,86,46.7,86z"/>
					<g>
						<path class="st84" d="M50.7,80.2c0,0.1,0,0.2,0,0.3c0.2,2.6-2.3,0.6-2.7-0.8l-0.1,0c0,0.1,0,0.3,0,0.4c0,0.6,0.8,3.5,2.9,3.2
							C52.1,82.9,50.9,81,50.7,80.2z"/>
					</g>
					<path class="st224" d="M52,73.7c0,1.2-1.4,0.9-1.9,1.4c-0.6,0.5-0.1,1-0.3,1.8c-0.2,1.1-1,0.8-1.1,1.7
						c-0.1,1.7-1.5,1.4-1.9,1.5c-0.4,0.1,0-3.6,0-3.6l0.1-2.1l0.7-1.1l1.8-1.1l1.8,0.4L52,73.7z"/>
				</g>
			</g>
			<g class="st170">
				<defs>
					<path id="SVGID_19_" class="st170" d="M42.6,98.3c-0.3,0-0.5-0.3-0.5-0.6l0.5-11.4c0-0.3,0.3-0.5,0.6-0.5l11.4,0.5
						c0.3,0,0.5,0.3,0.5,0.6l-0.5,11.4c0,0.3-0.3,0.5-0.6,0.5L42.6,98.3z"/>
				</defs>
				<clipPath id="SVGID_12_">
					<use xlink:href="#SVGID_19_"  style="overflow:visible;"/>
				</clipPath>
				<g class="st209">
					<path class="st84" d="M50.5,96.2c0,0,1,1.4,1.2,2.4c0.2,0.9-1.9-0.3-1.9-0.3L50.5,96.2z"/>
					<path class="st84" d="M44.1,95.2c-1,0.2-1.8,0.7-2.4,1.6c-0.3,0.4-0.6,1.4-0.6,1.4l1.6,0.5c0,0,1.4-1.2,1.4-1.3
						C44.1,97.3,44.1,95.2,44.1,95.2z"/>
					<path class="st84" d="M50.7,97.1c-0.1-1.6-1.7-2.6-3.9-2.6c-2.1,0-3.5,1.1-4.1,2c-0.6,0.9-1.6,9-0.6,12.3c0.9,3.2,8,2.6,8.3,1
						c0.3-1.5-0.4-4.6-0.3-6.6C50.2,101.1,50.8,98.6,50.7,97.1z"/>
					<path class="st217" d="M49.9,95.1c0.3,0.4,0.8,3.8,0.5,5.1c-0.2,1.2-0.2,5.9,0,7c0.2,1.1-2.3,1.4-2.3,1.4l-0.2-0.4l-0.2,0.4
						c0,0-3.4,0.6-4.8-0.5s-0.2-7.2-0.2-7.2s1.8-0.7,1.8-2.9c0-1,0-2.1-0.5-2.8c-0.1-0.2,1.7-0.6,1.7-0.6s0.5,4.3,2.2,4.2
						c1.7-0.1,1.2-3.8,1.2-3.8l0-0.1L49.9,95.1z"/>
					<path class="st112" d="M50.3,87.8c0.5,0.1,1.2,1,1.3,1.3c0.6,2.9-0.5,7.3-0.5,7.3l-2.6-7.8L50.3,87.8z"/>
					<path class="st229" d="M48.3,87.4c-3.1,0.2-2.1,4.2-2,5.4c0.2,2.2-0.4,1.5-0.4,2.2c0,0.6,1.1,3.6,2.3,2.9
						c1.2-0.7,0.6-2.5,0.9-2.9c0.3-0.5,0.6,0,1.1-0.5c0.6-0.5,1.2-1.7,0.9-4.3C51,88,49.5,87.3,48.3,87.4z"/>
					<g>
						<path class="st230" d="M49.8,90.8c0,0.2,0.1,0.4,0.2,0.6c0.1,0.2,0.1,0.4,0.2,0.5l0,0c0,0.1,0,0.1-0.1,0.2
							c-0.1,0-0.1,0-0.2-0.1c0,0,0,0,0,0c-0.1-0.2-0.2-0.4-0.2-0.6c-0.1-0.2-0.1-0.4-0.1-0.6c0-0.1,0-0.1,0.1-0.1
							C49.7,90.7,49.8,90.7,49.8,90.8z"/>
					</g>
					<path class="st112" d="M51.1,88.6c0.2,0.4-1.3,0.9-2.1,1c-0.6,0.1-1.9,1.3-2.1,2.4s-0.2-1.3-0.5-1.7c-0.1-0.2-0.5,0.3-0.1,2.5
						c0.1,0.4-1.1-2.3-1-3.3c0.1-1,1.2-2.1,2-2.3C48.2,86.9,50.7,87.6,51.1,88.6z"/>
				</g>
			</g>
			<g class="st170">
				<defs>
					<path id="SVGID_21_" class="st170" d="M42,113.6c-0.3,0-0.5-0.3-0.5-0.6l0.5-11.4c0-0.3,0.3-0.5,0.6-0.5l11.4,0.5
						c0.3,0,0.5,0.3,0.5,0.6l-0.5,11.4c0,0.3-0.3,0.5-0.6,0.5L42,113.6z"/>
				</defs>
				<clipPath id="SVGID_14_">
					<use xlink:href="#SVGID_21_"  style="overflow:visible;"/>
				</clipPath>
				<g class="st215">
					<path class="st232" d="M44.9,103.7c-0.7-0.1-0.9,0.9-0.9,1.1c0.1,0.2,0.2,0.7,0.2,0.7L44.9,103.7z"/>
					<path class="st208" d="M49.5,109.3c1.1,0.2,3.1,1.5,4,3.1c0.7,1.3,0.7,5.3,0.4,6.2c-0.3,1-0.3,7.4-0.9,7.8
						c-0.6,0.4-3.2,1-4.6,0.4s-5.7-2.7-6-3.6s0.6-8.8,1-10.1c0.5-1.6,1.6-3,2.5-3.4C47.8,109,48,109,49.5,109.3z"/>
					<path class="st225" d="M47.3,102.5c3.1,0.4,2.5,2.3,2.3,5.2c-0.1,1.1,0.2,1.5,0.3,2.1s-1.8,3.4-2.5,3.2
						c-0.8-0.3-0.6-2.7-0.8-2.8c-0.6-0.4-0.8-0.3-1.1-0.4c-0.9-0.4-1.7-1.3-1.5-4.1C44.2,103.9,45.5,102.2,47.3,102.5z"/>
					<g>
						<path class="st232" d="M47.7,111.8l-0.5,1.2c0,0,0.1,0.1,0.1,0.1c0.3,0.1,0.8-0.3,1.4-0.9L47.7,111.8z"/>
						<path class="st232" d="M47.2,113l-0.3-1.4l-0.2,0l0,0C46.8,112.2,47,112.7,47.2,113z"/>
					</g>
					<polygon class="st84" points="47.7,111.8 48.4,113.2 50.5,110 49.8,108.8 					"/>
					<polygon class="st84" points="46.3,112.5 47,111.6 46.6,110.2 					"/>
					<path class="st232" d="M44.7,107.6c-0.5,0.2-0.6-1.1,0.3-0.9c0.6,0.1,1.6,0.1,1.6,0.9C46.6,108.6,45.1,107.4,44.7,107.6z"/>
					<g>
						<path class="st233" d="M44.9,106.7c0.1-0.2,0.2-0.4,0.3-0.7c0.1-0.3,0.1-0.5,0.4-0.8c0.1-0.1,0.2-0.1,0.2,0
							c0.1,0,0.1,0.1,0,0.2l0,0c-0.1,0.2-0.1,0.5-0.2,0.7c0,0.3-0.1,0.6-0.2,0.9l0,0c-0.1,0.1-0.2,0.2-0.4,0.1
							C44.8,107,44.8,106.9,44.9,106.7C44.8,106.7,44.9,106.7,44.9,106.7z"/>
					</g>
					<path class="st232" d="M48.3,106.8c0.4-1.1,0.2-2.3,0.2-2.3s1,0.1,1.2-0.2c0.1-0.3,1.8,1.3,0.3,1.8S48.3,106.8,48.3,106.8z"/>
				</g>
			</g>
			<g class="st170">
				<defs>
					<path id="SVGID_23_" class="st170" d="M43.8,67.7c-0.3,0-0.5-0.3-0.5-0.6l0.5-11.4c0-0.3,0.3-0.5,0.6-0.5l11.4,0.5
						c0.3,0,0.5,0.3,0.5,0.6l-0.5,11.4c0,0.3-0.3,0.5-0.6,0.5L43.8,67.7z"/>
				</defs>
				<clipPath id="SVGID_16_">
					<use xlink:href="#SVGID_23_"  style="overflow:visible;"/>
				</clipPath>
				<g class="st216">
					<g>
						<path class="st235" d="M52.3,59.6c0.2-0.2,0.2-0.4,0-0.6c0.2-0.2,0.1-0.5-0.1-0.6c0.1-0.3,0.1-0.5-0.2-0.6
							c0.1-0.3,0-0.5-0.3-0.5c0-0.3-0.1-0.5-0.4-0.5c0-0.3-0.2-0.4-0.5-0.4c-0.1-0.3-0.3-0.4-0.6-0.3c-0.1-0.3-0.4-0.3-0.6-0.2
							c-0.2-0.2-0.4-0.2-0.6,0c-0.2-0.2-0.5-0.1-0.6,0.1c-0.3-0.1-0.5-0.1-0.6,0.2c-0.3-0.1-0.5,0-0.5,0.3c-0.3,0-0.5,0.1-0.5,0.4
							c-0.3,0-0.4,0.2-0.4,0.5c-0.3,0.1-0.4,0.3-0.3,0.6c-0.3,0.1-0.3,0.4-0.2,0.6c-0.2,0.2-0.2,0.4,0,0.6c-0.2,0.2-0.1,0.5,0.1,0.6
							c-0.1,0.3-0.1,0.5,0.2,0.6c-0.1,0.3,0,0.5,0.3,0.5c0,0.3,0.1,0.5,0.4,0.5c0,0.3,0.2,0.4,0.5,0.4c0.1,0.3,0.3,0.4,0.6,0.3
							c0.1,0.3,0.4,0.3,0.6,0.2c0.2,0.2,0.4,0.2,0.6,0c0.2,0.2,0.5,0.1,0.6-0.1c0.3,0.1,0.5,0.1,0.6-0.2c0.3,0.1,0.5,0,0.5-0.3
							c0.3,0,0.5-0.1,0.5-0.4c0.3,0,0.4-0.2,0.4-0.5c0.3-0.1,0.4-0.3,0.3-0.6C52.4,60.1,52.5,59.9,52.3,59.6z"/>
					</g>
					<path class="st210" d="M48.8,66.3c0-0.8,2.1-3.7,4.3-3.5c4,0.5,5.9,3.9,6.3,6.2c0.3,2.2,0.5,8.1-0.8,9.7
						c-1.3,1.6-7.2-2-8.3-3.2c-1.3-1.4,0.6-2.5,0.4-4C50.5,69.2,48.7,68.4,48.8,66.3z"/>
					<path class="st224" d="M48.7,57.3c3.3-0.2,2.7,3,2.8,4.5c0.1,0.8,1.7,0.9,1.9,1.5c0.2,0.6-0.2,4.7-1.7,4.4
						c-1.5-0.3-0.9-3.1-1.4-3.3s-1.2,0.2-1.9,0.1c-0.7-0.1-2.1-1.1-2.1-3.8S47.4,57.4,48.7,57.3z"/>
					<g>
						<path class="st236" d="M46.7,62.1c0.2-0.3,0.4-0.7,0.4-1.1l0,0c0-0.1,0.1-0.1,0.1-0.1c0,0,0.1,0,0.1,0.1c0,0.2,0,0.5,0,0.7
							c0,0.2-0.1,0.4-0.2,0.7c0,0.1-0.2,0.2-0.3,0.1C46.7,62.4,46.6,62.3,46.7,62.1C46.6,62.1,46.7,62.1,46.7,62.1z"/>
					</g>
					<path class="st235" d="M46.5,58.6c0.1,0.5,0.4,0.5,0.7,0.6c0.3,0.1,1.7-0.4,2.3-0.1c0.5,0.3-0.3,1.8-0.3,1.8s0.5,0.1,0.4,0.7
						c-0.1,0.6,0.2,0.3,0.3,0c0-0.3,0.4-1.1,0.7-0.7s0.5,1.5,0.9,1.6l0.3-3l-0.8-1.9c0,0-1.5-0.3-1.5-0.3c-0.1,0-1.3,0.1-1.4,0.1
						s-1,0.5-1,0.5L46.5,58.6z"/>
					<path class="st84" d="M53.2,63c0.2,0.6,0.3,1.4,0,2.1c-0.7,1.6-2.2,1.2-2.6,0.4c0.1,0.9,0.2,2.1,1.1,2.3
						c1.5,0.3,1.9-3.8,1.7-4.4C53.4,63.2,53.3,63.1,53.2,63z"/>
					<polygon class="st210" points="48.8,66.3 48.3,69.1 50.4,68.9 49.1,66.2 					"/>
				</g>
			</g>
			<polygon class="st221" points="58.4,109.8 58.2,113.3 69.4,113.4 69,110.3 			"/>
			<polygon class="st221" points="72.8,110.4 72.3,113.8 89,113.9 89.2,111.1 			"/>
			<ellipse transform="matrix(0.2666 -0.9638 0.9638 0.2666 -11.262 81.6162)" class="st221" cx="48" cy="48.2" rx="4.2" ry="5.2"/>
		</g>
		<polygon class="st222" points="47.9,40.2 46.2,40.1 53.3,115.9 94.3,112.1 94.4,95.3 		"/>
		<g>
			<path class="st84" d="M45.6,22.6l11.6,89.8c0,0,62.4-6.2,62.3-6.6s-9.6-74.8-14.9-86.2L45.6,22.6z"/>
			<path class="st206" d="M59.5,86.4c-0.3,0-0.6-0.2-0.7-0.6l-1.2-12.6c0-0.3,0.2-0.6,0.6-0.7l12.6-1.2c0.3,0,0.6,0.2,0.7,0.6
				l1.2,12.6c0,0.3-0.2,0.6-0.6,0.7L59.5,86.4z"/>
			<path class="st206" d="M56.4,52.6c-0.3,0-0.6-0.2-0.7-0.6l-1.2-12.6c0-0.3,0.2-0.6,0.6-0.7l12.6-1.2c0.3,0,0.6,0.2,0.7,0.6
				l1.2,12.6c0,0.3-0.2,0.6-0.6,0.7L56.4,52.6z"/>
			<path class="st206" d="M58,69.5c-0.3,0-0.6-0.2-0.7-0.6l-1.2-12.6c0-0.3,0.2-0.6,0.6-0.7l12.6-1.2c0.3,0,0.6,0.2,0.7,0.6
				l1.2,12.6c0,0.3-0.2,0.6-0.6,0.7L58,69.5z"/>
			<path class="st206" d="M61.1,103.3c-0.3,0-0.6-0.2-0.7-0.6l-1.2-12.6c0-0.3,0.2-0.6,0.6-0.7l12.6-1.2c0.3,0,0.6,0.2,0.7,0.6
				l1.2,12.6c0,0.3-0.2,0.6-0.6,0.7L61.1,103.3z"/>
			<g>
				<defs>
					<path id="SVGID_25_" d="M56.4,52.6c-0.3,0-0.6-0.2-0.7-0.6l-1.2-12.6c0-0.3,0.2-0.6,0.6-0.7l12.6-1.2c0.3,0,0.6,0.2,0.7,0.6
						l1.2,12.6c0,0.3-0.2,0.6-0.6,0.7L56.4,52.6z"/>
				</defs>
				<clipPath id="SVGID_18_">
					<use xlink:href="#SVGID_25_"  style="overflow:visible;"/>
				</clipPath>
				<g class="st223">
					<path class="st183" d="M59.4,41.9c-0.3,0.9-1.1,0.7-1.2,2c-0.1,1.4,0.7,1.2,0.7,2.4c0,0.7-1.4,0.4-1.1,2.3
						c0.2,1.2-0.7,1.1-0.9,1.8c-0.7,2,1.1,3.3,2,3.1s5.8-3,6-4c0.3-1,2,0,1.5-2.3c-0.2-1.1,0.3-1.1,0.6-1.7c0.3-0.9,0.1-1.8-0.7-2.7
						s-0.3-1.7-0.6-2.6s-1.5-0.9-2.4-0.6c-0.6,0.2-1.3-0.6-2.7,0C59.4,40.3,59.6,41.4,59.4,41.9z"/>
					<path class="st84" d="M67.9,54.2c0.6-1,0.5-1.6,0.5-2.7c-1.7-1-3.6-2.6-4.1-2.8c-1.7-0.8-1.6,2.5-1.3,4.1
						c0.3,1.6,3.1,1.8,4.3,2.1C67.5,54.9,67.9,54.4,67.9,54.2z"/>
					<path class="st103" d="M62.1,48.2c-0.7,0.2-2.6,0.9-3.3,2.3c-0.7,1.2-0.4,7.9-0.1,9.9c0.5,2.6,0.9,4.8,0.9,4.8s1.4,2.4,3.5,1.6
						c2.1-0.8,5.3,1.1,4.8-2.2c-0.4-2.5-1-6-1.1-7.9c-0.1-1.6,0.8-2.5,0.3-3.9C66.5,51.5,65.1,47.4,62.1,48.2z"/>
					<path class="st238" d="M61.7,41.5c-3,1.3-1.8,2.4-1.3,4c0.2,0.8,0.8,2.5,0.8,3.2c0,0.7,1.3,3.5,3.5,2.8
						c1.7-0.5-0.9-3.2-0.5-3.6c0.2-0.2,0.8-0.1,1.3-0.8c0.4-0.5,1.3-1.8,0.6-4C65.2,40.5,62.7,41.1,61.7,41.5z"/>
					<path class="st239" d="M65,44.3c0,0.3,0,0.6,0.2,0.8"/>
					
						<ellipse transform="matrix(0.9751 -0.2216 0.2216 0.9751 -8.4471 15.1968)" class="st240" cx="63.5" cy="45.2" rx="0.7" ry="0.7"/>
					<path class="st84" d="M60.8,55.4c0.5-1.6,1.2-3.8,0.6-4.8c-0.9-1.4-2.3-0.6-3,0.7c-0.6,1.2-1.2,2.7-1.3,4.1
						C58.1,55.6,60,55.5,60.8,55.4z"/>
					<g>
						<path class="st84" d="M64.3,48.5c0,0.1,0,0.2,0.1,0.3c0.6,2.8-2.4,1-3.1-0.5l-0.2,0c0,0.2,0,0.3,0.1,0.4c0,0.7,1.4,3.7,3.6,3
							C66.2,51.3,64.6,49.4,64.3,48.5z"/>
					</g>
					<path class="st183" d="M64.8,41.2c0.2,1.3-1.4,1.1-1.9,1.8c-0.5,0.6,0,1.1-0.1,2c-0.1,1.3-1,1-0.9,2c0.2,1.9-1.4,1.7-1.9,2
						c-0.4,0.2-0.5-3.9-0.5-3.9l-0.2-2.3l0.6-1.3l1.8-1.4l2,0.2L64.8,41.2z"/>
				</g>
			</g>
			<g>
				<defs>
					<path id="SVGID_27_" d="M59.5,86.4c-0.3,0-0.6-0.2-0.7-0.6l-1.2-12.6c0-0.3,0.2-0.6,0.6-0.7l12.6-1.2c0.3,0,0.6,0.2,0.7,0.6
						l1.2,12.6c0,0.3-0.2,0.6-0.6,0.7L59.5,86.4z"/>
				</defs>
				<clipPath id="SVGID_20_">
					<use xlink:href="#SVGID_27_"  style="overflow:visible;"/>
				</clipPath>
				<g class="st228">
					<path class="st50" d="M62.8,83.5c0,0-1,1.6-1.2,2.7c-0.1,1,2.1-0.4,2.1-0.4L62.8,83.5z"/>
					<path class="st50" d="M69.8,82.1c1.1,0.2,2,0.7,2.7,1.6c0.3,0.4,0.7,1.6,0.7,1.6l-1.8,0.6c0,0-1.6-1.3-1.6-1.4
						S69.8,82.1,69.8,82.1z"/>
					<path class="st50" d="M62.6,84.5c0-1.8,1.8-3,4.2-3.1c2.4-0.1,3.9,1,4.6,2s2.1,9.9,1.2,13.5c-0.9,3.6-8.7,3.2-9.1,1.5
						c-0.4-1.7,0.3-5.1,0.1-7.3S62.6,86.2,62.6,84.5z"/>
					<path class="st102" d="M63.4,82.3c-0.4,0.4-0.7,4.3-0.4,5.6c0.3,1.3,0.4,6.5,0.3,7.7c-0.2,1.2,2.6,1.5,2.6,1.5l0.2-0.5l0.2,0.4
						c0,0,3.8,0.5,5.3-0.7s-0.1-8-0.1-8s-2-0.7-2.1-3.1c0-1.1-0.1-2.4,0.4-3.2c0.1-0.2-1.9-0.6-1.9-0.6s-0.3,4.8-2.2,4.8
						c-1.9,0-1.6-4-1.6-4l-0.2-0.2L63.4,82.3z"/>
					<path class="st206" d="M64.3,83.6C64.4,84.5,65,89,66,90c1,1.1-0.3,0-0.3,0s-1.3-2-1.5-4c-0.3-2-0.2-3.3-0.1-3.8
						c0.1-0.5,0.4,0.8,0.4,0.8L64.3,83.6z"/>
					<path class="st206" d="M67.4,81.4l0.3,0.4l0,0c0,0,0,0.1,0,0.1c0.1,0.5-1.1,7.1-1.4,8c0,0,0.1,0.1,0.2,0.1c0,0,0.7-2.1,0.9-3.4
						c0.5-2.7,0.6-4.8,0.6-4.8C68.1,81.4,67.8,81.5,67.4,81.4z"/>
					<path class="st242" d="M62.6,74.3c-0.5,0.1-0.9,0.9-0.9,1.2s0.1,1.2,0.1,1.2l1.3-2.3L62.6,74.3z"/>
					<path class="st127" d="M64.8,73.7c3.4,0.1,2.5,4.5,2.4,5.9c-0.1,2.4,0.5,1.6,0.5,2.4c0,0.7-1.1,4-2.5,3.3
						c-1.4-0.7-0.8-2.2-1.1-2.7c-0.4-0.5-0.6-0.6-1.2-1c-0.7-0.5-1.4-1.8-1.2-4.7C61.9,74.5,63.5,73.7,64.8,73.7z"/>
					<g>
						<path class="st243" d="M63.8,77.6c0,0.2,0,0.5,0,0.7c0,0.2-0.1,0.5-0.2,0.7c-0.1,0.2-0.2,0.2-0.4,0.2
							c-0.2-0.1-0.2-0.2-0.2-0.4c0,0,0-0.1,0-0.1c0.1-0.1,0.2-0.4,0.3-0.5c0.1-0.2,0.2-0.4,0.2-0.6l0,0
							C63.6,77.6,63.7,77.5,63.8,77.6C63.8,77.5,63.8,77.6,63.8,77.6z"/>
					</g>
					<path class="st242" d="M62.5,74.6c-0.2,0.5,1.4,0.9,2,0.4c0.6-0.5,1.8,0.3,1.6,1.1c-0.3,0.8,0.3,0.7,0.5,1.9
						c0.2,1.2,0.1-0.7,0.4-1.2c0.2-0.2,0.4,0.2,0.4,1.5c0,0.4,0.6-1.5,0.4-2.6c-0.2-1.1-1-2.1-1.9-2.3
						C64.9,73.2,62.9,73.4,62.5,74.6z"/>
				</g>
			</g>
			<g>
				<defs>
					<path id="SVGID_29_" d="M61.1,103.3c-0.3,0-0.6-0.2-0.7-0.6l-1.2-12.6c0-0.3,0.2-0.6,0.6-0.7l12.6-1.2c0.3,0,0.6,0.2,0.7,0.6
						l1.2,12.6c0,0.3-0.2,0.6-0.6,0.7L61.1,103.3z"/>
				</defs>
				<clipPath id="SVGID_22_">
					<use xlink:href="#SVGID_29_"  style="overflow:visible;"/>
				</clipPath>
				<g class="st231">
					<path class="st118" d="M68.5,99.8c1.4,1,7.3,5.1,8,5.7s2.6,2.3,3,3.4s-0.3,2.8-1.2,2.3c-0.9-0.4-8.7-5.3-10.8-5.9
						S66.3,98.2,68.5,99.8z"/>
					<path class="st102" d="M64.2,97.7c-0.9,0.4-4.1,1.6-5,3.1c-0.9,1.4-1.4,4.1-1.5,5.1s-3.9,7.1-3.5,7.8c0.4,0.7,2.9,2.4,4.5,2.4
						c1.6,0,6.9-0.4,7.6-1.1c0.7-0.7,3.2-9.3,3.3-10.7c0.1-1.8-0.4-3.7-1.2-4.5C66.9,98,65.7,97.1,64.2,97.7z"/>
					<path class="st122" d="M66.1,90.3c-3.3,0.8-3.1,2.9-2.1,5.9c0.3,0.8-0.3,1.7-0.4,2.4c-0.1,0.7,2.6,3.6,3.3,3.3
						c0.9-0.4,0.3-3.3,0.9-3.5s0.5-0.1,1.2-0.3c1-0.3,1.8-1.5,1-4.5C69.4,90.9,67.2,90,66.1,90.3z"/>
					<path class="st122" d="M61.6,101.2c1.7,0.8,5.1,7.1,6.3,7.9c1.8,1.2,6.4,4.7,6.9,5.1s-0.2,1.4-0.8,1.5s-6.6-1.9-8.7-3.2
						c-2.7-1.7-7-3.9-6.8-7.6C58.7,103.1,59.5,100.1,61.6,101.2z"/>
					<g>
						<path class="st112" d="M66.3,100.5l0.6,1.3c0,0-0.1,0.1-0.1,0.1c-0.3,0.1-0.9-0.3-1.6-0.9L66.3,100.5z"/>
						<path class="st112" d="M67,101.8l0.2-1.5l0.2-0.1l0,0C67.3,100.9,67.3,101.6,67,101.8z"/>
					</g>
					<polygon class="st84" points="66.3,100.5 65.7,102.2 63.2,98.8 63.8,97.4 					"/>
					<polygon class="st84" points="68,101.3 67.2,100.3 67.5,98.8 					"/>
					<path class="st84" d="M58.6,104.8c0.1-1.7,1-4.7,3.1-3.6c1.7,0.8,5.1,7.1,6.3,7.9c0.4,0.2,0.9,0.6,1.4,1c0,0.8,0,2.4-1.6,3.6
						c-1-0.4-1.9-0.8-2.4-1.2C62.7,110.7,58.4,108.5,58.6,104.8z"/>
					<g>
						<path class="st176" d="M69.6,94.8c-0.1-0.3-0.2-0.6-0.3-0.8c-0.1-0.3-0.3-0.5-0.5-0.7l0,0c-0.1-0.1-0.1-0.2,0-0.3
							c0.1-0.1,0.2-0.1,0.2,0c0.3,0.2,0.4,0.5,0.6,0.8c0.2,0.3,0.3,0.6,0.4,0.9c0,0.1,0,0.3-0.1,0.3C69.8,95.1,69.7,95,69.6,94.8
							C69.6,94.9,69.6,94.9,69.6,94.8L69.6,94.8z"/>
					</g>
					<path class="st177" d="M64.7,94.7c-0.1,0.1,0.7,3.4,2,3.8c0.5,0.2,1.5,0.2,2.6-0.1c1.2-0.4,1.3-2.1,1-3.2
						c-0.1-0.2-0.2-0.1-0.6-0.1c-0.4,0-1-0.1-1.2,0.3c-0.2,0.4-0.1,1-0.6,1.1c-0.3,0.1-1.9,0.5-2.7-1.3
						C65.1,95.2,64.9,94.6,64.7,94.7z M69,95.9c-0.1-0.2,0.4-0.2,0.8-0.3c0.3,0,0.4,0.1,0.3,0.2C70,95.9,69.2,96.2,69,95.9z"/>
				</g>
			</g>
			<g>
				<defs>
					<path id="SVGID_31_" d="M58,69.5c-0.3,0-0.6-0.2-0.7-0.6l-1.2-12.6c0-0.3,0.2-0.6,0.6-0.7l12.6-1.2c0.3,0,0.6,0.2,0.7,0.6
						l1.2,12.6c0,0.3-0.2,0.6-0.6,0.7L58,69.5z"/>
				</defs>
				<clipPath id="SVGID_24_">
					<use xlink:href="#SVGID_31_"  style="overflow:visible;"/>
				</clipPath>
				<g class="st234">
					<g>
						<path class="st103" d="M66.5,60.1c0.2-0.3,0.2-0.5-0.1-0.7c0.2-0.3,0.1-0.5-0.2-0.7c0.1-0.3,0-0.5-0.3-0.6
							c0-0.3-0.1-0.5-0.4-0.5c0-0.3-0.2-0.5-0.5-0.4c-0.1-0.3-0.3-0.4-0.6-0.3c-0.1-0.3-0.4-0.4-0.7-0.2c-0.2-0.3-0.5-0.3-0.7-0.1
							c-0.3-0.2-0.5-0.2-0.7,0.1c-0.3-0.2-0.5-0.1-0.7,0.2c-0.3-0.1-0.5,0-0.6,0.3c-0.3,0-0.5,0.1-0.5,0.4c-0.3,0-0.5,0.2-0.4,0.5
							c-0.3,0.1-0.4,0.3-0.3,0.6c-0.3,0.1-0.4,0.4-0.2,0.7c-0.3,0.2-0.3,0.5-0.1,0.7c-0.2,0.3-0.2,0.5,0.1,0.7
							c-0.2,0.3-0.1,0.5,0.2,0.7c-0.1,0.3,0,0.5,0.3,0.6c0,0.3,0.1,0.5,0.4,0.5c0,0.3,0.2,0.5,0.5,0.4c0.1,0.3,0.3,0.4,0.6,0.3
							c0.1,0.3,0.4,0.4,0.7,0.2c0.2,0.3,0.5,0.3,0.7,0.1c0.3,0.2,0.5,0.2,0.7-0.1c0.3,0.2,0.5,0.1,0.7-0.2c0.3,0.1,0.5,0,0.6-0.3
							c0.3,0,0.5-0.1,0.5-0.4c0.3,0,0.5-0.2,0.4-0.5c0.3-0.1,0.4-0.3,0.3-0.6c0.3-0.1,0.4-0.4,0.2-0.7
							C66.7,60.6,66.7,60.3,66.5,60.1z"/>
					</g>
					<path class="st102" d="M63.3,67.3c-0.1-0.9,1.8-4.4,4.2-4.4c4.4,0,7.1,3.4,7.8,5.8c0.7,2.4,1.7,8.8,0.6,10.7
						c-1.1,2-8.1-1.2-9.6-2.3c-1.7-1.3,0.3-2.8-0.1-4.4C65.5,70.3,63.5,69.6,63.3,67.3z"/>
					<path class="st124" d="M61.9,57.5c3.6-0.7,3.4,2.9,3.7,4.5c0.2,0.8,2,0.8,2.3,1.4s0.4,5.2-1.2,5.1s-1.4-3.3-2.1-3.4
						c-0.6-0.1-1.2,0.7-2,0.7c-0.8,0-2.6-1.2-2.9-4.2S60.4,57.7,61.9,57.5z"/>
					<g>
						<path class="st166" d="M60.4,63.6c0.1-0.3,0.2-0.6,0.2-0.9l0-0.5c0-0.2,0-0.3,0-0.5l0,0c0-0.1,0-0.1,0.1-0.1
							c0.1,0,0.1,0,0.1,0.1c0,0.2,0,0.4,0,0.5c0,0.2,0,0.3,0,0.5c0,0.3-0.1,0.7-0.2,1c0,0.1-0.1,0.1-0.2,0.1
							C60.4,63.8,60.3,63.7,60.4,63.6C60.4,63.6,60.4,63.6,60.4,63.6L60.4,63.6z"/>
					</g>
					
						<ellipse transform="matrix(0.9958 -9.143832e-02 9.143832e-02 0.9958 -5.4573 5.73)" class="st246" cx="59.8" cy="62.4" rx="0.6" ry="0.6"/>
					
						<ellipse transform="matrix(0.9958 -9.143832e-02 9.143832e-02 0.9958 -5.4332 5.9047)" class="st246" cx="61.7" cy="62.2" rx="0.6" ry="0.6"/>
					<path class="st246" d="M60.4,62.4c0.1-0.2,0.4-0.3,0.7-0.1"/>
					<path class="st103" d="M59.8,58.6c0.2,0.6,0.6,0.7,0.9,0.8s1.5-1.3,2.1-1.1c0.6,0.2,0.2,2.6,0.2,2.6s0.6,0,0.5,0.7
						c-0.1,0.7,0.3,0.3,0.3,0c0-0.3,0.3-1.3,0.6-0.9c0.3,0.4,0.7,1.5,1.3,1.6l-0.4-3.4l-1.1-1.7c0,0-1.4-0.3-1.5-0.3
						c-0.1,0-1.4,0.3-1.5,0.3c-0.1,0-1.1,0.7-1.1,0.7L59.8,58.6z"/>
					<path class="st84" d="M67.6,63.1c0.3,0.6,0.5,1.5,0.3,2.3c-0.6,1.8-2.3,1.6-2.8,0.8c0.2,1,0.5,2.3,1.6,2.4
						c1.6,0.1,1.5-4.5,1.2-5.1C67.8,63.3,67.7,63.2,67.6,63.1z"/>
					<polygon class="st102" points="63.3,67.3 63.1,70.4 65.4,69.9 63.6,67.2 					"/>
				</g>
			</g>
			<polygon class="st102" points="71.3,37.8 72.3,43.5 102.8,40.7 102.4,35.7 			"/>
			<polygon class="st102" points="74.2,54.1 75,59.2 104.2,56.1 103.8,51.4 			"/>
			<polygon class="st102" points="75.8,71.7 75.7,76.6 109.3,73.5 108.8,68 			"/>
			<polygon class="st102" points="77.3,87.9 77.8,93.1 112.1,89.9 111.7,86.1 			"/>
			
				<rect x="73" y="45.5" transform="matrix(0.9958 -9.143832e-02 9.143832e-02 0.9958 -3.9584 7.5761)" class="st50" width="15.4" height="3"/>
			<polygon class="st50" points="91.4,44.5 91.7,47.5 104.6,46.3 103.9,43.3 			"/>
			<polygon class="st50" points="75.6,62.3 75.3,66 87.4,64.9 87.2,62.2 			"/>
			<polygon class="st50" points="91.3,61.5 91.5,64.1 104.8,62.3 104.6,59.7 			"/>
			<polygon class="st50" points="76.5,79.5 76.9,83.8 93.2,82.3 92.9,79.4 			"/>
			<polygon class="st50" points="78.5,96.7 78.8,100.5 91.1,99 90.3,95.7 			"/>
			<polygon class="st50" points="94.4,95.3 94.3,99.1 112.7,96.7 112.4,93.6 			"/>
			
				<ellipse transform="matrix(0.1382 -0.9904 0.9904 0.1382 19.7599 84.1497)" class="st183" cx="58.2" cy="30.7" rx="4.7" ry="5.7"/>
			<polygon class="st183" points="65.2,26.4 66.2,31.2 93,29.3 99.8,28.8 99.2,24 			"/>
		</g>
		<g>
			<path class="st184" d="M67.9,11.9c0,5.3-9.6,17-9.6,17s-9.6-11.6-9.6-17s4.3-9.6,9.6-9.6S67.9,6.5,67.9,11.9z"/>
			<ellipse transform="matrix(0.7071 -0.7071 0.7071 0.7071 8.7407 44.6214)" class="st183" cx="58.2" cy="11.8" rx="4" ry="4"/>
		</g>
	</g>
</g>
<g id="Layer_3">
</g>
</svg>
