<?xml version="1.0" encoding="UTF-8"?>
<svg width="40px" height="40px" viewBox="0 0 40 40" version="1.1" xmlns="http://www.w3.org/2000/svg" xmlns:xlink="http://www.w3.org/1999/xlink">
    <!-- Generator: Sketch 42 (36781) - http://www.bohemiancoding.com/sketch -->
    <title>Group</title>
    <desc>Created with Sketch.</desc>
    <defs></defs>
    <g id="Page-1" stroke="none" stroke-width="1" fill="none" fill-rule="evenodd">
        <g id="Group" fill-rule="nonzero">
            <path d="M14.2057143,0.979428571 C13.6594286,0.979428571 13.1154286,1.19657143 12.6262857,1.41371429 C12.0811429,1.63314286 11.592,1.85028571 11.0491429,2.12228571 C10.0137143,2.66628571 8.98057143,3.32 8.05485714,4.02742857 C7.12914286,4.736 6.36685714,5.49714286 5.552,6.31314286 C5.17028571,6.74742857 4.78857143,7.07428571 4.62628571,7.67314286 C4.46285714,8.21714286 4.46285714,8.70742857 4.51657143,9.25028571 C4.73371429,9.25028571 5.27885714,8.272 5.44228571,8.10742857 C5.82285714,7.67314286 6.15085714,7.23885714 6.58514286,6.80228571 C7.34742857,6.04114286 8.10857143,5.27885714 9.03428571,4.62628571 C10.0137143,3.91771429 10.9931429,3.26628571 12.0811429,2.77485714 C12.464,2.61257143 13.224,2.44914286 13.4434286,2.06857143 C13.552,1.85142857 13.6605714,1.68685714 13.824,1.52342857 C13.8788571,1.41485714 14.3154286,1.03428571 14.2057143,0.979428571 C14.1485714,0.979428571 14.2582857,0.979428571 14.2057143,0.979428571 L14.2057143,0.979428571 Z" id="Shape" fill="#4296A6"></path>
            <path d="M35.8628571,7.50857143 C35.3737143,6.96571429 34.8845714,6.36571429 34.3942857,5.82285714 C33.7954286,5.224 33.1977143,4.68 32.5428571,4.19085714 C31.4571429,3.26514286 30.3142857,2.66628571 29.0617143,2.01371429 C27.7542857,1.36 26.448,0.708571429 24.9782857,0.544 C24.3268571,0.435428571 23.6182857,0.490285714 22.9097143,0.544 C22.2034286,0.652571429 21.2228571,0.816 21.0057143,0.978285714 C20.5714286,1.41485714 21.2228571,1.63314286 21.5508571,1.79542857 C22.0948571,2.01485714 22.5851429,2.28685714 23.0742857,2.504 C24.1085714,2.99542857 24.9794286,3.75657143 25.8514286,4.464 C26.5028571,5.06285714 27.1017143,5.66057143 27.6457143,6.31542857 C28.08,6.80342857 28.7348571,7.94628571 29.4422857,7.83771429 C29.2788571,7.83771429 29.5508571,8.00114286 29.4971429,7.89257143 C29.4971429,8.16457143 31.5085714,7.45828571 31.728,7.40114286 C32.1085714,7.29371429 32.4902857,7.184 32.9257143,7.13028571 C33.088,7.07542857 33.6868571,7.02171429 34.2857143,7.07542857 C34.5577143,7.07542857 34.9371429,7.23885714 35.1565714,7.29257143 C35.32,7.34971429 36.1908571,8.10971429 36.3542857,8.10971429 C36.3542857,8.00114286 35.92,7.56571429 35.8628571,7.51085714 C35.8091429,7.45828571 35.92,7.568 35.8628571,7.51085714 L35.8628571,7.50857143 Z" id="Shape" fill="#A2DCEA"></path>
            <path d="M36.68,9.46971429 C36.3542857,9.088 36.0285714,8.70742857 35.6457143,8.272 C35.32,7.89142857 34.8297143,7.456 34.5577143,7.07428571 C35.1565714,7.184 35.8091429,7.50857143 36.1348571,7.83657143 C36.3542857,8.05371429 36.5714286,8.38057143 36.68,8.70742857 C36.7348571,8.86971429 37.1142857,9.79314286 36.68,9.46857143 C36.6262857,9.41371429 36.7348571,9.52228571 36.68,9.46857143 L36.68,9.46971429 Z M12.6262857,36.8982857 C12.5165714,36.7885714 12.0811429,36.6811429 11.9725714,36.6262857 C11.7554286,36.5165714 11.4834286,36.4091429 11.264,36.2445714 C10.776,35.9725714 10.2857143,35.7005714 9.79542857,35.3737143 C9.03542857,34.8845714 8.27314286,34.2857143 7.56685714,33.6868571 C6.74971429,32.9782857 5.98742857,32.1097143 5.33485714,31.2377143 C5.17142857,31.0205714 5.06285714,30.8034286 4.90057143,30.64 C4.78971429,30.5302857 4.62628571,30.1485714 4.464,30.0948571 C4.35542857,30.0411429 4.08228571,30.0948571 3.97257143,30.0948571 C3.81028571,30.0948571 3.75542857,30.0411429 3.59314286,29.9862857 C3.53828571,29.9862857 3.32114286,29.8777143 3.26628571,29.9314286 C3.15771429,30.2057143 3.86514286,31.0742857 4.02857143,31.2914286 C4.30057143,31.6731429 4.62742857,32.0548571 4.95428571,32.4342857 C5.552,33.2514286 6.31428571,34.0137143 7.13028571,34.6662857 C8.00114286,35.3748571 8.872,36.136 9.85028571,36.68 C10.1245714,36.8434286 10.3954286,37.0068571 10.7222857,37.1714286 C10.9394286,37.2788571 11.2674286,37.5508571 11.5394286,37.6057143 C11.9211429,37.6594286 12.4651429,37.224 12.7908571,37.0617143 C12.7371429,36.9508571 12.6822857,36.9508571 12.6285714,36.8971429 C12.6285714,36.8422857 12.6822857,36.8971429 12.6285714,36.8971429 L12.6262857,36.8982857 Z M39.6194286,23.5657143 C39.6194286,23.5085714 39.6194286,23.5085714 39.5645714,23.456 C39.4,23.6194286 39.2902857,23.8365714 39.0731429,23.9451429 C38.9108571,24.0548571 38.6388571,24.1085714 38.5291429,24.2171429 C38.4205714,24.3268571 38.4205714,24.2171429 38.3657143,24.4342857 C38.3131429,24.5988571 38.2582857,24.7622857 38.2582857,24.9257143 C38.2045714,25.1977143 38.0948571,25.4148571 37.9862857,25.6868571 C37.6594286,26.6125714 37.2777143,27.5382857 36.8434286,28.4068571 C36.3542857,29.3874286 35.7554286,30.3131429 35.0491429,31.184 C34.3405714,32.0548571 33.5234286,32.816 32.816,33.6331429 C33.3074286,33.6331429 33.7954286,33.8502857 34.2857143,33.6331429 C34.7771429,33.4137143 35.2114286,32.7074286 35.592,32.3257143 C36.3005714,31.5085714 36.8982857,30.5291429 37.4434286,29.6057143 C37.9314286,28.7337143 38.3668571,27.808 38.8034286,26.8285714 C39.0742857,26.2845714 39.2377143,25.632 39.4011429,25.0342857 C39.5097143,24.5977143 39.728,23.9988571 39.6182857,23.5634286 C39.6182857,23.5634286 39.6731429,23.6171429 39.6182857,23.5634286 L39.6194286,23.5657143 Z" id="Shape" fill="#4296A6"></path>
            <path d="M38.9657143,18.7771429 C38.912,16.7085714 38.4217143,14.64 37.6594286,12.7348571 C37.2251429,11.6457143 36.68,10.6125714 36.0822857,9.63314286 C35.808,9.19657143 35.5371429,8.81485714 35.2114286,8.37942857 C34.9371429,7.99885714 34.6125714,7.45371429 34.1771429,7.18285714 C33.9051429,6.96571429 33.2514286,7.128 32.8708571,7.18285714 C32.3268571,7.29142857 31.8365714,7.4 31.3474286,7.56342857 C30.9645714,7.67085714 30.6388571,7.83428571 30.312,7.94285714 C29.9851429,8.05257143 29.6582857,7.94285714 29.3862857,7.88914286 C28.6251429,7.61714286 28.1897143,6.85485714 27.6994286,6.312 C27.2102857,5.76685714 26.72,5.22171429 26.176,4.67771429 C25.3051429,3.91657143 24.3794286,3.15428571 23.3462857,2.55542857 C22.8571429,2.28571429 22.2571429,2.01371429 21.7142857,1.79428571 C21.3337143,1.63428571 20.5714286,1.41485714 21.0628571,0.979428571 C19.2651429,0.979428571 17.5771429,1.088 15.8365714,1.47085714 C14.2045714,1.85028571 12.7348571,2.50285714 11.2651429,3.26514286 C9.85142857,4.02742857 8.49142857,5.06285714 7.29142857,6.14857143 C6.74857143,6.64 6.25828571,7.23771429 5.76914286,7.83657143 C5.49714286,8.10857143 5.27771429,8.43542857 5.06057143,8.76228571 C4.89828571,8.97942857 4.62628571,9.25142857 4.57142857,9.52342857 C4.84342857,9.52342857 5.28,9.08914286 5.49714286,8.97942857 C5.87771429,8.70742857 6.36571429,8.54514286 6.80228571,8.328 C7.56457143,7.94514286 8.32685714,7.61942857 9.14285714,7.34742857 C9.90514286,7.128 10.8297143,6.584 11.6457143,6.69257143 C12.6262857,6.80114286 12.1908571,7.83542857 12.1371429,8.43428571 C11.92,10.1222857 11.8628571,11.8091429 12.0274286,13.4971429 C12.0811429,14.2057143 12.136,14.8571429 12.2994286,15.5657143 C12.3542857,15.9451429 12.408,16.3268571 12.5165714,16.7085714 C12.5714286,17.088 12.7337143,17.4148571 12.68,17.7942857 C12.5714286,18.8297143 11.7005714,19.1565714 10.8285714,19.3737143 C10.5577143,19.4285714 7.94514286,20.0274286 8,20.1908571 C8,20.136 6.04114286,20.8422857 5.82285714,20.952 C5.06171429,21.224 4.35428571,21.6057143 3.70057143,21.9862857 C3.15657143,22.3131429 2.55771429,22.64 2.17714286,23.1291429 C1.85028571,23.456 2.01371429,23.7828571 2.12228571,24.2171429 C2.23085714,24.7085714 2.39428571,25.1977143 2.55657143,25.6868571 C3.10171429,27.3737143 3.91885714,29.0068571 4.89942857,30.4217143 C5.768,31.7268571 6.85714286,33.0331429 8.05371429,34.0125714 C9.47085714,35.1554286 11.048,36.4068571 12.7885714,37.0068571 C11.9725714,36.1348571 11.1565714,35.3188571 10.4491429,34.3931429 C10.0685714,33.904 9.74057143,33.4137143 9.36,32.8697143 C9.19771429,32.6525714 9.03428571,32.3782857 8.92571429,32.1074286 C8.816,31.8902857 9.41485714,31.2365714 9.63428571,31.2365714 C10.2308571,31.2365714 10.8845714,30.7474286 11.4834286,30.6388571 C13.0068571,30.3645714 14.5851429,29.9851429 16,29.3862857 C16.7085714,29.1142857 17.36,28.7348571 18.0685714,28.4605714 C18.72,28.1897143 19.6457143,28.2434286 20.1371429,28.8422857 C20.5165714,29.2765714 20.7348571,29.9851429 21.0628571,30.4765714 C21.4971429,31.128 21.8777143,31.8365714 22.3131429,32.488 C23.1291429,33.6857143 24.1074286,34.8285714 25.1428571,35.808 C25.7417143,36.3531429 26.3942857,36.8422857 27.1017143,37.1142857 C27.536,37.2777143 27.7554286,37.1142857 28.136,36.9508571 L29.4411429,36.2994286 C32.2708571,34.72 34.7748571,32.4342857 36.4068571,29.6594286 C38.2034286,26.176 39.0731429,22.6388571 38.9645714,18.7748571 C38.9645714,18.5005714 38.9645714,19.6982857 38.9645714,18.7748571 L38.9657143,18.7771429 Z M12.2994286,10.8834286 L12.2994286,11.264 L12.2994286,10.8834286 Z M12.3542857,12.6788571 L12.3542857,12.5714286 L12.3542857,12.68 L12.3542857,12.6788571 Z M2.93714286,22.3657143 C2.93714286,22.4228571 2.93714286,22.4228571 2.99428571,22.4765714 C2.99428571,22.4217143 2.99428571,22.3668571 2.93714286,22.3668571 L2.93714286,22.3657143 Z M12.5714286,17.0891429 L12.5714286,17.1428571 C12.6262857,17.1428571 12.5714286,17.1428571 12.5714286,17.088 L12.5714286,17.0891429 Z M36.5714286,23.512 C36.2994286,24.5451429 36.2445714,26.2868571 35.2114286,26.8857143 C34.72,27.1577143 34.1222857,26.9394286 33.6342857,26.8308571 C33.0342857,26.6674286 32.3805714,26.5588571 31.7828571,26.4502857 C27.8628571,25.5794286 23.9451429,24.9268571 19.9725714,24.2182857 C19.5382857,24.1645714 19.1017143,24.056 18.6662857,24.0011429 C18.1222857,23.9462857 17.5234286,23.8925714 17.0342857,23.6742857 C15.9451429,23.1851429 16.0548571,22.0971429 16.272,21.1714286 C16.7634286,19.2662857 17.1428571,17.2514286 17.4148571,15.2937143 C17.5234286,14.4251429 17.6868571,13.5531429 17.7954286,12.6285714 C17.9062857,11.8114286 17.7954286,10.6685714 18.5588571,10.1257143 C19.4297143,9.472 20.9531429,9.96114286 21.8788571,10.1257143 C22.9131429,10.3428571 24.0011429,10.5051429 25.0354286,10.7234286 C27.3211429,11.16 29.6068571,11.7588571 31.8377143,12.4114286 C33.0891429,12.792 34.3405714,13.2274286 35.5382857,13.7177143 C36.0297143,13.8811429 36.5725714,14.0445714 36.8445714,14.48 C37.2788571,15.024 37.3885714,15.7862857 37.336,16.4937143 C37.4434286,16.7645714 37.1165714,21.1725714 36.5725714,23.5108571 L36.5714286,23.512 Z" id="Shape" fill="#2C6182"></path>
            <path d="M37.4422857,15.6731429 C37.3874286,15.1291429 37.2251429,14.5851429 36.7337143,14.2045714 C36.3542857,13.8765714 35.7005714,13.7131429 35.2651429,13.5497143 C34.2308571,13.1154286 33.1428571,12.7874286 32.0537143,12.4617143 C29.9851429,11.808 27.9188571,11.3188571 25.7954286,10.8845714 C24.7634286,10.6651429 23.7291429,10.5017143 22.6948571,10.2845714 L20.9005714,9.95771429 C20.4091429,9.84914286 19.8102857,9.74057143 19.3211429,9.79428571 C18.1234286,9.95885714 18.0697143,11.048 17.9062857,11.9725714 C17.7965714,12.8434286 17.6891429,13.7691429 17.5245714,14.64 C17.3074286,15.728 17.144,16.816 16.9268571,17.9051429 C16.872,18.2308571 16.0011429,22.3131429 16.056,22.4765714 C16.1645714,22.9657143 16.4902857,23.456 16.9817143,23.6194286 C17.4708571,23.8365714 18.0697143,23.8914286 18.5588571,23.9451429 C19.1028571,24 19.5931429,24.1622857 20.136,24.2171429 C21.2251429,24.4342857 22.368,24.5988571 23.5108571,24.816 C23.9474286,24.9257143 25.472,25.1428571 25.744,25.1977143 C25.9611429,25.2514286 27.4857143,25.5234286 27.9211429,25.632 L29.552,25.9588571 C30.2057143,26.0685714 30.912,26.2308571 31.5657143,26.3405714 C31.8914286,26.3942857 32.2171429,26.5028571 32.544,26.5577143 C32.7074286,26.6125714 32.9257143,26.6125714 33.088,26.6662857 C33.4148571,26.7211429 33.3051429,26.7211429 33.4697143,26.4491429 C33.2525714,26.8297143 33.5782857,26.776 33.904,26.8297143 C34.1782857,26.8845714 34.5028571,27.0468571 34.776,26.9931429 C35.3188571,26.936 35.6445714,26.3931429 35.8617143,25.9577143 C36.3531429,24.8697143 36.5154286,23.5634286 36.7337143,22.3657143 C36.8971429,21.3337143 37.1142857,20.3542857 37.2228571,19.32 C37.3874286,18.2308571 37.6057143,16.8708571 37.4422857,15.6742857 C37.3874286,15.5097143 37.4422857,15.9451429 37.4422857,15.6742857 L37.4422857,15.6731429 Z M12.4628571,17.088 C11.7542857,14.2045714 11.5371429,10.9394286 12.0811429,8 C12.1382857,7.67314286 12.3005714,7.29142857 12.1382857,6.96571429 C11.9737143,6.58514286 11.5382857,6.58514286 11.1577143,6.58514286 C10.2868571,6.69371429 9.416,7.07428571 8.6,7.40114286 C7.12914286,8 5.49714286,8.70857143 4.29942857,9.63428571 C2.99314286,10.6125714 1.90514286,11.7554286 1.41485714,13.3874286 C0.870857143,15.0742857 0.598857143,16.7085714 0.434285714,18.4502857 C0.326857143,19.9188571 0.434285714,21.4971429 0.708571429,22.9645714 C0.762285714,23.2388571 0.816,23.9451429 1.03428571,24.1645714 C1.19771429,24.3268571 1.14285714,24.272 1.30628571,24.0548571 C1.41485714,23.8377143 1.52342857,23.6205714 1.68685714,23.456 C2.06857143,22.9645714 2.55771429,22.5851429 3.10171429,22.2045714 C4.62628571,21.1691429 6.47657143,20.5702857 8.21714286,20.0262857 C9.19771429,19.6994286 10.2308571,19.4822857 11.2651429,19.2102857 C12.136,18.8834286 12.7348571,18.0674286 12.4628571,17.0868571 C12.4628571,17.0868571 12.5165714,17.304 12.4628571,17.0868571 L12.4628571,17.088 Z M28.408,37.3874286 C26.776,37.2788571 25.36,36.136 24.2708571,34.9382857 C23.0742857,33.688 21.9851429,32.2731429 21.1165714,30.8034286 C20.4628571,29.7154286 19.8091429,27.7017143 18.1222857,28.1371429 C17.36,28.3542857 16.5988571,28.8434286 15.8914286,29.1154286 C14.9657143,29.4971429 13.9862857,29.8777143 13.0068571,30.0948571 C12.3005714,30.2582857 11.5931429,30.4217143 10.8857143,30.4765714 L8.92685714,30.64 C8.16457143,30.6937143 8.43542857,31.5657143 8.70971429,32.0548571 C9.08914286,32.7634286 9.57828571,33.4697143 10.1234286,34.1234286 C12.1371429,36.68 14.5314286,39.0742857 17.9062857,39.4011429 C18.2868571,39.456 19.1577143,39.5097143 19.2125714,39.5097143 L19.864,39.5097143 C20.8994286,39.5097143 21.8788571,39.4022857 22.8582857,39.2925714 C23.8377143,39.1851429 24.872,38.9668571 25.7428571,38.6411429 C26.1771429,38.5862857 28.68,37.7702857 28.4091429,37.3885714 C28.3005714,37.3885714 28.464,37.4434286 28.4091429,37.3885714 L28.408,37.3874286 Z" id="Shape" fill="#A2DCEA"></path>
        </g>
    </g>
</svg>