<svg style="position: absolute; width: 0; height: 0; overflow: hidden;" version="1.1" xmlns="http://www.w3.org/2000/svg" xmlns:xlink="http://www.w3.org/1999/xlink">
<defs>
<symbol id="icon-twitter" viewBox="0 0 32 32">
<title>twitter</title>
<path d="M26.313 8.679c0.146-0.27 0.267-0.554 0.361-0.851 0.089-0.281-0.003-0.585-0.233-0.769-0.229-0.183-0.549-0.204-0.801-0.056-0.679 0.404-1.409 0.701-2.178 0.891-0.924-0.835-2.137-1.306-3.39-1.306-2.786 0-5.051 2.266-5.051 5.048 0 0.070 0.001 0.139 0.004 0.209-2.958-0.369-5.688-1.873-7.589-4.205-0.146-0.18-0.371-0.274-0.603-0.258-0.232 0.019-0.439 0.148-0.556 0.351-0.447 0.768-0.684 1.645-0.684 2.539 0 0.847 0.21 1.662 0.597 2.385-0.098 0.016-0.195 0.052-0.283 0.103-0.216 0.128-0.349 0.386-0.349 0.637 0 1.502 0.668 2.881 1.745 3.818-0.016 0.015-0.030 0.030-0.046 0.046-0.165 0.188-0.22 0.447-0.143 0.685 0.465 1.448 1.54 2.575 2.89 3.13-1.378 0.681-2.977 0.948-4.507 0.766-0.323-0.029-0.637 0.154-0.749 0.466-0.11 0.31 0.007 0.655 0.285 0.834 2.107 1.35 4.54 2.063 7.039 2.063 8.178 0 13.066-6.643 13.066-13.065 0-0.073 0-0.144-0.001-0.217 0.79-0.617 1.476-1.354 2.039-2.197 0.175-0.261 0.156-0.607-0.046-0.848-0.2-0.237-0.529-0.319-0.815-0.198v0zM24.004 11.002c-0.195 0.14-0.306 0.369-0.294 0.61 0.008 0.175 0.012 0.352 0.012 0.527 0 5.727-4.358 11.652-11.65 11.652-1.309 0-2.599-0.22-3.82-0.646 1.462-0.279 2.833-0.902 4.030-1.839 0.236-0.185 0.329-0.498 0.234-0.782-0.095-0.283-0.359-0.476-0.658-0.482-1.179-0.024-2.248-0.61-2.903-1.538 0.335-0.023 0.663-0.078 0.982-0.164 0.316-0.086 0.531-0.378 0.52-0.707s-0.246-0.605-0.568-0.67c-1.327-0.266-2.369-1.248-2.754-2.521 0.352 0.089 0.713 0.14 1.075 0.152 0.311-0.001 0.599-0.192 0.696-0.491s-0.017-0.629-0.281-0.803c-1.012-0.678-1.617-1.808-1.617-3.026 0-0.295 0.036-0.586 0.105-0.871 2.291 2.349 5.399 3.768 8.692 3.933 0.233 0.001 0.437-0.082 0.578-0.253s0.196-0.397 0.146-0.614c-0.062-0.269-0.094-0.548-0.094-0.83 0-2.005 1.632-3.635 3.637-3.635 1.002 0 1.969 0.418 2.653 1.149 0.167 0.179 0.413 0.257 0.654 0.21 0.218-0.044 0.434-0.094 0.647-0.152-0.095 0.071-0.195 0.138-0.299 0.2-0.286 0.171-0.413 0.52-0.306 0.835s0.429 0.521 0.753 0.472c0.081-0.009 0.16-0.020 0.241-0.030-0.131 0.108-0.269 0.213-0.409 0.314v0z"></path>
</symbol>
<symbol id="icon-direction-up" viewBox="0 0 32 32">
<title>direction-up</title>
<path d="M4.653 11.253c0-0.2 0.1-0.3 0.2-0.4l9.8-9.8c0.7-0.7 2-0.7 2.7 0l9.8 9.8c0.2 0.2 0.2 0.6 0 0.8s-0.6 0.2-0.8 0l-9.8-9.8c-0.2-0.2-0.8-0.2-1 0l-9.8 9.8c-0.2 0.2-0.6 0.2-0.8 0-0.3-0.1-0.3-0.3-0.3-0.4z"></path>
<path d="M15.353 30.953v-29.8c0-0.3 0.3-0.6 0.6-0.6s0.6 0.3 0.6 0.6v29.8c0 0.3-0.3 0.6-0.6 0.6s-0.6-0.3-0.6-0.6z"></path>
</symbol>
<symbol id="icon-cloud-upload" viewBox="0 0 32 32">
<title>cloud-upload</title>
<path d="M15 16l-3.25 3.25-0.75-0.75 4.5-4.5 4.5 4.5-0.75 0.75-3.25-3.25v11h-1v-11zM14 21h-6.997c-2.205 0-4.003-1.791-4.003-4 0-1.895 1.325-3.488 3.101-3.898v0c-0.066-0.357-0.101-0.726-0.101-1.102 0-3.314 2.686-6 6-6 2.615 0 4.84 1.673 5.661 4.008 0.774-0.63 1.762-1.008 2.839-1.008 2.358 0 4.293 1.814 4.484 4.123v0c1.73 0.44 3.016 2.009 3.016 3.877 0 2.205-1.792 4-4.003 4h-6.997v1h7.001c2.761 0 4.999-2.244 4.999-5 0-2.096-1.287-3.892-3.117-4.634v0c-0.523-2.493-2.734-4.366-5.383-4.366-0.863 0-1.679 0.199-2.406 0.553-1.203-2.121-3.481-3.553-6.094-3.553-3.866 0-7 3.134-7 7 0 0.138 0.004 0.275 0.012 0.412v0c-1.772 0.77-3.012 2.538-3.012 4.588 0 2.761 2.232 5 4.999 5h7.001v-1z"></path>
</symbol>
<symbol id="icon-lock" viewBox="0 0 32 32">
<title>lock</title>
<path d="M15 21.915v0 0c-0.583-0.206-1-0.762-1-1.415 0-0.828 0.672-1.5 1.5-1.5s1.5 0.672 1.5 1.5c0 0.653-0.417 1.209-1 1.415v2.594c0 0.263-0.224 0.491-0.5 0.491-0.268 0-0.5-0.22-0.5-0.491v-2.594zM14 22.5v1.998c0 0.829 0.666 1.502 1.5 1.502 0.828 0 1.5-0.671 1.5-1.502v-1.998c0.607-0.456 1-1.182 1-2 0-1.381-1.119-2.5-2.5-2.5s-2.5 1.119-2.5 2.5c0 0.818 0.393 1.544 1 2v0 0zM8 14v-3.501c0-4.143 3.358-7.499 7.5-7.499 4.134 0 7.5 3.358 7.5 7.499v3.501c1.659 0.005 3 1.35 3 3.009v9.981c0 1.673-1.347 3.009-3.009 3.009h-14.982c-1.663 0-3.009-1.347-3.009-3.009v-9.981c0-1.67 1.342-3.005 3-3.009v0 0zM9 14h1v-3.491c0-3.048 2.462-5.509 5.5-5.509 3.031 0 5.5 2.466 5.5 5.509v3.491h1v-3.507c0-3.586-2.917-6.493-6.5-6.493-3.59 0-6.5 2.908-6.5 6.493v3.507zM11 14h9v-3.499c0-2.486-2.020-4.501-4.5-4.501-2.485 0-4.5 2.009-4.5 4.501v3.499zM7.997 15c-1.103 0-1.997 0.897-1.997 2.006v9.988c0 1.108 0.891 2.006 1.997 2.006h15.005c1.103 0 1.997-0.897 1.997-2.006v-9.988c0-1.108-0.891-2.006-1.997-2.006h-15.005z"></path>
</symbol>
<symbol id="icon-check-circle" viewBox="0 0 32 32">
<title>check-circle</title>
<path d="M12.6 22.1c-0.5 0-1-0.2-1.3-0.5l-4-4c-0.2-0.2-0.2-0.6 0-0.8s0.6-0.2 0.8 0l4 4c0.2 0.2 0.7 0.2 0.9 0l10.7-10.8c0.2-0.2 0.6-0.2 0.8 0s0.2 0.6 0 0.8l-10.6 10.8c-0.4 0.3-0.8 0.5-1.3 0.5z"></path>
<path d="M16 31.4c-8.5 0-15.5-6.9-15.5-15.4s7-15.4 15.5-15.4c8.5 0 15.4 6.9 15.4 15.4-0.1 8.5-7 15.4-15.4 15.4zM16 1.8c-7.9 0-14.2 6.4-14.2 14.2s6.3 14.2 14.2 14.2 14.2-6.4 14.2-14.2-6.4-14.2-14.2-14.2z"></path>
</symbol>
<symbol id="icon-check" viewBox="0 0 32 32">
<title>check</title>
<path d="M12.2 24.1c-0.6 0-1.2-0.2-1.6-0.7l-5.5-5.4c-0.2-0.2-0.2-0.6 0-0.8s0.6-0.2 0.8 0l5.5 5.5c0.4 0.4 1.1 0.4 1.6 0l14.8-14.9c0.2-0.2 0.6-0.2 0.8 0s0.2 0.6 0 0.8l-14.8 14.8c-0.4 0.5-1 0.7-1.6 0.7z"></path>
</symbol>
<symbol id="icon-wheel" viewBox="0 0 32 32">
<title>wheel</title>
<path d="M15.3 31.6v-0.5c0-1.6-1.1-3.1-2.8-3.6-0.8-0.2-1.6-0.6-2.4-1-0.6-0.3-1.2-0.5-1.9-0.5-0.9 0-1.8 0.4-2.4 1l-0.4 0.4-1-1 0.4-0.4c1.2-1 1.4-2.7 0.5-4.2-0.4-0.7-0.7-1.5-1-2.4-0.5-1.7-1.9-2.8-3.6-2.8h-0.4v-1.3h0.5c1.6 0 3.1-1.1 3.6-2.8 0.2-0.8 0.6-1.6 1-2.4 0.8-1.4 0.6-3.1-0.6-4.3l-0.4-0.4 1-1 0.4 0.4c0.6 0.6 1.5 1 2.4 1 0.6 0 1.3-0.2 1.9-0.5 0.7-0.4 1.5-0.7 2.4-1 1.7-0.5 2.8-1.9 2.8-3.6v-0.3h1.3v0.5c0 1.6 1.1 3.1 2.8 3.6 0.8 0.2 1.6 0.6 2.4 1 0.6 0.3 1.2 0.5 1.9 0.5 0.9 0 1.8-0.4 2.4-1l0.4-0.4 1 1-0.4 0.4c-1.1 1.1-1.3 2.9-0.5 4.3 0.4 0.7 0.7 1.5 1 2.4 0.5 1.7 1.9 2.8 3.6 2.8h0.5v1.3h-0.5c-1.6 0-3.1 1.1-3.6 2.8-0.2 0.8-0.6 1.6-1 2.4-0.8 1.5-0.6 3.2 0.5 4.3l0.4 0.4-1 1-0.4-0.4c-0.6-0.6-1.5-1-2.4-1-0.6 0-1.3 0.2-1.9 0.5-0.7 0.4-1.5 0.7-2.4 1-1.7 0.5-2.8 1.9-2.8 3.6v0.5h-1.3zM15.9 5.2c-5.9 0-10.8 4.8-10.8 10.8s4.8 10.8 10.8 10.8c6 0 10.8-4.8 10.8-10.8 0.1-6-4.8-10.8-10.8-10.8z"></path>
</symbol>
<symbol id="icon-arrow-down" viewBox="0 0 32 32">
<title>arrow-down</title>
<path d="M25.753 11.653c0 0.2-0.1 0.3-0.2 0.4l-8.4 8.4c-0.3 0.3-0.7 0.5-1.2 0.5s-0.9-0.2-1.2-0.5l-8.4-8.4c-0.2-0.2-0.2-0.6 0-0.8s0.6-0.2 0.8 0l8.4 8.4c0.1 0.1 0.2 0.1 0.4 0.1s0.3 0 0.4-0.1l8.4-8.4c0.2-0.2 0.6-0.2 0.8 0 0.1 0.1 0.2 0.2 0.2 0.4z"></path>
</symbol>
<symbol id="icon-arrow-up" viewBox="0 0 32 32">
<title>arrow-up</title>
<path d="M6.153 20.347c0-0.2 0.1-0.3 0.2-0.4l8.4-8.4c0.3-0.3 0.7-0.5 1.2-0.5s0.9 0.2 1.2 0.5l8.4 8.4c0.2 0.2 0.2 0.6 0 0.8s-0.6 0.2-0.8 0l-8.4-8.4c-0.1-0.1-0.2-0.1-0.4-0.1s-0.3 0-0.4 0.1l-8.4 8.4c-0.2 0.2-0.6 0.2-0.8 0-0.1-0.1-0.2-0.2-0.2-0.4z"></path>
</symbol>
<symbol id="icon-arrow-left" viewBox="0 0 32 32">
<title>arrow-left</title>
<path d="M20.3 25.8c-0.2 0-0.3-0.1-0.4-0.2l-8.4-8.4c-0.3-0.3-0.5-0.7-0.5-1.2s0.2-0.9 0.5-1.2l8.4-8.4c0.2-0.2 0.6-0.2 0.8 0s0.2 0.6 0 0.8l-8.4 8.4c-0.1 0.1-0.1 0.2-0.1 0.4s0 0.3 0.1 0.4l8.4 8.4c0.2 0.2 0.2 0.6 0 0.8-0.1 0.1-0.2 0.2-0.4 0.2z"></path>
</symbol>
<symbol id="icon-arrow-right" viewBox="0 0 32 32">
<title>arrow-right</title>
<path d="M11.6 6.2c0.2 0 0.3 0.1 0.4 0.2l8.4 8.4c0.3 0.3 0.5 0.7 0.5 1.2s-0.2 0.9-0.5 1.2l-8.4 8.4c-0.2 0.2-0.6 0.2-0.8 0s-0.2-0.6 0-0.8l8.4-8.4c0.1-0.1 0.1-0.2 0.1-0.4s0-0.3-0.1-0.4l-8.4-8.4c-0.2-0.2-0.2-0.6 0-0.8 0.1-0.1 0.2-0.2 0.4-0.2z"></path>
</symbol>
<symbol id="icon-cancel" viewBox="0 0 32 32">
<title>cancel</title>
<path d="M16.8 16l7.6-7.7c0.2-0.2 0.2-0.6 0-0.8s-0.6-0.2-0.8 0l-7.6 7.6-7.7-7.6c-0.2-0.2-0.6-0.2-0.8 0s-0.2 0.6 0 0.8l7.6 7.7-7.6 7.7c-0.2 0.2-0.2 0.6 0 0.8 0.1 0.1 0.3 0.2 0.4 0.2 0.2 0 0.3-0.1 0.4-0.2l7.6-7.7 7.6 7.7c0.1 0.1 0.3 0.2 0.4 0.2 0.2 0 0.3-0.1 0.4-0.2 0.2-0.2 0.2-0.6 0-0.8l-7.5-7.7z"></path>
</symbol>
<symbol id="icon-map-pin" viewBox="0 0 24 32">
<title>map-pin</title>
<path d="M12 0c-6.617 0-12 5.394-12 12.022 0 9.927 11.201 19.459 11.678 19.86 0.093 0.079 0.208 0.118 0.322 0.118s0.226-0.038 0.318-0.114c0.477-0.394 11.682-9.762 11.682-19.864 0-6.628-5.383-12.022-12-12.022zM12.002 30.838c-1.841-1.645-11.002-10.259-11.002-18.816 0-6.078 4.935-11.022 11-11.022s11 4.944 11 11.022c0 8.702-9.152 17.193-10.998 18.816zM12 6c-3.309 0-6 2.691-6 6s2.691 6 6 6 6-2.691 6-6-2.691-6-6-6zM12 17c-2.757 0-5-2.243-5-5s2.243-5 5-5 5 2.243 5 5-2.243 5-5 5z"></path>
</symbol>
<symbol id="icon-clock" viewBox="0 0 32 32">
<title>clock</title>
<path d="M16 32c8.822 0 16-7.178 16-16s-7.178-16-16-16-16 7.178-16 16 7.178 16 16 16zM16 1c8.271 0 15 6.729 15 15s-6.729 15-15 15-15-6.729-15-15 6.729-15 15-15zM20.061 21.768c0.098 0.098 0.226 0.146 0.354 0.146s0.256-0.049 0.354-0.146c0.195-0.195 0.195-0.512 0-0.707l-4.769-4.768v-6.974c0-0.276-0.224-0.5-0.5-0.5s-0.5 0.224-0.5 0.5v7.181c0 0.133 0.053 0.26 0.146 0.354l4.915 4.914zM3 16c0 0.552 0.448 1 1 1s1-0.448 1-1c0-0.552-0.448-1-1-1s-1 0.448-1 1zM27 16c0 0.552 0.448 1 1 1s1-0.448 1-1c0-0.552-0.448-1-1-1s-1 0.448-1 1zM15 4c0 0.552 0.448 1 1 1s1-0.448 1-1c0-0.552-0.448-1-1-1s-1 0.448-1 1zM15 28c0 0.552 0.448 1 1 1s1-0.448 1-1c0-0.552-0.448-1-1-1s-1 0.448-1 1zM7 8c0 0.552 0.448 1 1 1s1-0.448 1-1c0-0.552-0.448-1-1-1s-1 0.448-1 1zM23 24c0 0.552 0.448 1 1 1s1-0.448 1-1c0-0.552-0.448-1-1-1s-1 0.448-1 1zM24 8c0 0.552 0.448 1 1 1s1-0.448 1-1c0-0.552-0.448-1-1-1s-1 0.448-1 1zM7 24c0 0.552 0.448 1 1 1s1-0.448 1-1c0-0.552-0.448-1-1-1s-1 0.448-1 1z"></path>
</symbol>
<symbol id="icon-flag" viewBox="0 0 32 32">
<title>flag</title>
<path d="M8 8.5v-5.5h16l-5.5 5.5 5.5 5.5h-15v15h-1v-20.5zM9 4v9h12.5l-4.5-4.5 4.5-4.5h-12.5z"></path>
</symbol>
<symbol id="icon-star" viewBox="0 0 32 32">
<title>star</title>
<path d="M16 23l9 6-4-10 9-6h-10l-4-10-4 10h-10l9 6-4 10 9-6zM16 21.753l-6.8 4.547 3.2-7.7-7.2-4.6h7.5l3.3-8.5 3.3 8.5h7.5l-7.2 4.6 3.2 7.7-6.8-4.547z"></path>
</symbol>
<symbol id="icon-trash" viewBox="0 0 32 32">
<title>trash</title>
<path d="M23 7h4v1h-2v18.993c0 1.671-1.343 3.007-3 3.007h-11c-1.666 0-3-1.346-3-3.007v-18.993h-2v-1h6v-1.995c0-1.111 0.894-2.005 1.997-2.005h5.005c1.102 0 1.997 0.898 1.997 2.005v1.995h2zM9 8v19.005c0 1.102 0.893 1.995 1.992 1.995h11.016c1.1 0 1.992-0.902 1.992-1.995v-19.005h-15zM12 10v17h1v-17h-1zM16 10v17h1v-17h-1zM20 10v17h1v-17h-1zM14.003 4c-0.554 0-1.003 0.443-1.003 0.999v2.001h7v-2.001c0-0.552-0.438-0.999-1.003-0.999h-4.994z"></path>
</symbol>
<symbol id="icon-copy" viewBox="0 0 32 32">
<title>copy</title>
<path d="M23 12.5v13.5h4c0.552 0 1-0.445 1-0.993v-17.007h-4.002c-1.103 0-1.998-0.887-1.998-2.006v-4.994h-10.004c-0.55 0-0.996 0.455-0.996 0.995v3.005h6l6 7v0.5zM10 5v-2.993c0-1.109 0.897-2.007 2.003-2.007h10.997l6 7v18.009c0 1.093-0.894 1.991-1.997 1.991h-4.003v3.009c0 1.093-0.894 1.991-1.997 1.991h-15.005c-1.107 0-1.997-0.899-1.997-2.007v-22.985c0-1.109 0.897-2.007 2.003-2.007h3.997zM23 1.5v4.491c0 0.557 0.451 1.009 0.997 1.009h3.703l-4.7-5.5zM16 6h-10.004c-0.55 0-0.996 0.455-0.996 0.995v23.009c0 0.55 0.455 0.995 1 0.995h15c0.552 0 1-0.445 1-0.993v-17.007h-4.002c-1.103 0-1.998-0.887-1.998-2.006v-4.994zM17 6.5v4.491c0 0.557 0.451 1.009 0.997 1.009h3.703l-4.7-5.5z"></path>
</symbol>
<symbol id="icon-inbox-download" viewBox="0 0 32 32">
<title>inbox-download</title>
<path d="M15 16l-3.25-3.25-0.75 0.75 4.5 4.5 4.5-4.5-0.75-0.75-3.25 3.25v-11h-1v11zM17 11h5.4l4.375 7h-6.775v2.002c0 1.1-0.894 1.998-1.997 1.998h-5.005c-1.102 0-1.997-0.895-1.997-1.998v-2.002h-6.775l4.375-7h5.4v-1h-6l-5 8v9h25v-9l-5-8h-6v1zM21 19h6v7h-23v-7h6v1.5c0 1.381 1.115 2.5 2.496 2.5h6.008c1.379 0 2.496-1.11 2.496-2.5v-1.5z"></path>
</symbol>
<symbol id="icon-search" viewBox="0 0 32 32">
<title>search</title>
<path d="M19.427 20.427c-1.39 0.99-3.090 1.573-4.927 1.573-4.694 0-8.5-3.806-8.5-8.5s3.806-8.5 8.5-8.5c4.694 0 8.5 3.806 8.5 8.5 0 2.347-0.951 4.472-2.49 6.010l5.997 5.997c0.275 0.275 0.268 0.716-0.008 0.992-0.278 0.278-0.72 0.28-0.992 0.008l-6.081-6.081zM14.5 21c4.142 0 7.5-3.358 7.5-7.5s-3.358-7.5-7.5-7.5c-4.142 0-7.5 3.358-7.5 7.5s3.358 7.5 7.5 7.5v0z"></path>
</symbol>
<symbol id="icon-edit" viewBox="0 0 32 32">
<title>edit</title>
<path d="M22.443 12.15l-11.286 11.3-2.606-2.606 11.292-11.294 2.6 2.6zM23.15 11.443l-2.599-2.599 1.727-1.728c0.391-0.391 1.024-0.388 1.417 0.003l1.18 1.177c0.392 0.391 0.395 1.025 0.005 1.416l-1.729 1.731zM7.904 21.611l2.495 2.495-3.135 0.617 0.64-3.113zM7 21l-1 5 5-1 14.58-14.58c0.784-0.784 0.786-2.054 0.010-2.83l-1.18-1.179c-0.779-0.779-2.037-0.783-2.83 0.010l-14.58 14.58z"></path>
</symbol>
<symbol id="icon-document-file-pdf" viewBox="0 0 32 32">
<title>document-file-pdf</title>
<path d="M21 13v-3l-6-7h-10.997c-1.106 0-2.003 0.898-2.003 2.007v22.985c0 1.109 0.891 2.007 1.997 2.007h15.005c1.103 0 1.997-0.898 1.997-1.991v-2.009h7.993c1.661 0 3.007-1.342 3.007-2.999v-7.002c0-1.656-1.336-2.999-3.007-2.999h-7.993zM20 26v2.007c0 0.548-0.448 0.993-1 0.993h-15c-0.545 0-1-0.446-1-0.995v-23.009c0-0.54 0.446-0.995 0.996-0.995h10.004v4.994c0 1.119 0.895 2.006 1.998 2.006h4.002v2h-7.993c-1.661 0-3.007 1.342-3.007 2.999v7.002c0 1.656 1.336 2.999 3.007 2.999h7.993zM15 4.5l4.7 5.5h-3.703c-0.546 0-0.997-0.452-0.997-1.009v-4.491zM11.995 14h17.011c1.092 0 1.995 0.892 1.995 1.992v7.016c0 1.092-0.893 1.992-1.995 1.992h-17.011c-1.092 0-1.995-0.892-1.995-1.992v-7.016c0-1.092 0.893-1.992 1.995-1.992zM25 19v-2h4v-1h-5v7h1v-3h3v-1h-3zM12 18v-2h2.995c1.111 0 2.005 0.895 2.005 2 0 1.112-0.898 2-2.005 2h-1.995v3h-1v-5zM13 17v2h2.001c0.552 0 0.999-0.444 0.999-1 0-0.552-0.443-1-0.999-1h-2.001zM18 16h2.995c1.111 0 2.005 0.898 2.005 2.006v2.988c0 1.119-0.898 2.006-2.005 2.006h-2.995v-7zM19 17v5h2.001c0.552 0 0.999-0.444 0.999-1v-3c0-0.552-0.443-1-0.999-1h-2.001z"></path>
</symbol>
<symbol id="icon-caution" viewBox="0 0 35 32">
<title>caution</title>
<path d="M21.799 2.954c-1.105-1.904-2.609-2.954-4.235-2.954s-3.131 1.050-4.236 2.954l-12.269 21.133c-1.12 1.947-1.24 3.969-0.33 5.546 0.866 1.5 2.565 2.363 4.664 2.367h24.341c0 0 0 0 0.001 0 2.102-0.004 3.804-0.864 4.667-2.361 0.905-1.567 0.783-3.581-0.335-5.525l-12.268-21.16zM33.537 29.139c-0.681 1.18-2.067 1.858-3.804 1.861h-24.339c-1.731-0.003-3.115-0.684-3.799-1.867-0.727-1.26-0.606-2.917 0.33-4.546l12.268-21.131c0.919-1.584 2.116-2.456 3.371-2.456s2.452 0.872 3.37 2.456l12.268 21.157c0.935 1.626 1.057 3.276 0.335 4.526zM17.564 20c0.276 0 0.5-0.224 0.5-0.5v-10c0-0.276-0.224-0.5-0.5-0.5s-0.5 0.224-0.5 0.5v10c0 0.276 0.224 0.5 0.5 0.5zM17.5 22.5c-1.103 0-2 0.897-2 2s0.897 2 2 2 2-0.897 2-2-0.897-2-2-2zM17.5 25.5c-0.551 0-1-0.448-1-1s0.449-1 1-1 1 0.448 1 1-0.449 1-1 1z"></path>
</symbol>
<symbol id="icon-menu" viewBox="0 0 32 32">
<title>menu</title>
<path d="M3.8 7.8h24.5v1.4h-24.5v-1.4z"></path>
<path d="M3.8 15.3h24.5v1.4h-24.5v-1.4z"></path>
<path d="M3.8 22.8h24.5v1.4h-24.5v-1.4z"></path>
</symbol>
<symbol id="icon-dots" viewBox="0 0 32 32">
<title>dots</title>
<path d="M17.6 16c0 0.884-0.716 1.6-1.6 1.6s-1.6-0.716-1.6-1.6c0-0.884 0.716-1.6 1.6-1.6s1.6 0.716 1.6 1.6z"></path>
<path d="M17.6 23.2c0 0.884-0.716 1.6-1.6 1.6s-1.6-0.716-1.6-1.6c0-0.884 0.716-1.6 1.6-1.6s1.6 0.716 1.6 1.6z"></path>
<path d="M17.6 8.8c0 0.884-0.716 1.6-1.6 1.6s-1.6-0.716-1.6-1.6c0-0.884 0.716-1.6 1.6-1.6s1.6 0.716 1.6 1.6z"></path>
</symbol>
<symbol id="icon-filter" viewBox="0 0 32 32">
<title>filter</title>
<path d="M27.7 6c-0.4-0.9-1.3-1.4-2.3-1.4h-18.8c-1 0-2 0.6-2.3 1.4-0.3 0.7-0.2 1.5 0.4 2.1l10.4 11.1v8.2h1.8v-8.2l10.4-11.1c0.6-0.6 0.7-1.4 0.4-2.1zM26.3 7.2l-10.3 11-10.3-11c-0.2-0.2-0.3-0.4-0.2-0.7 0.1-0.2 0.5-0.5 1.1-0.5h18.8c0.6 0 1 0.3 1.1 0.6 0.1 0.2 0 0.4-0.2 0.6z"></path>
</symbol>
<symbol id="icon-home" viewBox="0 0 32 32">
<title>home</title>
<path d="M16 4.8l9.2 9.3v13.7h-6v-7.2h-6.4v7.2h-6v-13.8l9.2-9.2zM16 3l-10.5 10.5v15.5h8.5v-7.2h4v7.2h8.5v-15.5l-10.5-10.5z"></path>
</symbol>
<symbol id="icon-plus" viewBox="0 0 32 32">
<title>plus</title>
<path d="M27.7 15.4h-11.1v-11.1c0-0.4-0.3-0.6-0.6-0.6s-0.7 0.3-0.7 0.6v11.1h-11c-0.4 0-0.6 0.3-0.6 0.6s0.3 0.6 0.6 0.6h11.1v11.1c0 0.4 0.3 0.7 0.6 0.7s0.6-0.3 0.6-0.7v-11h11.1c0.4 0 0.7-0.3 0.7-0.6s-0.4-0.7-0.7-0.7z"></path>
</symbol>
<symbol id="icon-user" viewBox="0 0 32 32">
<title>user</title>
<path d="M16 4.5c2.9 0 5.2 2.5 5.2 5.5 0 1.9-0.9 3.5-2.2 4.5-0.4 0.3-0.3 0.9 0.1 1 3.1 0.9 5.6 3.7 6 7.2v3.9c0.1 0.5-0.4 1-0.9 1h-16.4c-0.6 0-1-0.4-0.9-1v-3.9c0.4-3.5 2.8-6.2 6-7.2 0.4-0.1 0.5-0.7 0.1-1-1.3-1-2.2-2.6-2.2-4.5 0-3 2.3-5.5 5.2-5.5zM16 3.3c-3.5 0-6.4 3-6.4 6.7 0 1.8 0.7 3.5 1.8 4.7-3.1 1.4-5.3 4.3-5.8 7.8v4c0 0.5 0.1 1.1 0.5 1.5 0.4 0.5 1 0.7 1.6 0.7h16.4c0.6 0 1.2-0.3 1.6-0.7s0.5-1 0.5-1.5v-4c-0.4-3.5-2.6-6.5-5.8-7.8 1.2-1.2 1.8-2.9 1.8-4.7 0.2-3.7-2.7-6.7-6.2-6.7v0z"></path>
</symbol>
<symbol id="icon-users" viewBox="0 0 32 32">
<title>users</title>
<path d="M17.3 7.1c2.6 0 4.7 2.2 4.7 5 0 1.7-0.8 3.2-2 4.1-0.3 0.3-0.3 0.8 0.1 0.9 2.9 0.9 5 3.4 5.4 6.5v3.5c0.1 0.5-0.3 0.9-0.9 0.9h-14.7c-0.5 0-0.9-0.4-0.9-0.9v-3.5c0.4-3.2 2.6-5.7 5.4-6.5 0.4-0.1 0.5-0.6 0.1-0.9-1.2-0.9-2-2.4-2-4.1 0.1-2.8 2.2-5 4.8-5zM17.3 5.9c-3.3 0-5.9 2.8-5.9 6.2 0 1.6 0.6 3.1 1.6 4.2-2.8 1.3-4.8 4-5.2 7.1v3.7c0 0.5 0.1 1 0.5 1.4s1 0.7 1.6 0.7h14.9c0.6 0 1.2-0.3 1.6-0.7s0.5-0.9 0.5-1.4v-3.7c-0.4-3.2-2.4-5.9-5.2-7.1 1-1.1 1.6-2.7 1.6-4.2-0.1-3.4-2.7-6.2-6-6.2v0z"></path>
<path d="M29.6 16.3v0-0.1c-0.3-2.3-1.7-4.3-3.7-5.4 0.6-0.9 1-1.9 1-3 0-2.7-2.1-4.9-4.7-4.9-1.8 0-3.4 1.1-4.2 2.7 0.4 0.1 0.8 0.2 1.2 0.3 0.7-1.2 1.8-1.9 3.1-1.9 1.9 0 3.5 1.7 3.5 3.7 0 1.3-0.6 2.4-1.5 3-0.2 0.2-0.2 0.6 0.1 0.7 2.1 0.6 3.8 2.5 4 4.9v2.6c0 0.3-0.3 0.6-0.6 0.6h-2c0.2 0.4 0.4 0.8 0.6 1.2h1.4c0.5 0 1-0.2 1.4-0.6 0.3-0.4 0.5-0.8 0.4-1.3v-2.5z"></path>
<path d="M7.4 24.5h-3.1c-0.5 0-0.8-0.4-0.8-0.8v-3.1c0.3-2.8 2.3-5 4.8-5.8 0.4-0.1 0.4-0.6 0.1-0.8-1.1-0.8-1.8-2.1-1.8-3.6 0.1-2.4 2-4.4 4.3-4.4 0.9 0 1.8 0.4 2.5 0.9 0.3-0.3 0.7-0.5 1-0.7-0.9-0.9-2.2-1.4-3.5-1.4-3 0-5.4 2.5-5.4 5.6 0 1.4 0.5 2.7 1.3 3.7-2.4 1.2-4.2 3.6-4.5 6.3v3.3c0 0.5 0.1 1 0.5 1.4s0.9 0.7 1.5 0.7h3.1v-1.3z"></path>
</symbol>
<symbol id="icon-chat" viewBox="0 0 32 32">
<title>chat</title>
<path d="M26.706 14.558c-0.193-0.060-0.397 0.045-0.459 0.237s0.045 0.397 0.237 0.459c2.855 0.91 4.129 2.267 4.129 4.401 0 1.899-1.732 3.373-2.764 4.083-0.099 0.069-0.159 0.18-0.159 0.301v2.793c-0.533-0.199-1.463-0.65-2.284-1.575-0.085-0.096-0.216-0.14-0.342-0.116-0.208 0.040-0.421 0.097-0.636 0.155-0.373 0.1-0.757 0.204-1.122 0.204-1.876 0-3.19-0.403-4.533-1.39-0.164-0.12-0.391-0.084-0.511 0.078s-0.085 0.391 0.077 0.511c1.481 1.089 2.92 1.532 4.966 1.532 0.461 0 0.894-0.116 1.312-0.229 0.13-0.036 0.259-0.071 0.387-0.101 1.366 1.442 2.91 1.77 2.977 1.784 0.024 0.005 0.048 0.007 0.073 0.007 0.083 0 0.166-0.029 0.231-0.083 0.085-0.069 0.134-0.173 0.134-0.283v-3.097c1.887-1.345 2.923-2.964 2.923-4.575 0-2.47-1.474-4.090-4.638-5.098l-0-0zM24.768 14.176c0-5.623-5.128-9.864-11.926-9.864-6.833 0-12.185 4.334-12.185 9.865 0 3.316 2.346 5.693 4.384 7.13v4.849c0 0.124 0.063 0.239 0.167 0.307 0.061 0.039 0.129 0.058 0.199 0.058 0.050 0 0.102-0.011 0.15-0.032 0.107-0.047 2.6-1.181 4.734-3.514 0.924 0.172 1.97 0.337 2.918 0.337 6.914 0 11.56-3.672 11.56-9.137l0-0zM13.207 22.582c-0.957 0-2.045-0.183-2.983-0.362-0.126-0.023-0.256 0.020-0.342 0.116-1.498 1.689-3.258 2.763-4.111 3.225v-4.444c0-0.121-0.059-0.232-0.159-0.301-1.927-1.326-4.225-3.553-4.225-6.639 0-5.123 5.031-9.135 11.454-9.135 6.383 0 11.196 3.927 11.196 9.133 0 5.028-4.352 8.406-10.831 8.406zM12.712 12.715c-0.806 0-1.461 0.655-1.461 1.461s0.655 1.461 1.461 1.461c0.806 0 1.461-0.655 1.461-1.461s-0.655-1.461-1.461-1.461zM12.712 14.907c-0.403 0-0.731-0.327-0.731-0.731s0.328-0.731 0.731-0.731c0.403 0 0.731 0.327 0.731 0.731s-0.328 0.731-0.731 0.731zM17.827 12.715c-0.806 0-1.461 0.655-1.461 1.461s0.655 1.461 1.461 1.461c0.806 0 1.461-0.655 1.461-1.461s-0.655-1.461-1.461-1.461zM17.827 14.907c-0.403 0-0.731-0.327-0.731-0.731s0.328-0.731 0.731-0.731c0.403 0 0.731 0.327 0.731 0.731s-0.328 0.731-0.731 0.731zM7.597 12.784c-0.806 0-1.461 0.655-1.461 1.461s0.655 1.461 1.461 1.461c0.806 0 1.461-0.655 1.461-1.461s-0.655-1.461-1.461-1.461zM7.597 14.976c-0.403 0-0.731-0.327-0.731-0.731s0.328-0.731 0.731-0.731c0.403 0 0.731 0.327 0.731 0.731s-0.328 0.731-0.731 0.731v0z"></path>
</symbol>
<symbol id="icon-calendar" viewBox="0 0 32 32">
<title>calendar</title>
<path d="M24.9 5.6v-3h-1v3h-2.3v-3h-1v3h-2.3v-3h-1v3h-2.3v-3h-1v3h-2.3v-3h-1v3h-2.6v-3h-1v3h-3.3v22c0 1.4 1.1 2.5 2.5 2.5h19.5c1.4 0 2.5-1.1 2.5-2.5v-22h-3.4zM7.1 6.9v1.4h1v-1.4h2.3v1.4h1v-1.4h2.3v1.4h1v-1.4h2.3v1.4h1v-1.4h2.3v1.4h1v-1.4h2.3v1.4h1v-1.4h2.1v5.8h-21.6v-5.8h2zM21.2 13.5v4.4h-4.8v-4.4h4.8zM15.6 17.8h-4.8v-4.4h4.8v4.4zM10 17.8h-5v-4.4h5v4.4zM10 18.6v4.4h-5v-4.4h5zM10.8 18.6h4.8v4.4h-4.8v-4.4zM15.6 23.8v5h-4.8v-5h4.8zM16.4 23.8h4.8v5h-4.8v-5zM16.4 23v-4.4h4.8v4.4h-4.8zM22 18.6h5v4.4h-5v-4.4zM22 17.8v-4.4h5v4.4h-5zM5.1 27.6v-3.8h5v5h-3.9c-0.6 0-1.1-0.6-1.1-1.2zM25.8 28.8h-3.8v-5h5v3.8c-0.1 0.6-0.6 1.2-1.2 1.2z"></path>
</symbol>
<symbol id="icon-notifications" viewBox="0 0 32 32">
<title>notifications</title>
<path d="M14.4 9.889l0.387-0.039c0.091 0.002 0.629-0.053 1.212-0.144 0.928-0.145 1.954-0.368 3.046-0.684 3.102-0.896 6.14-2.353 8.887-4.498 0.599-0.466 1.316-0.536 1.989-0.199 0.61 0.339 0.984 0.945 0.984 1.653v18.863c0 0.637-0.38 1.29-0.949 1.632-0.42 0.103-0.621 0.136-0.904 0.136-0.402 0-0.793-0.136-1.116-0.395-2.608-1.966-5.624-3.396-8.797-4.383-1.943-0.604-4.060-1.033-4.487-1.033l-0.253-0.029v-10.882zM29.053 27.621c0.404 0 0.674-0.048 1.217-0.183l0.123-0.049c0.917-0.509 1.523-1.52 1.523-2.547v-18.863c0-1.084-0.58-2.023-1.523-2.547-1.040-0.521-2.175-0.41-3.082 0.295-2.638 2.060-5.56 3.462-8.546 4.324-1.801 0.52-3.531 0.791-4.028 0.791l-1.347 0.132v12.699l1.207 0.134c0.36 0.003 2.388 0.414 4.243 0.991 3.070 0.954 5.984 2.336 8.477 4.216 0.491 0.393 1.106 0.607 1.736 0.607z"></path>
<path d="M11.284 8.842h-4.716c-3.563 0-6.484 2.921-6.484 6.484s2.921 6.484 6.484 6.484h4.716v-1.011h-4.716c-3.005 0-5.474-2.469-5.474-5.474s2.469-5.474 5.474-5.474h4.716v-1.011z"></path>
<path d="M6.4 21.305v4.716c0 1.569 1.263 2.863 2.863 2.863h4.126c1.569 0 2.863-1.263 2.863-2.863v-2.779h-1.011v2.779c0 1.037-0.836 1.853-1.853 1.853h-4.126c-1.037 0-1.853-0.836-1.853-1.853v-4.716h-1.011z"></path>
</symbol>
<symbol id="icon-refresh" viewBox="0 0 32 32">
<title>refresh</title>
<path d="M26.631 4h4.869c0.276 0 0.5-0.224 0.5-0.5s-0.224-0.5-0.5-0.5h-6c-0.276 0-0.5 0.224-0.5 0.5v6c0 0.276 0.224 0.5 0.5 0.5s0.5-0.224 0.5-0.5v-4.717l0.611 0.611c2.833 2.833 4.394 6.6 4.394 10.606s-1.561 7.773-4.394 10.606c-4.205 4.206-10.504 5.532-16.051 3.375-0.257-0.102-0.547 0.027-0.647 0.284-0.1 0.258 0.027 0.548 0.285 0.647 1.884 0.732 3.848 1.088 5.797 1.088 4.17 0 8.266-1.63 11.323-4.688 3.022-3.021 4.687-7.040 4.687-11.313s-1.665-8.291-4.687-11.312l-0.687-0.687zM6.5 22c-0.276 0-0.5 0.224-0.5 0.5v4.84l-0.713-0.713c-2.833-2.833-4.394-6.6-4.394-10.606s1.561-7.774 4.394-10.607c4.135-4.136 10.351-5.495 15.836-3.456 0.256 0.096 0.546-0.035 0.643-0.295 0.096-0.259-0.036-0.547-0.295-0.643-5.849-2.172-12.48-0.725-16.891 3.687-3.022 3.021-4.687 7.040-4.687 11.313s1.665 8.292 4.687 11.313l0.666 0.667h-4.746c-0.276 0-0.5 0.224-0.5 0.5s0.224 0.5 0.5 0.5h5.856c0.040 0.010 0.376-0.025 0.474-0.123 0.004-0.004 0.005-0.009 0.009-0.013 0.098-0.092 0.161-0.219 0.161-0.364v-6c0-0.276-0.224-0.5-0.5-0.5z"></path>
</symbol>
<symbol id="icon-mail" viewBox="0 0 32 32">
<title>mail</title>
<path d="M5.315 9.274l11.185 9.726 11.187-9.728c0.194 0.184 0.313 0.445 0.313 0.735v11.986c0 0.557-0.449 1.007-1.003 1.007h-20.994c-0.564 0-1.003-0.451-1.003-1.007v-11.986c0-0.289 0.121-0.549 0.315-0.733zM6.004 8c-1.107 0-2.004 0.895-2.004 1.994v12.012c0 1.101 0.89 1.994 2.004 1.994h20.993c1.107 0 2.004-0.895 2.004-1.994v-12.012c0-1.101-0.89-1.994-2.004-1.994h-20.993zM16.5 17.7l-10-8.7h20l-10 8.7z"></path>
</symbol>
<symbol id="icon-eye-hidden" viewBox="0 0 32 32">
<title>eye-hidden</title>
<path d="M8.109 20.891c-3.492-2.061-5.109-4.891-5.109-4.891s4-7 13-7c1.305 0 2.504 0.147 3.601 0.399l-0.85 0.85c-0.855-0.158-1.772-0.248-2.752-0.248-8 0-11.8 6-11.8 6s1.515 2.392 4.645 4.155l-0.736 0.736zM12.399 22.601c1.097 0.252 2.297 0.399 3.601 0.399 9 0 13-7 13-7s-1.617-2.83-5.109-4.891l-0.736 0.736c3.13 1.763 4.645 4.155 4.645 4.155s-3.8 6-11.8 6c-0.98 0-1.897-0.090-2.752-0.248l-0.85 0.85zM19.899 15.101c0.066 0.289 0.101 0.59 0.101 0.899 0 2.209-1.791 4-4 4-0.309 0-0.61-0.035-0.899-0.101l0.899-0.899c0.768 0 1.536-0.293 2.121-0.879s0.879-1.354 0.879-2.121l0.899-0.899zM16.899 12.101c-0.289-0.066-0.59-0.101-0.899-0.101-2.209 0-4 1.791-4 4 0 0.309 0.035 0.61 0.101 0.899l0.899-0.899c0-0.768 0.293-1.536 0.879-2.121s1.354-0.879 2.121-0.879l0.899-0.899zM24 7l-17 17 1 1 17-17-1-1z"></path>
</symbol>
</defs>
</svg>
