<?xml version="1.0" encoding="utf-8"?>
<!-- Generator: Adobe Illustrator 21.0.2, SVG Export Plug-In . SVG Version: 6.00 Build 0)  -->
<svg version="1.1" id="Layer_1" xmlns="http://www.w3.org/2000/svg" xmlns:xlink="http://www.w3.org/1999/xlink" x="0px" y="0px"
	 viewBox="0 0 149 37" style="enable-background:new 0 0 149 37;" xml:space="preserve">
<style type="text/css">
	.st0{fill:#0066AC;}
</style>
<g id="Page-1">
	<g id="Artboard">
		<g id="ocha-logo">
			<g id="Group">
				<path id="Shape" class="st0" d="M48.4,19.4c0-7.1,5.2-12.7,12.6-12.7c7.3,0,12.6,5.5,12.6,12.7C73.5,26.5,68.3,32,61,32
					C53.6,32,48.4,26.5,48.4,19.4 M70.1,19.4c0-5.3-3.6-9.6-9.1-9.6s-9.1,4.3-9.1,9.6S55.5,29,61,29S70.1,24.6,70.1,19.4"/>
				<path id="Shape_1_" class="st0" d="M95,12.5c-1.4-1.8-3.6-2.8-5.8-2.8c-5.4,0-9,4.3-9,9.8c0,5.1,3.4,9.4,9,9.4
					c2.8,0,4.9-1.2,6.3-3.2l2.8,2.1c-0.7,1-3.6,4.2-9.1,4.2c-7.7,0-12.4-6.4-12.4-12.5c0-7.5,5.1-12.9,12.6-12.9
					c3.2,0,6.5,1.2,8.4,3.7L95,12.5z"/>
				<polygon id="Shape_2_" class="st0" points="102.2,7.3 105.5,7.3 105.5,17.3 117.9,17.3 117.9,7.3 121.2,7.3 121.2,31.4 
					117.9,31.4 117.9,20.4 105.5,20.4 105.5,31.4 102.2,31.4 				"/>
				<path id="Shape_3_" class="st0" d="M135,7.3h3l10.3,24.1h-3.8l-2.4-6h-11.5l-2.4,6h-3.8L135,7.3z M140.8,22.6l-4.5-11.1h-0.1
					l-4.6,11.1H140.8z"/>
				<path id="Shape_4_" class="st0" d="M17.6,15.6c0-1.8,1.5-3.3,3.3-3.3c1.8,0,3.3,1.5,3.3,3.3s-1.5,3.3-3.3,3.3v-0.2v-0.2
					c1.6,0,2.9-1.3,2.9-2.9s-1.3-2.9-2.9-2.9S18,14,18,15.6s1.3,2.9,2.9,2.9v0.2v0.2C19.1,18.9,17.6,17.4,17.6,15.6"/>
				<path id="Shape_5_" class="st0" d="M15,15.6c0-3.3,2.7-6,6-6s6,2.7,6,6s-2.7,6-6,6v-0.2v-0.2c3.1,0,5.6-2.5,5.6-5.6
					S24.1,10,21,10s-5.6,2.5-5.6,5.6s2.5,5.6,5.6,5.6v0.2v0.2C17.7,21.6,15,18.9,15,15.6"/>
				<path id="Shape_6_" class="st0" d="M12.1,15.6c0-4.9,4-8.9,8.9-8.9s8.9,4,8.9,8.9s-4,8.9-8.9,8.9v-0.2V24c4.7,0,8.4-3.8,8.5-8.4
					c0-4.7-3.8-8.4-8.5-8.5c-4.7,0-8.4,3.8-8.5,8.5c0,4.7,3.8,8.4,8.5,8.4v0.2v0.2C16.1,24.5,12.1,20.5,12.1,15.6"/>
				<path id="Shape_7_" class="st0" d="M9.3,15.6C9.3,9.2,14.5,4,21,4c6.4,0,11.6,5.2,11.6,11.6S27.4,27.2,21,27.2V27v-0.2
					c6.2,0,11.2-5,11.2-11.2S27.2,4.4,21,4.4S9.8,9.4,9.8,15.6s5,11.2,11.2,11.2V27v0.2C14.5,27.2,9.3,22,9.3,15.6"/>
				<path id="Shape_8_" class="st0" d="M6.3,15.6C6.3,7.5,12.9,0.9,21,0.9s14.7,6.6,14.7,14.7S29.1,30.3,21,30.3v-0.2v-0.2
					c7.9,0,14.3-6.4,14.3-14.3S28.9,1.3,21,1.3S6.7,7.7,6.7,15.6S13.1,29.9,21,29.9v0.2v0.2C12.8,30.3,6.3,23.7,6.3,15.6"/>
				<rect id="Rectangle-path" x="20.7" y="1.1" class="st0" width="0.4" height="11.4"/>
				<polygon id="Shape_9_" class="st0" points="10.6,5.5 10.9,5.2 18.9,13.2 18.6,13.5 				"/>
				<rect id="Rectangle-path_1_" x="6.5" y="15.4" class="st0" width="11.4" height="0.4"/>
				<polygon id="Shape_10_" class="st0" points="10.6,25.7 18.6,17.7 18.9,18 10.9,26 				"/>
				<rect id="Rectangle-path_2_" x="20.7" y="18.7" class="st0" width="0.4" height="11.4"/>
				
					<rect id="Rectangle-path_3_" x="26.9" y="16.1" transform="matrix(0.7092 -0.705 0.705 0.7092 -7.4493 25.4656)" class="st0" width="0.4" height="11.3"/>
				<rect id="Rectangle-path_4_" x="24.1" y="15.4" class="st0" width="11.4" height="0.4"/>
				<polygon id="Shape_11_" class="st0" points="23,13.2 31.1,5.2 31.3,5.5 23.3,13.5 				"/>
				<path id="Shape_12_" class="st0" d="M18.7,16.5c0.1,0,0.1,0.1,0.1,0.2h0.1c0.2-0.2,0.3-0.5,0.4-0.7c0,0,0.1,0,0.1-0.1
					c0-0.1-0.2-0.2-0.2-0.3c-0.1,0.2-0.3,0-0.4,0.1v0.1h0.1V16l0,0c-0.1-0.1-0.2-0.1-0.3-0.1c0.1,0,0,0,0,0.1c-0.2,0-0.4,0-0.5,0.1
					c-0.1,0-0.1,0-0.2-0.1c-0.1,0.1-0.1,0.2-0.2,0.2l-0.1-0.1c0.1-0.1,0.2-0.1,0.2-0.2v-0.3c0.1-0.1,0.1-0.2,0.2-0.2s0.3,0.1,0.4,0
					l0.1,0.1c0,0,0,0,0,0.1c-0.1,0.1-0.2,0.1-0.2,0.2c0,0.1,0,0.1,0.1,0.1s0.1-0.1,0.2-0.1c0-0.1,0.1,0,0.1,0l0,0H19
					c0.1,0,0.1-0.3,0-0.4v-0.1c0,0,0,0,0-0.1c0-0.1,0.2-0.1,0.2,0v0.1c0,0,0,0.1,0.1,0l0,0v-0.2c0,0,0.1,0.1,0.2,0.1h0.2
					c0.1,0,0.1-0.1,0-0.2h-0.1c-0.1,0.1-0.2,0.1-0.2,0.1c-0.1,0-0.1-0.1-0.2-0.1c-0.1,0-0.2,0.1-0.2,0c-0.1,0-0.1-0.1-0.1-0.2
					l0.1-0.1c0.1,0,0.2,0,0.3-0.1c0-0.1,0.1-0.2,0.1-0.2h0.1c0.1,0,0.2,0,0.3-0.1c0.1,0,0.2-0.1,0.3-0.2c0.1,0,0.1-0.1,0.2-0.1
					c0,0,0-0.1,0.1-0.1v-0.5c0-0.1,0.1-0.1,0.1-0.1h-0.1c0,0-0.1-0.1,0-0.1c0,0,0.2,0,0.2-0.1c0.1-0.1,0-0.3-0.1-0.3
					c-0.1-0.1-0.2,0-0.3,0c0,0,0,0.1-0.1,0.1s-0.2-0.1-0.1-0.2l0,0c0,0,0,0,0-0.1h-0.1l-0.3,0.3c0,0,0,0,0,0.1l0,0
					c0,0.1,0,0.2-0.1,0.2l0,0h-0.1c0,0.1,0.2,0.1,0.1,0.2c-0.1,0.1-0.2,0.1-0.4,0.2c-0.3,0.1-0.6,0-0.9,0h-0.5
					c-0.1,0-0.1,0.1-0.2,0.2l0,0v-0.2c0-0.1-0.1,0-0.1-0.1c-0.2-0.4-0.7-0.3-1.1-0.3c-0.1,0-0.1,0.1-0.1,0.1c-0.1,0.1-0.2,0-0.3,0
					l-0.1,0.1c-0.1,0-0.2-0.1-0.3,0c-0.1,0.1-0.1,0.1-0.2,0.1v0.1h-0.1c-0.1,0-0.3,0-0.3,0.1l0,0c0,0.1,0,0.3-0.1,0.3
					c-0.1,0-0.3,0-0.4,0.1c-0.1,0-0.1,0.1-0.2,0.1c-0.2,0.4-0.4,0.7-0.4,1.2l0,0v0.1c-0.2,0.4-0.3,0.6-0.6,1.1
					c-0.1,0.2-0.2,0.6,0,0.7c0.1,0.1,0,0.2-0.2,0.2s-0.4,0-0.4-0.2c0-0.1-0.2-0.1-0.3-0.1l0,0h-0.1h-0.3c-0.2,0-0.2,0.3-0.3,0.4
					c-0.1,0.1-0.3,0.1-0.3,0.2V18c0,0-0.1,0-0.1,0.1v0.1c0,0.2-0.1,0.3,0,0.5v0.1c0,0.2,0,0.3-0.1,0.5c-0.1,0.2-0.3,0.2-0.5,0.2
					h-0.3H9.7H9.6c-0.1,0-0.1-0.1-0.2-0.1c-0.1-0.1-0.1-0.2-0.1-0.2c-0.1-0.1-0.3,0-0.4,0.1c0.1,0,0,0.1,0,0.1
					c-0.1,0-0.2,0.1-0.3,0.2c-0.1,0.1-0.2-0.2-0.2-0.3c0-0.1-0.1-0.1-0.2-0.1c0,0,0,0,0,0.1H8.1c-0.1,0.1,0.1,0.1,0.1,0.1v0.1H8.1
					c0,0.1-0.1,0.1-0.1,0.1l0,0l0,0c-0.1,0-0.1,0.1-0.1,0v-0.2H7.8c0,0.1,0,0.1-0.1,0.1v0.1h0.2C8,19.7,8,19.8,8,19.9l0,0
					C8,20,8,20.1,7.9,20s0-0.2,0-0.3H7.8c0.1,0.2-0.1,0.3,0.1,0.5c0.1,0.1-0.2,0.2-0.1,0.2c0,0,0.1,0.1,0.2,0.1v-0.1
					c0,0,0.1-0.1,0.1,0v0.1H8v0.3v0.1c0,0.1,0.2,0,0.2,0.1s-0.1,0.1,0,0.2c0,0,0.1,0,0.1,0.1v0.1c0,0,0.1,0,0.1,0.1
					c0.1,0,0.1,0,0.1-0.1c0.1,0,0.1-0.1,0.1-0.2c0,0,0-0.1-0.1,0V21c0-0.1-0.1-0.1-0.1-0.2c0.1,0,0.1,0,0.2-0.1c0,0,0.1,0,0.1,0.1
					c0,0,0,0,0,0.1c0.1,0,0.1,0.1,0.1,0.1c0.1,0,0.1,0.1,0.2,0.2h0.3v-0.1l0.1,0.1c0,0.1,0,0.2,0.1,0.3h0.1l0.1,0.1h0.1
					c0.1,0,0.1,0.1,0.1,0.1l0,0c0.1,0,0.2,0,0.2,0.1c0.1,0.1,0.1,0.2,0.2,0.4c0,0.1,0.1,0.1,0.1,0.1s0,0.1,0.1,0.1
					c0.1,0.1,0.2,0.1,0.3,0.1c0,0,0.1-0.1,0.2-0.1h0.1c0.1,0.2,0.1,0.4,0.3,0.4c0.1,0,0.1,0.1,0.2,0.2h0.2c0,0,0,0.1,0.1,0.1
					c0.1,0.1,0.2,0.1,0.2,0.2v0.1c0.1,0,0.2-0.1,0.2,0c0.1,0.1,0.2,0.1,0.2,0.2h0.1v-0.1c0-0.1,0.1,0,0.2-0.1c0.1,0,0.1-0.2,0.1-0.2
					c0.1,0,0.2,0.1,0.3,0.2h0.1c0.1,0.1,0.1,0.3,0.2,0.3c0.2,0,0.2,0.1,0.4,0.2c0.1,0,0.2,0.1,0.3,0.1h0.1c0.1,0,0.1,0,0.2-0.1
					s0.3-0.1,0.4-0.2l0.1-0.1c0.2-0.1,0.5,0.1,0.7,0c0.1,0,0.1,0,0.2-0.1c0.1-0.1,0.2-0.3,0.1-0.4c-0.1-0.2-0.2-0.5-0.3-0.7
					c-0.1-0.1-0.2-0.2-0.3-0.3h-0.1c-0.1,0-0.1-0.1-0.1-0.2c0,0-0.1,0-0.1-0.1v-0.2v-0.1c-0.1,0-0.2-0.1-0.4-0.1c0,0-0.1,0-0.1-0.1
					v-0.1c0.1-0.1,0.2-0.1,0.3-0.1V21v-0.2c0,0,0-0.1-0.1-0.1c0-0.1,0.1-0.2,0-0.3c-0.1-0.1-0.2-0.2-0.2-0.3c0,0-0.1,0-0.1-0.1v-0.5
					c0-0.1-0.1-0.1,0-0.2l0.1-0.1c0.1,0,0.1-0.1,0.1-0.2c-0.1-0.1-0.2,0-0.2,0s0,0,0-0.1v-0.2l-0.1-0.1v-0.2c0,0,0-0.1-0.1,0v-0.2
					c0-0.1-0.1-0.2-0.2-0.1l0,0c0,0-0.1,0.1-0.2,0V18c0,0,0.1,0,0.1-0.1c0.1-0.1,0-0.2,0-0.2c-0.1-0.1-0.2-0.2-0.1-0.3
					c-0.1,0-0.3,0-0.3-0.2c0-0.2,0-0.3-0.1-0.4v-0.3c0,0,0-0.1,0.1-0.1c0.2,0,0.4,0,0.4-0.1c0.1-0.1-0.1-0.3,0-0.3
					c0.2-0.1,0.4,0,0.6-0.2c0.1,0,0.1-0.1,0-0.2c0-0.1-0.1-0.2-0.1-0.2c-0.1-0.1-0.2,0-0.3-0.2V15c0-0.1,0.1-0.1,0.2-0.2
					c0.2-0.1,0.3,0,0.5,0.1L15,15c0,0,0,0,0,0.1c0,0.2,0.1,0.4,0,0.6c0,0.1-0.1,0.1-0.1,0.2H15c0,0.1,0.1,0.3,0,0.4
					c-0.1,0.1-0.1,0-0.3,0c-0.1,0-0.1,0-0.1,0.1l0.1,0.1c0.4,0.1,0.5,0.1,0.9,0.2c0.1,0,0.1,0.1,0.2,0.1H16h0.1
					c0,0.1,0.1,0.1,0.1,0.1c0.1,0.1,0.1,0.3,0.2,0.3c0.1-0.1,0.2,0,0.2,0c-0.1,0.1,0,0.2,0,0.3c0.1,0.1,0.2,0.1,0.3,0.2
					c0.1,0.1,0.2,0.1,0.2,0c0-0.1-0.1-0.2,0-0.3c0.1,0.2,0,0.4,0.1,0.6l0,0c0.1,0.1,0.1,0.2,0.2,0.2s0.1-0.1,0.1-0.2v-0.1
					c0-0.1,0-0.1,0.1-0.2c0-0.1,0.1-0.2,0.1-0.3v-0.1c0-0.1,0.2-0.2,0.3-0.2c0,0,0,0,0-0.1c0.1,0,0-0.2,0.1-0.2
					c0-0.1,0.1-0.1,0.1-0.2c0,0,0.1-0.1,0-0.1C18.7,16.6,18.7,16.5,18.7,16.5"/>
				<path id="Shape_13_" class="st0" d="M14.5,16.3h-0.1v0.1l0.1,0.1v0.3c0,0.1,0.1,0.2,0.2,0.1c0.1-0.1,0.2-0.3,0.1-0.4
					C14.6,16.5,14.7,16.4,14.5,16.3"/>
				<path id="Shape_14_" class="st0" d="M14.3,17.2L14.3,17.2c0.1,0.2,0.2,0.1,0.3,0.1v-0.1C14.5,17.1,14.5,17.1,14.3,17.2
					c0.1-0.1,0-0.1,0-0.1V17.2"/>
				<path id="Shape_15_" class="st0" d="M14.6,17.6c0-0.2-0.1-0.2-0.2-0.1c-0.1,0.1,0,0.3,0.1,0.4c0,0,0,0.1,0.1,0.1
					c0,0.1,0.1,0,0.2,0c0-0.1,0-0.1,0.1-0.1C14.8,17.8,14.7,17.6,14.6,17.6"/>
				<path id="Shape_16_" class="st0" d="M14.3,16.8C14.3,16.7,14.2,16.7,14.3,16.8c-0.1,0-0.1,0-0.1,0.1s0,0.2,0.1,0.2
					c0,0,0.1,0,0.1-0.1C14.3,16.9,14.3,16.9,14.3,16.8"/>
				<path id="Shape_17_" class="st0" d="M14.7,17.4l0.1-0.1h0.1c0,0,0,0,0-0.1c-0.1,0-0.1,0.1-0.2,0.1
					C14.6,17.3,14.7,17.4,14.7,17.4"/>
				<path id="Shape_18_" class="st0" d="M14.6,18.3c0,0.1,0,0.1,0.1,0.1h0.1v-0.1H14.6C14.6,18.2,14.6,18.3,14.6,18.3"/>
				<path id="Shape_19_" class="st0" d="M14.8,19c0-0.1,0.1-0.1,0-0.2h-0.1C14.7,18.9,14.8,19,14.8,19"/>
				<path id="Shape_20_" class="st0" d="M8.5,21.5v0.1h0.2C8.6,21.6,8.6,21.4,8.5,21.5"/>
				<path id="Shape_21_" class="st0" d="M9.1,22.2c-0.1,0.1,0.1,0.2,0.2,0.2v-0.2C9.3,22.2,9.2,22.1,9.1,22.2"/>
				<path id="Shape_22_" class="st0" d="M9.4,22.6c0,0.2,0.1,0.3,0.2,0.3C9.7,22.7,9.6,22.6,9.4,22.6"/>
				<path id="Shape_23_" class="st0" d="M19.5,17.4c0.2-0.1,0.4-0.1,0.6-0.1c0.4,0,0.4-0.6,0.6-0.9c0-0.1,0-0.3-0.1-0.4
					c-0.1-0.2-0.6,0-0.7-0.2c-0.1-0.1,0.3,0.1,0.3-0.1c0-0.1,0-0.1-0.1-0.2h-0.2c-0.2,0.2-0.3,0.5-0.4,0.8c-0.3,0.4-0.7,0.7-0.9,1.2
					c0,0.1,0,0.1,0.1,0.2C19,17.8,19.3,17.5,19.5,17.4"/>
				<path id="Shape_24_" class="st0" d="M21.3,16.4c-0.1,0-0.1,0-0.2,0.1v0.2h0.1c0-0.1,0-0.1-0.1-0.1
					C21.3,16.5,21.3,16.4,21.3,16.4"/>
				<path id="Shape_25_" class="st0" d="M20,17.9c0.1,0.2,0.5,0.1,0.5,0s-0.3-0.2-0.4-0.2C19.9,17.7,20.2,17.8,20,17.9"/>
				<path id="Shape_26_" class="st0" d="M20.5,19.2c0.1-0.1,0.1-0.2,0.1-0.3l-0.3,0.3H20.5"/>
				<path id="Shape_27_" class="st0" d="M22.3,16.5v-0.1h-0.2c-0.1,0-0.1-0.1-0.1-0.2c0-0.1-0.1-0.2-0.1-0.3c-0.1,0-0.1,0.2-0.1,0.2
					C22,16.3,22.1,16.6,22.3,16.5"/>
				<path id="Shape_28_" class="st0" d="M19.9,15.3C19.8,15.2,19.8,15.3,19.9,15.3C19.8,15.4,19.9,15.4,19.9,15.3L19.9,15.3"/>
				<path id="Shape_29_" class="st0" d="M8.1,19.1c0,0,0-0.1-0.1-0.1H7.9v0.1C7.9,19.1,8,19.2,8.1,19.1"/>
				<path id="Shape_30_" class="st0" d="M8.8,19.1c0.1,0,0.2-0.1,0.1-0.2l0,0c-0.1-0.1-0.3,0-0.2,0.1C8.6,19.1,8.7,19.2,8.8,19.1"/>
				<path id="Shape_31_" class="st0" d="M20.2,12.1c0-0.1,0.1-0.1,0.1-0.2h-0.1C20.1,11.9,20.1,12,20.2,12.1
					C20.1,12,20.1,12,20.2,12.1C20.1,12.1,20.2,12.1,20.2,12.1"/>
				<path id="Shape_32_" class="st0" d="M20.5,12c0,0,0.1-0.1,0-0.1h-0.1C20.4,11.9,20.4,12,20.5,12"/>
				<path id="Shape_33_" class="st0" d="M19.4,14.6c0,0.1,0.2,0.3,0.3,0.2c0.1-0.1,0-0.2,0-0.2C19.6,14.5,19.5,14.5,19.4,14.6"/>
				<path id="Shape_34_" class="st0" d="M19.7,15.4L19.7,15.4l-0.2-0.1c0,0,0,0-0.1,0c0,0,0,0.1,0.1,0.1
					C19.5,15.3,19.6,15.4,19.7,15.4"/>
				<path id="Shape_35_" class="st0" d="M19.4,15.6c-0.1,0,0,0.1,0,0.2c0.1,0,0.1,0,0.2-0.1c0-0.1,0.1-0.2,0-0.2
					S19.4,15.5,19.4,15.6"/>
				<path id="Shape_36_" class="st0" d="M19.2,15.3c0,0.1-0.1,0.2,0,0.3c0,0.1,0.1,0,0.1,0c0-0.1,0-0.2,0.1-0.2L19.2,15.3
					C19.3,15.4,19.3,15.4,19.2,15.3L19.2,15.3"/>
				<path id="Shape_37_" class="st0" d="M26.8,22.4C26.9,22.4,26.8,22.3,26.8,22.4L26.8,22.4L26.8,22.4"/>
				<path id="Shape_38_" class="st0" d="M21,18.5C21,18.6,21,18.5,21,18.5l-0.1-0.1c0-0.1-0.1,0.1-0.2,0l0,0c0.1,0.1,0,0.1-0.1,0.2
					c0,0.1,0.1,0.1,0.1,0.1c0,0.1-0.1,0.1,0,0.2L20.6,19c0,0-0.1,0.1,0,0.1c0.1,0.1,0.2-0.1,0.3-0.1H21c0.1,0,0.1-0.1,0.2-0.2H21
					C21,18.8,20.9,18.8,21,18.5C21,18.6,21,18.5,21,18.5"/>
				<path id="Shape_39_" class="st0" d="M21.6,20.4C21.6,20.5,21.7,20.5,21.6,20.4c0.1,0,0.1-0.1,0.1-0.2h-0.1V20.4"/>
				<path id="Shape_40_" class="st0" d="M21.7,20.2c0.1,0,0-0.1,0-0.1h-0.1C21.6,20.1,21.6,20.2,21.7,20.2"/>
				<path id="Shape_41_" class="st0" d="M22.3,20.5C22.3,20.5,22.3,20.4,22.3,20.5c-0.1,0-0.1-0.1-0.2,0H22v0.1
					C22.2,20.5,22.2,20.5,22.3,20.5"/>
				<path id="Shape_42_" class="st0" d="M23.3,20.4v-0.1c-0.1,0-0.2,0.1-0.3,0v0.1c0,0,0,0-0.1,0C23.1,20.5,23.2,20.4,23.3,20.4"/>
				<path id="Shape_43_" class="st0" d="M23.7,20c0,0.2,0.2,0.1,0.2,0C24,19.9,23.9,19.9,23.7,20l0.1-0.1C23.8,20,23.7,20,23.7,20"
					/>
				<path id="Shape_44_" class="st0" d="M28.5,16.8c0,0.1,0.1,0.1,0.2,0.1c0.1,0,0.2,0,0.3-0.1c0-0.2-0.1-0.3-0.3-0.3
					C28.5,16.6,28.5,16.7,28.5,16.8"/>
				<path id="Shape_45_" class="st0" d="M28.5,21.9h-0.1c-0.1,0.5-0.6,1.2,0,1.5c0.2,0.2,0.5-0.1,0.6-0.3C29,22.8,29,22.1,28.5,21.9
					"/>
				<path id="Shape_46_" class="st0" d="M27,19.7c-0.1,0-0.1,0.2,0,0.2c0,0,0.1,0,0.1-0.1v-0.1C27.1,19.7,27.1,19.7,27,19.7"/>
				<path id="Shape_47_" class="st0" d="M27.4,24.8V25C27.4,25,27.6,24.9,27.4,24.8L27.4,24.8"/>
				<path id="Shape_48_" class="st0" d="M29.7,13.1h-0.1v0.2c-0.2,0.4-0.7,0.9-0.4,1.4l0,0c0.1-0.1,0.2-0.2,0.3-0.4
					c0.1-0.3,0.3-0.6,0.4-1C29.9,13.3,29.8,13.1,29.7,13.1"/>
				<path id="Shape_49_" class="st0" d="M28.8,14.9c0,0.1,0,0.1,0.1,0.1s0.1-0.1,0-0.1C28.9,14.8,28.9,14.8,28.8,14.9"/>
				<path id="Shape_50_" class="st0" d="M23.7,11.8c-0.1-0.2-0.2,0-0.3,0l-0.1-0.1h-0.1c-0.1,0,0,0.2,0.1,0.2c0.1,0,0.1-0.1,0.1,0
					c0.1,0.1,0,0.3,0.2,0.2c0.1,0,0.2-0.1,0.3-0.1s0.1-0.1,0.1-0.2c0.1,0,0.2-0.1,0.3,0c0,0,0,0.1,0.1,0.1c0,0.1,0.1,0.1,0.2,0.1
					s0.2,0,0.3-0.1c0.1-0.1,0.1-0.2,0-0.3h-0.2c-0.1,0-0.1-0.1-0.2-0.1C24.1,11.4,23.9,11.7,23.7,11.8"/>
				<path id="Shape_52_" class="st0" d="M22.7,12H23l0,0c0-0.2-0.2-0.1-0.3-0.1C22.8,11.8,22.8,11.9,22.7,12
					C22.7,11.9,22.7,11.9,22.7,12C22.6,11.9,22.7,12,22.7,12"/>
				<path id="Shape_53_" class="st0" d="M23.1,12.6c0.1-0.1,0.3-0.2,0.4-0.3c0,0,0,0,0-0.1l0,0c0-0.1-0.1-0.1-0.2-0.2
					c0,0.1-0.1,0.1-0.1,0.1c-0.1,0.1-0.2,0.1-0.2,0.2v0.2C23.1,12.8,23.1,12.7,23.1,12.6"/>
				<path id="Shape_54_" class="st0" d="M21.6,11.6L21.6,11.6C21.7,11.8,21.7,11.7,21.6,11.6L21.6,11.6"/>
				<path id="Shape_55_" class="st0" d="M18,9.4c0.1,0.1,0.3,0.1,0.4,0.1l0.1-0.1c-0.1-0.1-0.2,0-0.2-0.1h-0.1
					C18.1,9.2,18,9.3,18,9.4C17.9,9.4,18,9.4,18,9.4"/>
				<path id="Shape_56_" class="st0" d="M27.1,11c0,0.1-0.1,0-0.2,0.1v0.1c0.1,0.1,0.2,0,0.3,0l0,0c0,0,0.1-0.1,0.1,0v0.1
					c-0.1,0-0.1,0.1-0.1,0.1H27c0,0,0,0-0.1,0l0,0v0.2c-0.1,0.1-0.4,0.2-0.3,0.4c0.1,0.1,0.3,0.1,0.5,0.1l0,0c0-0.2,0.1-0.2,0.2-0.3
					c0,0,0-0.1-0.1-0.1v-0.1c0.1,0,0.1-0.1,0.1-0.1v-0.1c0.1,0,0.2-0.1,0.2-0.1c0-0.1-0.1-0.2-0.1-0.3c0,0,0-0.1,0.1-0.1
					c0,0,0,0,0-0.1c0,0,0,0-0.1,0c0,0-0.1,0,0,0.1C27.3,10.9,27.2,10.9,27.1,11C27.1,10.8,27.2,11,27.1,11"/>
				<path id="Shape_57_" class="st0" d="M26.1,12c0,0.1,0.1,0.1,0.2,0l0,0H26.1"/>
				<path id="Shape_58_" class="st0" d="M27.5,11.8c-0.1,0.1,0.1,0.1,0.2,0.1l0,0l0,0C27.7,11.8,27.6,11.8,27.5,11.8"/>
				<path id="Shape_59_" class="st0" d="M27.9,11.3C27.8,11.3,27.8,11.3,27.9,11.3C27.8,11.3,27.8,11.4,27.9,11.3
					C27.9,11.4,27.9,11.4,27.9,11.3L27.9,11.3"/>
				<path id="Shape_60_" class="st0" d="M25.6,7.3c0.1,0.1,0.2,0.1,0.2,0.2v0.4L25.9,8v0.2c0,0.1,0.1,0.3,0.1,0.4
					c0.1,0,0.1,0.1,0.1,0.1c0,0.1,0,0.1,0.1,0.2c0,0.1,0.1,0,0.2,0.1s0.2,0.3,0.3,0.4c0,0,0.1,0,0.1,0.1v0.1c0.2,0,0.5,0.1,0.4,0.4
					c0.1-0.1,0.2-0.1,0.2-0.2c0-0.1,0.1-0.3,0-0.4c0-0.1-0.1-0.1-0.2-0.2V9c0-0.1-0.1-0.1-0.1-0.1c0-0.1-0.1-0.3,0.1-0.3
					c0,0,0,0,0-0.1H27V8.4c0-0.1,0-0.2-0.1-0.3C26.8,8,26.7,8,26.6,8c-0.1-0.1-0.1-0.1-0.2-0.1h-0.2c-0.2-0.2-0.3-0.4-0.4-0.6
					c-0.1-0.1-0.2-0.1-0.3,0C25.6,7.2,25.6,7.2,25.6,7.3C25.6,7.2,25.6,7.2,25.6,7.3C25.6,7.2,25.6,7.3,25.6,7.3"/>
				<path id="Shape_61_" class="st0" d="M24.7,7.6c-0.1,0.1,0,0.2,0,0.2h0.4c0.1,0,0.1-0.1,0.1-0.1c0.1-0.1,0.2,0,0.4-0.1
					c0,0.1,0,0.1,0.1,0.1c0-0.1,0-0.2-0.1-0.2c-0.1-0.1-0.1-0.2-0.2-0.3h-0.1c0,0.2-0.1,0.1-0.3,0.2c0,0,0,0,0,0.1l0,0
					c0,0,0,0,0-0.1h-0.2C24.8,7.5,24.7,7.6,24.7,7.6"/>
				<path id="Shape_62_" class="st0" d="M22.4,3.7c-0.1-0.2-0.3-0.4-0.2-0.7c0.3,0.1,0.6,0.1,0.9,0c0.2-0.1,0.5,0,0.7-0.1V2.7
					c-0.3,0.1-0.5-0.2-0.7-0.1c-0.3,0.2-0.6,0.2-0.9,0.3c-0.2,0.1-0.9,0-0.9,0.4c0.3,0,0.7,0,0.9,0.3C22.2,3.7,22.3,3.7,22.4,3.7"/>
				<path id="Shape_63_" class="st0" d="M23.4,5.2c0.1,0.2,0.3,0.2,0.4,0.2c0-0.1,0-0.1-0.1-0.2H23.4"/>
				<path id="Shape_64_" class="st0" d="M23.1,5.7c-0.1,0,0,0.1,0.1,0.2C23.2,5.8,23.3,5.6,23.1,5.7"/>
				<path id="Shape_65_" class="st0" d="M22.9,5.4L22.9,5.4L22.9,5.4c0.1-0.1,0-0.2-0.1-0.2v0.1C22.8,5.3,22.8,5.3,22.9,5.4"/>
				<path id="Shape_66_" class="st0" d="M23.8,6.5C23.8,6.5,23.8,6.6,23.8,6.5L23.8,6.5L23.8,6.5c0.1-0.1,0.1-0.2,0.1-0.2s0,0-0.1,0
					C23.7,6.4,23.8,6.5,23.8,6.5"/>
				<path id="Shape_67_" class="st0" d="M24.1,6.5L24.1,6.5C24.2,6.7,24.2,6.6,24.1,6.5C24.2,6.6,24.2,6.6,24.1,6.5
					C24.2,6.5,24.1,6.6,24.1,6.5"/>
				<path id="Shape_68_" class="st0" d="M24,6.8L24,6.8C24.1,6.7,24.1,6.7,24,6.8l0.1-0.1l0,0c0-0.1-0.1-0.1-0.2,0
					C23.8,6.7,24,6.7,24,6.8"/>
				<path id="Shape_69_" class="st0" d="M24.1,6.8L24.1,6.8c0,0.1,0.1,0.2,0.2,0.1c0,0,0.1-0.1,0-0.1H24.1L24.1,6.8z"/>
				<path id="Shape_70_" class="st0" d="M24.6,7L24.6,7c0-0.1-0.1-0.2-0.1-0.2s-0.1,0.1,0,0.1C24.5,7,24.5,7,24.6,7"/>
				<path id="Shape_71_" class="st0" d="M24.7,7.3L24.7,7.3c0.1,0,0.1,0,0.1-0.1l0,0V7.1h-0.1l0,0h-0.1v0.1L24.7,7.3"/>
				<path id="Shape_72_" class="st0" d="M24.5,7.5L24.5,7.5c0.1-0.1,0.1-0.1,0-0.2c0,0,0,0-0.1,0c0,0,0,0.1-0.1,0.1
					C24.4,7.5,24.4,7.5,24.5,7.5"/>
				<path id="Shape_73_" class="st0" d="M24.2,2.5L24.2,2.5L24.2,2.5c-0.1-0.1-0.1-0.1-0.2-0.1C24.1,2.5,24.1,2.6,24.2,2.5"/>
				<path id="Shape_74_" class="st0" d="M27.6,5c0.1,0.1,0.2,0,0.2,0.1c0.1,0.1,0.1,0.2,0.2,0.2s0.1,0,0.1-0.1c0-0.2,0-0.4-0.2-0.4
					h-0.5c-0.1,0-0.1,0.1-0.1,0.2C27.4,4.9,27.5,4.9,27.6,5"/>
				<path id="Shape_75_" class="st0" d="M31.7,10.2c-0.1-0.1-0.1-0.3-0.2-0.4c-0.1-0.1-0.2-0.1-0.3-0.2V9.4l-0.1-0.1
					C31,9.1,31,9,30.8,9c0-0.2-0.1-0.2-0.3-0.3V8.6c0-0.1-0.1-0.1-0.1-0.1h-0.1c-0.1-0.1-0.2-0.2-0.2-0.3c0-0.1-0.2-0.2-0.3-0.3
					l-0.1-0.1c-0.1,0-0.2,0-0.2-0.1c0-0.2-0.2-0.3-0.3-0.4c-0.2-0.1,0-0.4-0.1-0.7c0-0.1-0.1-0.1-0.2-0.1c0,0-0.1,0-0.1-0.1
					c-0.1-0.1,0-0.3-0.1-0.4c-0.1-0.2-0.3-0.3-0.4-0.5c-0.1-0.1-0.2-0.1-0.3-0.1c0,0,0,0-0.1,0l-0.1-0.1c-0.1-0.1-0.2-0.2-0.3-0.2
					c-0.2-0.1-0.4,0-0.6-0.1c-0.2,0-0.4,0-0.5,0.2c-0.2,0.1-0.3,0.2-0.5,0.2c-0.1,0,0,0.1,0,0.2s-0.2,0.2-0.1,0.2l0,0H26
					c0.1,0,0.1,0.1,0.1,0.1c0.1,0.1,0.2,0.2,0.2,0.3c0,0-0.1,0.1,0,0.2c0.1,0.1,0.1,0.2,0.1,0.3c0,0.1,0.1,0,0.1,0
					c0.2,0.1,0.2,0.3,0.1,0.4v0.3c0.1,0.2,0.1,0.4,0.2,0.5l0.1-0.1c0.1,0,0.1-0.1,0.2-0.1c0.2-0.2,0.4,0.2,0.5,0.3
					c0.1,0.2,0,0.4,0.1,0.6C27.8,8.8,27.9,8.9,28,9c0,0,0,0.1,0.1,0.2l0.1,0.1c0,0,0-0.1,0.1-0.1h0.1c0.2,0.2,0.2,0.6,0.5,0.6
					c0,0,0,0.1,0.1,0.1s0.1-0.1,0.2,0c0,0.1,0.1,0.2,0.1,0.2h0.3c0.1,0,0.1,0.1,0.2,0.2l0.1,0.1c0.2,0.2,0.3,0.5,0.5,0.7
					c0.1,0.1,0.2,0.2,0.3,0.1v-0.1c0.1,0,0.2-0.1,0.2-0.2c0.1-0.1,0.2-0.2,0.3-0.3l0,0c0.1-0.1,0.2-0.1,0.3-0.2
					C31.8,10.4,31.7,10.2,31.7,10.2"/>
				<path id="Shape_77_" class="st0" d="M27.5,10.3c0,0.1,0.1,0.1,0.2,0.1c0.1,0.1,0.1,0.2,0.2,0.2c0.1,0.1,0.1-0.1,0.1-0.2h0.1
					c0.1-0.1,0-0.3-0.1-0.4s-0.1-0.2-0.3-0.2c-0.1,0-0.1,0-0.2,0.1c-0.1,0.1,0,0.2,0,0.3C27.5,10.2,27.5,10.2,27.5,10.3"/>
				<path id="Shape_78_" class="st0" d="M28.2,10.7c-0.1,0.2,0,0.4,0,0.6c0,0.1-0.2,0.1-0.2,0.2c0,0-0.1,0.1,0,0.2
					c0,0.1,0.2,0.1,0.3,0.2c0.2,0.1,0.5,0.3,0.6,0.6c0.1,0.1,0.1,0.2,0.1,0.3c0.1,0.1,0.2,0.1,0.2,0.2s0.1,0.1,0.1,0
					c0.1-0.1,0.1-0.3,0-0.4c-0.1-0.1-0.1-0.1-0.1-0.2c0-0.3-0.1-0.5-0.2-0.8c-0.1-0.1-0.2-0.2-0.3-0.3v-0.1c0-0.1,0.1-0.1,0.1-0.2
					s-0.1-0.2-0.2-0.3c0,0,0,0-0.1,0h0.1C28.4,10.6,28.3,10.6,28.2,10.7"/>
				<path id="Shape_79_" class="st0" d="M29.7,12.1v-0.2c0-0.2-0.2-0.2-0.3-0.2h-0.1v0.2c0.2,0.3,0.2,0.6,0.3,1c0,0.1,0.3,0,0.3-0.1
					v-0.2c0-0.1-0.1-0.1-0.1-0.2C29.8,12.3,29.7,12.2,29.7,12.1"/>
				<path id="Shape_80_" class="st0" d="M29.3,11.2c-0.1,0.1,0,0.2,0,0.3l0,0c0.1,0,0.1,0,0.1-0.1C29.3,11.4,29.4,11.3,29.3,11.2
					L29.3,11.2"/>
				<path id="Shape_81_" class="st0" d="M29.3,11c0-0.1,0-0.1-0.1-0.1c0,0.1-0.1,0.1-0.2,0.1c-0.1,0.1,0,0.1,0.1,0.2l0,0
					C29.3,11.2,29.4,11.1,29.3,11L29.3,11"/>
				<path id="Shape_82_" class="st0" d="M28.8,10.5c0.1,0.1,0,0.2,0.1,0.2s0.2,0.1,0.3,0c0.1,0,0-0.1-0.1-0.1v-0.1c0,0,0,0-0.1,0
					c-0.1-0.1,0.1-0.1,0-0.2v-0.1h-0.1v0.1C28.8,10.4,28.7,10.5,28.8,10.5"/>
				<path id="Shape_83_" class="st0" d="M28.7,9.9c-0.1,0-0.2,0-0.2-0.1h-0.1l0,0c0,0-0.1,0.1,0,0.1s0.1,0.1,0.1,0.1
					c0,0.1,0.1,0,0.1,0.1c0,0.1,0.1,0.1,0.1,0V10c0,0,0-0.1,0,0C28.7,10,28.8,9.9,28.7,9.9"/>
				<path id="Shape_84_" class="st0" d="M21.6,14.5L21.6,14.5C21.7,14.4,21.7,14.4,21.6,14.5c0.1-0.1,0-0.2,0-0.2s-0.1,0-0.1,0.1
					l0,0C21.6,14.4,21.6,14.4,21.6,14.5"/>
				<path id="Shape_85_" class="st0" d="M29.4,13.2c-0.1,0-0.3,0-0.4,0.1c-0.2,0.1-0.3,0.4-0.4,0.6c-0.1,0.1-0.2,0.2-0.4,0.2
					c0,0-0.1,0-0.1-0.1v-0.2l0.1-0.1c0.1-0.1,0-0.2,0-0.3c-0.1-0.2-0.3-0.4-0.5-0.3c-0.2,0-0.3,0.3-0.5,0.5l0,0
					c-0.1-0.1-0.2-0.2-0.2-0.3c0,0,0,0,0-0.1c0.1,0,0.2,0.2,0.2,0.1c0.1-0.1,0-0.2-0.1-0.2S27,13,26.9,13s-0.1-0.1-0.2-0.2
					c0-0.1,0-0.3-0.1-0.3s-0.2,0-0.3-0.1h-0.2v-0.1c0.1,0,0.3,0,0.2-0.2c0-0.1-0.1-0.1-0.2-0.1H26v0.1v0.2c-0.1,0.1-0.2,0.1-0.3,0.1
					h-0.1c-0.1,0-0.2-0.1-0.3-0.1c-0.1,0.1-0.1,0.2-0.2,0.2s-0.1,0-0.2,0.1c-0.1,0-0.1,0.2,0,0.3V13c-0.1,0-0.1-0.1-0.1-0.1
					c0-0.1-0.1-0.2-0.1-0.3c0-0.1,0.1-0.2,0.2-0.3v-0.2C24.8,12,24.8,12,24.7,12c-0.2,0.1-0.3,0.4-0.5,0.3c-0.1,0-0.2-0.2-0.3-0.2
					s-0.1-0.1-0.2,0c-0.1,0.1-0.3,0.2-0.5,0.3c-0.1,0.1-0.3,0.2-0.3,0.4c-0.1,0.2-0.4,0.3-0.6,0.1c-0.1-0.1-0.2-0.2-0.3-0.2
					s-0.2,0.2-0.3,0.2c-0.1,0-0.1,0-0.2-0.1v-0.1c0.2-0.1,0.4-0.2,0.6-0.3c0.1,0,0.1-0.1,0.1-0.2c0,0,0,0,0-0.1V12
					c-0.3,0-0.5,0.2-0.6,0.4c0,0,0,0.1-0.1,0.1c-0.2,0-0.3,0.1-0.5,0l-0.1-0.2c-0.1,0.1-0.1,0.2-0.2,0.2l-0.1,0.1
					c-0.1,0.1,0.1,0.3,0,0.4c0,0.1-0.2,0.1-0.3,0.1v0.2c0,0.1,0.1,0,0.1,0.1c0.1,0.1,0.1,0.3,0.2,0.3c0.2,0.1,0.3,0,0.5,0.1
					c0.1,0,0.2,0.1,0.3,0.2c0,0.1,0.1,0.1,0.1,0.2c0,0,0,0.1,0.1,0.1h0.2c0.1,0,0,0.1,0.1,0.2c0,0.1,0,0.2,0.1,0.4
					c0,0,0,0.2-0.1,0.2c0,0-0.1,0-0.1,0.1v0.3h0.1c0.1,0.1,0.1,0.2,0.2,0.3l0.1,0.1c-0.1,0-0.1,0.1-0.1,0.1s0.1,0.1,0.2,0
					c0.1,0,0.1-0.1,0.2-0.1c0,0,0.1,0,0.1-0.1c0,0,0.1,0.1,0.1,0.2c-0.1,0.1-0.3,0-0.4,0.1c-0.1,0-0.1,0-0.2,0.1c0,0,0,0.1,0.1,0.1
					c0.2,0.1,0.1,0.4-0.1,0.6v0.2H22c-0.2,0-0.5-0.1-0.7,0c-0.1,0-0.1,0.1-0.1,0.2l0,0c-0.1,0-0.1,0.1-0.1,0.1v0.2
					c-0.2,0.2-0.2,0.5-0.3,0.7c0,0.1,0.1,0.1,0.1,0.1c0.1,0,0.1-0.1,0.2-0.1s0.1,0.2,0.1,0.2c0,0.1,0.2,0.1,0.2,0s0-0.2,0.1-0.3
					c0-0.1-0.1-0.2-0.1-0.3s0-0.2,0.1-0.2c0,0,0.1,0,0.1,0.1V18v0.2c0,0,0.1,0.1,0,0.2c0,0,0,0.1-0.1,0.1v0.2
					c-0.1,0.1-0.1,0.1-0.1,0.2c-0.2,0-0.4-0.1-0.3-0.3c-0.1,0-0.1,0-0.2,0.1V19c-0.1,0.1-0.1,0.2-0.2,0.3c0,0,0,0,0,0.1
					c-0.1,0.1-0.2,0.2-0.3,0.2l0,0c-0.1,0.1-0.2,0-0.2,0.1c0,0.1,0.1,0.2,0.1,0.3s0,0.1-0.1,0.2h-0.4l0,0c0,0.1,0,0.2-0.1,0.3
					c-0.1,0.1,0,0.2,0.1,0.2c0.1,0.1,0.1,0.2,0.2,0.2s0.1,0.1,0.2,0.1c0.1,0,0.2-0.1,0.2-0.2c0-0.1,0.1,0,0.2,0h0.1
					c0.1-0.1,0-0.2,0-0.2c0.1-0.1,0.3-0.3,0.4-0.4c0.1,0,0.1-0.1,0.2-0.1c0.1,0,0.1,0.1,0.2,0.1s0.1,0.1,0.2,0.1h0.1
					c0.1,0,0.2,0.2,0.3,0.2l0,0c0-0.1,0-0.2-0.1-0.3c-0.1-0.1-0.2-0.2-0.3-0.2v-0.1l0,0c0.1,0.1,0.1,0.1,0.2,0.1
					c0.1,0.1,0.1,0.2,0.2,0.3c0.1,0,0.1,0.1,0.2,0.1c0.1,0,0.2,0,0.3-0.1c0-0.1,0-0.1-0.1-0.1c-0.1-0.1,0-0.1,0.1-0.2s0-0.2,0-0.3
					v-0.1l0,0c0.1-0.1,0-0.2,0-0.4l0,0c0,0.1,0.1,0.1,0.2,0.1c0.1,0,0.2-0.1,0.2-0.2c0.1-0.1,0.3,0,0.3,0.1c0,0.1,0,0.2-0.1,0.2
					c-0.2,0-0.4,0.1-0.5,0.2c0,0,0,0-0.1,0.1c-0.1,0.1-0.1,0.1-0.1,0.2L22.4,20c0.1,0,0.1,0.1,0.1,0.1c0.1,0,0.2,0,0.3-0.1v-0.2
					c0.1,0,0.1-0.1,0.2-0.1c0.2,0,0.3,0.2,0.2,0.3h-0.1c-0.1,0.1-0.2,0.3-0.3,0.3c-0.2,0.1-0.5,0.1-0.7,0.2
					c-0.1,0.1-0.1,0.2-0.2,0.2s-0.2,0.1-0.3,0l0,0c0,0.1-0.2,0-0.3,0c0,0,0-0.1-0.1-0.2h-0.1v-0.1h-0.8c-0.1,0-0.1,0.1-0.1,0.1
					l-0.1,0.1c-0.1,0.1-0.2,0.1-0.3,0.1c-0.1,0-0.2,0-0.3,0.1c-0.2,0-0.3,0.2-0.4,0.3s-0.2,0.1-0.3,0.1v0.1c-0.2,0-0.3,0.3-0.4,0.5
					V22c-0.1,0.1-0.1,0.3-0.3,0.4v0.1c0.1,0.2,0.3,0.3,0.5,0.5c0,0.1,0.1,0.1,0.1,0.1c0.1,0.1,0.1,0.2,0.2,0.4s0.3,0.2,0.5,0.2
					c0.1,0,0.2,0.1,0.2,0.1c0.2,0,0.5,0.1,0.7,0c0.3,0.1,0.7,0,1,0.1c0.1,0,0.1,0.1,0.1,0.2c0.1,0.1,0.2,0.3,0.3,0.4
					c0.1,0.1,0.3,0.1,0.4,0.1c0,0,0,0.1,0.1,0.2c0,0.1,0,0.1,0.1,0.2c0.1,0.1,0.1,0.1,0.1,0.2c0,0.1-0.1,0.2-0.1,0.4v0.2
					c0.2,0.2,0.4,0.4,0.6,0.5c0,0,0.1,0,0,0.1c0.1,0,0.1,0.1,0.2,0.2c0,0.1,0,0.1,0.1,0.2c0.1,0.1,0.2,0.2,0.3,0.3s0.3,0.1,0.4,0.1
					c0,0,0.1,0,0.1,0.1c0.1,0,0.3,0.1,0.4,0c0.1-0.1,0.1-0.2,0.2-0.2C24.7,27,24.9,27,25,27c0,0,0.1,0,0.1-0.1s0.1-0.1,0.1-0.2
					c0.1,0,0.2-0.1,0.3-0.1c0.2-0.1,0.3-0.3,0.5-0.4c0.2-0.1,0.4-0.1,0.5-0.2c0.1-0.2,0-0.4,0-0.6c0-0.1,0.1-0.2,0.1-0.3v-0.5
					c0-0.1-0.1-0.2-0.1-0.3c0-0.1,0.1-0.1,0.2-0.1c0.1-0.1,0.1-0.3,0.2-0.4c0,0,0.1,0,0.1-0.1c0.1,0,0-0.1,0-0.2
					c-0.1,0-0.1-0.1-0.1-0.1c-0.1-0.2-0.3-0.4-0.5-0.5c-0.1,0-0.1-0.1-0.1-0.1v-0.1c-0.1,0,0-0.1-0.1-0.1h0.1l0,0l0,0
					c0.1-0.1,0.1-0.3,0.2-0.4c0,0,0.1,0,0.1-0.1v-0.3c-0.1-0.1,0-0.3,0-0.4c0-0.3,0-0.5-0.1-0.8c0-0.1-0.1-0.1-0.2-0.1
					c0,0,0,0.1-0.1,0.1c0,0,0,0.1-0.1,0.2c0,0.1-0.2,0.1-0.2,0.2s0,0.1-0.1,0.2l-0.1,0.1C26.1,21,26,21,26,21.1h-0.3
					c-0.6-0.2-1.1-0.4-1.6-0.5l0,0h0.3c0.1,0,0-0.1,0-0.1c0.1,0,0.2,0.1,0.3,0.2c0.2,0.1,0.5,0.1,0.7,0.2c0.2,0,0.3,0.2,0.5,0.2
					c0.2,0,0.3-0.1,0.4-0.1c0,0,0,0,0-0.1c0.1-0.1,0.2-0.2,0.2-0.3v-0.3l0.1-0.1v-0.4c0.1,0,0.1-0.1,0.1-0.1s0,0,0-0.1v-0.2
					c0-0.2,0-0.4-0.1-0.5c0-0.1-0.1-0.1-0.2-0.1c0,0,0,0.1-0.1,0.1c-0.1,0-0.2,0-0.2,0.1C26,19,26,19.1,26,19.1
					c-0.1,0.1-0.2,0.2-0.4,0.2c-0.1,0-0.2,0-0.2-0.1C25.3,19,25.6,19,25.8,19l0.1-0.1c0-0.1,0.1-0.2,0.2-0.2h0.2
					c0.1,0,0.1-0.1,0.2-0.1c0,0,0-0.1,0.1-0.2c0-0.1,0.1-0.1,0.2-0.2c0.1-0.2,0.1-0.4,0.2-0.6c0.1-0.1,0,0.1,0.1,0.2
					c0.1,0.1,0.2,0.1,0.3,0c0.1-0.1,0-0.2,0.1-0.2h0.1c0.1,0,0.1,0.1,0.2,0.1c0,0,0.1-0.1,0.2-0.1h0.3c0.2-0.1,0.6,0,0.6-0.2
					c0-0.3-0.3-0.6-0.6-0.7c-0.2-0.1-0.1-0.4-0.3-0.6c-0.1,0,0-0.1-0.1-0.2c0,0,0,0-0.1-0.1l-0.1-0.1v-0.5c0-0.1,0.1-0.1,0.2-0.1
					c0.1-0.1,0.2-0.1,0.2-0.2v-0.4l0.1-0.1c0.2,0,0.5,0.1,0.7-0.1c0.1,0,0.1-0.1,0.1-0.2c0.2-0.2,0.4-0.4,0.4-0.8
					C29.3,13.4,29.4,13.4,29.4,13.2C29.5,13.3,29.5,13.2,29.4,13.2 M24.9,18.6C24.9,18.6,24.9,18.7,24.9,18.6
					c-0.1,0.1-0.1,0.1-0.2,0c0-0.1-0.1-0.1-0.1-0.2c-0.1,0-0.1,0-0.1,0.1h-0.2c0-0.1-0.1-0.1-0.1-0.2c-0.1-0.1,0-0.2,0.1-0.2
					c0.1,0,0.1,0,0.1,0.1l0,0c0,0,0,0,0,0.1c0.1,0.1,0.1,0,0.2,0h0.3l0,0C24.9,18.4,25,18.5,24.9,18.6L24.9,18.6"/>
				<path id="Shape_86_" class="st0" d="M15.6,36c1.3-1.9,5.2-3.9,9-3.9s8,2.2,9.6,1c0,0-1.7,1.4-5.1,1.4s-4.7-1.7-7-1.7
					c-2.4,0-4.8,1.9-5.9,3.5L15.6,36z"/>
				<path id="Shape_87_" class="st0" d="M27.7,31.8c0,0,1.1-0.7,1.7-1.9c0.6-1.2,2.1-3.2,3.7-4.4c0,0-1.7,5.5-3.5,5.7
					c0,0-0.3,0.2,0.2,0.1c0.5-0.1,2.8-0.9,3.6-1.1c0.8-0.1,2.8-0.6,3.3-1.1c0.5-0.4,0.8-0.4,0.8-0.4s-2.2,3.7-6.2,3.7
					C31.3,32.4,29.3,32.3,27.7,31.8"/>
				<path id="Shape_88_" class="st0" d="M32.4,29.9c0,0,0.4-0.6,0.5-1.7c0.1-1.1,0.8-3.6,2.7-6.3c0,0,0.3,4.3-1.9,7
					c0,0-0.1,0.4,0.1,0.1c0.3-0.3,1.6-1.9,4.6-3.9c0,0,1.5-1.3,1.6-1.7C40,23.3,38.8,29.5,32.4,29.9"/>
				<path id="Shape_89_" class="st0" d="M36.1,25.8c0,0,0.2-0.7,0.2-1.3S36,21.9,36,21s0.1-2.6,0.8-3.7c0,0,0,1,0.2,1.4
					c0.2,0.4,0.5,2.2,0.5,2.5c0,0.2-0.1,1.7-0.4,2.5c0,0,0.3-0.2,0.6-0.8s1.1-1.7,2.2-2.8C41,19,41.3,18,41.3,18s0.3,2-1.2,4.1
					s-2.1,1.8-2.9,2.6C37.2,24.7,36.2,25.8,36.1,25.8"/>
				<path id="Shape_90_" class="st0" d="M38.4,20.9c0,0,0-1.2-0.3-1.6c-0.2-0.4-1.6-2.8-1.3-5.9c0,0,0.2-0.2,0.6,1
					c0.4,1.2,1,1.6,1.2,2.8c0.2,1.2,0.2,1.7,0.2,1.7s0.1,0.2,0.1,0c0-0.1,0.1-1.8,0.8-3.2c0.7-1.5,1.6-2.9,1.5-3.9
					c0,0,0.4,0,0.3,1.6C41.6,15,41.2,17.8,38.4,20.9"/>
				<path id="Shape_91_" class="st0" d="M39.2,16.1c0,0-0.5-1.1-0.8-1.5c-0.3-0.4-2.7-3.7-2.9-5.3c0,0,0.2-0.1,0.4,0.3
					c0.2,0.4,1.3,1.5,1.5,1.7c0.2,0.2,1.4,1.4,1.5,2.8c0,0,0.1,0.1-0.1-2.1s0.7-3.7-0.1-5.3c0,0,1.1,0.2,1.7,4.8c0,0,0,1.6-0.9,3.6
					C39.6,15,39.3,16.1,39.2,16.1"/>
				<path id="Shape_92_" class="st0" d="M38.3,11c0,0-0.9-0.9-1.6-1.3c-0.7-0.4-2.9-2.6-3.3-4.3c0,0,0.1-0.2,0.8,0.7
					c0.5,0.7,1.1,0.4,2.7,2.4c0,0,0.2,0.5,0.3,0.4c0.1,0-0.1-0.5-0.1-0.5S37,7.2,37,6.8c0-0.4-0.7-2.8-0.9-3.1c0,0,2.2,1.2,2.5,4.7
					C38.5,8.4,38.4,10.9,38.3,11"/>
				<path id="Shape_93_" class="st0" d="M36.5,7.3c0,0,0.1-3-3.8-4.6c0,0,1.4,2.8,2.4,3.5S36.5,7.3,36.5,7.3"/>
				<path id="Shape_94_" class="st0" d="M26.3,36c-1.3-1.9-5.2-3.9-9-3.9s-8,2.2-9.6,1c0,0,1.7,1.4,5.1,1.4s4.7-1.7,7-1.7
					s4.8,1.9,5.9,3.5L26.3,36z"/>
				<path id="Shape_95_" class="st0" d="M14.2,31.8c0,0-1.1-0.7-1.7-1.9c-0.6-1.2-2.1-3.2-3.7-4.4c0,0,1.7,5.5,3.5,5.7
					c0,0,0.3,0.2-0.2,0.1c-0.5-0.1-2.8-0.9-3.6-1.1c-0.8-0.1-2.8-0.6-3.3-1.1c-0.4-0.4-0.8-0.4-0.8-0.4s2.2,3.7,6.2,3.7
					C10.6,32.4,12.6,32.3,14.2,31.8"/>
				<path id="Shape_96_" class="st0" d="M9.5,29.9c0,0-0.4-0.6-0.5-1.7c-0.1-1.1-0.8-3.6-2.7-6.3c0,0-0.3,4.3,1.9,7
					c0,0,0.1,0.4-0.1,0.1c-0.3-0.3-1.6-1.9-4.6-3.9c0,0-1.5-1.3-1.6-1.7C1.9,23.3,3.1,29.5,9.5,29.9"/>
				<path id="Shape_97_" class="st0" d="M5.8,25.8c0,0-0.2-0.7-0.2-1.3s0.3-2.6,0.3-3.5s-0.1-2.6-0.8-3.7c0,0,0,1-0.2,1.4
					c-0.2,0.4-0.5,2.2-0.5,2.5c0,0.2,0.1,1.7,0.4,2.5c0,0-0.3-0.2-0.6-0.8c-0.3-0.6-1.1-1.7-2.2-2.8S0.6,18,0.6,18s-0.3,2,1.2,4.1
					s2.1,1.8,2.9,2.6C4.8,24.7,5.7,25.8,5.8,25.8"/>
				<path id="Shape_98_" class="st0" d="M3.5,20.9c0,0,0.1-1.2,0.3-1.6c0.2-0.4,1.6-2.8,1.3-5.9c0,0-0.2-0.2-0.6,1s-1,1.6-1.2,2.8
					C3,18.4,3,18.9,3,18.9s-0.1,0.2-0.1,0c0-0.1-0.1-1.8-0.8-3.2c-0.7-1.5-1.6-2.9-1.5-3.9c0,0-0.4,0-0.3,1.6
					C0.3,15,0.7,17.8,3.5,20.9"/>
				<path id="Shape_99_" class="st0" d="M2.7,16.1c0,0,0.5-1.1,0.8-1.5c0.3-0.4,2.7-3.7,2.9-5.3c0,0-0.2-0.1-0.4,0.3
					c-0.2,0.4-1.3,1.5-1.5,1.7S3.1,12.7,3,14.1c0,0-0.1,0.1,0.1-2.1c0.2-2.2-0.7-3.7,0.1-5.3c0,0-1.1,0.2-1.7,4.8c0,0,0,1.6,0.9,3.6
					C2.3,15,2.6,16.1,2.7,16.1"/>
				<path id="Shape_100_" class="st0" d="M3.6,11c0,0,0.9-0.9,1.6-1.3c0.7-0.4,2.9-2.6,3.3-4.3c0,0-0.1-0.2-0.8,0.7
					C7.2,6.8,6.6,6.5,5,8.5c0,0-0.2,0.5-0.3,0.4c-0.1,0,0.1-0.5,0.1-0.5s0.3-1.3,0.3-1.7c0-0.4,0.7-2.8,0.9-3.1c0,0-2.2,1.2-2.5,4.7
					C3.4,8.4,3.5,10.9,3.6,11"/>
				<path id="Shape_101_" class="st0" d="M5.4,7.3c0,0-0.1-3,3.8-4.6c0,0-1.4,2.8-2.4,3.5S5.4,7.3,5.4,7.3"/>
			</g>
		</g>
	</g>
</g>
</svg>
