<svg id="FINAL" xmlns="http://www.w3.org/2000/svg" viewBox="0 0 48 48"><title>Icon</title><path d="M47.06,3H18.94A1,1,0,0,0,18,4V29h6a5,5,0,0,1,0,10H18v5a1,1,0,0,0,.94,1H39V38.78A2.79,2.79,0,0,1,41.78,36H48V4A1,1,0,0,0,47.06,3ZM42,26H24a1,1,0,0,1,0-2H42a1,1,0,0,1,0,2Zm0-6H24a1,1,0,0,1,0-2H42a1,1,0,0,1,0,2Zm0-6H24a1,1,0,0,1,0-2H42a1,1,0,0,1,0,2Z"/><path d="M41.78,38a.78.78,0,0,0-.78.78V45l7-7H41.78Z"/><path d="M41.78,38a.78.78,0,0,0-.78.78V45l7-7H41.78Z"/><path d="M24,36H2a2,2,0,0,1,0-4H24a2,2,0,0,1,0,4Z"/></svg>