<svg id="FINAL" xmlns="http://www.w3.org/2000/svg" viewBox="0 0 48 48"><title>Icon</title><path d="M47.06,2H18.94A1,1,0,0,0,18,3V28h6a5,5,0,0,1,0,10H18v5a1,1,0,0,0,.94,1H39V37.78A2.79,2.79,0,0,1,41.78,35H48V3A1,1,0,0,0,47.06,2ZM42,25H24a1,1,0,0,1,0-2H42a1,1,0,0,1,0,2Zm0-6H24a1,1,0,0,1,0-2H42a1,1,0,0,1,0,2Zm0-6H24a1,1,0,0,1,0-2H42a1,1,0,0,1,0,2Z"/><path d="M41.78,37a.78.78,0,0,0-.78.78V44l7-7H41.78Z"/><path d="M24,31H15V22a2,2,0,0,0-4,0v9H2a2,2,0,0,0,0,4h9v9a2,2,0,0,0,4,0V35h9a2,2,0,0,0,0-4Z"/></svg>