<svg id="FINAL" xmlns="http://www.w3.org/2000/svg" viewBox="0 0 48 48"><title>Icon</title><path d="M32.78,38a.78.78,0,0,0-.78.78V45l7-7H32.78Z"/><path d="M38.06,3H9.94A1,1,0,0,0,9,4V44a1,1,0,0,0,.94,1H30V38.78A2.79,2.79,0,0,1,32.78,36H39V4A1,1,0,0,0,38.06,3ZM17.91,28.63a.75.75,0,0,1-.39.45.7.7,0,0,1-.58,0,.77.77,0,0,1-.45-.38L14.78,25.3l-1.71,3.44a.77.77,0,0,1-.45.38.74.74,0,0,1-.59,0,.77.77,0,0,1-.38-.45.7.7,0,0,1,0-.58l2.22-4.46-2.06-4.13a.73.73,0,0,1,0-.59.76.76,0,0,1,.38-.45.74.74,0,0,1,.59,0,.76.76,0,0,1,.45.39l1.55,3.1,1.55-3.1a.76.76,0,0,1,.45-.39.7.7,0,0,1,.58,0,.75.75,0,0,1,.39.45.74.74,0,0,1,0,.59l-2.06,4.13,2.22,4.46A.7.7,0,0,1,17.91,28.63Zm5.59.24a.74.74,0,0,1-.54.22h-3.2a.77.77,0,0,1-.77-.77V19.11a.77.77,0,1,1,1.54,0v8.45H23a.77.77,0,0,1,.54,1.31Zm5.6-1.15a3,3,0,0,1-.75.88,2.66,2.66,0,0,1-1.06.5,2.74,2.74,0,0,1-2.24-.46,2.63,2.63,0,0,1-.77-.86.68.68,0,0,1-.09-.58.77.77,0,0,1,.36-.47.71.71,0,0,1,.58-.07.84.84,0,0,1,.48.36,1.23,1.23,0,0,0,.82.59,1.21,1.21,0,0,0,1-.24,1,1,0,0,0,.34-.38,1.5,1.5,0,0,0,.14-.5,1.21,1.21,0,0,0-.34-1L25,22.9a2.52,2.52,0,0,1-.61-1,2.66,2.66,0,0,1-.14-1.12,2.72,2.72,0,0,1,.32-1.08,2.68,2.68,0,0,1,1.77-1.34,2.68,2.68,0,0,1,1.13,0,3,3,0,0,1,1,.46,2.5,2.5,0,0,1,.76.84.7.7,0,0,1,.07.58.83.83,0,0,1-.36.48.7.7,0,0,1-.58.07.76.76,0,0,1-.46-.36,1.25,1.25,0,0,0-.77-.56,1.12,1.12,0,0,0-.93.22,1.15,1.15,0,0,0-.13,1.71l2.54,2.62a2.84,2.84,0,0,1,.62,1,2.63,2.63,0,0,1,.16,1.15A2.67,2.67,0,0,1,29.1,27.72Zm7.24.91a.75.75,0,0,1-.39.45.7.7,0,0,1-.58,0,.77.77,0,0,1-.45-.38L33.22,25.3,31.5,28.74a.77.77,0,0,1-.45.38.74.74,0,0,1-.59,0,.77.77,0,0,1-.38-.45.7.7,0,0,1,0-.58l2.22-4.46-2.06-4.13a.73.73,0,0,1,0-.59.76.76,0,0,1,.38-.45.74.74,0,0,1,.59,0,.76.76,0,0,1,.45.39l1.55,3.1,1.55-3.1a.76.76,0,0,1,.45-.39.7.7,0,0,1,.58,0,.75.75,0,0,1,.39.45.74.74,0,0,1,0,.59l-2.06,4.13,2.22,4.46A.7.7,0,0,1,36.34,28.63Z"/></svg>