<svg id="FINAL" xmlns="http://www.w3.org/2000/svg" viewBox="0 0 48 48"><title>Icon</title><path d="M32.78,38a.78.78,0,0,0-.78.78V45l7-7H32.78Z"/><path d="M25.88,19.88A1.15,1.15,0,0,0,24.73,21v5.44a1.15,1.15,0,1,0,2.3,0V21a1.15,1.15,0,0,0-1.15-1.15Z"/><path d="M38.06,3H9.94A1,1,0,0,0,9,4V44a1,1,0,0,0,.94,1H30V38.78A2.79,2.79,0,0,1,32.78,36H39V4A1,1,0,0,0,38.06,3ZM15.67,26.47a2.61,2.61,0,0,1-.37,1.34,2.81,2.81,0,0,1-1,1,2.72,2.72,0,0,1-1.36.35,2.6,2.6,0,0,1-1.33-.35.83.83,0,0,1-.36-.48.71.71,0,0,1,.07-.58.77.77,0,0,1,.47-.36.72.72,0,0,1,.58.07,1.12,1.12,0,0,0,1.15,0,1,1,0,0,0,.42-.41,1.15,1.15,0,0,0,.15-.58V19.11a.77.77,0,1,1,1.54,0Zm6.14,1.25a3,3,0,0,1-.75.88,2.67,2.67,0,0,1-1.06.5,2.75,2.75,0,0,1-2.24-.46,2.62,2.62,0,0,1-.77-.86.69.69,0,0,1-.09-.58.77.77,0,0,1,.36-.47.71.71,0,0,1,.58-.07.83.83,0,0,1,.48.36,1.23,1.23,0,0,0,.82.59,1.21,1.21,0,0,0,1-.24,1.05,1.05,0,0,0,.34-.38,1.5,1.5,0,0,0,.14-.5,1.2,1.2,0,0,0-.34-1L17.72,22.9a2.55,2.55,0,0,1-.61-1A2.67,2.67,0,0,1,17,20.82a2.72,2.72,0,0,1,.32-1.08,2.68,2.68,0,0,1,1.77-1.34,2.68,2.68,0,0,1,1.13,0,3,3,0,0,1,1,.46,2.51,2.51,0,0,1,.76.84.71.71,0,0,1,.07.58.83.83,0,0,1-.36.48.7.7,0,0,1-.58.07.76.76,0,0,1-.46-.36,1.25,1.25,0,0,0-.77-.56,1.12,1.12,0,0,0-.93.22,1.15,1.15,0,0,0-.13,1.71l2.54,2.62a2.85,2.85,0,0,1,.62,1,2.66,2.66,0,0,1,.16,1.15A2.7,2.7,0,0,1,21.82,27.72Zm6.75-1.25A2.7,2.7,0,0,1,24.83,29a2.69,2.69,0,0,1-1.43-1.43,2.64,2.64,0,0,1-.21-1V21a2.66,2.66,0,0,1,.78-1.9,2.69,2.69,0,0,1,.86-.58,2.74,2.74,0,0,1,2.1,0A2.67,2.67,0,0,1,28.57,21Zm7.49,1.92a.74.74,0,0,1-.17.48.77.77,0,0,1-.42.27.73.73,0,0,1-.51-.06.74.74,0,0,1-.35-.36q-.48-1-1-2.1l-1-2-1-2.14v5.92a.77.77,0,1,1-1.54,0V19.11a.77.77,0,0,1,.16-.48.75.75,0,0,1,.43-.27.72.72,0,0,1,.5.06.85.85,0,0,1,.36.36q.48,1,1,2.1l1,2Q34,24,34.52,25V19.11a.77.77,0,1,1,1.54,0Z"/></svg>