<svg id="FINAL" xmlns="http://www.w3.org/2000/svg" viewBox="0 0 48 48"><title>Icon</title><path d="M32.78,38a.78.78,0,0,0-.78.78V45l7-7H32.78Z"/><path d="M16.72,19.06h-1.4V23h1.4a1.4,1.4,0,0,0,1.4-1.4V20.46a1.4,1.4,0,0,0-1.4-1.4Z"/><path d="M24.51,19.06H23.1v9.27h1.4a1.4,1.4,0,0,0,1.4-1.4V20.46a1.4,1.4,0,0,0-1.4-1.4Z"/><path d="M38.06,3H9.94A1,1,0,0,0,9,4V44a1,1,0,0,0,.94,1H30V38.78A2.79,2.79,0,0,1,32.78,36H39V4A1,1,0,0,0,38.06,3ZM20,21.56a3.23,3.23,0,0,1-.25,1.28A3.27,3.27,0,0,1,18,24.57a3.22,3.22,0,0,1-1.28.25h-1.4v4.52a.94.94,0,1,1-1.87,0V18.13a.93.93,0,0,1,.94-.93h2.34a3.22,3.22,0,0,1,1.28.25,3.27,3.27,0,0,1,1.74,1.74A3.23,3.23,0,0,1,20,20.46Zm7.79,5.38a3.23,3.23,0,0,1-.25,1.28A3.27,3.27,0,0,1,25.78,30a3.24,3.24,0,0,1-1.28.25H22.17a.93.93,0,0,1-.94-.93V18.13a.93.93,0,0,1,.94-.93h2.34a3.22,3.22,0,0,1,1.28.25,3.27,3.27,0,0,1,1.74,1.74,3.23,3.23,0,0,1,.25,1.28Zm7.28-8.14a.9.9,0,0,1-.66.27h-3v3.51H34a.93.93,0,1,1,0,1.87H31.44v4.83a.94.94,0,1,1-1.87,0V18.13a.93.93,0,0,1,.94-.93h3.9a.94.94,0,0,1,.66,1.6Z"/></svg>