<svg id="FINAL" xmlns="http://www.w3.org/2000/svg" viewBox="0 0 48 48"><title>Icon</title><path d="M32.78,38a.78.78,0,0,0-.78.78V45l7-7H32.78Z"/><path d="M38.06,3H9.94A1,1,0,0,0,9,4V44a1,1,0,0,0,.94,1H30V38.78A2.79,2.79,0,0,1,32.78,36H39V4A1,1,0,0,0,38.06,3Zm-23,24.87a1.47,1.47,0,0,0,.74.51,1.39,1.39,0,0,0,.91-.07,1.36,1.36,0,0,0,.67-.59,1,1,0,0,1,.58-.44.86.86,0,0,1,.7.09,1,1,0,0,1,.44.58.82.82,0,0,1-.11.7,3.23,3.23,0,0,1-3.68,1.52,3.14,3.14,0,0,1-1-.44A3.25,3.25,0,0,1,12.95,27V20.39a3.24,3.24,0,0,1,1.44-2.72,3.14,3.14,0,0,1,1-.44A3.23,3.23,0,0,1,19,18.75a.82.82,0,0,1,.11.7,1,1,0,0,1-.44.58.86.86,0,0,1-.7.09,1,1,0,0,1-.58-.44,1.37,1.37,0,0,0-.67-.59,1.32,1.32,0,0,0-.91,0,1.34,1.34,0,0,0-.74.5,1.36,1.36,0,0,0-.29.85V27A1.34,1.34,0,0,0,15.11,27.87Zm11.1.66a3.62,3.62,0,0,1-.92,1.07,3.24,3.24,0,0,1-1.29.6,3.35,3.35,0,0,1-2.73-.55,3.2,3.2,0,0,1-.94-1,.83.83,0,0,1-.11-.71.93.93,0,0,1,.44-.58.86.86,0,0,1,.7-.09,1,1,0,0,1,.58.44,1.5,1.5,0,0,0,1,.72,1.48,1.48,0,0,0,1.21-.29,1.27,1.27,0,0,0,.41-.47,1.81,1.81,0,0,0,.18-.6,1.47,1.47,0,0,0-.41-1.17l-3.12-3.19a3.08,3.08,0,0,1-.74-1.17,3.25,3.25,0,0,1-.18-1.36,3.32,3.32,0,0,1,.39-1.32,3.27,3.27,0,0,1,2.15-1.63,3.27,3.27,0,0,1,1.37,0,3.58,3.58,0,0,1,1.26.55,3.06,3.06,0,0,1,.93,1,.86.86,0,0,1,.09.7,1,1,0,0,1-.44.58.86.86,0,0,1-.7.09.93.93,0,0,1-.56-.44,1.51,1.51,0,0,0-.94-.68,1.36,1.36,0,0,0-1.13.27,1.4,1.4,0,0,0-.16,2.08l3.1,3.19a3.46,3.46,0,0,1,.76,1.21,3.23,3.23,0,0,1,.19,1.4A3.27,3.27,0,0,1,26.21,28.53ZM35.5,18.3,32.38,29.6a1,1,0,0,1-.34.5.89.89,0,0,1-.56.19.92.92,0,0,1-.57-.19,1,1,0,0,1-.34-.5L27.46,18.3a1,1,0,0,1,.09-.72.87.87,0,0,1,.57-.43.94.94,0,0,1,.71.09.86.86,0,0,1,.44.55q.37,1.38.76,2.79l.72,2.61.74,2.65q.33-1.25.72-2.65l.72-2.61q.37-1.4.76-2.79a.86.86,0,0,1,.44-.55.94.94,0,0,1,.71-.09.87.87,0,0,1,.57.43A1,1,0,0,1,35.5,18.3Z"/></svg>