<svg id="FINAL" xmlns="http://www.w3.org/2000/svg" viewBox="0 0 48 48"><title>Icon</title><path d="M32.78,38a.78.78,0,0,0-.78.78V45l7-7H32.78Z"/><path d="M16.32,19.06h-1.4v9.27h1.4a1.4,1.4,0,0,0,1.4-1.4V20.46a1.4,1.4,0,0,0-1.4-1.4Z"/><path d="M24.42,19a1.4,1.4,0,0,0-1.4,1.4V27a1.4,1.4,0,1,0,2.8,0V20.39a1.4,1.4,0,0,0-1.4-1.4Z"/><path d="M38.06,3H9.94A1,1,0,0,0,9,4V44a1,1,0,0,0,.94,1H30V38.78A2.79,2.79,0,0,1,32.78,36H39V4A1,1,0,0,0,38.06,3ZM19.59,26.93a3.24,3.24,0,0,1-.25,1.28A3.27,3.27,0,0,1,17.59,30a3.23,3.23,0,0,1-1.28.25H14a.93.93,0,0,1-.93-.93V18.13a.93.93,0,0,1,.93-.93h2.34a3.22,3.22,0,0,1,1.28.25,3.27,3.27,0,0,1,1,.7,3.31,3.31,0,0,1,.7,1,3.24,3.24,0,0,1,.25,1.28Zm8.1.08a3.22,3.22,0,0,1-.25,1.28,3.28,3.28,0,0,1-6,0A3.2,3.2,0,0,1,21.15,27V20.39a3.21,3.21,0,0,1,.25-1.28,3.28,3.28,0,0,1,6,0,3.22,3.22,0,0,1,.25,1.28Zm3.72.86a1.47,1.47,0,0,0,.74.51,1.39,1.39,0,0,0,.91-.07,1.37,1.37,0,0,0,.67-.59,1,1,0,0,1,.58-.44.86.86,0,0,1,.7.09,1,1,0,0,1,.44.58.82.82,0,0,1-.11.7,3.23,3.23,0,0,1-3.68,1.52,3.15,3.15,0,0,1-1-.44,3.23,3.23,0,0,1-.77-.72,3.28,3.28,0,0,1-.5-.93A3.24,3.24,0,0,1,29.25,27V20.39a3.24,3.24,0,0,1,1.44-2.72,3.15,3.15,0,0,1,1-.44,3.23,3.23,0,0,1,3.68,1.52.82.82,0,0,1,.11.7A1,1,0,0,1,35,20a.86.86,0,0,1-.7.09,1,1,0,0,1-.58-.44,1.37,1.37,0,0,0-.67-.59,1.32,1.32,0,0,0-.91,0,1.34,1.34,0,0,0-.74.5,1.36,1.36,0,0,0-.29.85V27A1.35,1.35,0,0,0,31.41,27.87Z"/></svg>