<svg id="FINAL" xmlns="http://www.w3.org/2000/svg" viewBox="0 0 48 48"><title>Icon</title><path d="M16,24a8,8,0,0,1,8.88-7.95l6.29-6.29A32.24,32.24,0,0,0,24,9C14.17,9,6.08,12.78.62,21.8a4.22,4.22,0,0,0,0,4.39A27.27,27.27,0,0,0,7.2,33.73l8.85-8.85A8.07,8.07,0,0,1,16,24Z"/><path d="M47.38,21.8a27.27,27.27,0,0,0-6.59-7.53l-8.85,8.85a8,8,0,0,1-8.83,8.83l-6.29,6.29A32.24,32.24,0,0,0,24,39c9.83,0,17.92-3.78,23.38-12.8A4.23,4.23,0,0,0,47.38,21.8Z"/><path d="M5,45a2,2,0,0,1-1.41-3.41l38-38a2,2,0,0,1,2.83,2.83l-38,38A2,2,0,0,1,5,45Z"/></svg>