<svg id="FINAL" xmlns="http://www.w3.org/2000/svg" viewBox="0 0 48 48"><title>Icon</title><path d="M12,4H37a1,1,0,0,1,1,1V8a0,0,0,0,1,0,0H11a0,0,0,0,1,0,0V5A1,1,0,0,1,12,4Z"/><path d="M37,22H12a1,1,0,0,0-1,1V43a1,1,0,0,0,1,1H37a1,1,0,0,0,1-1V23A1,1,0,0,0,37,22ZM34,39H15a1,1,0,0,1,0-2H34a1,1,0,0,1,0,2Zm0-6H15a1,1,0,0,1,0-2H34a1,1,0,0,1,0,2Z"/><path d="M43.36,10H4.64A1.65,1.65,0,0,0,3,11.64V26.31A1.65,1.65,0,0,0,4.64,28H9V23a3,3,0,0,1,3-3H37a3,3,0,0,1,3,3v5h3.36A1.65,1.65,0,0,0,45,26.31V11.64A1.65,1.65,0,0,0,43.36,10ZM32,17a2,2,0,1,1,2-2A2,2,0,0,1,32,17Zm6,0a2,2,0,1,1,2-2A2,2,0,0,1,38,17Z"/></svg>