<svg id="FINAL" xmlns="http://www.w3.org/2000/svg" viewBox="0 0 48 48"><title>Icon</title><path d="M45,21H43.75a19.87,19.87,0,0,0-3.67-8.84l.89-.89A3,3,0,1,0,36.73,7l-.89.89A19.87,19.87,0,0,0,27,4.25V3a3,3,0,0,0-6,0V4.25a19.87,19.87,0,0,0-8.84,3.67L11.27,7A3,3,0,1,0,7,11.27l.89.89A19.87,19.87,0,0,0,4.25,21H3a3,3,0,0,0,0,6H4.25a19.87,19.87,0,0,0,3.67,8.84L7,36.73A3,3,0,0,0,11.27,41l.89-.89A19.87,19.87,0,0,0,21,43.75V45a3,3,0,0,0,6,0V43.75a19.87,19.87,0,0,0,8.84-3.67l.89.89A3,3,0,1,0,41,36.73l-.89-.89A19.87,19.87,0,0,0,43.75,27H45a3,3,0,0,0,0-6ZM24,38A14,14,0,1,1,38,24,14,14,0,0,1,24,38Z"/></svg>