<svg id="FINAL" xmlns="http://www.w3.org/2000/svg" viewBox="0 0 48 48"><title>Icon</title><path d="M14.46,26.8a.16.16,0,0,1,0-.26.71.71,0,0,1,.66-.2,1.15,1.15,0,0,1,.46.13,3,3,0,0,1,1,.89,6.7,6.7,0,0,0,.89,1,2.45,2.45,0,0,0,3.23.2,2,2,0,0,1,.43-.79,2,2,0,0,1,.56-.46q.26-.13.92-.39a12.25,12.25,0,0,1-3.52-.76A6,6,0,0,1,17,24.69a5.52,5.52,0,0,1-1.28-3.09,7.92,7.92,0,0,1,.3-3.49,5.8,5.8,0,0,1,1.12-1.78,5.89,5.89,0,0,1,.2-3.75A6.84,6.84,0,0,1,21.1,14,14.42,14.42,0,0,1,27.95,14a12.37,12.37,0,0,1,1.42-.82,5.79,5.79,0,0,1,2.4-.56,7.1,7.1,0,0,1,.36,1.71,5.66,5.66,0,0,1-.1,1.84,6.07,6.07,0,0,1,1.58,4.21,7.48,7.48,0,0,1-.72,3.49,5.56,5.56,0,0,1-2.57,2.3,9.15,9.15,0,0,1-3.29.72,4.36,4.36,0,0,1,1.35,1,2.9,2.9,0,0,1,.56,1.55v2.07l.07,2a2.47,2.47,0,0,0,.92.89.22.22,0,0,1,.13.3q-.07.2-.53.2A2.19,2.19,0,0,1,27.75,34a1.51,1.51,0,0,1-.2-.79V30.09a1,1,0,0,0-.26-.76,1.28,1.28,0,0,0-.53-.3v4.15A2.6,2.6,0,0,0,27,34.63a1.55,1.55,0,0,1,.33.66s0,.08-.1.1a1.27,1.27,0,0,1-.56-.1,1.63,1.63,0,0,1-1.18-.89,3.4,3.4,0,0,1-.33-1.48V28.84h-.86v4.08A3.62,3.62,0,0,1,24,34.43a1.85,1.85,0,0,1-1.71,1q-.2-.07-.2-.13a5.58,5.58,0,0,0,.39-.66,3.05,3.05,0,0,0,.16-.53,3.82,3.82,0,0,0,.1-.92V29a1.07,1.07,0,0,0-.49.3,1,1,0,0,0-.23.76v3.16a1.51,1.51,0,0,1-.2.79,2.08,2.08,0,0,1-1.78.79q-.46,0-.53-.2a.18.18,0,0,1,0-.23,2,2,0,0,1,.3-.23,2,2,0,0,0,.26-.2,1.2,1.2,0,0,0,.39-.53,2.5,2.5,0,0,0,.1-1.38,6.64,6.64,0,0,1,0-1.45A3.8,3.8,0,0,1,17.09,30,6.43,6.43,0,0,1,16,28.51a6.64,6.64,0,0,0-1.58-1.71Z"/><path d="M24,5A19,19,0,1,1,5,24,19,19,0,0,1,24,5m0-3A22,22,0,1,0,46,24,22,22,0,0,0,24,2Z"/></svg>