<svg id="FINAL" xmlns="http://www.w3.org/2000/svg" viewBox="0 0 48 48"><title>Icon</title><circle cx="24" cy="24" r="3.83"/><path d="M33,17.22A3.81,3.81,0,0,0,30.78,15a6.38,6.38,0,0,0-2.14-.4c-1.21-.05-1.58-.07-4.65-.07s-3.43,0-4.65.07a6.35,6.35,0,0,0-2.14.4A3.81,3.81,0,0,0,15,17.22a6.38,6.38,0,0,0-.4,2.14c-.05,1.21-.07,1.58-.07,4.65s0,3.44.07,4.65a6.36,6.36,0,0,0,.4,2.14A3.81,3.81,0,0,0,17.22,33a6.35,6.35,0,0,0,2.14.4c1.21.06,1.58.07,4.65.07s3.44,0,4.65-.07a6.35,6.35,0,0,0,2.14-.4A3.81,3.81,0,0,0,33,30.78a6.38,6.38,0,0,0,.4-2.14c.06-1.21.07-1.58.07-4.65s0-3.43-.07-4.65A6.35,6.35,0,0,0,33,17.22ZM24,29.91A5.91,5.91,0,1,1,29.91,24,5.9,5.9,0,0,1,24,29.91Zm6.14-10.66a1.38,1.38,0,1,1,1.38-1.38A1.38,1.38,0,0,1,30.14,19.24Z"/><path d="M24,2A22,22,0,1,0,46,24,22,22,0,0,0,24,2ZM35.43,28.74a8.41,8.41,0,0,1-.53,2.79,5.88,5.88,0,0,1-3.36,3.36,8.44,8.44,0,0,1-2.79.53c-1.23.06-1.62.07-4.74.07s-3.51,0-4.74-.07a8.44,8.44,0,0,1-2.79-.53,5.88,5.88,0,0,1-3.36-3.36,8.44,8.44,0,0,1-.53-2.79c-.06-1.23-.07-1.62-.07-4.74s0-3.52.07-4.74a8.44,8.44,0,0,1,.53-2.79,5.88,5.88,0,0,1,3.36-3.36,8.44,8.44,0,0,1,2.79-.53c1.23-.06,1.62-.07,4.74-.07s3.51,0,4.74.07a8.43,8.43,0,0,1,2.79.53,5.88,5.88,0,0,1,3.36,3.36,8.44,8.44,0,0,1,.53,2.79c.06,1.23.07,1.62.07,4.74S35.49,27.51,35.43,28.74Z"/></svg>