<svg id="FINAL" xmlns="http://www.w3.org/2000/svg" viewBox="0 0 48 48"><title>Icon</title><path d="M24,2A22,22,0,1,0,46,24,22,22,0,0,0,24,2Zm0,41A19,19,0,1,1,43,24,19,19,0,0,1,24,43Z"/><path d="M24,18.09A5.91,5.91,0,1,0,29.91,24,5.9,5.9,0,0,0,24,18.09Zm0,9.74A3.83,3.83,0,1,1,27.83,24,3.83,3.83,0,0,1,24,27.83Z"/><circle cx="30.14" cy="17.86" r="1.38"/><path d="M34.9,16.47a5.88,5.88,0,0,0-3.36-3.36,8.43,8.43,0,0,0-2.79-.53c-1.23-.06-1.62-.07-4.74-.07s-3.52,0-4.74.07a8.44,8.44,0,0,0-2.79.53,5.88,5.88,0,0,0-3.36,3.36,8.44,8.44,0,0,0-.53,2.79c-.06,1.23-.07,1.62-.07,4.74s0,3.52.07,4.74a8.44,8.44,0,0,0,.53,2.79,5.88,5.88,0,0,0,3.36,3.36,8.44,8.44,0,0,0,2.79.53c1.23.06,1.62.07,4.74.07s3.52,0,4.74-.07a8.44,8.44,0,0,0,2.79-.53,5.88,5.88,0,0,0,3.36-3.36,8.41,8.41,0,0,0,.53-2.79c.06-1.23.07-1.62.07-4.74s0-3.52-.07-4.74A8.44,8.44,0,0,0,34.9,16.47ZM33.36,28.65a6.38,6.38,0,0,1-.4,2.14A3.81,3.81,0,0,1,30.78,33a6.35,6.35,0,0,1-2.14.4c-1.21.06-1.58.07-4.65.07s-3.43,0-4.65-.07a6.35,6.35,0,0,1-2.14-.4A3.81,3.81,0,0,1,15,30.78a6.35,6.35,0,0,1-.4-2.14c-.06-1.21-.07-1.58-.07-4.65s0-3.43.07-4.65a6.38,6.38,0,0,1,.4-2.14A3.81,3.81,0,0,1,17.22,15a6.35,6.35,0,0,1,2.14-.4c1.21-.06,1.58-.07,4.65-.07s3.43,0,4.65.07a6.38,6.38,0,0,1,2.14.4A3.81,3.81,0,0,1,33,17.22a6.35,6.35,0,0,1,.4,2.14c.06,1.21.07,1.58.07,4.65S33.42,27.43,33.36,28.65Z"/></svg>