<svg id="FINAL" xmlns="http://www.w3.org/2000/svg" viewBox="0 0 48 48"><title>Icon</title><path d="M24,5A19,19,0,1,1,5,24,19,19,0,0,1,24,5m0-3A22,22,0,1,0,46,24,22,22,0,0,0,24,2Z"/><path d="M36,16.56a9.83,9.83,0,0,1-2.83.78,4.94,4.94,0,0,0,2.16-2.72,9.84,9.84,0,0,1-3.13,1.19,4.93,4.93,0,0,0-8.52,3.37,5,5,0,0,0,.13,1.12,14,14,0,0,1-10.15-5.14,4.93,4.93,0,0,0,1.52,6.57A4.9,4.9,0,0,1,13,21.11v.06A4.93,4.93,0,0,0,16.91,26a4.9,4.9,0,0,1-1.3.17,5,5,0,0,1-.93-.09,4.93,4.93,0,0,0,4.6,3.42,9.91,9.91,0,0,1-7.29,2A14,14,0,0,0,33.56,19.74q0-.32,0-.64A10,10,0,0,0,36,16.56Z"/></svg>