<svg id="FINAL" xmlns="http://www.w3.org/2000/svg" viewBox="0 0 48 48"><title>Icon</title><path d="M24,2A22,22,0,1,0,46,24,22,22,0,0,0,24,2Zm9.54,17.11q0,.32,0,.64A14,14,0,0,1,12,31.54a9.92,9.92,0,0,0,7.29-2,4.93,4.93,0,0,1-4.6-3.42,5,5,0,0,0,.93.09,4.9,4.9,0,0,0,1.3-.17A4.93,4.93,0,0,1,13,21.17v-.06a4.9,4.9,0,0,0,2.23.62,4.93,4.93,0,0,1-1.52-6.57,14,14,0,0,0,10.15,5.14,5,5,0,0,1-.13-1.12,4.93,4.93,0,0,1,8.52-3.37,9.83,9.83,0,0,0,3.13-1.19,4.94,4.94,0,0,1-2.16,2.72A9.83,9.83,0,0,0,36,16.56,10,10,0,0,1,33.54,19.11Z"/></svg>