<svg id="FINAL" xmlns="http://www.w3.org/2000/svg" viewBox="0 0 48 48"><title>Icon</title><path d="M32.58,16.83c-1.72-.45-8.59-.45-8.59-.45s-6.75,0-8.46.42a3,3,0,0,0-2.11,2A26.77,26.77,0,0,0,13,24a26.77,26.77,0,0,0,.42,5.24,3,3,0,0,0,2.11,2c1.72.46,8.46.42,8.46.42s6.75,0,8.46-.42a3,3,0,0,0,2.08-2A27.91,27.91,0,0,0,35,24a28.42,28.42,0,0,0-.47-5.24A2.74,2.74,0,0,0,32.58,16.83ZM21.26,27.38V20.62L26.74,24Z"/><path d="M24,2A22,22,0,1,0,46,24,22,22,0,0,0,24,2Zm0,41A19,19,0,1,1,43,24,19,19,0,0,1,24,43Z"/></svg>