<svg style="position:absolute;width:0;height:0" xmlns="http://www.w3.org/2000/svg" overflow="hidden"><defs><symbol id="icon-twitter" viewBox="0 0 32 32"><title>twitter</title><path d="M26.313 8.68c.146-.27.267-.555.36-.852.09-.28-.002-.585-.232-.77-.228-.182-.548-.203-.8-.055-.68.404-1.41.7-2.178.89-.924-.834-2.137-1.305-3.39-1.305-2.786 0-5.05 2.266-5.05 5.048 0 .07 0 .14.003.21-2.958-.37-5.688-1.874-7.59-4.206-.145-.18-.37-.274-.602-.258-.232.02-.44.148-.556.35-.447.77-.684 1.646-.684 2.54 0 .847.21 1.662.597 2.385-.098.016-.195.052-.283.103-.216.128-.35.386-.35.637 0 1.502.67 2.88 1.746 3.818l-.046.046c-.165.19-.22.448-.143.686.465 1.448 1.54 2.575 2.89 3.13-1.378.68-2.977.948-4.507.766-.323-.03-.637.154-.75.466-.11.31.008.655.286.834 2.107 1.35 4.54 2.063 7.04 2.063 8.177 0 13.065-6.643 13.065-13.065v-.217c.79-.617 1.475-1.354 2.038-2.197.175-.26.156-.607-.046-.848-.2-.237-.53-.32-.815-.198zM24.003 11c-.194.14-.305.37-.293.61.008.175.012.352.012.527 0 5.726-4.358 11.65-11.65 11.65-1.31 0-2.6-.22-3.82-.645 1.462-.28 2.833-.902 4.03-1.84.236-.184.33-.497.234-.78-.095-.284-.36-.477-.658-.483-1.18-.024-2.248-.61-2.903-1.538.335-.023.663-.078.982-.164.316-.086.53-.378.52-.707s-.246-.605-.568-.67c-1.328-.266-2.37-1.248-2.755-2.52.352.088.713.14 1.075.15.31 0 .6-.19.696-.49s-.017-.63-.28-.803c-1.013-.678-1.618-1.808-1.618-3.026 0-.295.036-.586.105-.87 2.29 2.348 5.4 3.767 8.692 3.932.233 0 .437-.082.578-.253s.196-.397.146-.614c-.063-.27-.095-.55-.095-.83 0-2.006 1.632-3.636 3.637-3.636 1.002 0 1.97.418 2.653 1.15.167.178.413.256.654.21.217-.045.433-.095.646-.153-.095.072-.195.14-.3.2-.285.172-.412.52-.305.836s.43.52.754.472l.24-.03c-.13.108-.268.213-.408.314z"/></symbol><symbol id="icon-direction-up" viewBox="0 0 32 32"><title>direction-up</title><path d="M4.653 11.253c0-.2.1-.3.2-.4l9.8-9.8c.7-.7 2-.7 2.7 0l9.8 9.8c.2.2.2.6 0 .8s-.6.2-.8 0l-9.8-9.8c-.2-.2-.8-.2-1 0l-9.8 9.8c-.2.2-.6.2-.8 0-.3-.1-.3-.3-.3-.4z"/><path d="M15.353 30.953v-29.8c0-.3.3-.6.6-.6s.6.3.6.6v29.8c0 .3-.3.6-.6.6s-.6-.3-.6-.6z"/></symbol><symbol id="icon-cloud-upload" viewBox="0 0 32 32"><title>cloud-upload</title><path d="M15 16l-3.25 3.25-.75-.75 4.5-4.5 4.5 4.5-.75.75L16 16v11h-1V16zm-1 5H7.003C4.798 21 3 19.21 3 17c0-1.895 1.325-3.488 3.1-3.898-.065-.357-.1-.726-.1-1.102 0-3.314 2.686-6 6-6 2.615 0 4.84 1.673 5.66 4.008C18.436 9.378 19.424 9 20.5 9c2.358 0 4.293 1.814 4.484 4.123C26.714 13.563 28 15.133 28 17c0 2.205-1.792 4-4.003 4H17v1h7c2.762 0 5-2.244 5-5 0-2.096-1.287-3.892-3.117-4.634C25.36 9.873 23.15 8 20.5 8c-.863 0-1.68.2-2.406.553C16.89 6.433 14.614 5 12 5c-3.866 0-7 3.134-7 7 0 .138.004.275.012.412C3.24 13.182 2 14.95 2 17c0 2.76 2.232 5 5 5h7v-1z"/></symbol><symbol id="icon-lock" viewBox="0 0 32 32"><title>lock</title><path d="M15 21.915c-.583-.206-1-.762-1-1.415 0-.828.672-1.5 1.5-1.5s1.5.672 1.5 1.5c0 .653-.417 1.21-1 1.415v2.594c0 .262-.224.49-.5.49-.268 0-.5-.22-.5-.49v-2.595zm-1 .585v1.998c0 .83.666 1.502 1.5 1.502.828 0 1.5-.67 1.5-1.502V22.5c.607-.456 1-1.182 1-2 0-1.38-1.12-2.5-2.5-2.5S13 19.12 13 20.5c0 .818.393 1.544 1 2zM8 14v-3.5C8 6.355 11.358 3 15.5 3c4.134 0 7.5 3.358 7.5 7.5V14c1.66.005 3 1.35 3 3.01v9.98c0 1.673-1.347 3.01-3.01 3.01H8.01C6.345 30 5 28.65 5 26.99v-9.98c0-1.67 1.342-3.006 3-3.01zm1 0h1v-3.49C10 7.46 12.462 5 15.5 5c3.03 0 5.5 2.466 5.5 5.51V14h1v-3.507C22 6.907 19.083 4 15.5 4 11.91 4 9 6.908 9 10.493V14zm2 0h9v-3.5C20 8.016 17.98 6 15.5 6 13.015 6 11 8.01 11 10.5V14zm-3.003 1C6.894 15 6 15.897 6 17.006v9.988C6 28.102 6.89 29 7.997 29h15.005C24.105 29 25 28.103 25 26.994v-9.988C25 15.898 24.107 15 23 15H7.997z"/></symbol><symbol id="icon-check-circle" viewBox="0 0 32 32"><title>check-circle</title><path d="M12.6 22.1c-.5 0-1-.2-1.3-.5l-4-4c-.2-.2-.2-.6 0-.8s.6-.2.8 0l4 4c.2.2.7.2.9 0L23.7 10c.2-.2.6-.2.8 0s.2.6 0 .8L13.9 21.6c-.4.3-.8.5-1.3.5z"/><path d="M16 31.4C7.5 31.4.5 24.5.5 16S7.5.6 16 .6 31.4 7.5 31.4 16c-.1 8.5-7 15.4-15.4 15.4zm0-29.6C8.1 1.8 1.8 8.2 1.8 16S8.1 30.2 16 30.2 30.2 23.8 30.2 16 23.8 1.8 16 1.8z"/></symbol><symbol id="icon-check" viewBox="0 0 32 32"><title>check</title><path d="M12.2 24.1c-.6 0-1.2-.2-1.6-.7L5.1 18c-.2-.2-.2-.6 0-.8s.6-.2.8 0l5.5 5.5c.4.4 1.1.4 1.6 0L27.8 7.8c.2-.2.6-.2.8 0s.2.6 0 .8L13.8 23.4c-.4.5-1 .7-1.6.7z"/></symbol><symbol id="icon-wheel" viewBox="0 0 32 32"><title>wheel</title><path d="M15.3 31.6v-.5c0-1.6-1.1-3.1-2.8-3.6-.8-.2-1.6-.6-2.4-1-.6-.3-1.2-.5-1.9-.5-.9 0-1.8.4-2.4 1l-.4.4-1-1 .4-.4c1.2-1 1.4-2.7.5-4.2-.4-.7-.7-1.5-1-2.4-.5-1.7-1.9-2.8-3.6-2.8H.3v-1.3h.5c1.6 0 3.1-1.1 3.6-2.8.2-.8.6-1.6 1-2.4.8-1.4.6-3.1-.6-4.3l-.4-.4 1-1 .4.4c.6.6 1.5 1 2.4 1 .6 0 1.3-.2 1.9-.5.7-.4 1.5-.7 2.4-1 1.7-.5 2.8-1.9 2.8-3.6V.4h1.3v.5c0 1.6 1.1 3.1 2.8 3.6.8.2 1.6.6 2.4 1 .6.3 1.2.5 1.9.5.9 0 1.8-.4 2.4-1l.4-.4 1 1-.4.4c-1.1 1.1-1.3 2.9-.5 4.3.4.7.7 1.5 1 2.4.5 1.7 1.9 2.8 3.6 2.8h.5v1.3h-.5c-1.6 0-3.1 1.1-3.6 2.8-.2.8-.6 1.6-1 2.4-.8 1.5-.6 3.2.5 4.3l.4.4-1 1-.4-.4c-.6-.6-1.5-1-2.4-1-.6 0-1.3.2-1.9.5-.7.4-1.5.7-2.4 1-1.7.5-2.8 1.9-2.8 3.6v.5h-1.3zm.6-26.4C10 5.2 5.1 10 5.1 16s4.8 10.8 10.8 10.8c6 0 10.8-4.8 10.8-10.8.1-6-4.8-10.8-10.8-10.8z"/></symbol><symbol id="icon-arrow-down" viewBox="0 0 32 32"><title>arrow-down</title><path d="M25.753 11.653c0 .2-.1.3-.2.4l-8.4 8.4c-.3.3-.7.5-1.2.5s-.9-.2-1.2-.5l-8.4-8.4c-.2-.2-.2-.6 0-.8s.6-.2.8 0l8.4 8.4c.1.1.2.1.4.1s.3 0 .4-.1l8.4-8.4c.2-.2.6-.2.8 0 .1.1.2.2.2.4z"/></symbol><symbol id="icon-arrow-up" viewBox="0 0 32 32"><title>arrow-up</title><path d="M6.153 20.347c0-.2.1-.3.2-.4l8.4-8.4c.3-.3.7-.5 1.2-.5s.9.2 1.2.5l8.4 8.4c.2.2.2.6 0 .8s-.6.2-.8 0l-8.4-8.4c-.1-.1-.2-.1-.4-.1s-.3 0-.4.1l-8.4 8.4c-.2.2-.6.2-.8 0-.1-.1-.2-.2-.2-.4z"/></symbol><symbol id="icon-arrow-left" viewBox="0 0 32 32"><title>arrow-left</title><path d="M20.3 25.8c-.2 0-.3-.1-.4-.2l-8.4-8.4c-.3-.3-.5-.7-.5-1.2s.2-.9.5-1.2l8.4-8.4c.2-.2.6-.2.8 0s.2.6 0 .8l-8.4 8.4c-.1.1-.1.2-.1.4s0 .3.1.4l8.4 8.4c.2.2.2.6 0 .8-.1.1-.2.2-.4.2z"/></symbol><symbol id="icon-arrow-right" viewBox="0 0 32 32"><title>arrow-right</title><path d="M11.6 6.2c.2 0 .3.1.4.2l8.4 8.4c.3.3.5.7.5 1.2s-.2.9-.5 1.2L12 25.6c-.2.2-.6.2-.8 0s-.2-.6 0-.8l8.4-8.4c.1-.1.1-.2.1-.4s0-.3-.1-.4l-8.4-8.4c-.2-.2-.2-.6 0-.8.1-.1.2-.2.4-.2z"/></symbol><symbol id="icon-cancel" viewBox="0 0 32 32"><title>cancel</title><path d="M16.8 16l7.6-7.7c.2-.2.2-.6 0-.8s-.6-.2-.8 0L16 15.1 8.3 7.5c-.2-.2-.6-.2-.8 0s-.2.6 0 .8l7.6 7.7-7.6 7.7c-.2.2-.2.6 0 .8.1.1.3.2.4.2.2 0 .3-.1.4-.2l7.6-7.7 7.6 7.7c.1.1.3.2.4.2.2 0 .3-.1.4-.2.2-.2.2-.6 0-.8L16.8 16z"/></symbol><symbol id="icon-map-pin" viewBox="0 0 24 32"><title>map-pin</title><path d="M12 0C5.383 0 0 5.394 0 12.022c0 9.927 11.2 19.46 11.678 19.86.093.08.208.118.322.118s.226-.038.318-.114C12.795 31.492 24 22.124 24 12.022 24 5.394 18.617 0 12 0zm.002 30.838C10.162 29.193 1 20.578 1 12.022 1 5.944 5.935 1 12 1s11 4.944 11 11.022c0 8.702-9.152 17.193-10.998 18.816zM12 6c-3.31 0-6 2.69-6 6s2.69 6 6 6 6-2.69 6-6-2.69-6-6-6zm0 11c-2.757 0-5-2.243-5-5s2.243-5 5-5 5 2.243 5 5-2.243 5-5 5z"/></symbol><symbol id="icon-clock" viewBox="0 0 32 32"><title>clock</title><path d="M16 32c8.822 0 16-7.178 16-16S24.822 0 16 0 0 7.178 0 16s7.178 16 16 16zm0-31c8.27 0 15 6.73 15 15s-6.73 15-15 15S1 24.27 1 16 7.73 1 16 1zm4.06 20.768c.1.098.227.146.355.146s.256-.05.354-.146c.194-.195.194-.512 0-.707L16 16.294V9.32c0-.277-.224-.5-.5-.5s-.5.223-.5.5v7.18c0 .133.053.26.146.354l4.915 4.914zM3 16c0 .552.448 1 1 1s1-.448 1-1-.448-1-1-1-1 .448-1 1zm24 0c0 .552.448 1 1 1s1-.448 1-1-.448-1-1-1-1 .448-1 1zM15 4c0 .552.448 1 1 1s1-.448 1-1-.448-1-1-1-1 .448-1 1zm0 24c0 .552.448 1 1 1s1-.448 1-1-.448-1-1-1-1 .448-1 1zM7 8c0 .552.448 1 1 1s1-.448 1-1-.448-1-1-1-1 .448-1 1zm16 16c0 .552.448 1 1 1s1-.448 1-1-.448-1-1-1-1 .448-1 1zm1-16c0 .552.448 1 1 1s1-.448 1-1-.448-1-1-1-1 .448-1 1zM7 24c0 .552.448 1 1 1s1-.448 1-1-.448-1-1-1-1 .448-1 1z"/></symbol><symbol id="icon-flag" viewBox="0 0 32 32"><title>flag</title><path d="M8 8.5V3h16l-5.5 5.5L24 14H9v15H8V8.5zM9 4v9h12.5L17 8.5 21.5 4H9z"/></symbol><symbol id="icon-star" viewBox="0 0 32 32"><title>star</title><path d="M16 23l9 6-4-10 9-6H20L16 3l-4 10H2l9 6-4 10 9-6zm0-1.247L9.2 26.3l3.2-7.7L5.2 14h7.5L16 5.5l3.3 8.5h7.5l-7.2 4.6 3.2 7.7-6.8-4.547z"/></symbol><symbol id="icon-trash" viewBox="0 0 32 32"><title>trash</title><path d="M23 7h4v1h-2v18.993C25 28.663 23.657 30 22 30H11c-1.666 0-3-1.346-3-3.007V8H6V7h6V5.005C12 3.895 12.894 3 13.997 3h5.005C20.104 3 21 3.898 21 5.005V7h2zM9 8v19.005C9 28.107 9.893 29 10.992 29h11.016c1.1 0 1.992-.902 1.992-1.995V8H9zm3 2v17h1V10h-1zm4 0v17h1V10h-1zm4 0v17h1V10h-1zm-5.997-6C13.45 4 13 4.443 13 5v2h7V5c0-.553-.438-1-1.003-1h-4.994z"/></symbol><symbol id="icon-copy" viewBox="0 0 32 32"><title>copy</title><path d="M23 12.5V26h4c.552 0 1-.445 1-.993V8h-4.002C22.895 8 22 7.113 22 5.994V1H11.996c-.55 0-.996.455-.996.995V5h6l6 7v.5zM10 5V2.007C10 .897 10.897 0 12.003 0H23l6 7v18.01C29 26.1 28.106 27 27.003 27H23v3.01C23 31.1 22.106 32 21.003 32H5.998C4.89 32 4 31.1 4 29.993V7.008C4 5.898 4.9 5 6.005 5H10zm13-3.5v4.49c0 .558.45 1.01.997 1.01H27.7L23 1.5zM16 6H5.996C5.446 6 5 6.455 5 6.995v23.01c0 .55.455.994 1 .994h15c.552 0 1-.446 1-.994V13h-4.002C16.895 13 16 12.11 16 10.992V6zm1 .5v4.49c0 .558.45 1.01.997 1.01H21.7L17 6.5z"/></symbol><symbol id="icon-inbox-download" viewBox="0 0 32 32"><title>inbox-download</title><path d="M15 16l-3.25-3.25-.75.75 4.5 4.5 4.5-4.5-.75-.75L16 16V5h-1v11zm2-5h5.4l4.375 7H20v2.002c0 1.1-.894 1.998-1.997 1.998h-5.005C11.896 22 11 21.105 11 20.002V18H4.227L8.6 11H14v-1H8l-5 8v9h25v-9l-5-8h-6v1zm4 8h6v7H4v-7h6v1.5c0 1.38 1.115 2.5 2.496 2.5h6.008C19.884 23 21 21.89 21 20.5V19z"/></symbol><symbol id="icon-search" viewBox="0 0 32 32"><title>search</title><path d="M19.427 20.427c-1.39.99-3.09 1.573-4.927 1.573C9.806 22 6 18.194 6 13.5S9.806 5 14.5 5 23 8.806 23 13.5c0 2.347-.95 4.472-2.49 6.01l5.997 5.997c.275.275.268.716-.008.992-.28.277-.72.28-.993.007l-6.08-6.08zM14.5 21c4.142 0 7.5-3.358 7.5-7.5S18.642 6 14.5 6C10.358 6 7 9.358 7 13.5s3.358 7.5 7.5 7.5z"/></symbol><symbol id="icon-edit" viewBox="0 0 32 32"><title>edit</title><path d="M22.443 12.15l-11.286 11.3-2.606-2.606L19.844 9.55l2.6 2.6zm.707-.707l-2.6-2.6 1.728-1.727c.39-.39 1.024-.388 1.417.003l1.18 1.176c.392.39.395 1.025.005 1.416l-1.73 1.73zM7.904 21.61l2.495 2.496-3.136.617.64-3.113zM7 21l-1 5 5-1 14.58-14.58c.784-.784.786-2.054.01-2.83l-1.18-1.18c-.78-.778-2.037-.782-2.83.01L7 21z"/></symbol><symbol id="icon-document-file-pdf" viewBox="0 0 32 32"><title>document-file-pdf</title><path d="M21 13v-3l-6-7H4.003C2.897 3 2 3.898 2 5.007v22.985C2 29.102 2.89 30 3.997 30h15.005C20.105 30 21 29.1 21 28.007v-2.01h7.992C30.652 26 32 24.66 32 23v-7.002c0-1.656-1.337-3-3.008-3H21zm-1 13v2.007c0 .548-.448.993-1 .993H4c-.545 0-1-.446-1-.995V4.995c0-.54.446-.994.996-.994H14v4.995c0 1.12.895 2.006 1.998 2.006H20v2h-7.993C10.347 13 9 14.344 9 16v7.002c0 1.656 1.336 3 3.007 3H20zM15 4.5l4.7 5.5h-3.703C15.45 10 15 9.548 15 8.99V4.5zM11.995 14h17.01c1.093 0 1.996.892 1.996 1.992v7.016C31 24.1 30.11 25 29.007 25h-17.01C10.902 25 10 24.108 10 23.008v-7.016C10 14.9 10.893 14 11.995 14zM25 19v-2h4v-1h-5v7h1v-3h3v-1h-3zm-13-1v-2h2.995c1.11 0 2.005.895 2.005 2 0 1.112-.898 2-2.005 2H13v3h-1v-5zm1-1v2h2c.553 0 1-.444 1-1 0-.552-.443-1-1-1h-2zm5-1h2.995c1.11 0 2.005.898 2.005 2.006v2.988c0 1.12-.898 2.006-2.005 2.006H18v-7zm1 1v5h2c.553 0 1-.444 1-1v-3c0-.552-.443-1-1-1h-2z"/></symbol><symbol id="icon-caution" viewBox="0 0 35 32"><title>caution</title><path d="M21.8 2.954C20.693 1.05 19.19 0 17.563 0s-3.13 1.05-4.236 2.954L1.058 24.087c-1.12 1.947-1.24 3.97-.33 5.546.867 1.5 2.566 2.363 4.665 2.367h24.342c2.102-.004 3.804-.864 4.667-2.36.905-1.568.783-3.582-.335-5.526L21.8 2.954zM33.536 29.14c-.68 1.18-2.067 1.857-3.804 1.86H5.393c-1.73-.003-3.114-.684-3.798-1.867-.727-1.26-.606-2.917.33-4.546l12.268-21.13C15.113 1.87 16.31 1 17.563 1s2.453.872 3.37 2.456l12.27 21.157c.934 1.626 1.056 3.276.334 4.526zM17.564 20c.276 0 .5-.224.5-.5v-10c0-.276-.224-.5-.5-.5s-.5.224-.5.5v10c0 .276.224.5.5.5zm-.064 2.5c-1.103 0-2 .897-2 2s.897 2 2 2 2-.897 2-2-.897-2-2-2zm0 3c-.55 0-1-.448-1-1s.45-1 1-1 1 .448 1 1-.45 1-1 1z"/></symbol><symbol id="icon-menu" viewBox="0 0 32 32"><title>menu</title><path d="M3.8 7.8h24.5v1.4H3.8V7.8zM3.8 15.3h24.5v1.4H3.8v-1.4zM3.8 22.8h24.5v1.4H3.8v-1.4z"/></symbol><symbol id="icon-dots" viewBox="0 0 32 32"><title>dots</title><path d="M17.6 16c0 .884-.716 1.6-1.6 1.6s-1.6-.716-1.6-1.6c0-.884.716-1.6 1.6-1.6s1.6.716 1.6 1.6zM17.6 23.2c0 .884-.716 1.6-1.6 1.6s-1.6-.716-1.6-1.6c0-.884.716-1.6 1.6-1.6s1.6.716 1.6 1.6zM17.6 8.8c0 .884-.716 1.6-1.6 1.6s-1.6-.716-1.6-1.6c0-.884.716-1.6 1.6-1.6s1.6.716 1.6 1.6z"/></symbol><symbol id="icon-filter" viewBox="0 0 32 32"><title>filter</title><path d="M27.7 6c-.4-.9-1.3-1.4-2.3-1.4H6.6c-1 0-2 .6-2.3 1.4-.3.7-.2 1.5.4 2.1l10.4 11.1v8.2h1.8v-8.2L27.3 8.1c.6-.6.7-1.4.4-2.1zm-1.4 1.2L16 18.2 5.7 7.2c-.2-.2-.3-.4-.2-.7.1-.2.5-.5 1.1-.5h18.8c.6 0 1 .3 1.1.6.1.2 0 .4-.2.6z"/></symbol><symbol id="icon-home" viewBox="0 0 32 32"><title>home</title><path d="M16 4.8l9.2 9.3v13.7h-6v-7.2h-6.4v7.2h-6V14L16 4.8zM16 3L5.5 13.5V29H14v-7.2h4V29h8.5V13.5L16 3z"/></symbol><symbol id="icon-plus" viewBox="0 0 32 32"><title>plus</title><path d="M27.7 15.4H16.6V4.3c0-.4-.3-.6-.6-.6s-.7.3-.7.6v11.1h-11c-.4 0-.6.3-.6.6s.3.6.6.6h11.1v11.1c0 .4.3.7.6.7s.6-.3.6-.7v-11h11.1c.4 0 .7-.3.7-.6s-.4-.7-.7-.7z"/></symbol><symbol id="icon-user" viewBox="0 0 32 32"><title>user</title><path d="M16 4.5c2.9 0 5.2 2.5 5.2 5.5 0 1.9-.9 3.5-2.2 4.5-.4.3-.3.9.1 1 3.1.9 5.6 3.7 6 7.2v3.9c.1.5-.4 1-.9 1H7.8c-.6 0-1-.4-.9-1v-3.9c.4-3.5 2.8-6.2 6-7.2.4-.1.5-.7.1-1-1.3-1-2.2-2.6-2.2-4.5 0-3 2.3-5.5 5.2-5.5zm0-1.2c-3.5 0-6.4 3-6.4 6.7 0 1.8.7 3.5 1.8 4.7-3.1 1.4-5.3 4.3-5.8 7.8v4c0 .5.1 1.1.5 1.5.4.5 1 .7 1.6.7h16.4c.6 0 1.2-.3 1.6-.7s.5-1 .5-1.5v-4c-.4-3.5-2.6-6.5-5.8-7.8 1.2-1.2 1.8-2.9 1.8-4.7.2-3.7-2.7-6.7-6.2-6.7z"/></symbol><symbol id="icon-users" viewBox="0 0 32 32"><title>users</title><path d="M17.3 7.1c2.6 0 4.7 2.2 4.7 5 0 1.7-.8 3.2-2 4.1-.3.3-.3.8.1.9 2.9.9 5 3.4 5.4 6.5v3.5c.1.5-.3.9-.9.9H9.9c-.5 0-.9-.4-.9-.9v-3.5c.4-3.2 2.6-5.7 5.4-6.5.4-.1.5-.6.1-.9-1.2-.9-2-2.4-2-4.1.1-2.8 2.2-5 4.8-5zm0-1.2c-3.3 0-5.9 2.8-5.9 6.2 0 1.6.6 3.1 1.6 4.2-2.8 1.3-4.8 4-5.2 7.1v3.7c0 .5.1 1 .5 1.4s1 .7 1.6.7h14.9c.6 0 1.2-.3 1.6-.7s.5-.9.5-1.4v-3.7c-.4-3.2-2.4-5.9-5.2-7.1 1-1.1 1.6-2.7 1.6-4.2-.1-3.4-2.7-6.2-6-6.2z"/><path d="M29.6 16.3v-.1c-.3-2.3-1.7-4.3-3.7-5.4.6-.9 1-1.9 1-3 0-2.7-2.1-4.9-4.7-4.9-1.8 0-3.4 1.1-4.2 2.7l1.2.3C19.9 4.7 21 4 22.3 4c1.9 0 3.5 1.7 3.5 3.7 0 1.3-.6 2.4-1.5 3-.2.2-.2.6.1.7 2.1.6 3.8 2.5 4 4.9v2.6c0 .3-.3.6-.6.6h-2l.6 1.2h1.4c.5 0 1-.2 1.4-.6.3-.4.5-.8.4-1.3v-2.5zM7.4 24.5H4.3c-.5 0-.8-.4-.8-.8v-3.1c.3-2.8 2.3-5 4.8-5.8.4-.1.4-.6.1-.8-1.1-.8-1.8-2.1-1.8-3.6C6.7 8 8.6 6 10.9 6c.9 0 1.8.4 2.5.9.3-.3.7-.5 1-.7-.9-.9-2.2-1.4-3.5-1.4-3 0-5.4 2.5-5.4 5.6 0 1.4.5 2.7 1.3 3.7-2.4 1.2-4.2 3.6-4.5 6.3v3.3c0 .5.1 1 .5 1.4s.9.7 1.5.7h3.1v-1.3z"/></symbol><symbol id="icon-chat" viewBox="0 0 32 32"><title>chat</title><path d="M26.706 14.558c-.193-.06-.397.045-.46.237s.046.397.238.46c2.855.91 4.13 2.266 4.13 4.4 0 1.9-1.733 3.373-2.765 4.083-.1.07-.16.18-.16.3v2.794c-.533-.2-1.463-.65-2.284-1.575-.085-.096-.216-.14-.342-.116-.208.04-.42.098-.636.156-.373.1-.757.204-1.122.204-1.876 0-3.19-.403-4.533-1.39-.164-.12-.39-.084-.51.078s-.086.39.076.51c1.48 1.09 2.92 1.533 4.965 1.533.46 0 .894-.115 1.312-.228.13-.036.26-.07.387-.1 1.366 1.44 2.91 1.77 2.977 1.783.025.005.05.007.074.007.083 0 .166-.03.23-.083.086-.07.135-.174.135-.284V24.23c1.886-1.346 2.922-2.965 2.922-4.576 0-2.47-1.474-4.09-4.638-5.098zm-1.938-.382c0-5.623-5.128-9.864-11.926-9.864C6.01 4.312.657 8.646.657 14.177c0 3.316 2.346 5.693 4.384 7.13v4.85c0 .123.064.238.168.306.06.04.13.058.2.058.05 0 .1-.01.15-.03.106-.048 2.6-1.182 4.733-3.515.925.172 1.97.337 2.92.337 6.913 0 11.56-3.672 11.56-9.137zm-11.56 8.406c-.958 0-2.046-.183-2.984-.362-.126-.023-.256.02-.342.116-1.498 1.69-3.258 2.763-4.11 3.225v-4.443c0-.12-.06-.232-.16-.3-1.927-1.327-4.225-3.554-4.225-6.64 0-5.123 5.03-9.135 11.454-9.135 6.384 0 11.197 3.927 11.197 9.133 0 5.028-4.352 8.406-10.83 8.406zm-.496-9.867c-.806 0-1.46.655-1.46 1.46s.654 1.462 1.46 1.462c.806 0 1.46-.655 1.46-1.46s-.654-1.462-1.46-1.462zm0 2.192c-.403 0-.73-.327-.73-.73s.327-.732.73-.732c.403 0 .73.327.73.73s-.327.732-.73.732zm5.115-2.192c-.806 0-1.46.655-1.46 1.46s.654 1.462 1.46 1.462c.806 0 1.46-.655 1.46-1.46s-.654-1.462-1.46-1.462zm0 2.192c-.403 0-.73-.327-.73-.73s.327-.732.73-.732c.403 0 .73.327.73.73s-.327.732-.73.732zm-10.23-2.123c-.806 0-1.46.655-1.46 1.46s.654 1.462 1.46 1.462c.806 0 1.46-.655 1.46-1.46s-.654-1.462-1.46-1.462zm0 2.192c-.403 0-.73-.327-.73-.73s.327-.732.73-.732c.403 0 .73.327.73.73s-.327.732-.73.732z"/></symbol><symbol id="icon-calendar" viewBox="0 0 32 32"><title>calendar</title><path d="M24.9 5.6v-3h-1v3h-2.3v-3h-1v3h-2.3v-3h-1v3H15v-3h-1v3h-2.3v-3h-1v3H8.1v-3h-1v3H3.8v22c0 1.4 1.1 2.5 2.5 2.5h19.5c1.4 0 2.5-1.1 2.5-2.5v-22h-3.4zM7.1 6.9v1.4h1V6.9h2.3v1.4h1V6.9h2.3v1.4h1V6.9H17v1.4h1V6.9h2.3v1.4h1V6.9h2.3v1.4h1V6.9h2.1v5.8H5.1V6.9h2zm14.1 6.6v4.4h-4.8v-4.4h4.8zm-5.6 4.3h-4.8v-4.4h4.8v4.4zm-5.6 0H5v-4.4h5v4.4zm0 .8V23H5v-4.4h5zm.8 0h4.8V23h-4.8v-4.4zm4.8 5.2v5h-4.8v-5h4.8zm.8 0h4.8v5h-4.8v-5zm0-.8v-4.4h4.8V23h-4.8zm5.6-4.4h5V23h-5v-4.4zm0-.8v-4.4h5v4.4h-5zM5.1 27.6v-3.8h5v5H6.2c-.6 0-1.1-.6-1.1-1.2zm20.7 1.2H22v-5h5v3.8c-.1.6-.6 1.2-1.2 1.2z"/></symbol><symbol id="icon-notifications" viewBox="0 0 32 32"><title>notifications</title><path d="M14.4 9.89l.387-.04c.09.002.63-.053 1.212-.144.927-.145 1.953-.368 3.045-.684 3.102-.896 6.14-2.353 8.887-4.498.6-.466 1.316-.536 1.99-.2.61.34.983.946.983 1.654V24.84c0 .638-.38 1.29-.95 1.633-.42.103-.62.136-.903.136-.402 0-.793-.137-1.116-.396-2.608-1.966-5.624-3.396-8.797-4.383-1.944-.603-4.06-1.032-4.488-1.032l-.253-.03V9.89zm14.653 17.73c.404 0 .674-.047 1.217-.182l.123-.05c.917-.508 1.523-1.52 1.523-2.546V5.98c0-1.085-.58-2.024-1.523-2.548-1.04-.52-2.175-.41-3.082.295-2.637 2.06-5.56 3.462-8.545 4.324-1.8.52-3.53.792-4.028.792l-1.347.132v12.7l1.207.133c.36.003 2.388.414 4.243.99 3.07.955 5.984 2.337 8.477 4.217.49.393 1.106.607 1.736.607zM11.284 8.842H6.568c-3.563 0-6.484 2.92-6.484 6.484s2.92 6.484 6.484 6.484h4.716V20.8H6.568c-3.005 0-5.474-2.47-5.474-5.475S3.564 9.85 6.568 9.85h4.716V8.84z"/><path d="M6.4 21.305v4.716c0 1.57 1.263 2.864 2.863 2.864h4.126c1.568 0 2.862-1.263 2.862-2.863v-2.778h-1.01v2.78c0 1.036-.837 1.852-1.854 1.852H9.262c-1.037 0-1.853-.836-1.853-1.853v-4.715H6.397z"/></symbol><symbol id="icon-refresh" viewBox="0 0 32 32"><title>refresh</title><path d="M26.63 4h4.87c.276 0 .5-.224.5-.5s-.224-.5-.5-.5h-6c-.276 0-.5.224-.5.5v6c0 .276.224.5.5.5s.5-.224.5-.5V4.783l.61.61c2.834 2.834 4.395 6.6 4.395 10.607s-1.56 7.773-4.394 10.606c-4.204 4.206-10.503 5.532-16.05 3.375-.257-.1-.547.028-.647.285-.1.258.027.548.285.647 1.884.732 3.848 1.088 5.797 1.088 4.17 0 8.266-1.63 11.323-4.688 3.022-3.02 4.687-7.04 4.687-11.313S30.34 7.707 27.318 4.686L26.63 4zM6.5 22c-.276 0-.5.224-.5.5v4.84l-.713-.713C2.454 23.794.893 20.027.893 16.02s1.56-7.773 4.394-10.606C9.422 1.278 15.637-.08 21.123 1.958c.256.096.546-.035.643-.295.096-.26-.036-.547-.295-.643C15.623-1.152 8.99.295 4.58 4.707 1.558 7.727-.107 11.747-.107 16.02s1.665 8.292 4.687 11.313l.666.667H.5c-.276 0-.5.224-.5.5s.224.5.5.5h5.856c.04.01.376-.025.474-.123.004-.004.005-.01.01-.013.097-.092.16-.22.16-.364v-6c0-.276-.224-.5-.5-.5z"/></symbol><symbol id="icon-mail" viewBox="0 0 32 32"><title>mail</title><path d="M5.315 9.274L16.5 19l11.187-9.728c.194.184.313.445.313.735v11.986C28 22.55 27.55 23 26.997 23H6.003C5.44 23 5 22.55 5 21.993V10.007c0-.29.12-.55.315-.733zM6.005 8C4.896 8 4 8.895 4 9.994v12.012C4 23.106 4.89 24 6.004 24h20.993C28.104 24 29 23.105 29 22.006V9.994C29 8.894 28.11 8 26.998 8H6.004zM16.5 17.7L6.5 9h20l-10 8.7z"/></symbol><symbol id="icon-eye-hidden" viewBox="0 0 32 32"><title>eye-hidden</title><path d="M8.11 20.89C4.616 18.83 3 16 3 16s4-7 13-7c1.305 0 2.504.147 3.6.4l-.85.85c-.854-.16-1.77-.25-2.75-.25-8 0-11.8 6-11.8 6s1.514 2.393 4.644 4.156l-.736.736zm4.29 1.71c1.096.253 2.296.4 3.6.4 9 0 13-7 13-7s-1.617-2.83-5.11-4.89l-.735.735C26.285 13.608 27.8 16 27.8 16S24 22 16 22c-.98 0-1.897-.09-2.752-.248l-.85.85zm7.5-7.5c.065.29.1.59.1.9 0 2.21-1.79 4-4 4-.31 0-.61-.035-.9-.1l.9-.9c.768 0 1.536-.293 2.12-.88S19 16.768 19 16l.9-.9zm-3-3c-.29-.065-.59-.1-.9-.1-2.21 0-4 1.79-4 4 0 .31.035.61.1.9l.9-.9c0-.768.293-1.536.88-2.12S15.232 13 16 13l.9-.9zM24 7L7 24l1 1L25 8l-1-1z"/></symbol></defs></svg>
