<svg style="position:absolute;width:0;height:0" xmlns="http://www.w3.org/2000/svg" overflow="hidden"><defs><symbol id="icon-edit-calendar" viewBox="0 0 32 32"><title>edit-calendar</title><path d="M14.5 23.9v-3.5H18l1-1v-3.1h3.1l.6-.6H19v-3.5h4v3.3l1-1V6h-2.7V3.6h-.8V6h-1.8V3.6h-.8V6H16V3.6h-.8V6h-1.8V3.6h-.8V6h-1.8V3.6H10V6H7.9V3.6h-.8V6H4.5v17.5c0 1.1.9 2 2 2H13l1.5-1.6zm-.6.5h-3.8v-4h3.8v4zm0-4.6h-3.8v-3.5h3.8v3.5zm0-4.1h-3.8v-3.5h3.8v3.5zm4.4 4.1h-3.8v-3.5h3.8v3.5zm0-4h-3.8v-3.5h3.8v3.5zM5.5 7h1.6v1.1h.8V7h1.8v1.1h.8V7h1.8v1.1h.8V7H15v1.1h.8V7h1.8v1.1h.8V7h1.8v1.1h.8V7h1.7v4.6H5.5V7zm0 5.2h4v3.5h-4v-3.5zm0 4.1h4v3.5h-4v-3.5zm4 8.1H6.4c-.5 0-.9-.5-.9-1v-3h4v4zm17.2-5.2l-9 9-2.1-2.1 9-9c0 .1 2.1 2.1 2.1 2.1zm.6-.5l-2.1-2.1 1.4-1.4c.3-.3.8-.3 1.1 0l.9.9c.3.3.3.8 0 1.1l-1.3 1.5zm-12.2 8l2 2-2.5.5.5-2.5zm-.7-.4l-.8 4 4-.8 11.6-11.6c.6-.6.6-1.6 0-2.3l-.9-.9c-.6-.6-1.6-.6-2.3 0L14.4 26.3z"/></symbol><symbol id="icon-twitter" viewBox="0 0 32 32"><title>twitter</title><path d="M26.313 8.679c.146-.27.267-.554.361-.851a.708.708 0 0 0-1.034-.825 7.995 7.995 0 0 1-2.178.891 5.07 5.07 0 0 0-3.39-1.306 5.056 5.056 0 0 0-5.047 5.257A11.673 11.673 0 0 1 7.436 7.64a.705.705 0 0 0-1.159.093 5.05 5.05 0 0 0-.087 4.924.84.84 0 0 0-.283.103.754.754 0 0 0-.349.637c0 1.502.668 2.881 1.745 3.818l-.046.046a.707.707 0 0 0-.143.685 5.052 5.052 0 0 0 2.89 3.13 8.115 8.115 0 0 1-4.507.766.722.722 0 0 0-.749.466.71.71 0 0 0 .285.834 13.021 13.021 0 0 0 7.039 2.063c8.178 0 13.066-6.643 13.066-13.065l-.001-.217a9.415 9.415 0 0 0 2.039-2.197.708.708 0 0 0-.861-1.046zm-2.309 2.323a.707.707 0 0 0-.294.61c.008.175.012.352.012.527 0 5.727-4.358 11.652-11.65 11.652a11.59 11.59 0 0 1-3.82-.646 9.363 9.363 0 0 0 4.03-1.839.708.708 0 0 0-.424-1.264 3.641 3.641 0 0 1-2.903-1.538c.335-.023.663-.078.982-.164a.707.707 0 0 0-.048-1.377 3.628 3.628 0 0 1-2.754-2.521c.352.089.713.14 1.075.152.311-.001.599-.192.696-.491s-.017-.629-.281-.803a3.636 3.636 0 0 1-1.512-3.897 13.077 13.077 0 0 0 8.692 3.933c.233.001.437-.082.578-.253s.196-.397.146-.614a3.64 3.64 0 0 1 3.543-4.465c1.002 0 1.969.418 2.653 1.149a.706.706 0 0 0 .654.21 9.97 9.97 0 0 0 .647-.152 3.457 3.457 0 0 1-.299.2c-.286.171-.413.52-.306.835s.429.521.753.472c.081-.009.16-.02.241-.03a8.035 8.035 0 0 1-.409.314z"/></symbol><symbol id="icon-direction-up" viewBox="0 0 32 32"><title>direction-up</title><path d="M4.653 11.253c0-.2.1-.3.2-.4l9.8-9.8c.7-.7 2-.7 2.7 0l9.8 9.8c.2.2.2.6 0 .8s-.6.2-.8 0l-9.8-9.8c-.2-.2-.8-.2-1 0l-9.8 9.8c-.2.2-.6.2-.8 0-.3-.1-.3-.3-.3-.4z"/><path d="M15.353 30.953v-29.8c0-.3.3-.6.6-.6s.6.3.6.6v29.8c0 .3-.3.6-.6.6s-.6-.3-.6-.6z"/></symbol><symbol id="icon-cloud-upload" viewBox="0 0 32 32"><title>cloud-upload</title><path d="M15 16l-3.25 3.25-.75-.75 4.5-4.5 4.5 4.5-.75.75L16 16v11h-1V16zm-1 5H7.003A4.005 4.005 0 0 1 3 17a4.007 4.007 0 0 1 3.101-3.898 6 6 0 0 1 11.56-3.094 4.5 4.5 0 0 1 7.323 3.115A4.007 4.007 0 0 1 28 17c0 2.205-1.792 4-4.003 4H17v1h7.001A5.003 5.003 0 0 0 29 17a4.997 4.997 0 0 0-3.117-4.634 5.503 5.503 0 0 0-7.789-3.813 7 7 0 0 0-13.082 3.859A5.007 5.007 0 0 0 2 17c0 2.761 2.232 5 4.999 5H14v-1z"/></symbol><symbol id="icon-lock" viewBox="0 0 32 32"><title>lock</title><path d="M15 21.915a1.5 1.5 0 1 1 1 0v2.594a.501.501 0 0 1-1 0v-2.594zm-1 .585v1.998a1.5 1.5 0 0 0 3 0V22.5a2.5 2.5 0 1 0-3 0zM8 14v-3.501A7.499 7.499 0 0 1 15.5 3c4.134 0 7.5 3.358 7.5 7.499V14c1.659.005 3 1.35 3 3.009v9.981a3.002 3.002 0 0 1-3.009 3.009H8.009A3.008 3.008 0 0 1 5 26.99v-9.981A3.001 3.001 0 0 1 8 14zm1 0h1v-3.491A5.5 5.5 0 0 1 15.5 5c3.031 0 5.5 2.466 5.5 5.509V14h1v-3.507C22 6.907 19.083 4 15.5 4 11.91 4 9 6.908 9 10.493V14zm2 0h9v-3.499A4.504 4.504 0 0 0 15.5 6a4.497 4.497 0 0 0-4.5 4.501V14zm-3.003 1A2 2 0 0 0 6 17.006v9.988A2 2 0 0 0 7.997 29h15.005a2 2 0 0 0 1.997-2.006v-9.988A2 2 0 0 0 23.002 15H7.997z"/></symbol><symbol id="icon-check-circle" viewBox="0 0 32 32"><title>check-circle</title><path d="M12.6 22.1c-.5 0-1-.2-1.3-.5l-4-4c-.2-.2-.2-.6 0-.8s.6-.2.8 0l4 4c.2.2.7.2.9 0L23.7 10c.2-.2.6-.2.8 0s.2.6 0 .8L13.9 21.6c-.4.3-.8.5-1.3.5z"/><path d="M16 31.4C7.5 31.4.5 24.5.5 16S7.5.6 16 .6 31.4 7.5 31.4 16c-.1 8.5-7 15.4-15.4 15.4zm0-29.6C8.1 1.8 1.8 8.2 1.8 16S8.1 30.2 16 30.2 30.2 23.8 30.2 16 23.8 1.8 16 1.8z"/></symbol><symbol id="icon-check" viewBox="0 0 32 32"><title>check</title><path d="M12.2 24.1c-.6 0-1.2-.2-1.6-.7L5.1 18c-.2-.2-.2-.6 0-.8s.6-.2.8 0l5.5 5.5c.4.4 1.1.4 1.6 0L27.8 7.8c.2-.2.6-.2.8 0s.2.6 0 .8L13.8 23.4c-.4.5-1 .7-1.6.7z"/></symbol><symbol id="icon-wheel" viewBox="0 0 32 32"><title>wheel</title><path d="M15.3 31.6v-.5c0-1.6-1.1-3.1-2.8-3.6-.8-.2-1.6-.6-2.4-1-.6-.3-1.2-.5-1.9-.5-.9 0-1.8.4-2.4 1l-.4.4-1-1 .4-.4c1.2-1 1.4-2.7.5-4.2-.4-.7-.7-1.5-1-2.4-.5-1.7-1.9-2.8-3.6-2.8H.3v-1.3h.5c1.6 0 3.1-1.1 3.6-2.8.2-.8.6-1.6 1-2.4.8-1.4.6-3.1-.6-4.3l-.4-.4 1-1 .4.4c.6.6 1.5 1 2.4 1 .6 0 1.3-.2 1.9-.5.7-.4 1.5-.7 2.4-1 1.7-.5 2.8-1.9 2.8-3.6V.4h1.3v.5c0 1.6 1.1 3.1 2.8 3.6.8.2 1.6.6 2.4 1 .6.3 1.2.5 1.9.5.9 0 1.8-.4 2.4-1l.4-.4 1 1-.4.4c-1.1 1.1-1.3 2.9-.5 4.3.4.7.7 1.5 1 2.4.5 1.7 1.9 2.8 3.6 2.8h.5v1.3h-.5c-1.6 0-3.1 1.1-3.6 2.8-.2.8-.6 1.6-1 2.4-.8 1.5-.6 3.2.5 4.3l.4.4-1 1-.4-.4c-.6-.6-1.5-1-2.4-1-.6 0-1.3.2-1.9.5-.7.4-1.5.7-2.4 1-1.7.5-2.8 1.9-2.8 3.6v.5h-1.3zm.6-26.4C10 5.2 5.1 10 5.1 16s4.8 10.8 10.8 10.8c6 0 10.8-4.8 10.8-10.8.1-6-4.8-10.8-10.8-10.8z"/></symbol><symbol id="icon-arrow-down" viewBox="0 0 32 32"><title>arrow-down</title><path d="M25.753 11.653c0 .2-.1.3-.2.4l-8.4 8.4c-.3.3-.7.5-1.2.5s-.9-.2-1.2-.5l-8.4-8.4c-.2-.2-.2-.6 0-.8s.6-.2.8 0l8.4 8.4c.1.1.2.1.4.1s.3 0 .4-.1l8.4-8.4c.2-.2.6-.2.8 0 .1.1.2.2.2.4z"/></symbol><symbol id="icon-arrow-up" viewBox="0 0 32 32"><title>arrow-up</title><path d="M6.153 20.347c0-.2.1-.3.2-.4l8.4-8.4c.3-.3.7-.5 1.2-.5s.9.2 1.2.5l8.4 8.4c.2.2.2.6 0 .8s-.6.2-.8 0l-8.4-8.4c-.1-.1-.2-.1-.4-.1s-.3 0-.4.1l-8.4 8.4c-.2.2-.6.2-.8 0-.1-.1-.2-.2-.2-.4z"/></symbol><symbol id="icon-arrow-left" viewBox="0 0 32 32"><title>arrow-left</title><path d="M20.3 25.8c-.2 0-.3-.1-.4-.2l-8.4-8.4c-.3-.3-.5-.7-.5-1.2s.2-.9.5-1.2l8.4-8.4c.2-.2.6-.2.8 0s.2.6 0 .8l-8.4 8.4c-.1.1-.1.2-.1.4s0 .3.1.4l8.4 8.4c.2.2.2.6 0 .8-.1.1-.2.2-.4.2z"/></symbol><symbol id="icon-arrow-right" viewBox="0 0 32 32"><title>arrow-right</title><path d="M11.6 6.2c.2 0 .3.1.4.2l8.4 8.4c.3.3.5.7.5 1.2s-.2.9-.5 1.2L12 25.6c-.2.2-.6.2-.8 0s-.2-.6 0-.8l8.4-8.4c.1-.1.1-.2.1-.4s0-.3-.1-.4l-8.4-8.4c-.2-.2-.2-.6 0-.8.1-.1.2-.2.4-.2z"/></symbol><symbol id="icon-cancel" viewBox="0 0 32 32"><title>cancel</title><path d="M16.8 16l7.6-7.7c.2-.2.2-.6 0-.8s-.6-.2-.8 0L16 15.1 8.3 7.5c-.2-.2-.6-.2-.8 0s-.2.6 0 .8l7.6 7.7-7.6 7.7c-.2.2-.2.6 0 .8.1.1.3.2.4.2.2 0 .3-.1.4-.2l7.6-7.7 7.6 7.7c.1.1.3.2.4.2.2 0 .3-.1.4-.2.2-.2.2-.6 0-.8L16.8 16z"/></symbol><symbol id="icon-map-pin" viewBox="0 0 24 32"><title>map-pin</title><path d="M12 0C5.383 0 0 5.394 0 12.022c0 9.927 11.201 19.459 11.678 19.86a.497.497 0 0 0 .64.004C12.795 31.492 24 22.124 24 12.022 24 5.394 18.617 0 12 0zm.002 30.838C10.161 29.193 1 20.579 1 12.022 1 5.944 5.935 1 12 1s11 4.944 11 11.022c0 8.702-9.152 17.193-10.998 18.816zM12 6c-3.309 0-6 2.691-6 6s2.691 6 6 6 6-2.691 6-6-2.691-6-6-6zm0 11c-2.757 0-5-2.243-5-5s2.243-5 5-5 5 2.243 5 5-2.243 5-5 5z"/></symbol><symbol id="icon-clock" viewBox="0 0 32 32"><title>clock</title><path d="M16 32c8.822 0 16-7.178 16-16S24.822 0 16 0 0 7.178 0 16s7.178 16 16 16zm0-31c8.271 0 15 6.729 15 15s-6.729 15-15 15S1 24.271 1 16 7.729 1 16 1zm4.061 20.768a.498.498 0 0 0 .708 0 .5.5 0 0 0 0-.707L16 16.293V9.319a.5.5 0 0 0-1 0V16.5c0 .133.053.26.146.354l4.915 4.914zM3 16a1 1 0 1 0 2 0 1 1 0 0 0-2 0zm24 0a1 1 0 1 0 2 0 1 1 0 0 0-2 0zM15 4a1 1 0 1 0 2 0 1 1 0 0 0-2 0zm0 24a1 1 0 1 0 2 0 1 1 0 0 0-2 0zM7 8a1 1 0 1 0 2 0 1 1 0 0 0-2 0zm16 16a1 1 0 1 0 2 0 1 1 0 0 0-2 0zm1-16a1 1 0 1 0 2 0 1 1 0 0 0-2 0zM7 24a1 1 0 1 0 2 0 1 1 0 0 0-2 0z"/></symbol><symbol id="icon-flag" viewBox="0 0 32 32"><title>flag</title><path d="M8 8.5V3h16l-5.5 5.5L24 14H9v15H8V8.5zM9 4v9h12.5L17 8.5 21.5 4H9z"/></symbol><symbol id="icon-star" viewBox="0 0 32 32"><title>star</title><path d="M16 23l9 6-4-10 9-6H20L16 3l-4 10H2l9 6-4 10 9-6zm0-1.247L9.2 26.3l3.2-7.7L5.2 14h7.5L16 5.5l3.3 8.5h7.5l-7.2 4.6 3.2 7.7-6.8-4.547z"/></symbol><symbol id="icon-trash" viewBox="0 0 32 32"><title>trash</title><path d="M23 7h4v1h-2v18.993A2.997 2.997 0 0 1 22 30H11c-1.666 0-3-1.346-3-3.007V8H6V7h6V5.005C12 3.894 12.894 3 13.997 3h5.005c1.102 0 1.997.898 1.997 2.005V7h2zM9 8v19.005C9 28.107 9.893 29 10.992 29h11.016A2 2 0 0 0 24 27.005V8H9zm3 2v17h1V10h-1zm4 0v17h1V10h-1zm4 0v17h1V10h-1zm-5.997-6A.998.998 0 0 0 13 4.999V7h7V4.999A.994.994 0 0 0 18.997 4h-4.994z"/></symbol><symbol id="icon-copy" viewBox="0 0 32 32"><title>copy</title><path d="M23 12.5V26h4c.552 0 1-.445 1-.993V8h-4.002A1.995 1.995 0 0 1 22 5.994V1H11.996c-.55 0-.996.455-.996.995V5h6l6 7v.5zM10 5V2.007C10 .898 10.897 0 12.003 0H23l6 7v18.009A1.998 1.998 0 0 1 27.003 27H23v3.009A1.998 1.998 0 0 1 21.003 32H5.998a2 2 0 0 1-1.997-2.007V7.008c0-1.109.897-2.007 2.003-2.007h3.997zm13-3.5v4.491c0 .557.451 1.009.997 1.009H27.7L23 1.5zM16 6H5.996C5.446 6 5 6.455 5 6.995v23.009c0 .55.455.995 1 .995h15c.552 0 1-.445 1-.993V12.999h-4.002A1.995 1.995 0 0 1 16 10.993V5.999zm1 .5v4.491c0 .557.451 1.009.997 1.009H21.7L17 6.5z"/></symbol><symbol id="icon-inbox-download" viewBox="0 0 32 32"><title>inbox-download</title><path d="M15 16l-3.25-3.25-.75.75 4.5 4.5 4.5-4.5-.75-.75L16 16V5h-1v11zm2-5h5.4l4.375 7H20v2.002A2 2 0 0 1 18.003 22h-5.005a1.998 1.998 0 0 1-1.997-1.998V18H4.226l4.375-7h5.4v-1h-6l-5 8v9h25v-9l-5-8h-6v1zm4 8h6v7H4v-7h6v1.5c0 1.381 1.115 2.5 2.496 2.5h6.008A2.492 2.492 0 0 0 21 20.5V19z"/></symbol><symbol id="icon-search" viewBox="0 0 32 32"><title>search</title><path d="M19.427 20.427a8.5 8.5 0 1 1 1.083-.917l5.997 5.997a.699.699 0 0 1-.008.992.7.7 0 0 1-.992.008l-6.081-6.081zM14.5 21a7.5 7.5 0 1 0 0-15 7.5 7.5 0 0 0 0 15z"/></symbol><symbol id="icon-edit" viewBox="0 0 32 32"><title>edit</title><path d="M22.443 12.15l-11.286 11.3-2.606-2.606L19.843 9.55l2.6 2.6zm.707-.707l-2.599-2.599 1.727-1.728a1.003 1.003 0 0 1 1.417.003l1.18 1.177c.392.391.395 1.025.005 1.416l-1.729 1.731zM7.904 21.611l2.495 2.495-3.135.617.64-3.113zM7 21l-1 5 5-1 14.58-14.58a2.004 2.004 0 0 0 .01-2.83l-1.18-1.179a1.993 1.993 0 0 0-2.83.01L7 21.001z"/></symbol><symbol id="icon-document-file-pdf" viewBox="0 0 32 32"><title>document-file-pdf</title><path d="M21 13v-3l-6-7H4.003A2.005 2.005 0 0 0 2 5.007v22.985a2 2 0 0 0 1.997 2.007h15.005a1.998 1.998 0 0 0 1.997-1.991v-2.009h7.993A3.002 3.002 0 0 0 31.999 23v-7.002a2.997 2.997 0 0 0-3.007-2.999h-7.993zm-1 13v2.007A.997.997 0 0 1 19 29H4c-.545 0-1-.446-1-.995V4.996c0-.54.446-.995.996-.995H14v4.994c0 1.119.895 2.006 1.998 2.006H20v2h-7.993A3.002 3.002 0 0 0 9 16v7.002a2.997 2.997 0 0 0 3.007 2.999H20zM15 4.5l4.7 5.5h-3.703C15.451 10 15 9.548 15 8.991V4.5zM11.995 14h17.011a2 2 0 0 1 1.995 1.992v7.016A1.999 1.999 0 0 1 29.006 25H11.995A2 2 0 0 1 10 23.008v-7.016C10 14.9 10.893 14 11.995 14zM25 19v-2h4v-1h-5v7h1v-3h3v-1h-3zm-13-1v-2h2.995a2 2 0 1 1 0 4H13v3h-1v-5zm1-1v2h2.001A.997.997 0 0 0 16 18c0-.552-.443-1-.999-1H13zm5-1h2.995c1.111 0 2.005.898 2.005 2.006v2.988A1.999 1.999 0 0 1 20.995 23H18v-7zm1 1v5h2.001A.997.997 0 0 0 22 21v-3c0-.552-.443-1-.999-1H19z"/></symbol><symbol id="icon-caution" viewBox="0 0 35 32"><title>caution</title><path d="M21.799 2.954C20.694 1.05 19.19 0 17.564 0s-3.131 1.05-4.236 2.954L1.059 24.087c-1.12 1.947-1.24 3.969-.33 5.546.866 1.5 2.565 2.363 4.664 2.367h24.342c2.102-.004 3.804-.864 4.667-2.361.905-1.567.783-3.581-.335-5.525L21.799 2.954zm11.738 26.185c-.681 1.18-2.067 1.858-3.804 1.861H5.394c-1.731-.003-3.115-.684-3.799-1.867-.727-1.26-.606-2.917.33-4.546L14.193 3.456C15.112 1.872 16.309 1 17.564 1s2.452.872 3.37 2.456l12.268 21.157c.935 1.626 1.057 3.276.335 4.526zM17.564 20a.5.5 0 0 0 .5-.5v-10a.5.5 0 0 0-1 0v10a.5.5 0 0 0 .5.5zm-.064 2.5c-1.103 0-2 .897-2 2s.897 2 2 2 2-.897 2-2-.897-2-2-2zm0 3a1.001 1.001 0 0 1 0-2 1.001 1.001 0 0 1 0 2z"/></symbol><symbol id="icon-menu" viewBox="0 0 32 32"><title>menu</title><path d="M3.8 7.8h24.5v1.4H3.8V7.8zm0 7.5h24.5v1.4H3.8v-1.4zm0 7.5h24.5v1.4H3.8v-1.4z"/></symbol><symbol id="icon-dots" viewBox="0 0 32 32"><title>dots</title><path d="M17.6 16a1.6 1.6 0 1 1-3.2 0 1.6 1.6 0 0 1 3.2 0zm0 7.2a1.6 1.6 0 1 1-3.2 0 1.6 1.6 0 0 1 3.2 0zm0-14.4a1.6 1.6 0 1 1-3.2 0 1.6 1.6 0 0 1 3.2 0z"/></symbol><symbol id="icon-filter" viewBox="0 0 32 32"><title>filter</title><path d="M27.7 6c-.4-.9-1.3-1.4-2.3-1.4H6.6c-1 0-2 .6-2.3 1.4-.3.7-.2 1.5.4 2.1l10.4 11.1v8.2h1.8v-8.2L27.3 8.1c.6-.6.7-1.4.4-2.1zm-1.4 1.2L16 18.2 5.7 7.2c-.2-.2-.3-.4-.2-.7.1-.2.5-.5 1.1-.5h18.8c.6 0 1 .3 1.1.6.1.2 0 .4-.2.6z"/></symbol><symbol id="icon-home" viewBox="0 0 32 32"><title>home</title><path d="M16 4.8l9.2 9.3v13.7h-6v-7.2h-6.4v7.2h-6V14L16 4.8zM16 3L5.5 13.5V29H14v-7.2h4V29h8.5V13.5L16 3z"/></symbol><symbol id="icon-plus" viewBox="0 0 32 32"><title>plus</title><path d="M27.7 15.4H16.6V4.3c0-.4-.3-.6-.6-.6s-.7.3-.7.6v11.1h-11c-.4 0-.6.3-.6.6s.3.6.6.6h11.1v11.1c0 .4.3.7.6.7s.6-.3.6-.7v-11h11.1c.4 0 .7-.3.7-.6s-.4-.7-.7-.7z"/></symbol><symbol id="icon-user" viewBox="0 0 32 32"><title>user</title><path d="M16 4.5c2.9 0 5.2 2.5 5.2 5.5 0 1.9-.9 3.5-2.2 4.5-.4.3-.3.9.1 1 3.1.9 5.6 3.7 6 7.2v3.9c.1.5-.4 1-.9 1H7.8c-.6 0-1-.4-.9-1v-3.9c.4-3.5 2.8-6.2 6-7.2.4-.1.5-.7.1-1-1.3-1-2.2-2.6-2.2-4.5 0-3 2.3-5.5 5.2-5.5zm0-1.2c-3.5 0-6.4 3-6.4 6.7 0 1.8.7 3.5 1.8 4.7-3.1 1.4-5.3 4.3-5.8 7.8v4c0 .5.1 1.1.5 1.5.4.5 1 .7 1.6.7h16.4c.6 0 1.2-.3 1.6-.7s.5-1 .5-1.5v-4c-.4-3.5-2.6-6.5-5.8-7.8 1.2-1.2 1.8-2.9 1.8-4.7.2-3.7-2.7-6.7-6.2-6.7z"/></symbol><symbol id="icon-users" viewBox="0 0 32 32"><title>users</title><path d="M17.3 7.1c2.6 0 4.7 2.2 4.7 5 0 1.7-.8 3.2-2 4.1-.3.3-.3.8.1.9 2.9.9 5 3.4 5.4 6.5v3.5c.1.5-.3.9-.9.9H9.9c-.5 0-.9-.4-.9-.9v-3.5c.4-3.2 2.6-5.7 5.4-6.5.4-.1.5-.6.1-.9-1.2-.9-2-2.4-2-4.1.1-2.8 2.2-5 4.8-5zm0-1.2c-3.3 0-5.9 2.8-5.9 6.2 0 1.6.6 3.1 1.6 4.2-2.8 1.3-4.8 4-5.2 7.1v3.7c0 .5.1 1 .5 1.4s1 .7 1.6.7h14.9c.6 0 1.2-.3 1.6-.7s.5-.9.5-1.4v-3.7c-.4-3.2-2.4-5.9-5.2-7.1 1-1.1 1.6-2.7 1.6-4.2-.1-3.4-2.7-6.2-6-6.2z"/><path d="M29.6 16.3v-.1c-.3-2.3-1.7-4.3-3.7-5.4.6-.9 1-1.9 1-3 0-2.7-2.1-4.9-4.7-4.9-1.8 0-3.4 1.1-4.2 2.7l1.2.3C19.9 4.7 21 4 22.3 4c1.9 0 3.5 1.7 3.5 3.7 0 1.3-.6 2.4-1.5 3-.2.2-.2.6.1.7 2.1.6 3.8 2.5 4 4.9v2.6c0 .3-.3.6-.6.6h-2l.6 1.2h1.4c.5 0 1-.2 1.4-.6.3-.4.5-.8.4-1.3v-2.5zM7.4 24.5H4.3c-.5 0-.8-.4-.8-.8v-3.1c.3-2.8 2.3-5 4.8-5.8.4-.1.4-.6.1-.8-1.1-.8-1.8-2.1-1.8-3.6C6.7 8 8.6 6 10.9 6c.9 0 1.8.4 2.5.9.3-.3.7-.5 1-.7-.9-.9-2.2-1.4-3.5-1.4-3 0-5.4 2.5-5.4 5.6 0 1.4.5 2.7 1.3 3.7-2.4 1.2-4.2 3.6-4.5 6.3v3.3c0 .5.1 1 .5 1.4s.9.7 1.5.7h3.1v-1.3z"/></symbol><symbol id="icon-chat" viewBox="0 0 32 32"><title>chat</title><path d="M26.706 14.558a.365.365 0 1 0-.222.696c2.855.91 4.129 2.267 4.129 4.401 0 1.899-1.732 3.373-2.764 4.083a.366.366 0 0 0-.159.301v2.793a5.814 5.814 0 0 1-2.284-1.575.367.367 0 0 0-.342-.116c-.208.04-.421.097-.636.155-.373.1-.757.204-1.122.204-1.876 0-3.19-.403-4.533-1.39a.366.366 0 0 0-.434.589c1.481 1.089 2.92 1.532 4.966 1.532.461 0 .894-.116 1.312-.229.13-.036.259-.071.387-.101 1.366 1.442 2.91 1.77 2.977 1.784a.364.364 0 0 0 .438-.359v-3.097c1.887-1.345 2.923-2.964 2.923-4.575 0-2.47-1.474-4.09-4.638-5.098zm-1.938-.382c0-5.623-5.128-9.864-11.926-9.864C6.009 4.312.657 8.646.657 14.177c0 3.316 2.346 5.693 4.384 7.13v4.849a.367.367 0 0 0 .516.333c.107-.047 2.6-1.181 4.734-3.514.924.172 1.97.337 2.918.337 6.914 0 11.56-3.672 11.56-9.137zm-11.561 8.406c-.957 0-2.045-.183-2.983-.362a.37.37 0 0 0-.342.116c-1.498 1.689-3.258 2.763-4.111 3.225v-4.444a.364.364 0 0 0-.159-.301c-1.927-1.326-4.225-3.553-4.225-6.639 0-5.123 5.031-9.135 11.454-9.135 6.383 0 11.196 3.927 11.196 9.133 0 5.028-4.352 8.406-10.831 8.406zm-.495-9.867a1.462 1.462 0 0 0 0 2.922 1.462 1.462 0 0 0 0-2.922zm0 2.192a.731.731 0 1 1 0-1.463.731.731 0 0 1 0 1.463zm5.115-2.192a1.462 1.462 0 0 0 0 2.922 1.462 1.462 0 0 0 0-2.922zm0 2.192a.731.731 0 1 1 0-1.463.731.731 0 0 1 0 1.463zm-10.23-2.123a1.462 1.462 0 0 0 0 2.922 1.462 1.462 0 0 0 0-2.922zm0 2.192a.731.731 0 1 1 0-1.463.731.731 0 0 1 0 1.463z"/></symbol><symbol id="icon-calendar" viewBox="0 0 32 32"><title>calendar</title><path d="M24.9 5.6v-3h-1v3h-2.3v-3h-1v3h-2.3v-3h-1v3H15v-3h-1v3h-2.3v-3h-1v3H8.1v-3h-1v3H3.8v22c0 1.4 1.1 2.5 2.5 2.5h19.5c1.4 0 2.5-1.1 2.5-2.5v-22h-3.4zM7.1 6.9v1.4h1V6.9h2.3v1.4h1V6.9h2.3v1.4h1V6.9H17v1.4h1V6.9h2.3v1.4h1V6.9h2.3v1.4h1V6.9h2.1v5.8H5.1V6.9h2zm14.1 6.6v4.4h-4.8v-4.4h4.8zm-5.6 4.3h-4.8v-4.4h4.8v4.4zm-5.6 0H5v-4.4h5v4.4zm0 .8V23H5v-4.4h5zm.8 0h4.8V23h-4.8v-4.4zm4.8 5.2v5h-4.8v-5h4.8zm.8 0h4.8v5h-4.8v-5zm0-.8v-4.4h4.8V23h-4.8zm5.6-4.4h5V23h-5v-4.4zm0-.8v-4.4h5v4.4h-5zM5.1 27.6v-3.8h5v5H6.2c-.6 0-1.1-.6-1.1-1.2zm20.7 1.2H22v-5h5v3.8c-.1.6-.6 1.2-1.2 1.2z"/></symbol><symbol id="icon-notifications" viewBox="0 0 32 32"><title>notifications</title><path d="M14.4 9.889l.387-.039c.091.002.629-.053 1.212-.144a24.784 24.784 0 0 0 3.046-.684c3.102-.896 6.14-2.353 8.887-4.498.599-.466 1.316-.536 1.989-.199.61.339.984.945.984 1.653v18.863c0 .637-.38 1.29-.949 1.632-.42.103-.621.136-.904.136-.402 0-.793-.136-1.116-.395-2.608-1.966-5.624-3.396-8.797-4.383-1.943-.604-4.06-1.033-4.487-1.033l-.253-.029V9.887zm14.653 17.732c.404 0 .674-.048 1.217-.183l.123-.049c.917-.509 1.523-1.52 1.523-2.547V5.979c0-1.084-.58-2.023-1.523-2.547-1.04-.521-2.175-.41-3.082.295-2.638 2.06-5.56 3.462-8.546 4.324-1.801.52-3.531.791-4.028.791l-1.347.132v12.699l1.207.134c.36.003 2.388.414 4.243.991 3.07.954 5.984 2.336 8.477 4.216a2.783 2.783 0 0 0 1.736.607zM11.284 8.842H6.568c-3.563 0-6.484 2.921-6.484 6.484s2.921 6.484 6.484 6.484h4.716v-1.011H6.568c-3.005 0-5.474-2.469-5.474-5.474s2.469-5.474 5.474-5.474h4.716V8.84z"/><path d="M6.4 21.305v4.716a2.859 2.859 0 0 0 2.863 2.863h4.126a2.859 2.859 0 0 0 2.863-2.863v-2.779h-1.011v2.779a1.848 1.848 0 0 1-1.853 1.853H9.262a1.848 1.848 0 0 1-1.853-1.853v-4.716H6.398z"/></symbol><symbol id="icon-refresh" viewBox="0 0 32 32"><title>refresh</title><path d="M26.631 4H31.5a.5.5 0 0 0 0-1h-6a.5.5 0 0 0-.5.5v6a.5.5 0 0 0 1 0V4.783l.611.611c2.833 2.833 4.394 6.6 4.394 10.606s-1.561 7.773-4.394 10.606a15.01 15.01 0 0 1-16.051 3.375.499.499 0 1 0-.362.931 16.007 16.007 0 0 0 17.12-3.6c3.022-3.021 4.687-7.04 4.687-11.313S30.34 7.708 27.318 4.687L26.631 4zM6.5 22a.5.5 0 0 0-.5.5v4.84l-.713-.713C2.454 23.794.893 20.027.893 16.021S2.454 8.247 5.287 5.414a15.04 15.04 0 0 1 15.836-3.456.501.501 0 0 0 .348-.938A16.048 16.048 0 0 0 4.58 4.707C1.558 7.728-.107 11.747-.107 16.02s1.665 8.292 4.687 11.313l.666.667H.5a.5.5 0 0 0 0 1h5.856c.04.01.376-.025.474-.123.004-.004.005-.009.009-.013A.496.496 0 0 0 7 28.5v-6a.5.5 0 0 0-.5-.5z"/></symbol><symbol id="icon-mail" viewBox="0 0 32 32"><title>mail</title><path d="M5.315 9.274L16.5 19l11.187-9.728c.194.184.313.445.313.735v11.986C28 22.55 27.551 23 26.997 23H6.003A.999.999 0 0 1 5 21.993V10.007c0-.289.121-.549.315-.733zM6.004 8A2 2 0 0 0 4 9.994v12.012C4 23.107 4.89 24 6.004 24h20.993a2 2 0 0 0 2.004-1.994V9.994c0-1.101-.89-1.994-2.004-1.994H6.004zM16.5 17.7L6.5 9h20l-10 8.7z"/></symbol><symbol id="icon-eye-hidden" viewBox="0 0 32 32"><title>eye-hidden</title><path d="M8.109 20.891C4.617 18.83 3 16 3 16s4-7 13-7c1.305 0 2.504.147 3.601.399l-.85.85a15.115 15.115 0 0 0-2.752-.248c-8 0-11.8 6-11.8 6s1.515 2.392 4.645 4.155l-.736.736zm4.29 1.71c1.097.252 2.297.399 3.601.399 9 0 13-7 13-7s-1.617-2.83-5.109-4.891l-.736.736C26.285 13.608 27.8 16 27.8 16S24 22 16 22c-.98 0-1.897-.09-2.752-.248l-.85.85zm7.5-7.5a4 4 0 0 1-4.798 4.798L16 19c.768 0 1.536-.293 2.121-.879S19 16.767 19 16l.899-.899zm-3-3a4 4 0 0 0-4.798 4.798L13 16c0-.768.293-1.536.879-2.121S15.233 13 16 13l.899-.899zM24 7L7 24l1 1L25 8l-1-1z"/></symbol></defs></svg>