<?xml version="1.0" encoding="UTF-8"?>
<svg width="99px" height="75px" viewBox="0 0 99 75" version="1.1" xmlns="http://www.w3.org/2000/svg" xmlns:xlink="http://www.w3.org/1999/xlink">
    <!-- Generator: Sketch 42 (36781) - http://www.bohemiancoding.com/sketch -->
    <title>acaps</title>
    <desc>Created with Sketch.</desc>
    <defs></defs>
    <g id="Page-1" stroke="none" stroke-width="1" fill="none" fill-rule="evenodd">
        <g id="Artboard-Copy" transform="translate(-451.000000, -1.000000)" fill-rule="nonzero">
            <g id="Group-2">
                <g id="acaps" transform="translate(451.000000, 1.000000)">
                    <g id="Layer_1">
                        <g id="Group">
                            <path d="M80.9008171,43.7162162 C80.4265242,43.3108108 80.0199874,42.9054054 79.6134507,42.5 C75.9546197,38.8513514 72.2957888,35.2027027 68.704714,31.5540541 C64.5715902,27.3648649 62.6744186,22.2297297 63.3519799,16.4189189 C64.2328096,8.91891892 69.7210559,2.56756757 77.7162791,0.945945946 C86.7956003,-0.878378378 96.2137021,4.93243243 98.3818982,14.5945946 C99.8047769,21.0135135 98.1108737,26.6216216 93.5712131,31.3513514 C89.4380893,35.472973 85.2372093,39.527027 80.9008171,43.7162162 Z M68.5014456,18.7162162 C69.1112508,25.8783784 73.7864236,31.0135135 80.9685732,31.0135135 C88.1507228,31.0135135 93.2324324,25.8783784 93.3679447,18.5135135 C93.5034569,11.2837838 87.2698931,5.94594595 80.6975487,6.08108108 C74.3962288,6.28378378 68.704714,11.5540541 68.5014456,18.7162162 Z" id="Shape" fill="#CCE6F4"></path>
                            <path d="M61.6580767,47.7702703 L64.5715902,47.7702703 C64.7071025,48.4459459 64.8426147,49.0540541 65.0458831,49.8648649 C65.520176,49.527027 65.9267128,49.2567568 66.2654934,48.9189189 C68.3659334,47.2297297 70.805154,46.9594595 73.3121307,47.4324324 C75.6835952,47.8378378 77.3774984,49.2567568 78.1228158,51.4864865 C79.4779384,55.4054054 79.5456945,59.3918919 78.0550597,63.2432432 C76.9709617,66.0810811 74.7350094,67.6351351 71.5504714,67.8378378 C69.4500314,67.972973 67.4173476,67.6351351 65.3846637,66.5540541 L65.3846637,74.527027 L61.6580767,74.527027 C61.6580767,65.6756757 61.6580767,56.8243243 61.6580767,47.7702703 Z M65.4524199,63.7162162 C66.8075424,64.1216216 68.0949089,64.6621622 69.4500314,64.8648649 C71.6859837,65.2702703 73.5831552,64.3243243 74.3962288,62.2972973 C75.6835952,59.0540541 75.6158391,55.7432432 74.4639849,52.5 C73.989692,51.1486486 72.905594,50.4054054 71.347203,50.3378378 C68.9079824,50.2027027 66.9430547,51.1486486 65.2491515,52.8378378 L65.2491515,62.7027027 C65.3169076,62.972973 65.3846637,63.1756757 65.4524199,63.7162162 Z" id="Shape" fill="#FFFFFF"></path>
                            <path d="M1.96492772,51.6891892 L1.96492772,48.6486486 C5.35273413,47.3648649 8.74054054,46.8243243 12.3316153,47.6351351 C14.6353237,48.1756757 16.0582024,49.6621622 16.4647392,52.027027 C16.6002514,52.7027027 16.7357637,53.3783784 16.7357637,53.9864865 L16.7357637,66.8243243 C16.7357637,67.027027 16.6680075,67.2297297 16.6002514,67.5 L13.4157134,67.5 C13.2802011,66.8918919 13.212445,66.2837838 13.0769327,65.5405405 C12.6026398,65.8108108 12.1961031,65.9459459 11.8573224,66.2162162 C9.62137021,67.972973 7.11439346,68.3108108 4.47190446,67.7702703 C2.57473287,67.3648649 1.15185418,66.2837838 0.677561282,64.3243243 C-0.677561282,59.1891892 1.76165933,56.0135135 6.50458831,55.4054054 C8.53727216,55.1351351 10.6377121,55.2027027 12.8059082,55.0675676 C12.8736644,54.5945946 12.9414205,54.1216216 12.9414205,53.6486486 C12.9414205,51.4864865 12.128347,50.5405405 9.96015085,50.472973 C8.60502828,50.4054054 7.31766185,50.5405405 5.96253928,50.7432432 C4.60741672,51.0135135 3.38780641,51.3513514 1.96492772,51.6891892 Z M12.7381521,57.7027027 C11.112005,57.7027027 9.62137021,57.6351351 8.13073539,57.7027027 C7.4531741,57.7027027 6.84336895,57.9054054 6.16580767,58.1081081 C4.40414833,58.5810811 3.5910748,61.0135135 4.20087995,62.972973 C4.67517285,64.4594595 6.30131992,65.2702703 8.13073539,64.8648649 C9.89239472,64.4594595 11.5185418,63.6486486 12.670396,62.3648649 C12.7381521,60.7432432 12.7381521,59.3243243 12.7381521,57.7027027 Z" id="Shape" fill="#FFFFFF"></path>
                            <path d="M52.0367065,55.0675676 C52.1044626,54.3918919 52.1722187,53.8513514 52.1044626,53.2432432 C51.9689503,51.4189189 51.1558768,50.6756757 49.3264613,50.472973 C46.8872407,50.2702703 44.5157762,50.8108108 42.2120679,51.4864865 C41.9410434,51.5540541 41.737775,51.6216216 41.3312382,51.7567568 L41.3312382,48.7162162 C42.6863608,47.7027027 44.5157762,47.5675676 46.2774356,47.3648649 C47.9713388,47.1621622 49.8007542,47.2297297 51.4946574,47.5675676 C54.3404148,48.1081081 55.8310497,50.0675676 56.034318,52.9054054 C56.1020742,53.5135135 56.034318,54.1216216 56.034318,54.7297297 L56.034318,67.5 L52.7820239,67.5 C52.6465116,66.8918919 52.4432432,66.2162162 52.307731,65.4054054 C51.9689503,65.6081081 51.6979258,65.8108108 51.4269013,66.0135135 C49.2587052,67.7702703 46.7517285,68.2432432 44.0414833,67.7702703 C40.3826524,67.0945946 39.2307982,63.9189189 39.7050911,60.7432432 C40.1116279,57.6351351 42.4830924,55.6081081 46.0064111,55.3378378 C47.9035827,55.2027027 49.8685104,55.1351351 52.0367065,55.0675676 Z M52.1044626,57.7027027 C50.5460717,57.7027027 49.2587052,57.6351351 47.9035827,57.7027027 C47.1582652,57.7027027 46.4129478,57.8378378 45.7353865,58.0405405 C43.7704588,58.7162162 42.821873,60.8783784 43.4994343,62.972973 C43.9737272,64.4594595 45.8031427,65.2702703 47.7003143,64.8648649 C49.4619736,64.4594595 50.9526084,63.6486486 52.1044626,62.2972973 L52.1044626,57.7027027 Z" id="Shape" fill="#FFFFFF"></path>
                            <path d="M96.2137021,51.2162162 C94.2487744,50.9459459 92.3516028,50.6756757 90.386675,50.4054054 C89.7768699,50.3378378 89.1670647,50.4054054 88.5572596,50.472973 C87.4731615,50.6756757 86.7278441,51.4864865 86.5923319,52.5 C86.4568196,53.5135135 86.9311125,54.3918919 88.0152106,54.9324324 C88.760528,55.2702703 89.5058454,55.472973 90.2511628,55.7432432 C91.0642363,56.0135135 91.945066,56.2162162 92.7581395,56.4864865 C95.8749214,57.5675676 97.5688246,59.9324324 96.5524827,63.9864865 C96.0104337,66.1486486 94.3165305,67.2972973 92.2160905,67.7027027 C89.1670647,68.2432432 86.118039,68.1081081 83.1367693,66.8243243 L83.1367693,63.6486486 C84.2886235,63.9189189 85.4404777,64.3243243 86.5923319,64.4594595 C87.9474544,64.6621622 89.3703331,64.7297297 90.7932118,64.6621622 C92.2160905,64.5945946 92.9614079,63.7837838 93.0969202,62.5675676 C93.3001886,61.0810811 92.8936518,60.3378378 91.403017,59.7972973 C89.844626,59.2567568 88.2184789,58.7837838 86.660088,58.2432432 C83.0690132,57.027027 82.459208,53.5810811 83.4077938,50.9459459 C84.017599,49.3243243 85.2372093,48.2432432 86.7956003,47.8378378 C89.9801383,46.9594595 93.0969202,47.027027 96.2137021,48.4459459 C96.2137021,49.4594595 96.2137021,50.4054054 96.2137021,51.2162162 Z" id="Shape" fill="#FFFFFF"></path>
                            <path d="M35.7074796,48.6486486 L35.7074796,51.7567568 C34.6233815,51.4189189 33.6747957,51.0810811 32.6584538,50.8783784 C31.8453803,50.6756757 30.9645506,50.5405405 30.0837209,50.5405405 C27.983281,50.5405405 26.42489,51.6216216 25.6795726,53.5135135 C24.5954745,56.2162162 24.5954745,59.0540541 25.6118165,61.7567568 C26.4926461,64.1216216 28.7963545,65.2027027 31.5743558,64.527027 C32.8617222,64.2567568 34.1490886,63.7837838 35.5719673,63.3108108 L35.5719673,66.5540541 C32.4551854,68.1756757 29.1351351,68.4459459 25.8150849,67.0945946 C22.9693275,65.9459459 21.7497172,63.4459459 21.3431804,60.6756757 C21.0043997,58.4459459 21.0043997,56.1486486 21.6142049,53.9189189 C22.7660591,49.7297297 25.7473287,47.3648649 30.0159648,47.2972973 C32.0486486,47.2297297 33.9458202,47.4324324 35.7074796,48.6486486 Z" id="Shape" fill="#FFFFFF"></path>
                            <path d="M80.9685732,11.8243243 C84.8306725,11.8243243 87.8119422,14.7972973 87.8119422,18.6486486 C87.8119422,22.5 84.8306725,25.6081081 81.0363294,25.6081081 C77.1064739,25.6756757 74.0574481,22.5675676 74.0574481,18.6486486 C74.1252043,14.7972973 77.1064739,11.8243243 80.9685732,11.8243243 Z" id="Shape" fill="#FFFFFF"></path>
                        </g>
                    </g>
                </g>
            </g>
        </g>
    </g>
</svg>