<?xml version="1.0" encoding="UTF-8"?>
<svg width="107px" height="75px" viewBox="0 0 107 75" version="1.1" xmlns="http://www.w3.org/2000/svg" xmlns:xlink="http://www.w3.org/1999/xlink">
    <!-- Generator: Sketch 42 (36781) - http://www.bohemiancoding.com/sketch -->
    <title>Group 2</title>
    <desc>Created with Sketch.</desc>
    <defs></defs>
    <g id="Page-1" stroke="none" stroke-width="1" fill="none" fill-rule="evenodd">
        <g id="Artboard-Copy" transform="translate(-900.000000, -5.000000)" fill-rule="nonzero">
            <g id="Group-2">
                <g id="DART-17" transform="translate(901.000000, 7.000000)">
                    <g id="Layer_4">
                        <g id="Group">
                            <path d="M32.6645479,0.173736702 C31.7983562,0.173736702 31.3652603,0.605851064 31.7983562,1.47007979 L31.7983562,1.90219415 L31.7983562,28.6932846 L31.7983562,29.9896277 L40.460274,29.9896277 L40.460274,0.173736702 C37.8616986,0.173736702 35.2631233,0.173736702 32.6645479,0.173736702 Z" id="Shape" fill="#FFFFFF"></path>
                            <path d="M62.1150685,4.06276596 L62.1150685,30.421742 L70.7769863,30.421742 L70.7769863,4.06276596 C68.178411,4.06276596 65.1467397,4.06276596 62.1150685,4.06276596 Z" id="Shape" fill="#FFFFFF"></path>
                            <path d="M77.7065205,8.38390957 L86.3684384,8.38390957 L86.3684384,30.8538564 L77.7065205,30.8538564 L77.7065205,8.38390957 Z" id="Shape" fill="#CCE6F4"></path>
                            <path d="M24.435726,30.8538564 L22.7033425,30.8538564 L17.9392877,30.8538564 C15.7738082,30.8538564 16.2069041,30.8538564 16.2069041,29.1253989 L16.2069041,25.668484 L16.2069041,10.112367 L16.2069041,8.38390957 L24.435726,8.38390957 C24.8688219,8.38390957 24.8688219,8.81602394 24.8688219,9.2481383 L24.8688219,10.9765957 L24.8688219,30.421742 C24.8688219,30.421742 24.8688219,30.421742 24.435726,30.8538564 Z" id="Shape" fill="#CCE6F4"></path>
                            <path d="M47.3898082,30.421742 L47.3898082,29.1253989 L47.3898082,12.7050532 C47.3898082,11.4087101 47.3898082,11.4087101 48.6890959,11.4087101 L54.3193425,11.4087101 C55.6186301,11.4087101 55.6186301,11.4087101 55.6186301,12.7050532 L55.6186301,13.1371676 L55.6186301,29.1253989 L55.6186301,29.9896277 C55.6186301,30.421742 55.1855342,30.8538564 54.7524384,30.8538564 C52.5869589,30.421742 49.9883836,30.421742 47.3898082,30.421742 Z" id="Shape" fill="#CCE6F4"></path>
                            <path d="M0.615452055,19.1867686 L0.615452055,29.9896277 L0.615452055,30.8538564 L9.27736986,30.8538564 L9.27736986,19.1867686 C6.67879452,19.1867686 3.64712329,19.1867686 0.615452055,19.1867686 Z" id="Shape" fill="#FFFFFF"></path>
                            <path d="M93.2979726,19.618883 C93.2979726,20.0509973 92.8648767,20.4831117 92.8648767,20.9152261 L92.8648767,29.5575133 L92.8648767,30.8538564 L93.7310685,30.8538564 L99.3613151,30.8538564 L99.794411,30.8538564 C101.526795,30.8538564 101.526795,30.8538564 101.526795,29.1253989 L101.526795,23.0757979 L101.526795,19.618883 L93.2979726,19.618883 Z" id="Shape" fill="#FFFFFF"></path>
                            <g transform="translate(0.000000, 36.751995)" id="Shape" fill="#FFFFFF">
                                <path d="M12.742137,1.01569149 L1.04854795,1.01569149 L0.182356164,1.01569149 L0.182356164,5.33683511 L2.78093151,5.33683511 L2.78093151,7.06529255 L2.78093151,25.6462101 L2.78093151,26.9425532 C2.78093151,28.2388963 3.64712329,29.103125 4.94641096,29.103125 C8.41117808,29.103125 11.8759452,29.5352394 15.3407123,28.6710106 C18.3723836,28.2388963 20.9709589,26.9425532 23.1364384,24.349867 C24.8688219,22.1892952 25.7350137,19.596609 26.1681096,17.0039229 C26.6012055,13.547008 26.1681096,10.5222074 24.8688219,7.49740691 C22.2702466,3.1762633 17.9392877,1.01569149 12.742137,1.01569149 Z M19.6716712,19.596609 C18.3723836,23.0535239 15.7738082,24.7819814 11.8759452,24.7819814 L8.84427397,24.7819814 C7.5449863,24.7819814 7.5449863,24.7819814 7.5449863,23.4856383 L7.5449863,20.0287234 L7.5449863,7.06529255 L7.5449863,5.33683511 C10.1435616,5.33683511 12.742137,4.90472074 14.9076164,6.20106383 C17.0730959,7.06529255 18.3723836,8.36163564 19.2385753,10.5222074 C20.9709589,13.547008 20.9709589,16.5718085 19.6716712,19.596609 Z"></path>
                                <path d="M75.1079452,22.6214096 C74.2417534,20.8929521 73.3755616,18.7323803 71.6431781,17.0039229 C74.2417534,15.7075798 75.5410411,13.547008 75.974137,10.9543218 C76.8403288,5.33683511 72.9424658,1.01569149 67.7453151,1.01569149 L56.051726,1.01569149 L54.7524384,1.01569149 L54.7524384,5.33683511 L57.3510137,5.33683511 L57.3510137,29.103125 L62.1150685,29.103125 C62.1150685,28.6710106 62.5481644,28.2388963 62.5481644,28.2388963 L62.5481644,20.4608378 L62.5481644,19.1644947 L64.7136438,19.1644947 C66.4460274,19.1644947 67.7453151,19.596609 68.6115068,21.3250665 C69.4776986,23.4856383 70.7769863,25.6462101 71.6431781,27.3746676 C72.076274,28.6710106 72.9424658,29.5352394 74.2417534,29.5352394 L78.1396164,29.5352394 L78.1396164,25.2140957 C76.4072329,24.7819814 76.4072329,24.7819814 75.1079452,22.6214096 Z M71.2100822,10.9543218 C70.7769863,12.6827793 69.9107945,13.9791223 67.3122192,13.9791223 L62.9812603,13.9791223 L62.9812603,4.90472074 L67.7453151,4.90472074 C69.0446027,4.90472074 69.9107945,5.33683511 70.3438904,6.63317819 C71.2100822,8.36163564 71.2100822,9.65797872 71.2100822,10.9543218 Z"></path>
                                <path d="M51.2876712,23.4856383 C49.5552877,18.7323803 47.8229041,14.4112367 46.5236164,9.65797872 C45.6574247,7.06529255 44.7912329,4.47260638 43.4919452,1.87992021 C43.4919452,1.44780585 43.0588493,1.01569149 42.6257534,1.01569149 L37.8616986,1.01569149 C35.2631233,8.36163564 32.6645479,15.7075798 29.6328767,23.0535239 C29.1997808,23.9177527 28.7666849,25.2140957 27.4673973,24.7819814 L27.4673973,29.103125 L30.4990685,29.103125 C32.6645479,29.103125 33.0976438,28.6710106 33.9638356,26.5104388 C34.3969315,24.7819814 35.2631233,23.4856383 35.6962192,21.7571809 L44.358137,21.7571809 C44.7912329,21.7571809 45.2243288,22.1892952 45.2243288,22.6214096 C45.6574247,23.9177527 46.0905205,25.6462101 46.9567123,26.9425532 C47.3898082,28.2388963 48.256,29.103125 49.9883836,29.103125 L53.4531507,29.103125 L53.4531507,24.7819814 C51.7207671,25.2140957 51.2876712,24.349867 51.2876712,23.4856383 Z M36.562411,17.8681516 C37.8616986,13.9791223 38.7278904,10.5222074 40.0271781,6.63317819 C41.3264658,10.5222074 42.1926575,13.9791223 43.4919452,17.8681516 L36.562411,17.8681516 Z"></path>
                                <path d="M103.259178,2.74414894 C103.259178,2.31203457 102.826082,1.87992021 102.826082,1.44780585 L102.826082,1.44780585 L102.826082,1.44780585 L102.826082,1.44780585 L102.392986,1.01569149 C102.392986,1.01569149 102.392986,1.01569149 102.392986,0.583577128 C102.392986,0.583577128 101.95989,0.583577128 101.95989,0.151462766 L100.227507,0.151462766 L84.2029589,0.151462766 L80.7381918,0.151462766 C79.4389041,0.151462766 78.5727123,0.583577128 78.5727123,1.87992021 L78.5727123,7.06529255 L81.6043836,7.06529255 C82.4705753,7.06529255 83.3367671,6.63317819 82.9036712,5.33683511 C82.9036712,4.47260638 83.3367671,4.47260638 83.769863,4.47260638 L88.1008219,4.47260638 L88.1008219,26.5104388 L88.1008219,27.8067819 C88.1008219,27.8067819 88.5339178,28.2388963 88.9670137,28.2388963 L91.565589,28.2388963 L93.7310685,28.2388963 L93.7310685,4.47260638 L98.4951233,4.47260638 L98.4951233,4.47260638 L98.4951233,4.47260638 C98.4951233,5.33683511 98.9282192,6.20106383 98.9282192,7.06529255 L103.259178,7.06529255 C103.259178,6.20106383 103.692274,4.47260638 103.259178,2.74414894 Z"></path>
                            </g>
                        </g>
                    </g>
                </g>
            </g>
        </g>
    </g>
</svg>