<?xml version="1.0" encoding="UTF-8"?>
<svg width="54px" height="80px" viewBox="0 0 54 80" version="1.1" xmlns="http://www.w3.org/2000/svg" xmlns:xlink="http://www.w3.org/1999/xlink">
    <!-- Generator: Sketch 42 (36781) - http://www.bohemiancoding.com/sketch -->
    <title>Group 2</title>
    <desc>Created with Sketch.</desc>
    <defs></defs>
    <g id="Page-1" stroke="none" stroke-width="1" fill="none" fill-rule="evenodd">
        <g id="Artboard-Copy" transform="translate(-1050.000000, 0.000000)" fill-rule="nonzero">
            <g id="Group-2">
                <g id="Factr-18" transform="translate(1051.000000, 0.000000)">
                    <g id="Layer_4">
                        <g id="Group">
                            <g id="XMLID_1_" fill="#CCE6F4">
                                <path d="M18.3996619,8.81578947 C17.9814877,5.45739348 19.2360101,2.93859649 22.1632291,1.2593985 C24.6722739,-0.419799499 27.1813187,3.81639165e-14 29.6903635,1.2593985 C32.1994083,2.93859649 33.0357566,5.45739348 32.6175824,8.39598997 C32.1994083,12.1741855 29.2721893,14.6929825 25.5086221,14.6929825 C17.1451395,15.112782 15.0542688,16.7919799 15.0542688,25.1879699 C15.0542688,29.3859649 11.7088757,32.7443609 7.5271344,32.7443609 C3.34539307,32.3245614 0.418174134,29.3859649 0.418174134,25.1879699 C0.418174134,20.9899749 3.7635672,18.0513784 8.36348267,18.0513784 C15.0542688,18.4711779 18.817836,15.112782 18.3996619,8.81578947 Z" id="XMLID_6_"></path>
                                <path d="M7.5271344,0 C11.2907016,0 15.0542688,3.35839599 15.0542688,7.55639098 C15.0542688,11.3345865 11.7088757,14.6929825 7.94530854,14.6929825 C4.18174134,14.6929825 0.836348267,11.754386 0.418174134,7.55639098 C0.418174134,3.77819549 3.7635672,0.419799499 7.5271344,0 Z" id="XMLID_5_"></path>
                                <path d="M43.4901099,0 C47.2536771,0 50.5990702,3.35839599 50.5990702,7.13659148 C50.5990702,10.914787 47.2536771,14.6929825 43.4901099,14.6929825 C39.7265427,14.6929825 36.3811496,11.3345865 36.3811496,7.13659148 C36.3811496,3.35839599 39.7265427,0 43.4901099,0 Z" id="XMLID_4_"></path>
                                <path d="M7.5271344,50.7957393 C3.34539307,50.7957393 0.418174134,47.4373434 0.418174134,43.2393484 C0.418174134,39.4611529 3.7635672,36.1027569 7.5271344,36.1027569 C11.2907016,36.1027569 15.0542688,39.8809524 14.6360947,43.6591479 C15.0542688,47.4373434 11.7088757,50.7957393 7.5271344,50.7957393 Z" id="XMLID_3_"></path>
                                <path d="M32.6175824,25.6077694 C32.6175824,29.8057644 29.2721893,32.7443609 25.090448,32.7443609 C20.9087067,32.7443609 17.9814877,29.3859649 17.9814877,25.6077694 C17.9814877,21.4097744 21.3268808,18.4711779 25.5086221,18.4711779 C29.6903635,18.4711779 32.6175824,21.4097744 32.6175824,25.6077694 Z" id="XMLID_2_"></path>
                            </g>
                            <g transform="translate(2.241758, 59.899749)" id="Shape" fill="#FFFFFF">
                                <polygon points="0.26728656 0.131578947 9.88529163 0.131578947 9.88529163 3.07017544 4.03085376 3.07017544 4.03085376 6.00877193 8.2125951 6.00877193 8.2125951 8.94736842 4.03085376 8.94736842 4.03085376 13.9849624 0.26728656 13.9849624"></polygon>
                                <path d="M9.04894336,11.0463659 C9.04894336,8.94736842 11.139814,7.26817043 15.3215554,7.26817043 L15.3215554,7.26817043 C15.3215554,6.84837093 14.9033812,6.42857143 14.067033,6.42857143 C12.8125106,6.42857143 11.9761623,6.84837093 11.139814,7.68796992 L9.4671175,5.58897243 C10.3034658,4.74937343 11.9761623,3.90977444 14.4852071,3.90977444 C17.412426,3.90977444 18.6669484,5.16917293 18.6669484,8.10776942 L18.6669484,11.4661654 C18.6669484,12.7255639 18.6669484,13.5651629 19.0851226,13.9849624 L15.7397295,13.9849624 C15.7397295,13.5651629 15.3215554,13.1453634 15.3215554,12.3057644 C14.4852071,13.1453634 13.6488588,13.9849624 11.9761623,13.9849624 C10.7216399,13.9849624 9.04894336,13.1453634 9.04894336,11.0463659 Z M15.3215554,10.6265664 L15.3215554,9.36716792 C13.6488588,9.36716792 12.8125106,9.78696742 12.8125106,10.6265664 C12.8125106,11.0463659 13.2306847,11.4661654 13.6488588,11.4661654 C14.4852071,11.4661654 14.9033812,11.0463659 15.3215554,10.6265664 Z"></path>
                                <path d="M19.9214708,8.94736842 C19.9214708,4.74937343 22.8486898,3.48997494 25.3577346,3.48997494 C28.2849535,3.48997494 29.5394759,5.16917293 29.95765,6.84837093 L27.0304311,7.68796992 C26.612257,6.42857143 26.1940828,6.00877193 25.3577346,6.00877193 C24.1032122,6.00877193 23.685038,6.84837093 23.685038,8.52756892 C23.685038,10.2067669 24.1032122,11.0463659 25.3577346,11.0463659 C25.7759087,11.0463659 26.612257,10.6265664 27.0304311,9.36716792 L29.95765,10.2067669 C29.5394759,11.8859649 28.2849535,13.5651629 25.3577346,13.5651629 C22.8486898,13.9849624 19.9214708,13.1453634 19.9214708,8.94736842 Z"></path>
                                <path d="M32.0485207,11.0463659 L32.0485207,6.84837093 L30.3758242,6.84837093 L30.3758242,4.32957393 L32.0485207,4.32957393 L32.0485207,0.971177945 L35.8120879,0.971177945 L35.8120879,4.32957393 L38.3211327,4.32957393 L38.3211327,6.84837093 L35.8120879,6.84837093 L35.8120879,10.6265664 C35.8120879,11.8859649 36.230262,11.8859649 37.0666103,11.8859649 L37.9029586,11.8859649 L37.9029586,14.4047619 L35.8120879,14.4047619 C32.4666948,13.9849624 32.0485207,12.7255639 32.0485207,11.0463659 Z"></path>
                                <path d="M39.5756551,3.90977444 L43.3392223,3.90977444 L43.3392223,5.58897243 L43.3392223,5.58897243 C43.7573964,4.74937343 44.5937447,3.90977444 46.6846154,3.90977444 L46.6846154,3.90977444 L46.6846154,7.26817043 L45.8482671,7.26817043 C44.5937447,7.26817043 44.1755706,7.68796992 43.7573964,8.10776942 L43.7573964,14.4047619 L39.5756551,14.4047619 L39.5756551,3.90977444 Z"></path>
                            </g>
                        </g>
                    </g>
                </g>
            </g>
        </g>
    </g>
</svg>