<?xml version="1.0" encoding="UTF-8"?>
<svg width="120px" height="45px" viewBox="0 0 120 45" version="1.1" xmlns="http://www.w3.org/2000/svg" xmlns:xlink="http://www.w3.org/1999/xlink">
    <!-- Generator: Sketch 42 (36781) - http://www.bohemiancoding.com/sketch -->
    <title>humanitarian-response</title>
    <desc>Created with Sketch.</desc>
    <defs></defs>
    <g id="Page-1" stroke="none" stroke-width="1" fill="none" fill-rule="evenodd">
        <g id="Artboard-Copy" transform="translate(0.000000, -34.000000)" fill-rule="nonzero" fill="#FFFFFF">
            <g id="Group-2">
                <g id="humanitarian-response" transform="translate(0.000000, 34.000000)">
                    <g id="Layer_1">
                        <g id="Group">
                            <g transform="translate(0.000000, 19.090909)" id="Shape">
                                <path d="M64.5681818,7.97727273 C62.1818182,7.97727273 61.4318182,9.13636364 61.4318182,12.8863636 C61.4318182,16.6363636 62.1818182,17.7954545 64.5681818,17.7954545 C66.9545455,17.7954545 67.7045455,16.6363636 67.7045455,12.8863636 C67.7045455,9.13636364 66.9545455,7.97727273 64.5681818,7.97727273 Z"></path>
                                <path d="M53.5227273,7.97727273 L51,7.97727273 L51,12.8181818 L53.5227273,12.8181818 C55.2954545,12.8181818 55.8409091,12.2727273 55.8409091,10.3636364 C55.9090909,8.45454545 55.2954545,7.97727273 53.5227273,7.97727273 Z"></path>
                                <path d="M21.6818182,7.97727273 L19.0909091,7.97727273 L19.0909091,12.4090909 L21.6818182,12.4090909 C23.4545455,12.4090909 24.0681818,11.8636364 24.0681818,10.1590909 C24,8.45454545 23.4545455,7.97727273 21.6818182,7.97727273 Z"></path>
                                <path d="M0.272727273,0.477272727 L0.272727273,25.2954545 L120,25.2954545 L120,0.477272727 L0.272727273,0.477272727 Z M24.4090909,19.2272727 L23.3181818,15.2727273 C23.0454545,14.3863636 22.5,14.0454545 21.75,14.0454545 L19.1590909,14.0454545 L19.1590909,19.2272727 L17.3181818,19.2272727 L17.3181818,6.61363636 C18.6818182,6.47727273 19.6363636,6.47727273 21.75,6.47727273 C24.6818182,6.47727273 25.9090909,7.29545455 25.9090909,10.1590909 C25.9090909,12.1363636 25.2954545,13.1590909 23.5909091,13.3636364 L23.5909091,13.4318182 C24.2045455,13.6363636 24.8863636,14.1818182 25.1590909,15.2727273 L26.3181818,19.2272727 L24.4090909,19.2272727 L24.4090909,19.2272727 Z M35.7272727,11.7954545 L35.7272727,13.2954545 L30.4090909,13.2954545 L30.4090909,16.5 C30.4090909,17.3863636 30.6818182,17.6590909 31.4318182,17.6590909 L36.4090909,17.6590909 L36.4772727,19.0909091 C34.8409091,19.2272727 32.8636364,19.2272727 31.0909091,19.2272727 C29.5227273,19.2272727 28.5681818,18.3409091 28.5681818,16.9772727 L28.5681818,8.79545455 C28.5681818,7.43181818 29.5227273,6.54545455 31.0909091,6.54545455 C32.9318182,6.54545455 34.8409091,6.54545455 36.4772727,6.68181818 L36.4090909,8.11363636 L31.3636364,8.11363636 C30.6136364,8.11363636 30.3409091,8.45454545 30.3409091,9.27272727 L30.3409091,11.7954545 L35.7272727,11.7954545 L35.7272727,11.7954545 Z M42.4772727,19.4318182 C41.6590909,19.4318182 40.2954545,19.3636364 38.5227273,19.0909091 L38.6590909,17.7272727 C40.9772727,17.7954545 41.5909091,17.7954545 42.5454545,17.7954545 C44.3863636,17.7954545 44.9318182,17.5227273 44.9318182,15.9545455 C44.9318182,14.5909091 44.4545455,14.3181818 43.4318182,14.0454545 L40.8409091,13.3636364 C39,12.8181818 38.3181818,11.7272727 38.3181818,9.75 C38.3181818,6.81818182 39.6136364,6.40909091 42.4772727,6.40909091 C43.6363636,6.40909091 45,6.47727273 46.2954545,6.81818182 L46.1590909,8.18181818 C45.0681818,8.11363636 43.7045455,8.11363636 42.5454545,8.11363636 C40.8409091,8.11363636 40.1590909,8.18181818 40.1590909,9.88636364 C40.1590909,11.1818182 40.6363636,11.5227273 41.6590909,11.7954545 L44.1818182,12.4772727 C46.1590909,13.0227273 46.7727273,14.1818182 46.7727273,16.0909091 C46.7727273,18.8181818 45.4772727,19.4318182 42.4772727,19.4318182 Z M53.7954545,14.3863636 C52.7727273,14.3863636 51.8181818,14.3181818 51,14.25 L51,19.2272727 L49.1590909,19.2272727 L49.1590909,6.61363636 C50.5227273,6.47727273 51.4772727,6.47727273 53.5227273,6.47727273 C56.6590909,6.47727273 57.6818182,7.36363636 57.6818182,10.4318182 C57.75,13.5681818 56.7272727,14.3863636 53.7954545,14.3863636 Z M64.5681818,19.4318182 C60.8863636,19.4318182 59.5227273,17.8636364 59.5227273,12.8863636 C59.5227273,7.90909091 60.8181818,6.34090909 64.5681818,6.34090909 C68.3181818,6.34090909 69.6136364,7.90909091 69.6136364,12.8863636 C69.6136364,17.8636364 68.3181818,19.4318182 64.5681818,19.4318182 Z M82.1590909,18.4772727 C82.1590909,18.9545455 81.9545455,19.1590909 81.4772727,19.1590909 L79.7727273,19.1590909 C79.3636364,19.1590909 79.1590909,18.9545455 78.9545455,18.6136364 L75,10.0227273 C74.7954545,9.54545455 74.3863636,8.79545455 74.25,8.25 L73.9772727,8.25 C74.0454545,8.86363636 74.0454545,9.40909091 74.0454545,10.0227273 L74.0454545,19.1590909 L72.2727273,19.1590909 L72.2727273,7.29545455 C72.2727273,6.81818182 72.5454545,6.61363636 72.9545455,6.61363636 L74.6590909,6.61363636 C75.0681818,6.61363636 75.2727273,6.81818182 75.4772727,7.15909091 L79.2954545,15.5454545 C79.5,16.0909091 79.9090909,16.7727273 80.1818182,17.4545455 L80.4545455,17.4545455 C80.3863636,16.7727273 80.3863636,16.1590909 80.3863636,15.4772727 L80.3863636,6.61363636 L82.2272727,6.61363636 L82.2272727,18.4772727 L82.1590909,18.4772727 Z M88.7727273,19.4318182 C87.9545455,19.4318182 86.5909091,19.3636364 84.8181818,19.0909091 L84.9545455,17.7272727 C87.2727273,17.7954545 87.8863636,17.7954545 88.8409091,17.7954545 C90.6818182,17.7954545 91.2272727,17.5227273 91.2272727,15.9545455 C91.2272727,14.5909091 90.75,14.3181818 89.7272727,14.0454545 L87.1363636,13.3636364 C85.2954545,12.8181818 84.6136364,11.7272727 84.6136364,9.75 C84.6136364,6.81818182 85.9090909,6.40909091 88.7727273,6.40909091 C89.9318182,6.40909091 91.2954545,6.47727273 92.5909091,6.81818182 L92.4545455,8.18181818 C91.3636364,8.11363636 90,8.11363636 88.8409091,8.11363636 C87.1363636,8.11363636 86.4545455,8.18181818 86.4545455,9.88636364 C86.4545455,11.1818182 86.9318182,11.5227273 87.9545455,11.7954545 L90.4772727,12.4772727 C92.4545455,13.0227273 93.0681818,14.1818182 93.0681818,16.0909091 C93.0681818,18.8181818 91.7727273,19.4318182 88.7727273,19.4318182 Z M102.545455,11.7954545 L102.545455,13.2954545 L97.2272727,13.2954545 L97.2272727,16.5 C97.2272727,17.3863636 97.5,17.6590909 98.25,17.6590909 L103.227273,17.6590909 L103.295455,19.0909091 C101.659091,19.2272727 99.6818182,19.2272727 97.9090909,19.2272727 C96.3409091,19.2272727 95.3863636,18.3409091 95.3863636,16.9772727 L95.3863636,8.79545455 C95.3863636,7.43181818 96.3409091,6.54545455 97.9090909,6.54545455 C99.75,6.54545455 101.659091,6.54545455 103.295455,6.68181818 L103.227273,8.11363636 L98.25,8.11363636 C97.5,8.11363636 97.2272727,8.45454545 97.2272727,9.27272727 L97.2272727,11.7954545 L102.545455,11.7954545 L102.545455,11.7954545 Z"></path>
                            </g>
                            <g id="Shape">
                                <polygon points="10.1590909 14.3181818 8.18181818 14.3181818 8.18181818 7.90909091 2.25 7.90909091 2.25 14.3181818 0.272727273 14.3181818 0.272727273 0.75 2.25 0.75 2.25 6.27272727 8.18181818 6.27272727 8.18181818 0.75 10.1590909 0.75"></polygon>
                                <path d="M21.6136364,14.3181818 L20.1136364,14.3181818 L19.9772727,13.0227273 C18.5454545,14.0454545 17.25,14.5909091 15.8863636,14.5909091 C14.1818182,14.5909091 13.2954545,13.7045455 13.2954545,11.9318182 L13.2954545,4.70454545 L15.2045455,4.70454545 L15.2045455,11.3863636 C15.2045455,12.5454545 15.5454545,12.9545455 16.5681818,12.9545455 C17.5227273,12.9545455 18.4090909,12.4772727 19.7727273,11.6590909 L19.7727273,4.70454545 L21.6818182,4.70454545 L21.6818182,14.3181818 L21.6136364,14.3181818 Z"></path>
                                <path d="M38.8636364,7.09090909 L38.8636364,14.3181818 L37.0227273,14.3181818 L37.0227273,7.63636364 C37.0227273,6.54545455 36.6818182,6.06818182 35.5909091,6.06818182 C34.6363636,6.06818182 34.0227273,6.47727273 32.5909091,7.5 L32.5909091,14.3181818 L30.75,14.3181818 L30.75,7.63636364 C30.75,6.47727273 30.2727273,6.06818182 29.3181818,6.06818182 C28.4318182,6.06818182 27.75,6.40909091 26.3181818,7.5 L26.3181818,14.3181818 L24.5454545,14.3181818 L24.5454545,4.70454545 L26.1136364,4.70454545 L26.1818182,6.13636364 C27.4772727,5.04545455 28.7045455,4.43181818 30.0681818,4.43181818 C31.3636364,4.43181818 32.1818182,4.97727273 32.5227273,6.13636364 C33.8181818,5.04545455 35.0454545,4.43181818 36.2727273,4.43181818 C37.9772727,4.43181818 38.8636364,5.38636364 38.8636364,7.09090909 Z"></path>
                                <path d="M49.7727273,7.63636364 L49.7727273,14.3181818 L48.2727273,14.3181818 L48.0681818,12.8181818 C47.3863636,13.5681818 45.9545455,14.5227273 44.25,14.5227273 C42.4772727,14.5227273 41.3181818,13.5681818 41.3181818,11.7954545 L41.3181818,10.7727273 C41.3181818,9.20454545 42.2727273,8.38636364 44.0454545,8.38636364 L47.9318182,8.38636364 L47.9318182,7.63636364 C47.9318182,6.47727273 47.5227273,6.06818182 46.0227273,6.06818182 C45.0681818,6.06818182 43.4318182,6.20454545 41.9318182,6.27272727 L41.7272727,4.84090909 C43.0909091,4.63636364 45.0681818,4.36363636 46.3636364,4.36363636 C48.6136364,4.43181818 49.7727273,5.18181818 49.7727273,7.63636364 Z M43.2272727,11.5227273 C43.2272727,12.4772727 43.6363636,12.8863636 44.6590909,12.8863636 C45.5454545,12.8863636 46.7727273,12.5454545 47.9318182,11.5227273 L47.9318182,9.81818182 L44.3181818,9.81818182 C43.4318182,9.88636364 43.1590909,10.2954545 43.1590909,11.0454545 L43.1590909,11.5227273 L43.2272727,11.5227273 Z"></path>
                                <path d="M61.2272727,7.09090909 L61.2272727,14.3181818 L59.3181818,14.3181818 L59.3181818,7.63636364 C59.3181818,6.40909091 58.9772727,6.06818182 58.0909091,6.06818182 C57,6.06818182 55.9772727,6.61363636 54.5454545,7.5 L54.5454545,14.3181818 L52.6363636,14.3181818 L52.6363636,4.70454545 L54.2727273,4.70454545 L54.4090909,6.13636364 C55.8409091,5.04545455 57.2727273,4.43181818 58.6363636,4.43181818 C60.3409091,4.43181818 61.2272727,5.38636364 61.2272727,7.09090909 Z"></path>
                                <path d="M65.5909091,0.613636364 C65.9318182,0.613636364 66.1363636,0.818181818 66.1363636,1.15909091 L66.1363636,2.25 C66.1363636,2.59090909 65.9318182,2.79545455 65.5909091,2.79545455 L64.7045455,2.79545455 C64.3636364,2.79545455 64.1590909,2.59090909 64.1590909,2.25 L64.1590909,1.15909091 C64.1590909,0.818181818 64.3636364,0.613636364 64.7045455,0.613636364 L65.5909091,0.613636364 Z M64.2272727,14.3181818 L64.2272727,4.70454545 L66.1363636,4.70454545 L66.1363636,14.3181818 L64.2272727,14.3181818 Z"></path>
                                <path d="M71.7954545,11.5227273 C71.7954545,12.4090909 72.1363636,12.75 73.0227273,12.75 L74.4545455,12.75 L74.6590909,14.25 C74.0454545,14.4545455 72.8863636,14.5227273 72.4090909,14.5227273 C70.7727273,14.5227273 69.8863636,13.5681818 69.8863636,11.7954545 L69.8863636,6.20454545 L68.1136364,6.20454545 L68.1136364,4.84090909 L69.8863636,4.77272727 L69.8863636,1.97727273 L71.7954545,1.97727273 L71.7954545,4.77272727 L74.7954545,4.77272727 L74.7954545,6.27272727 L71.7954545,6.27272727 L71.7954545,11.5227273 L71.7954545,11.5227273 Z"></path>
                                <path d="M84.75,7.63636364 L84.75,14.3181818 L83.25,14.3181818 L83.0454545,12.8181818 C82.3636364,13.5681818 80.9318182,14.5227273 79.2272727,14.5227273 C77.4545455,14.5227273 76.2954545,13.5681818 76.2954545,11.7954545 L76.2954545,10.7727273 C76.2954545,9.20454545 77.25,8.38636364 79.0227273,8.38636364 L82.9090909,8.38636364 L82.9090909,7.63636364 C82.9090909,6.47727273 82.5,6.06818182 81,6.06818182 C80.0454545,6.06818182 78.4090909,6.20454545 76.9090909,6.27272727 L76.7045455,4.84090909 C78.0681818,4.63636364 80.0454545,4.36363636 81.3409091,4.36363636 C83.5909091,4.43181818 84.75,5.18181818 84.75,7.63636364 Z M78.2045455,11.5227273 C78.2045455,12.4772727 78.6136364,12.8863636 79.6363636,12.8863636 C80.5227273,12.8863636 81.75,12.5454545 82.9090909,11.5227273 L82.9090909,9.81818182 L79.4318182,9.81818182 C78.5454545,9.88636364 78.2727273,10.2954545 78.2727273,11.0454545 L78.2727273,11.5227273 L78.2045455,11.5227273 Z"></path>
                                <path d="M93.5454545,6.27272727 L92.9318182,6.27272727 C91.9090909,6.27272727 90.9545455,6.68181818 89.4545455,7.36363636 L89.4545455,14.3181818 L87.5454545,14.3181818 L87.5454545,4.70454545 L89.0454545,4.70454545 L89.25,6.20454545 C90.6136364,5.11363636 91.9772727,4.5 93.2727273,4.5 L93.75,4.5 L93.5454545,6.27272727 Z"></path>
                                <path d="M97.0227273,0.613636364 C97.3636364,0.613636364 97.5681818,0.818181818 97.5681818,1.15909091 L97.5681818,2.25 C97.5681818,2.59090909 97.3636364,2.79545455 97.0227273,2.79545455 L96.1363636,2.79545455 C95.7954545,2.79545455 95.5909091,2.59090909 95.5909091,2.25 L95.5909091,1.15909091 C95.5909091,0.818181818 95.7954545,0.613636364 96.1363636,0.613636364 L97.0227273,0.613636364 Z M95.6590909,14.3181818 L95.6590909,4.70454545 L97.5681818,4.70454545 L97.5681818,14.3181818 L95.6590909,14.3181818 Z"></path>
                                <path d="M108.545455,7.63636364 L108.545455,14.3181818 L107.045455,14.3181818 L106.840909,12.8181818 C106.159091,13.5681818 104.727273,14.5227273 103.022727,14.5227273 C101.25,14.5227273 100.090909,13.5681818 100.090909,11.7954545 L100.090909,10.7727273 C100.090909,9.20454545 101.045455,8.38636364 102.818182,8.38636364 L106.704545,8.38636364 L106.704545,7.63636364 C106.704545,6.47727273 106.295455,6.06818182 104.795455,6.06818182 C103.840909,6.06818182 102.204545,6.20454545 100.704545,6.27272727 L100.5,4.84090909 C101.863636,4.63636364 103.840909,4.36363636 105.136364,4.36363636 C107.386364,4.43181818 108.545455,5.18181818 108.545455,7.63636364 Z M102,11.5227273 C102,12.4772727 102.409091,12.8863636 103.431818,12.8863636 C104.318182,12.8863636 105.545455,12.5454545 106.704545,11.5227273 L106.704545,9.81818182 L103.227273,9.81818182 C102.340909,9.88636364 102.068182,10.2954545 102.068182,11.0454545 L102.068182,11.5227273 L102,11.5227273 Z"></path>
                                <path d="M120,7.09090909 L120,14.3181818 L118.090909,14.3181818 L118.090909,7.63636364 C118.090909,6.40909091 117.75,6.06818182 116.863636,6.06818182 C115.772727,6.06818182 114.75,6.61363636 113.318182,7.5 L113.318182,14.3181818 L111.409091,14.3181818 L111.409091,4.70454545 L113.045455,4.70454545 L113.181818,6.13636364 C114.613636,5.04545455 116.045455,4.43181818 117.409091,4.43181818 C119.113636,4.43181818 120,5.38636364 120,7.09090909 Z"></path>
                            </g>
                        </g>
                    </g>
                </g>
            </g>
        </g>
    </g>
</svg>