<?xml version="1.0" encoding="UTF-8"?>
<svg width="120px" height="75px" viewBox="0 0 120 75" version="1.1" xmlns="http://www.w3.org/2000/svg" xmlns:xlink="http://www.w3.org/1999/xlink">
    <!-- Generator: Sketch 42 (36781) - http://www.bohemiancoding.com/sketch -->
    <title>Group 2</title>
    <desc>Created with Sketch.</desc>
    <defs></defs>
    <g id="Page-1" stroke="none" stroke-width="1" fill="none" fill-rule="evenodd">
        <g id="Artboard-Copy" transform="translate(-750.000000, -5.000000)" fill-rule="nonzero" fill="#FFFFFF">
            <g id="Group-2">
                <g id="humanitarian-leadership-academy" transform="translate(751.000000, 13.000000)">
                    <g id="Layer_1">
                        <g id="Group">
                            <path d="M73.8898204,0.0680851064 L85.1221557,0.0680851064 L85.1221557,0.204255319 L85.1221557,0.408510638 L85.1221557,20.9021277 L85.1221557,21.1744681 C85.1898204,21.3787234 85.257485,21.4468085 85.5281437,21.3106383 C86.0694611,20.9021277 86.6784431,20.493617 87.3550898,20.2212766 C88.1670659,19.812766 89.0467066,19.4723404 89.9263473,19.2680851 C90.5353293,19.0638298 91.1443114,18.9276596 91.8209581,18.7914894 C92.1592814,18.7234043 92.5652695,18.6553191 92.9712575,18.6553191 C93.3095808,18.587234 93.6479042,18.587234 93.9862275,18.5191489 C94.1892216,18.5191489 94.4598802,18.4510638 94.6628743,18.4510638 C95.4071856,18.4510638 96.151497,18.3829787 96.9634731,18.3829787 L97.4371257,18.3829787 C97.8431138,18.3829787 98.2491018,18.4510638 98.5874251,18.4510638 C98.7904192,18.4510638 98.9257485,18.4510638 99.1287425,18.5191489 C99.3994012,18.5191489 99.6700599,18.587234 99.9407186,18.6553191 C100.414371,18.7234043 100.820359,18.8595745 101.294012,18.9276596 C102.038323,19.1319149 102.850299,19.3361702 103.526946,19.6765957 C103.797605,19.812766 104.135928,19.9489362 104.406587,20.0851064 C105.218563,20.493617 106.030539,21.0382979 106.707186,21.5829787 C107.248503,21.9914894 107.78982,22.5361702 108.263473,23.012766 C108.601796,23.3531915 108.872455,23.7617021 109.210778,24.1702128 C109.684431,24.7829787 110.090419,25.4638298 110.428743,26.212766 C110.699401,26.7574468 110.902395,27.3021277 111.173054,27.9148936 C111.376048,28.5276596 111.579042,29.2085106 111.782036,29.8893617 C111.917365,30.4340426 112.052695,31.0468085 112.120359,31.5914894 C112.188024,32.0680851 112.255689,32.4765957 112.323353,32.9531915 C112.323353,33.2255319 112.391018,33.5659574 112.391018,33.8382979 C112.526347,36.8340426 112.391018,39.7617021 112.458683,42.7574468 L112.458683,51.6765957 L112.458683,60.5957447 L112.458683,60.8 C112.255689,60.8680851 101.429341,60.8680851 100.955689,60.8 L100.955689,60.6638298 L100.955689,60.4595745 L100.955689,36.9702128 C100.955689,36.5617021 100.955689,36.1531915 100.888024,35.7446809 C100.820359,35.0638298 100.752695,34.3148936 100.549701,33.6340426 C100.346707,32.8851064 100.076048,32.0680851 99.6700599,31.387234 C99.4670659,31.0468085 99.1964072,30.706383 98.9257485,30.3659574 C98.5197605,29.8893617 98.1137725,29.5489362 97.5724551,29.2085106 C96.9634731,28.8 96.2868263,28.5276596 95.542515,28.3914894 C95.1365269,28.3234043 94.7305389,28.2553191 94.2568862,28.187234 C93.7155689,28.1191489 93.1742515,28.1191489 92.6329341,28.187234 C92.2269461,28.187234 91.8886228,28.2553191 91.4826347,28.3234043 C90.805988,28.4595745 90.197006,28.6638298 89.6556886,29.0042553 C89.1820359,29.2765957 88.7083832,29.6170213 88.3023952,29.9574468 C87.8287425,30.3659574 87.4227545,30.9106383 87.0844311,31.387234 C86.6784431,31.9319149 86.4077844,32.5446809 86.2047904,33.2255319 C86.0017964,33.8382979 85.7988024,34.5191489 85.6634731,35.1319149 C85.5958084,35.5404255 85.5281437,35.9489362 85.5281437,36.4255319 C85.3928144,37.6510638 85.460479,38.8765957 85.460479,40.1021277 L85.460479,60.5957447 L85.460479,60.8680851 C85.257485,60.9361702 74.4988024,60.9361702 74.0928144,60.8680851 L74.0928144,60.8680851 L74.0928144,60.8680851 L74.0928144,60.8 L74.0928144,0.204255319 C73.8898204,0.136170213 73.8898204,0.136170213 73.8898204,0.0680851064 Z" id="Shape"></path>
                            <path d="M51.6958084,55.1489362 L53.1167665,55.1489362 C53.2520958,55.1489362 53.2520958,55.2170213 53.2520958,55.2851064 L53.2520958,55.6255319 C54.2670659,54.6042553 55.891018,54.9446809 56.4323353,55.8297872 C56.5676647,55.693617 56.702994,55.5574468 56.8383234,55.4893617 C57.311976,55.0808511 57.8532934,54.9446809 58.4622754,55.012766 C59.0035928,55.0808511 59.4772455,55.2170213 59.8155689,55.6255319 C59.9508982,55.8297872 60.0862275,56.0340426 60.1538922,56.2382979 C60.2215569,56.5106383 60.2892216,56.7829787 60.2892216,57.0553191 C60.3568862,58.2808511 60.2892216,59.4382979 60.3568862,60.6638298 L60.3568862,60.8 C60.2215569,60.8680851 59.0035928,60.8680851 58.7329341,60.8 L58.7329341,60.5276596 L58.7329341,57.4638298 C58.7329341,57.2595745 58.7329341,57.1234043 58.6652695,56.9191489 C58.5299401,56.6468085 58.3269461,56.4425532 58.0562874,56.3744681 C57.8532934,56.306383 57.7179641,56.3744681 57.5149701,56.3744681 C57.311976,56.4425532 57.108982,56.5787234 56.9736527,56.7829787 C56.8383234,56.987234 56.7706587,57.2595745 56.7706587,57.4638298 L56.7706587,60.4595745 L56.7706587,60.7319149 C56.5676647,60.8 55.5526946,60.8 55.1467066,60.7319149 L55.1467066,60.4595745 L55.1467066,57.2595745 C55.1467066,57.1234043 55.1467066,56.987234 55.0790419,56.8510638 C55.0113772,56.5106383 54.7407186,56.306383 54.4023952,56.2382979 C54.1994012,56.1702128 54.0640719,56.2382979 53.8610778,56.2382979 C53.5904192,56.306383 53.4550898,56.4425532 53.3197605,56.7148936 C53.1844311,56.9191489 53.1844311,57.1914894 53.1844311,57.4638298 L53.1844311,60.3914894 L53.1844311,60.6638298 C52.9814371,60.7319149 51.9664671,60.7319149 51.6281437,60.6638298 L51.6281437,60.6638298 L51.6281437,60.6638298 L51.6281437,60.5276596 L51.6281437,55.012766 C51.6958084,55.2170213 51.6958084,55.1489362 51.6958084,55.1489362 Z" id="Shape"></path>
                            <path d="M17.660479,36.5617021 L16.0365269,36.5617021 L16.0365269,36.2893617 L16.0365269,33.4297872 C16.0365269,33.1574468 15.9688623,32.9531915 15.9688623,32.6808511 C15.9011976,32.2723404 15.5628743,32.1361702 15.2245509,32.0680851 C14.7508982,32 14.4125749,32.2723404 14.2772455,32.5446809 C14.1419162,32.8170213 14.0742515,33.0893617 14.0742515,33.3617021 L14.0742515,36.2212766 L14.0742515,36.493617 C13.8712575,36.5617021 12.7886228,36.5617021 12.5179641,36.493617 C12.4502994,36.2893617 12.4502994,31.1148936 12.5179641,30.7744681 C12.6532934,30.706383 13.8035928,30.706383 14.0742515,30.7744681 L14.0742515,31.3191489 C14.1419162,31.2510638 14.2095808,31.1829787 14.2772455,31.1829787 C14.6155689,30.8425532 15.0215569,30.706383 15.4952096,30.706383 C15.6982036,30.706383 15.9688623,30.706383 16.1718563,30.7744681 C16.5778443,30.8425532 16.848503,31.0468085 17.1191617,31.3191489 C17.1868263,31.387234 17.254491,31.4553191 17.3221557,31.5914894 C17.660479,31.1148936 18.1341317,30.8425532 18.6754491,30.7744681 C19.2167665,30.706383 19.8257485,30.7744681 20.3670659,31.0468085 C20.8407186,31.3191489 21.0437126,31.7276596 21.1790419,32.2042553 C21.2467066,32.4765957 21.3143713,32.7489362 21.3143713,33.0212766 L21.3143713,36.2212766 L21.3143713,36.493617 C21.1113772,36.5617021 19.9610778,36.5617021 19.6904192,36.493617 L19.6904192,36.2212766 L19.6904192,33.0212766 C19.6904192,32.8170213 19.6227545,32.6808511 19.5550898,32.4765957 C19.4197605,32.2042553 19.1491018,32.0680851 18.8107784,32.0680851 C18.2694611,32 17.9311377,32.2723404 17.7958084,32.8851064 C17.7281437,33.0893617 17.7281437,33.293617 17.7281437,33.4297872 L17.7281437,36.1531915 C17.660479,36.3574468 17.660479,36.493617 17.660479,36.5617021 Z" id="Shape"></path>
                            <path d="M62.1161677,48.2723404 L62.1161677,51.3361702 L61.9808383,51.3361702 L60.6952096,51.3361702 C60.4922156,51.3361702 60.4922156,51.3361702 60.4922156,51.1319149 L60.4922156,50.9957447 L60.4922156,43.2340426 L60.4922156,42.9617021 C60.6952096,42.893617 61.7778443,42.893617 62.1161677,42.9617021 L62.1161677,43.506383 C62.3191617,43.3702128 62.5221557,43.2340426 62.657485,43.0978723 C62.9281437,42.893617 63.2664671,42.8255319 63.6724551,42.8255319 C64.1461078,42.8255319 64.6197605,42.893617 65.0257485,43.0978723 C65.4994012,43.3021277 65.8377246,43.6425532 66.1083832,44.0510638 C66.3113772,44.3234043 66.4467066,44.6638298 66.5143713,45.0042553 C66.5820359,45.412766 66.6497006,45.8212766 66.5820359,46.2297872 C66.5143713,46.3659574 66.5820359,46.5702128 66.5143713,46.706383 C66.3790419,47.2510638 66.1083832,47.6595745 65.7023952,48.0680851 C65.1610778,48.5446809 64.5520958,48.8170213 63.8754491,48.8170213 C63.4017964,48.8170213 62.9958084,48.7489362 62.5221557,48.4765957 C62.3868263,48.4765957 62.3191617,48.3404255 62.1161677,48.2723404 Z M63.6047904,47.387234 C64.0107784,47.387234 64.4844311,47.1829787 64.7550898,46.706383 C64.9580838,46.3659574 65.0257485,46.0255319 64.9580838,45.6851064 C64.8904192,45.2085106 64.6874251,44.8680851 64.3491018,44.6638298 C63.8077844,44.3234043 63.1988024,44.2553191 62.657485,44.6638298 C62.5221557,44.7319149 62.454491,44.8 62.3868263,44.9361702 C62.1161677,45.2765957 62.048503,45.6851064 62.1161677,46.1617021 C62.251497,46.8425532 62.7928144,47.387234 63.6047904,47.387234 Z" id="Shape"></path>
                            <path d="M33.8323353,43.506383 L33.8323353,43.2340426 L33.8323353,40.7829787 L33.8323353,40.6468085 C33.8323353,40.4425532 33.8323353,40.3744681 34.102994,40.3744681 L34.9826347,40.3744681 L35.4562874,40.3744681 C35.5239521,40.5787234 35.5239521,48.3404255 35.4562874,48.7489362 C35.3209581,48.8170213 34.1706587,48.8170213 33.9,48.7489362 L33.9,48.2723404 C33.8323353,48.3404255 33.7646707,48.3404255 33.697006,48.4085106 C33.291018,48.7489362 32.8173653,48.8851064 32.2760479,48.8851064 C31.3964072,48.8851064 30.7197605,48.5446809 30.1107784,47.8638298 C29.7724551,47.5234043 29.6371257,47.0468085 29.5017964,46.5702128 C29.3664671,45.9574468 29.4341317,45.3446809 29.6371257,44.8 C29.7724551,44.4595745 29.9077844,44.1191489 30.1784431,43.8468085 C30.5844311,43.4382979 30.9904192,43.1659574 31.5317365,43.0297872 C32.2083832,42.8255319 32.9526946,42.893617 33.5616766,43.3021277 C33.6293413,43.3021277 33.697006,43.3702128 33.8323353,43.506383 Z M33.9,45.8212766 C33.9,45.4808511 33.697006,44.9361702 33.3586826,44.6638298 C33.0203593,44.3914894 32.6143713,44.3234043 32.2083832,44.3914894 C31.7347305,44.4595745 31.3964072,44.7319149 31.1934132,45.1404255 C30.7874251,45.8893617 31.0580838,46.9106383 31.8700599,47.2510638 C32.4113772,47.4553191 32.8850299,47.4553191 33.3586826,47.0468085 C33.697006,46.7744681 33.9,46.3659574 33.9,45.8212766 Z" id="Shape"></path>
                            <path d="M43.0347305,52.5617021 L44.591018,52.5617021 L44.591018,52.5617021 L44.591018,52.5617021 L44.591018,52.6297872 L44.591018,60.7319149 L44.591018,60.8 C44.388024,60.8680851 43.4407186,60.8680851 43.0347305,60.8 C42.9670659,60.5957447 43.0347305,60.4595745 42.9670659,60.2553191 C42.8994012,60.3234043 42.8317365,60.4595745 42.6964072,60.4595745 C42.3580838,60.7319149 41.9520958,60.8680851 41.4784431,60.8680851 C41.0724551,60.8680851 40.7341317,60.8680851 40.3958084,60.7319149 C40.1251497,60.5957447 39.7868263,60.4595745 39.5838323,60.2553191 C39.042515,59.7787234 38.7041916,59.1659574 38.6365269,58.4851064 C38.5011976,57.8042553 38.5688623,57.0553191 38.9071856,56.4425532 C39.3131737,55.6255319 39.9898204,55.1489362 40.8694611,55.012766 C41.4107784,54.9446809 41.8844311,54.9446809 42.3580838,55.1489362 C42.5610778,55.2170213 42.6964072,55.3531915 42.8317365,55.4893617 C42.8317365,55.4893617 42.8994012,55.5574468 42.9670659,55.6255319 L42.9670659,54.8085106 L42.9670659,54.0595745 L42.9670659,53.3106383 C42.9670659,53.0382979 42.9670659,52.8340426 43.0347305,52.5617021 Z M40.1251497,58.0765957 C40.057485,58.6212766 40.5311377,59.2340426 41.1401198,59.4382979 C41.7491018,59.5744681 42.2227545,59.506383 42.6287425,59.0297872 C42.8317365,58.8255319 42.8994012,58.5531915 42.9670659,58.2808511 C43.1023952,57.7361702 42.8994012,57.1914894 42.4934132,56.8510638 C41.9520958,56.3744681 41.3431138,56.3744681 40.7341317,56.7148936 C40.3281437,56.987234 40.1251497,57.4638298 40.1251497,58.0765957 Z" id="Shape"></path>
                            <path d="M53.7257485,48.7489362 L52.1694611,48.7489362 L52.1694611,48.5446809 L52.1694611,40.5787234 C52.1694611,40.3744681 52.1694611,40.306383 52.3724551,40.306383 L53.7257485,40.306383 C53.7934132,40.5787234 53.7257485,40.8510638 53.7257485,41.1234043 L53.7257485,41.9404255 L53.7257485,42.6893617 L53.7257485,43.506383 C53.9287425,43.3702128 54.0640719,43.2340426 54.2670659,43.0978723 C54.4700599,42.9617021 54.7407186,42.893617 55.0113772,42.8255319 C55.4173653,42.7574468 55.8233533,42.8255319 56.2293413,42.9617021 C56.702994,43.1659574 57.108982,43.5744681 57.2443114,44.0510638 C57.311976,44.2553191 57.3796407,44.5276596 57.3796407,44.7319149 C57.4473054,45.6170213 57.3796407,46.5021277 57.4473054,47.387234 L57.4473054,48.5446809 C57.311976,48.612766 56.1616766,48.612766 55.8233533,48.5446809 L55.8233533,48.2723404 L55.8233533,45.2085106 C55.8233533,45.0042553 55.7556886,44.8 55.688024,44.5957447 C55.6203593,44.3234043 55.4173653,44.187234 55.1467066,44.1191489 C54.8083832,43.9829787 54.5377246,44.0510638 54.2670659,44.187234 C53.9287425,44.3914894 53.8610778,44.7319149 53.7934132,45.0723404 C53.7257485,45.4808511 53.7257485,45.8893617 53.7257485,46.2978723 L53.7257485,48.2723404 C53.7257485,48.5446809 53.7257485,48.612766 53.7257485,48.7489362 Z" id="Shape"></path>
                            <path d="M1.96227545,36.5617021 L0.405988024,36.5617021 L0.405988024,36.5617021 L0.405988024,36.5617021 L0.405988024,36.4255319 L0.405988024,28.3234043 L0.405988024,28.2553191 L1.96227545,28.2553191 C2.02994012,28.4595745 1.96227545,28.6638298 1.96227545,28.8680851 L1.96227545,29.4808511 L1.96227545,30.093617 L1.96227545,30.706383 L1.96227545,31.3191489 C2.16526946,31.1829787 2.36826347,31.0468085 2.57125749,30.9106383 C2.97724551,30.6382979 3.4508982,30.706383 3.9245509,30.7744681 C4.19520958,30.8425532 4.39820359,30.9106383 4.66886228,31.0468085 C5.14251497,31.387234 5.48083832,31.8638298 5.54850299,32.4085106 C5.54850299,32.612766 5.61616766,32.8170213 5.61616766,33.0212766 L5.61616766,36.3574468 L5.61616766,36.5617021 L4.05988024,36.5617021 L4.05988024,36.2893617 L4.05988024,33.293617 C4.05988024,33.0893617 4.05988024,32.9531915 3.99221557,32.7489362 C3.9245509,32.3404255 3.58622754,32.1361702 3.18023952,32.0680851 C2.57125749,32 2.09760479,32.4765957 2.02994012,33.0212766 C1.96227545,33.293617 1.96227545,33.5659574 1.96227545,33.8382979 L1.96227545,36.2893617 C1.96227545,36.3574468 1.96227545,36.493617 1.96227545,36.5617021 Z" id="Shape"></path>
                            <path d="M45.2676647,31.387234 L45.2676647,30.8425532 L46.8916168,30.8425532 L46.8916168,32.7489362 L46.8916168,34.6553191 L46.8916168,36.5617021 C46.7562874,36.6297872 45.6736527,36.6297872 45.2676647,36.5617021 L45.2676647,36.0170213 C45.1323353,36.0851064 45.0646707,36.1531915 44.997006,36.2212766 C44.591018,36.5617021 44.1173653,36.6978723 43.6437126,36.6978723 C42.9670659,36.6978723 42.3580838,36.493617 41.8844311,36.0851064 C41.3431138,35.6085106 41.0047904,34.9957447 40.8694611,34.3148936 C40.8694611,34.1106383 40.8017964,33.906383 40.8017964,33.7021277 C40.8017964,33.293617 40.8694611,32.9531915 41.0047904,32.5446809 C41.3431138,31.7957447 41.8167665,31.1829787 42.6287425,30.9106383 C43.2377246,30.706383 43.8467066,30.706383 44.5233533,30.9106383 C44.794012,30.9787234 44.997006,31.1148936 45.1323353,31.3191489 C45.2,31.3191489 45.2,31.3191489 45.2676647,31.387234 Z M45.2676647,33.7021277 L45.2676647,33.4978723 C45.2676647,33.0893617 45.0646707,32.7489362 44.794012,32.5446809 C44.1850299,32 43.1700599,32.1361702 42.6964072,32.8170213 C42.2904192,33.3617021 42.2904192,33.9744681 42.6287425,34.587234 C42.8317365,34.9276596 43.1700599,35.1319149 43.6437126,35.2680851 C44.0497006,35.3361702 44.4556886,35.2680851 44.7263473,34.9957447 C45.0646707,34.6553191 45.2676647,34.2468085 45.2676647,33.7021277 Z" id="Shape"></path>
                            <path d="M36.4035928,60.8680851 L36.4035928,60.3234043 C36.2682635,60.4595745 36.1329341,60.5276596 36.0652695,60.5957447 C35.7269461,60.8680851 35.3209581,61.0042553 34.9149701,61.0042553 C34.5766467,61.0042553 34.305988,61.0042553 33.9676647,60.9361702 C33.4263473,60.7319149 32.9526946,60.4595745 32.5467066,59.9829787 C32.2083832,59.5744681 32.0730539,59.0978723 31.9377246,58.5531915 C31.8023952,57.8723404 31.9377246,57.2595745 32.1407186,56.6468085 C32.4113772,55.9659574 32.9526946,55.4893617 33.6293413,55.2170213 C34.0353293,55.0808511 34.3736527,55.012766 34.7796407,55.012766 C35.3209581,55.012766 35.7946108,55.2170213 36.2005988,55.5574468 C36.2005988,55.5574468 36.2682635,55.5574468 36.2682635,55.6255319 L36.2682635,55.1489362 L36.4035928,55.1489362 L37.6892216,55.1489362 C37.8922156,55.1489362 37.8922156,55.1489362 37.8922156,55.3531915 L37.8922156,55.7617021 L37.8922156,60.5957447 L37.8922156,60.8680851 C37.8245509,60.8680851 36.7419162,60.9361702 36.4035928,60.8680851 Z M34.9826347,59.506383 C35.7946108,59.506383 36.4035928,58.893617 36.4035928,58.0085106 C36.4035928,57.1234043 35.7946108,56.5106383 34.9826347,56.5106383 C34.102994,56.5106383 33.494012,57.1234043 33.494012,58.0085106 C33.494012,58.893617 34.1706587,59.506383 34.9826347,59.506383 Z" id="Shape"></path>
                            <path d="M58.6652695,36.5617021 L58.6652695,36.0170213 C58.5299401,36.0851064 58.4622754,36.2212766 58.3946108,36.2893617 C57.7856287,36.6978723 57.108982,36.8340426 56.3646707,36.6297872 C55.8233533,36.493617 55.4173653,36.2212766 55.0113772,35.812766 C54.5377246,35.3361702 54.3347305,34.7914894 54.2670659,34.1106383 C54.1994012,33.4297872 54.2670659,32.8170213 54.5377246,32.2042553 C54.9437126,31.387234 55.5526946,30.9106383 56.4323353,30.7744681 C57.0413174,30.6382979 57.5826347,30.706383 58.1239521,30.9787234 C58.2592814,31.0468085 58.4622754,31.1829787 58.5976048,31.3191489 C58.6652695,31.1829787 58.5976048,31.0468085 58.6652695,30.9106383 C58.8005988,30.8425532 59.9508982,30.8425532 60.2215569,30.9106383 C60.2892216,31.1148936 60.2892216,36.2212766 60.2215569,36.6297872 C60.1538922,36.6297872 59.0035928,36.6297872 58.6652695,36.5617021 Z M57.311976,32.2042553 C56.5676647,32.2042553 55.8233533,32.7489362 55.8233533,33.7021277 C55.8233533,34.6553191 56.5,35.2 57.311976,35.2 C58.1239521,35.2 58.7329341,34.587234 58.7329341,33.7021277 C58.7329341,32.8851064 58.1916168,32.2042553 57.311976,32.2042553 Z" id="Shape"></path>
                            <path d="M27.2011976,48.6808511 L27.2011976,48.1361702 C27.1335329,48.1361702 27.1335329,48.2042553 27.1335329,48.2042553 C26.7275449,48.612766 26.1862275,48.8170213 25.6449102,48.8170213 C25.1035928,48.8170213 24.6299401,48.6808511 24.1562874,48.4085106 C23.6149701,48.0680851 23.2766467,47.6595745 23.005988,47.1148936 C22.802994,46.706383 22.7353293,46.2297872 22.7353293,45.7531915 C22.7353293,44.9361702 23.005988,44.187234 23.6149701,43.6425532 C24.0209581,43.2340426 24.4946108,42.9617021 25.1035928,42.893617 C25.6449102,42.8255319 26.1862275,42.8255319 26.7275449,43.0978723 C26.8628743,43.1659574 26.9982036,43.3021277 27.1335329,43.3702128 C27.1335329,43.3702128 27.2011976,43.4382979 27.2688623,43.4382979 L27.2688623,42.9617021 C27.4041916,42.893617 28.4868263,42.893617 28.8251497,42.9617021 C28.8928144,43.1659574 28.8928144,48.2723404 28.8251497,48.6808511 C28.6898204,48.7489362 27.539521,48.7489362 27.2011976,48.6808511 Z M24.3592814,45.8212766 C24.3592814,46.2978723 24.4946108,46.6382979 24.8329341,46.9787234 C25.0359281,47.1829787 25.3065868,47.3191489 25.5772455,47.3191489 C26.1185629,47.387234 26.5245509,47.2510638 26.8628743,46.8425532 C27.2011976,46.4340426 27.3365269,45.9574468 27.2011976,45.412766 C26.9982036,44.7319149 26.5922156,44.3914894 25.9155689,44.3234043 C25.1712575,44.2553191 24.3592814,44.9361702 24.3592814,45.8212766 Z" id="Shape"></path>
                            <path d="M26.1862275,31.3191489 L26.1862275,30.8425532 L27.742515,30.8425532 L27.742515,32.7489362 L27.742515,34.6553191 L27.742515,36.5617021 L26.1185629,36.5617021 L26.1185629,36.0170213 C26.0508982,36.0851064 25.9832335,36.0851064 25.9832335,36.1531915 C25.7125749,36.4255319 25.3742515,36.5617021 24.9682635,36.6978723 C24.3592814,36.8340426 23.8179641,36.7659574 23.2766467,36.4255319 C22.6676647,36.0851064 22.194012,35.6085106 21.9233533,34.9276596 C21.7203593,34.3829787 21.7203593,33.8382979 21.7203593,33.293617 C21.788024,32.7489362 21.991018,32.2042553 22.397006,31.7276596 C22.8706587,31.1829787 23.411976,30.9106383 24.0886228,30.7744681 C24.6299401,30.706383 25.1712575,30.7744681 25.6449102,30.9787234 C25.8479042,31.0468085 26.0508982,31.1829787 26.1862275,31.3191489 Z M26.2538922,33.7021277 C26.3215569,32.8170213 25.4419162,32 24.4269461,32.2723404 C23.5473054,32.5446809 23.1413174,33.4297872 23.411976,34.2468085 C23.6826347,34.9957447 24.3592814,35.4042553 25.1712575,35.2 C25.8479042,34.9957447 26.2538922,34.4510638 26.2538922,33.7021277 Z" id="Shape"></path>
                            <path d="M23.7502994,55.6255319 L23.7502994,55.2851064 C23.7502994,55.1489362 23.8179641,55.1489362 23.8856287,55.1489362 L24.3592814,55.1489362 L25.2389222,55.1489362 C25.2389222,55.1489362 25.2389222,55.1489362 25.3065868,55.2170213 L25.3065868,55.2170213 L25.3065868,55.3531915 L25.3065868,60.8680851 C25.3065868,60.8680851 25.3065868,60.8680851 25.3065868,60.9361702 L23.7502994,60.9361702 L23.7502994,60.4595745 C23.6149701,60.5276596 23.5473054,60.5957447 23.4796407,60.6638298 C23.0736527,60.9361702 22.6676647,61.0723404 22.194012,61.0723404 C21.3143713,61.0723404 20.5700599,60.7319149 20.0287425,60.0510638 C19.6904192,59.6425532 19.4874251,59.1659574 19.4197605,58.6893617 C19.3520958,58.4170213 19.3520958,58.0765957 19.3520958,57.8042553 C19.4197605,56.9191489 19.7580838,56.1702128 20.4347305,55.6255319 C20.8407186,55.3531915 21.2467066,55.1489362 21.7203593,55.0808511 C22.3293413,55.012766 22.8706587,55.0808511 23.411976,55.3531915 C23.4796407,55.4212766 23.6149701,55.4893617 23.7502994,55.6255319 Z M23.8179641,58.0085106 L23.8179641,57.8723404 C23.7502994,57.3276596 23.5473054,56.9191489 23.0736527,56.6468085 C22.7353293,56.5106383 22.4646707,56.5106383 22.1263473,56.5106383 C21.4497006,56.6468085 20.9083832,57.2595745 20.9083832,57.9404255 C20.9083832,58.5531915 21.1790419,59.0978723 21.7203593,59.3702128 C22.194012,59.6425532 22.6676647,59.6425532 23.1413174,59.3021277 C23.5473054,59.0297872 23.8179641,58.5531915 23.8179641,58.0085106 Z" id="Shape"></path>
                            <path d="M22.397006,46.4340426 L18.0664671,46.4340426 C18.1341317,46.8425532 18.5401198,47.3191489 19.1491018,47.387234 C19.8934132,47.4553191 20.5023952,47.2510638 20.8407186,46.5021277 C21.2467066,46.7744681 21.7203593,47.0468085 22.1263473,47.2510638 C21.7203593,48 21.1790419,48.4765957 20.3670659,48.6808511 C19.8934132,48.8170213 19.4874251,48.8170213 19.0137725,48.7489362 C18.2694611,48.6808511 17.5928144,48.3404255 17.1191617,47.7957447 C16.7808383,47.387234 16.5778443,46.9787234 16.5101796,46.5021277 C16.3748503,45.7531915 16.442515,45.0723404 16.7808383,44.3914894 C17.254491,43.5744681 17.9311377,43.0978723 18.8107784,42.893617 C19.4874251,42.7574468 20.0964072,42.8255319 20.7053892,43.1659574 C21.4497006,43.5744681 21.991018,44.187234 22.194012,45.0042553 C22.397006,45.4808511 22.397006,45.9574468 22.397006,46.4340426 Z M18.1341317,45.1404255 L20.7053892,45.1404255 C20.5700599,44.6638298 20.0964072,44.3914894 19.6227545,44.3234043 C18.9461078,44.2553191 18.4047904,44.5276596 18.1341317,45.1404255 Z" id="Shape"></path>
                            <path d="M41.9520958,46.4340426 L37.6215569,46.4340426 C37.8245509,46.9787234 38.1628743,47.3191489 38.7041916,47.387234 C39.448503,47.5234043 40.057485,47.2510638 40.4634731,46.5021277 C40.8694611,46.7744681 41.2754491,46.9787234 41.7491018,47.2510638 C41.7491018,47.3191489 41.7491018,47.3191489 41.6814371,47.387234 C41.3431138,48 40.8694611,48.4085106 40.1928144,48.612766 C39.5161677,48.8851064 38.839521,48.8851064 38.0952096,48.6808511 C37.6892216,48.5446809 37.3508982,48.4085106 37.0125749,48.0680851 C36.5389222,47.6595745 36.2005988,47.1148936 36.0652695,46.5021277 C35.9299401,45.8212766 35.9976048,45.2085106 36.2682635,44.5957447 C36.4035928,44.2553191 36.6065868,43.9829787 36.8772455,43.7106383 C37.2832335,43.3021277 37.8245509,43.0297872 38.4335329,42.893617 C39.1101796,42.7574468 39.7868263,42.8255319 40.3958084,43.1659574 C41.1401198,43.5744681 41.6137725,44.187234 41.8167665,44.9361702 C41.9520958,45.4808511 41.9520958,45.9574468 41.9520958,46.4340426 Z M40.260479,45.1404255 C40.1251497,44.5957447 39.5838323,44.3234043 39.1101796,44.3234043 C38.4335329,44.3234043 37.8922156,44.5957447 37.6892216,45.1404255 L40.260479,45.1404255 Z" id="Shape"></path>
                            <path d="M46.7562874,58.6212766 C46.9592814,59.2340426 47.5005988,59.5744681 48.0419162,59.5744681 C48.2449102,59.5744681 48.4479042,59.5744681 48.6508982,59.506383 C49.0568862,59.3702128 49.3275449,59.1659574 49.4628743,58.7574468 L49.5305389,58.6893617 L49.5305389,58.6893617 C49.9365269,58.9617021 50.342515,59.1659574 50.8161677,59.4382979 C50.6808383,59.6425532 50.545509,59.7787234 50.4101796,59.9829787 C49.9365269,60.4595745 49.4628743,60.8 48.7862275,60.9361702 C48.1772455,61.0042553 47.5682635,61.0042553 46.9592814,60.8 C46.3502994,60.5957447 45.8766467,60.187234 45.5383234,59.6425532 C45.2676647,59.2340426 45.1323353,58.8255319 45.1323353,58.4170213 C45.0646707,57.9404255 45.1323353,57.5319149 45.2676647,57.1234043 C45.402994,56.6468085 45.6736527,56.2382979 46.011976,55.9659574 C46.4856287,55.5574468 47.0269461,55.2170213 47.6359281,55.1489362 C48.2449102,55.0808511 48.8538922,55.1489362 49.3952096,55.4212766 C49.9365269,55.693617 50.342515,56.0340426 50.6131737,56.5787234 C50.951497,57.2595745 51.0191617,57.9404255 51.0191617,58.6893617 L50.748503,58.6893617 L46.9592814,58.6893617 C46.9592814,58.6212766 46.8239521,58.6212766 46.7562874,58.6212766 Z M49.4628743,57.2595745 C49.3952096,57.0553191 49.2598802,56.8510638 49.0568862,56.7148936 C48.5832335,56.4425532 48.1095808,56.3744681 47.6359281,56.5787234 C47.2976048,56.7148936 47.0269461,56.9191489 46.8916168,57.2595745 L49.4628743,57.2595745 Z" id="Shape"></path>
                            <path d="M61.7101796,63.5234043 C61.845509,63.2510638 61.9131737,62.9787234 62.048503,62.706383 C62.3191617,62.0255319 62.5898204,61.3446809 62.860479,60.7319149 C62.9281437,60.6638298 62.860479,60.5957447 62.860479,60.5276596 C62.5898204,59.8468085 62.251497,59.0978723 61.9808383,58.4170213 C61.7778443,57.9404255 61.5748503,57.4638298 61.3718563,56.987234 C61.1688623,56.4425532 60.8982036,55.8978723 60.6952096,55.3531915 C60.6952096,55.2851064 60.6952096,55.2851064 60.6275449,55.2170213 L60.7628743,55.2170213 L62.1161677,55.2170213 C62.251497,55.2170213 62.3191617,55.2851064 62.3868263,55.4212766 C62.7928144,56.5106383 63.1988024,57.5319149 63.6724551,58.6212766 C63.6724551,58.6212766 63.6724551,58.6893617 63.7401198,58.7574468 C64.1461078,57.6 64.6197605,56.4425532 65.0257485,55.2851064 L66.7173653,55.2851064 C66.6497006,55.4212766 66.6497006,55.5574468 66.5820359,55.693617 C66.1760479,56.7148936 65.7700599,57.6680851 65.4317365,58.6893617 C65.0934132,59.506383 64.7550898,60.3914894 64.4167665,61.2085106 C64.1461078,61.9574468 63.8077844,62.706383 63.5371257,63.4553191 C63.4694611,63.6595745 63.4694611,63.6595745 63.1988024,63.6595745 C62.657485,63.5234043 62.1838323,63.5234043 61.7101796,63.5234043 Z" id="Shape"></path>
                            <path d="M32.2760479,36.5617021 L32.2760479,36.2893617 L32.2760479,33.0893617 C32.2760479,32.8170213 32.2083832,32.5446809 32.0053892,32.3404255 C31.7347305,32.0680851 31.3964072,32 31.0580838,32.1361702 C30.5167665,32.2723404 30.2461078,32.6808511 30.2461078,33.2255319 L30.2461078,36.2212766 L30.2461078,36.493617 C30.0431138,36.5617021 29.0281437,36.5617021 28.6221557,36.493617 L28.6221557,34.587234 L28.6221557,32.6808511 L28.6221557,30.7744681 C28.8251497,30.706383 29.8401198,30.706383 30.2461078,30.7744681 L30.2461078,31.2510638 C30.3814371,31.1829787 30.5167665,31.0468085 30.5844311,30.9787234 C30.9227545,30.706383 31.2610778,30.6382979 31.6670659,30.6382979 C32.0053892,30.6382979 32.3437126,30.6382979 32.6820359,30.8425532 C33.291018,31.1148936 33.6293413,31.5914894 33.7646707,32.2042553 C33.8323353,32.4765957 33.8323353,32.7489362 33.8323353,33.0212766 L33.8323353,36.2212766 L33.8323353,36.493617 C33.7646707,36.6297872 32.6143713,36.6297872 32.2760479,36.5617021 Z" id="Shape"></path>
                            <path d="M66.3790419,36.5617021 L64.7550898,36.5617021 L64.7550898,36.2893617 L64.7550898,33.2255319 C64.7550898,33.0212766 64.6874251,32.8170213 64.6197605,32.612766 C64.4844311,32.2723404 64.2137725,32.1361702 63.8077844,32.0680851 C63.1988024,32 62.7928144,32.4085106 62.7251497,33.0212766 C62.657485,33.293617 62.657485,33.5659574 62.657485,33.8382979 L62.657485,36.2212766 L62.657485,36.493617 C62.454491,36.5617021 61.3718563,36.5617021 61.1011976,36.493617 C61.0335329,36.2893617 61.0335329,31.1148936 61.1011976,30.7744681 C61.3041916,30.706383 62.3868263,30.706383 62.657485,30.7744681 L62.657485,31.3191489 C62.9958084,30.9787234 63.3341317,30.706383 63.8077844,30.6382979 C64.4167665,30.5702128 65.0934132,30.6382979 65.5670659,31.0468085 C65.9053892,31.3191489 66.1083832,31.6595745 66.2437126,32.0680851 C66.3113772,32.3404255 66.3113772,32.612766 66.3113772,32.8851064 L66.3113772,36.1531915 C66.3790419,36.3574468 66.3790419,36.493617 66.3790419,36.5617021 Z" id="Shape"></path>
                            <path d="M10.0820359,30.8425532 L11.705988,30.8425532 L11.705988,36.5617021 C11.502994,36.6297872 10.488024,36.6297872 10.1497006,36.5617021 L10.1497006,36.0170213 C10.0143713,36.1531915 9.87904192,36.2893617 9.74371257,36.3574468 C9.40538922,36.5617021 9.06706587,36.6978723 8.72874251,36.6978723 C8.39041916,36.6978723 8.11976048,36.6978723 7.8491018,36.5617021 C7.24011976,36.3574468 6.83413174,35.8808511 6.63113772,35.2680851 C6.56347305,34.9957447 6.49580838,34.7234043 6.49580838,34.4510638 L6.49580838,31.1829787 L6.49580838,30.9787234 C6.63113772,30.9106383 7.71377246,30.9106383 8.11976048,30.9787234 L8.11976048,31.2510638 L8.11976048,34.3148936 C8.11976048,34.5191489 8.18742515,34.7234043 8.25508982,34.9276596 C8.39041916,35.3361702 8.93173653,35.5404255 9.33772455,35.4723404 C9.87904192,35.3361702 10.0820359,34.9957447 10.1497006,34.587234 C10.2173653,34.3829787 10.2173653,34.1787234 10.2173653,33.906383 L10.2173653,31.2510638 C10.0820359,31.0468085 10.0820359,30.9787234 10.0820359,30.8425532 Z" id="Shape"></path>
                            <path d="M48.0419162,46.706383 C48.1095808,46.7744681 48.1095808,46.8425532 48.1772455,46.9106383 C48.3125749,47.2510638 48.5832335,47.387234 48.9215569,47.4553191 C49.1245509,47.5234043 49.3275449,47.5234043 49.5305389,47.4553191 C49.6658683,47.387234 49.8011976,47.387234 49.8688623,47.2510638 C50.0718563,47.0468085 50.0041916,46.8425532 49.8011976,46.7744681 C49.7335329,46.706383 49.6658683,46.706383 49.5305389,46.706383 C49.1245509,46.6382979 48.7862275,46.5702128 48.3802395,46.4340426 C47.9742515,46.3659574 47.5682635,46.2297872 47.1622754,45.9574468 C46.8239521,45.6851064 46.6886228,45.412766 46.6886228,45.0042553 L46.6886228,44.7319149 C46.6886228,44.3234043 46.8239521,43.9829787 47.0946108,43.6425532 C47.4329341,43.2340426 47.9065868,43.0297872 48.3802395,42.9617021 C48.9892216,42.893617 49.5305389,42.893617 50.0718563,43.0978723 C50.6131737,43.3021277 51.0191617,43.6425532 51.2898204,44.1191489 C51.2898204,44.187234 51.357485,44.187234 51.357485,44.2553191 C51.2221557,44.3914894 50.342515,44.8 49.9365269,44.8680851 C49.9365269,44.8 49.8688623,44.8 49.8688623,44.7319149 C49.5982036,44.2553191 48.9215569,44.187234 48.5155689,44.3234043 C48.4479042,44.3234043 48.4479042,44.3234043 48.3802395,44.3914894 C48.2449102,44.4595745 48.1772455,44.5957447 48.1772455,44.7319149 C48.1772455,44.8680851 48.3125749,44.9361702 48.4479042,45.0042553 C48.7185629,45.0723404 49.0568862,45.1404255 49.3275449,45.2085106 C49.6658683,45.2765957 50.0718563,45.3446809 50.4101796,45.5489362 C50.748503,45.6851064 51.0191617,45.8893617 51.154491,46.1617021 C51.2221557,46.2978723 51.2898204,46.5021277 51.357485,46.6382979 C51.4251497,46.9106383 51.4251497,47.2510638 51.2898204,47.5234043 C51.154491,47.8638298 50.951497,48.1361702 50.6808383,48.4085106 C50.2748503,48.7489362 49.7335329,48.8851064 49.1922156,48.8851064 C48.7862275,48.8851064 48.3802395,48.8851064 47.9742515,48.8170213 C47.5682635,48.6808511 47.1622754,48.4765957 46.8916168,48.2042553 C46.6886228,48 46.4856287,47.7276596 46.3502994,47.387234 C47.0269461,47.0468085 47.5005988,46.8425532 48.0419162,46.706383 Z" id="Shape"></path>
                            <path d="M30.2461078,58.5531915 C30.7197605,58.7574468 31.1934132,58.9617021 31.5994012,59.1659574 C31.3964072,59.9829787 30.3137725,60.9361702 29.1634731,61.0042553 C27.2011976,61.1404255 26.1185629,59.7787234 25.9155689,58.5531915 C25.6449102,56.9191489 26.6598802,55.4893617 28.0808383,55.1489362 C29.6371257,54.7404255 31.1257485,55.5574468 31.5994012,56.9191489 C31.1257485,57.1234043 30.6520958,57.3276596 30.1784431,57.5319149 C30.0431138,57.3957447 29.9754491,57.1914894 29.8401198,57.0553191 C29.7047904,56.9191489 29.5017964,56.7829787 29.3664671,56.7148936 C29.1634731,56.6468085 29.0281437,56.5787234 28.8251497,56.5787234 C28.6221557,56.5787234 28.4191617,56.6468085 28.2838323,56.7148936 C27.6748503,56.987234 27.4041916,57.5319149 27.4718563,58.1446809 C27.539521,58.7574468 27.945509,59.3021277 28.6221557,59.4382979 C29.1634731,59.5744681 29.8401198,59.3702128 30.2461078,58.5531915 Z" id="Shape"></path>
                            <path d="M39.448503,28.6638298 L39.448503,30.8425532 L40.4634731,30.8425532 C40.5311377,30.9787234 40.5311377,31.9319149 40.4634731,32.2723404 L39.448503,32.2723404 L39.448503,32.4765957 L39.448503,34.3148936 C39.448503,34.4510638 39.448503,34.587234 39.5161677,34.7234043 C39.5838323,34.9276596 39.7191617,34.9957447 39.854491,35.0638298 C39.9898204,35.0638298 40.1928144,35.1319149 40.3281437,35.1319149 L40.3958084,35.1319149 C40.4634731,35.2680851 40.4634731,36.2893617 40.3958084,36.6297872 L39.9898204,36.6297872 C39.5838323,36.6297872 39.245509,36.5617021 38.9071856,36.4255319 C38.5011976,36.2893617 38.2305389,36.0170213 38.0275449,35.6085106 C37.8922156,35.3361702 37.8922156,35.0638298 37.8245509,34.7914894 C37.7568862,34.0425532 37.8245509,33.293617 37.7568862,32.612766 L37.7568862,32.3404255 C37.4185629,32.2723404 37.1479042,32.3404255 36.8095808,32.3404255 C36.7419162,32.2042553 36.7419162,31.2510638 36.8095808,30.9106383 C37.0802395,30.8425532 37.4185629,30.9106383 37.7568862,30.9106383 L37.7568862,30.706383 L37.7568862,29.7531915 C37.7568862,29.6170213 37.7568862,29.5489362 37.8922156,29.4808511 C38.0952096,29.3446809 38.2982036,29.2765957 38.5011976,29.1404255 C38.839521,28.9361702 39.1101796,28.8 39.448503,28.6638298 Z" id="Shape"></path>
                            <path d="M14.3449102,40.3744681 L15.8335329,40.3744681 L15.8335329,40.3744681 L15.8335329,40.3744681 L15.8335329,48.4765957 L15.8335329,48.612766 C15.8335329,48.612766 15.8335329,48.612766 15.8335329,48.6808511 L14.2772455,48.6808511 L14.2772455,48.6808511 L14.2772455,48.6808511 L14.2772455,48.4765957 L14.2772455,40.4425532 C14.2772455,40.4425532 14.2772455,40.4425532 14.3449102,40.3744681 C14.2772455,40.3744681 14.3449102,40.3744681 14.3449102,40.3744681 L14.3449102,40.3744681 Z" id="Shape"></path>
                            <path d="M42.4934132,48.6808511 L42.4934132,43.0297872 C42.6287425,42.9617021 43.7790419,42.9617021 44.0497006,43.0297872 L44.0497006,43.8468085 C44.1173653,43.7787234 44.1173653,43.7787234 44.1173653,43.7106383 C44.388024,43.3021277 44.7263473,43.0978723 45.2,43.0297872 C45.5383234,42.9617021 45.808982,43.0297872 46.1473054,42.9617021 C46.2149701,43.1659574 46.2149701,44.0510638 46.1473054,44.5276596 L46.011976,44.5276596 L45.2676647,44.5276596 C45.0646707,44.5276596 44.9293413,44.5276596 44.7263473,44.5957447 C44.388024,44.6638298 44.1850299,44.8680851 44.1173653,45.2085106 C44.0497006,45.4808511 43.9820359,45.7531915 43.9820359,46.0255319 L43.9820359,48.4765957 L43.9820359,48.7489362 C43.9143713,48.7489362 42.8317365,48.7489362 42.4934132,48.6808511 Z" id="Shape"></path>
                            <path d="M47.6359281,36.5617021 L47.6359281,30.8425532 C47.8389222,30.7744681 48.9215569,30.7744681 49.1922156,30.8425532 L49.1922156,31.5914894 C49.3275449,31.4553191 49.3952096,31.387234 49.4628743,31.3191489 C49.6658683,31.1148936 49.8688623,30.9787234 50.2071856,30.9106383 C50.6131737,30.7744681 51.0191617,30.8425532 51.4251497,30.8425532 L51.4251497,32.4085106 L51.2221557,32.4085106 L50.342515,32.4085106 C50.2071856,32.4085106 50.0041916,32.4765957 49.8688623,32.4765957 C49.5305389,32.612766 49.3275449,32.8851064 49.2598802,33.293617 C49.1922156,33.5659574 49.1922156,33.8382979 49.1922156,34.1106383 L49.1922156,36.2893617 L49.1922156,36.5617021 C49.0568862,36.6297872 47.9742515,36.6297872 47.6359281,36.5617021 Z" id="Shape"></path>
                            <path d="M52.1017964,30.8425532 L53.6580838,30.8425532 L53.6580838,32.7489362 L53.6580838,34.6553191 L53.6580838,36.5617021 L52.1017964,36.5617021 L52.1017964,36.5617021 L52.1017964,36.5617021 L52.1017964,36.4255319 C52.0341317,34.587234 52.0341317,32.7489362 52.1017964,30.8425532 C52.0341317,30.9106383 52.1017964,30.9106383 52.1017964,30.8425532 Z" id="Shape"></path>
                            <path d="M58.1916168,42.9617021 L59.8155689,42.9617021 L59.8155689,44.8680851 L59.8155689,46.7744681 L59.8155689,48.6808511 C59.6125749,48.7489362 58.5299401,48.7489362 58.1916168,48.6808511 L58.1916168,46.7744681 L58.1916168,44.8680851 L58.1916168,42.9617021 Z" id="Shape"></path>
                            <path d="M34.6443114,30.8425532 L36.2682635,30.8425532 L36.2682635,32.7489362 L36.2682635,34.6553191 L36.2682635,36.5617021 C36.0652695,36.6297872 35.0502994,36.6297872 34.6443114,36.5617021 L34.6443114,34.6553191 L34.6443114,32.7489362 L34.6443114,30.8425532 Z" id="Shape"></path>
                            <path d="M34.711976,28.7319149 L36.2682635,28.7319149 C36.3359281,28.9361702 36.3359281,30.0255319 36.2682635,30.2978723 L34.711976,30.2978723 C34.6443114,30.093617 34.6443114,29.0042553 34.711976,28.7319149 Z" id="Shape"></path>
                            <path d="M59.8155689,42.4851064 L58.2592814,42.4851064 C58.1916168,42.2808511 58.1916168,41.1914894 58.2592814,40.9191489 L59.8155689,40.9191489 L59.8155689,42.4851064 Z" id="Shape"></path>
                            <path d="M53.6580838,30.2978723 L52.1017964,30.2978723 L52.1017964,30.1617021 L52.1017964,28.8680851 C52.1017964,28.6638298 52.1017964,28.6638298 52.2371257,28.6638298 L53.6580838,28.6638298 L53.6580838,30.2978723 Z" id="Shape"></path>
                        </g>
                    </g>
                </g>
            </g>
        </g>
    </g>
</svg>