<?xml version="1.0" encoding="UTF-8"?>
<svg width="134px" height="46px" viewBox="0 0 134 46" version="1.1" xmlns="http://www.w3.org/2000/svg" xmlns:xlink="http://www.w3.org/1999/xlink">
    <!-- Generator: Sketch 42 (36781) - http://www.bohemiancoding.com/sketch -->
    <title>Group 2</title>
    <desc>Created with Sketch.</desc>
    <defs></defs>
    <g id="Page-1" stroke="none" stroke-width="1" fill="none" fill-rule="evenodd">
        <g id="Artboard-Copy" transform="translate(-300.000000, -34.000000)" fill-rule="nonzero" fill="#FFFFFF">
            <g id="Group-2">
                <g id="hxl" transform="translate(301.000000, 42.000000)">
                    <g id="Layer_1">
                        <g id="Group">
                            <g id="Rectangle-path">
                                <rect x="5.20213904" y="0.136363636" width="4.10695187" height="29.6590909"></rect>
                                <rect x="24.573262" y="0.136363636" width="4.10695187" height="29.6590909"></rect>
                                <rect x="0.0684491979" y="19.1590909" width="33.7454545" height="4.36363636"></rect>
                                <rect x="0.0684491979" y="6.27272727" width="33.7454545" height="4.36363636"></rect>
                            </g>
                            <path d="M47.3668449,2.18181818 C47.3668449,1.97727273 47.5037433,1.77272727 47.7775401,1.77272727 L51.7475936,1.77272727 C52.0213904,1.77272727 52.1582888,1.90909091 52.1582888,2.18181818 L52.1582888,12.6136364 C52.1582888,12.75 52.226738,12.8181818 52.4320856,12.8181818 L62.9048128,12.8181818 C63.0417112,12.8181818 63.1786096,12.75 63.1786096,12.6136364 L63.1786096,2.18181818 C63.1786096,1.97727273 63.315508,1.77272727 63.5893048,1.77272727 L67.5593583,1.77272727 C67.8331551,1.77272727 67.9700535,1.90909091 67.9700535,2.18181818 L67.9700535,27.8863636 C67.9700535,28.0909091 67.8331551,28.2954545 67.5593583,28.2954545 L63.5893048,28.2954545 C63.3839572,28.2954545 63.1786096,28.1590909 63.1786096,27.8863636 L63.1786096,17.1818182 C63.1786096,17.0454545 63.1101604,16.9772727 62.9048128,16.9772727 L52.3636364,16.9772727 C52.226738,16.9772727 52.0898396,17.0454545 52.0898396,17.1818182 L52.0898396,27.8181818 C52.0898396,28.0227273 51.9529412,28.2272727 51.6791444,28.2272727 L47.7090909,28.2272727 C47.4352941,28.2272727 47.2983957,28.0909091 47.2983957,27.8181818 L47.2983957,2.18181818 L47.3668449,2.18181818 Z" id="Shape"></path>
                            <path d="M94.9390374,28.2272727 C94.5967914,28.2272727 94.459893,28.0909091 94.2545455,27.8181818 L88.7101604,18.8181818 L88.6417112,18.8181818 L83.028877,27.8181818 C82.8919786,28.0909091 82.686631,28.2272727 82.344385,28.2272727 L77.9636364,28.2272727 C77.6898396,28.2272727 77.5529412,28.0227273 77.6898396,27.75 L85.9037433,14.5227273 L78.3058824,2.25 C78.168984,1.97727273 78.2374332,1.77272727 78.5796791,1.77272727 L82.9604278,1.77272727 C83.3026738,1.77272727 83.4395722,1.90909091 83.6449198,2.18181818 L88.6417112,10.2272727 L88.7101604,10.2272727 L93.7069519,2.18181818 C93.8438503,1.90909091 94.0491979,1.77272727 94.3229947,1.77272727 L98.7037433,1.77272727 C98.9775401,1.77272727 99.1144385,1.97727273 98.9775401,2.25 L91.3796791,14.5227273 L99.5935829,27.75 C99.7989305,28.0227273 99.6620321,28.2272727 99.3882353,28.2272727 L94.9390374,28.2272727 Z" id="Shape"></path>
                            <path d="M109.381818,2.18181818 C109.381818,1.97727273 109.518717,1.77272727 109.792513,1.77272727 L113.762567,1.77272727 C114.036364,1.77272727 114.173262,1.90909091 114.173262,2.18181818 L114.173262,23.8636364 C114.173262,24 114.241711,24.0681818 114.447059,24.0681818 L127.11016,24.0681818 C127.383957,24.0681818 127.520856,24.2045455 127.520856,24.4772727 L127.520856,27.8181818 C127.520856,28.0227273 127.383957,28.2272727 127.11016,28.2272727 L109.792513,28.2272727 C109.587166,28.2272727 109.381818,28.0909091 109.381818,27.8181818 L109.381818,2.18181818 Z" id="Shape"></path>
                        </g>
                    </g>
                </g>
            </g>
        </g>
    </g>
</svg>