<?xml version="1.0" encoding="UTF-8"?>
<svg width="113px" height="46px" viewBox="0 0 113 46" version="1.1" xmlns="http://www.w3.org/2000/svg" xmlns:xlink="http://www.w3.org/1999/xlink">
    <!-- Generator: Sketch 42 (36781) - http://www.bohemiancoding.com/sketch -->
    <title>Group 2</title>
    <desc>Created with Sketch.</desc>
    <defs></defs>
    <g id="Page-1" stroke="none" stroke-width="1" fill="none" fill-rule="evenodd">
        <g id="Artboard-Copy" transform="translate(-600.000000, -34.000000)" fill-rule="nonzero" fill="#FFFFFF">
            <g id="Group-2">
                <g id="iasc" transform="translate(601.000000, 41.000000)">
                    <g id="Layer_1">
                        <g id="Group">
                            <path d="M72.7737179,9.7625 C69.9615385,9.9 67.149359,10.0375 64.3371795,10.175 C64.2685897,9.96875 64.2,9.83125 64.2,9.625 C63.7198718,7.425 61.9365385,6.53125 60.0160256,6.1875 C58.9185897,5.98125 57.7525641,6.4625 56.9294872,7.21875 C55.7634615,8.18125 55.9692308,9.625 57.3410256,10.3125 C58.0269231,10.65625 58.85,10.93125 59.6044872,11.1375 C62.3480769,11.825 65.1602564,12.44375 67.8352564,13.40625 C70.7846154,14.50625 73.1852564,16.29375 73.8711538,19.59375 C74.625641,23.5125 73.8025641,27.15625 69.9615385,30.04375 C68.5211538,31.14375 66.7378205,31.55625 64.9544872,31.96875 C62.6910256,32.51875 60.3589744,32.45 58.0269231,32.24375 C56.175,32.10625 54.3230769,31.83125 52.6083333,31.14375 C49.4532051,29.90625 47.8070513,27.3625 46.9153846,24.2 C46.7096154,23.5125 46.6410256,22.75625 46.5038462,21.93125 C48.0128205,21.725 49.4532051,21.51875 50.8935897,21.45 C52.3339744,21.38125 53.774359,21.45 55.2147436,21.45 C55.5576923,22.34375 55.8320513,23.2375 56.2435897,23.99375 C57.0666667,25.50625 58.4384615,26.19375 60.0846154,26.33125 C61.8679487,26.5375 63.4455128,26.19375 64.6115385,24.6125 C65.1602564,23.85625 65.1602564,22.61875 64.5429487,21.8625 C63.6512821,20.7625 62.5538462,20.14375 61.250641,19.8 C59.3301282,19.31875 57.4096154,18.8375 55.4891026,18.2875 C53.225641,17.53125 51.0307692,16.6375 49.3846154,14.78125 C47.7384615,12.85625 47.1897436,10.65625 47.6698718,8.1125 C48.4929487,4.19375 51.1679487,2.26875 54.8032051,1.375 C55.9692308,1.1 57.1352564,1.03125 58.3012821,0.9625 C59.8102564,0.89375 61.3192308,0.9625 62.8282051,0.9625 C65.2288462,0.9625 67.3551282,1.71875 69.3442308,2.8875 C70.9217949,3.85 71.6076923,5.5 72.2935897,7.08125 C72.8423077,7.8375 73.0480769,8.73125 72.7737179,9.7625 Z" id="Shape"></path>
                            <path d="M46.0923077,31.7625 L36.3525641,31.7625 C35.8038462,30.04375 35.1865385,28.325 34.6378205,26.5375 L25.0352564,26.5375 C24.2121795,26.5375 23.800641,26.8125 23.5948718,27.70625 C23.2519231,29.08125 22.7717949,30.3875 22.3602564,31.83125 L12.7576923,31.83125 C16.5987179,21.5875 20.4397436,11.48125 24.2121795,1.30625 L34.5692308,1.30625 C38.4102564,11.34375 42.1826923,21.45 46.0923077,31.7625 Z M32.5801282,20.075 C32.4429487,19.31875 32.374359,18.7 32.1685897,18.15 C31.3455128,15.33125 30.5224359,12.58125 29.699359,9.7625 C29.699359,9.625 29.425,9.625 29.150641,9.4875 C28.1217949,12.99375 27.024359,16.5 25.9955128,20.075 L32.5801282,20.075 Z" id="Shape"></path>
                            <path d="M106.451282,10.10625 C103.844872,10.65625 101.169872,11.275 98.6320513,11.825 C97.9461538,10.93125 97.4660256,10.10625 96.7801282,9.35 C94.5852564,6.875 90.5384615,6.94375 88.4121795,9.69375 C87.5205128,10.79375 86.9032051,11.9625 86.8346154,13.40625 C86.7660256,14.64375 86.4916667,15.88125 86.5602564,17.11875 C86.5602564,18.2875 86.7660256,19.45625 86.9717949,20.625 C87.3147436,22.1375 88.2064103,23.375 89.3724359,24.3375 C90.4012821,25.1625 91.6358974,25.3 92.8705128,25.3 C95.7512821,25.23125 97.3288462,23.44375 98.2891026,20.9 C98.4948718,20.41875 98.6320513,19.86875 98.8378205,19.31875 C100.278205,19.73125 101.58141,20.14375 102.884615,20.55625 C104.187821,20.96875 105.491026,21.38125 106.862821,21.79375 C106.245513,24.475 105.216667,26.88125 103.296154,28.80625 C101.71859,30.45625 99.6608974,31.35 97.4660256,31.83125 C95.1339744,32.3125 92.8705128,32.3125 90.5384615,32.10625 C87.4519231,31.9 84.5025641,31.14375 82.1705128,28.94375 C80.0442308,26.95 78.6038462,24.475 77.9179487,21.5875 C77.300641,19.1125 77.575,16.56875 77.575,14.09375 C77.5064103,11.9625 78.0551282,9.9 79.0153846,7.975 C80.6615385,4.675 83.1307692,2.40625 86.7660256,1.375 C90.8128205,0.275 94.7910256,0.34375 98.7692308,1.30625 C102.678846,2.26875 104.942308,5.15625 106.245513,8.8 C106.382692,9.075 106.451282,9.35 106.588462,9.69375 C106.519872,9.9 106.451282,9.96875 106.451282,10.10625 Z" id="Shape"></path>
                            <path d="M9.6025641,31.7625 L0.411538462,31.7625 L0.411538462,1.2375 L9.46538462,1.2375 C9.80833333,2.75 9.87692308,27.29375 9.6025641,31.7625 Z" id="Shape"></path>
                        </g>
                    </g>
                </g>
            </g>
        </g>
    </g>
</svg>