<?xml version="1.0" encoding="UTF-8"?>
<svg width="145px" height="46px" viewBox="0 0 145 46" version="1.1" xmlns="http://www.w3.org/2000/svg" xmlns:xlink="http://www.w3.org/1999/xlink">
    <!-- Generator: Sketch 42 (36781) - http://www.bohemiancoding.com/sketch -->
    <title>Group 2</title>
    <desc>Created with Sketch.</desc>
    <defs>
        <linearGradient x1="-0.0909108963%" y1="49.7539776%" x2="99.9826157%" y2="49.7539776%" id="linearGradient-1">
            <stop stop-color="#B2CEDB" offset="0%"></stop>
            <stop stop-color="#C3DEEB" offset="55.94%"></stop>
            <stop stop-color="#CCE6F4" offset="100%"></stop>
        </linearGradient>
    </defs>
    <g id="Page-1" stroke="none" stroke-width="1" fill="none" fill-rule="evenodd">
        <g id="Artboard-Copy" transform="translate(-150.000000, -34.000000)" fill-rule="nonzero">
            <g id="Group-2">
                <g id="reliefweb" transform="translate(151.000000, 37.000000)">
                    <g id="Group">
                        <g id="Shape" fill="#FFFFFF">
                            <path d="M8.51830986,7.66315789 C6.62535211,7.66315789 5.61126761,8.89473684 4.93521127,10.1947368 C4.73239437,9.37368421 4.66478873,8.00526316 3.65070423,8.00526316 C2.83943662,8.00526316 0,8.27894737 0,9.1 C0,9.78421053 0.405633803,10.4684211 0.405633803,13.7526316 L0.405633803,24.2894737 C0.405633803,24.9736842 1.01408451,25.3842105 2.36619718,25.3842105 L3.31267606,25.3842105 C4.66478873,25.3842105 5.27323944,25.0421053 5.27323944,24.2894737 L5.27323944,13.6157895 C5.67887324,12.9315789 6.55774648,11.9736842 7.90985915,11.9736842 C8.58591549,11.9736842 8.9915493,12.2473684 9.46478873,12.2473684 C10.1408451,12.2473684 10.4788732,10.0578947 10.4788732,9.44210526 C10.4112676,8.75789474 10.1408451,7.66315789 8.51830986,7.66315789 Z"></path>
                            <path d="M26.2309859,16.2157895 C26.2309859,11.6315789 24.2704225,7.66315789 19.1323944,7.66315789 C14.4676056,7.66315789 11.1549296,10.1947368 11.1549296,16.6947368 C11.1549296,22.0315789 13.7915493,25.5210526 19.7408451,25.5210526 C21.5661972,25.5210526 25.6225352,24.7684211 25.6225352,23.1263158 C25.6225352,22.4421053 24.6084507,20.5947368 23.9323944,20.5947368 C23.4591549,20.5947368 22.0394366,21.6210526 19.943662,21.6210526 C17.7802817,21.6210526 16.428169,20.8 16.1577465,18.1315789 L24.5408451,18.1315789 C25.0140845,18.2 26.2309859,16.7631579 26.2309859,16.2157895 Z M16.2253521,14.9157895 C16.6309859,12.3842105 17.7802817,11.5631579 19.2,11.5631579 C20.8225352,11.5631579 21.5661972,13 21.5661972,14.9157895 L16.2253521,14.9157895 Z"></path>
                            <path d="M35.9661972,21.5526316 C35.7633803,21.5526316 35.3577465,21.6894737 35.0873239,21.6894737 C34.2084507,21.6894737 33.9380282,21.2789474 33.9380282,20.2526316 L33.9380282,1.3 C33.9380282,0.615789474 33.3295775,0.205263158 31.9774648,0.205263158 L31.0309859,0.205263158 C29.6788732,0.205263158 29.0704225,0.547368421 29.0704225,1.3 L29.0704225,20.1157895 C29.0704225,23.8105263 30.7605634,25.5210526 33.8704225,25.5210526 C34.884507,25.5210526 37.0478873,25.4526316 37.0478873,23.8789474 C36.9802817,23.6736842 36.6422535,21.5526316 35.9661972,21.5526316 Z"></path>
                            <path d="M42.1183099,7.86842105 L41.2394366,7.86842105 C39.8873239,7.86842105 39.2788732,8.21052632 39.2788732,8.96315789 L39.2788732,24.3578947 C39.2788732,25.0421053 39.8873239,25.4526316 41.2394366,25.4526316 L42.1859155,25.4526316 C43.5380282,25.4526316 44.1464789,25.1105263 44.1464789,24.3578947 L44.1464789,8.89473684 C44.1464789,8.21052632 43.5380282,7.86842105 42.1183099,7.86842105 Z"></path>
                            <path d="M42.1183099,0.273684211 L41.2394366,0.273684211 C39.8873239,0.273684211 39.2788732,0.615789474 39.2788732,1.36842105 L39.2788732,4.03684211 C39.2788732,4.72105263 39.8873239,5.13157895 41.2394366,5.13157895 L42.1859155,5.13157895 C43.5380282,5.13157895 44.1464789,4.78947368 44.1464789,4.03684211 L44.1464789,1.36842105 C44.1464789,0.615789474 43.5380282,0.273684211 42.1183099,0.273684211 Z"></path>
                            <path d="M62.4676056,16.2157895 C62.4676056,11.6315789 60.5070423,7.66315789 55.3690141,7.66315789 C50.7042254,7.66315789 47.3915493,10.1947368 47.3915493,16.6947368 C47.3915493,22.0315789 50.028169,25.5210526 55.9774648,25.5210526 C57.8028169,25.5210526 61.8591549,24.7684211 61.8591549,23.1263158 C61.8591549,22.4421053 60.8450704,20.5947368 60.1690141,20.5947368 C59.6957746,20.5947368 58.2760563,21.6210526 56.1802817,21.6210526 C54.0169014,21.6210526 52.6647887,20.8 52.3943662,18.1315789 L60.7774648,18.1315789 C61.2507042,18.2 62.4676056,16.7631579 62.4676056,16.2157895 Z M52.4619718,14.9157895 C52.8676056,12.3842105 54.0169014,11.5631579 55.4366197,11.5631579 C57.0591549,11.5631579 57.8028169,13 57.8028169,14.9157895 L52.4619718,14.9157895 Z"></path>
                            <path d="M98.028169,7.86842105 L97.8929577,7.86842105 C96.8112676,7.86842105 96.2028169,8.07368421 96.0676056,8.55263158 L93.4309859,18.7473684 L90.9971831,8.55263158 C90.9295775,8.07368421 90.1183099,7.86842105 89.171831,7.86842105 L88.3605634,7.86842105 C87.2788732,7.86842105 86.6704225,8.07368421 86.5352113,8.55263158 L84.0338028,18.7473684 L81.4647887,8.55263158 C81.4647887,8.41578947 81.3295775,8.34736842 81.2619718,8.27894737 C81.1267606,8.07368421 80.856338,7.93684211 80.5859155,7.93684211 L80.0450704,7.93684211 L79.6394366,7.93684211 L70.6478873,7.93684211 L70.6478873,5.40526316 C70.6478873,4.37894737 70.9859155,3.96842105 71.7971831,3.96842105 C72.1352113,3.96842105 72.6084507,4.10526316 72.8112676,4.10526316 C73.4873239,4.10526316 73.8253521,1.98421053 73.8253521,1.71052632 C73.8253521,0.205263158 71.5943662,0.0684210526 70.5802817,0.0684210526 C67.4704225,0.0684210526 65.7802817,1.77894737 65.7802817,5.47368421 L65.7802817,7.93684211 L65.171831,7.93684211 C64.4957746,7.93684211 64.1577465,8.41578947 64.1577465,9.57894737 L64.1577465,10.1263158 C64.1577465,11.2894737 64.428169,11.7684211 65.171831,11.7684211 L65.7802817,11.7684211 L65.7802817,24.2210526 C65.7802817,24.9052632 66.3887324,25.3157895 67.7408451,25.3157895 L68.6873239,25.3157895 C70.0394366,25.3157895 70.6478873,24.9736842 70.6478873,24.2210526 L70.6478873,11.8368421 L77.6788732,11.8368421 L81.1267606,24.6315789 C81.2619718,25.1105263 81.8704225,25.3157895 82.9521127,25.3157895 L84.5746479,25.3157895 C85.5211268,25.3157895 86.2647887,25.1105263 86.4,24.6315789 L88.6309859,15.3263158 L90.9971831,24.6315789 C91.1323944,25.1105263 91.7408451,25.3157895 92.8225352,25.3157895 L94.4450704,25.3157895 C95.3915493,25.3157895 96.1352113,25.1105263 96.2704225,24.6315789 L100.123944,9.23684211 C100.123944,9.03157895 100.191549,8.89473684 100.191549,8.75789474 C100.056338,8.21052632 99.4478873,7.86842105 98.028169,7.86842105 Z"></path>
                            <path d="M116.75493,16.2157895 C116.75493,11.6315789 114.794366,7.66315789 109.656338,7.66315789 C104.991549,7.66315789 101.678873,10.1947368 101.678873,16.6947368 C101.678873,22.0315789 104.315493,25.5210526 110.264789,25.5210526 C112.090141,25.5210526 116.146479,24.7684211 116.146479,23.1263158 C116.146479,22.4421053 115.132394,20.5947368 114.456338,20.5947368 C113.983099,20.5947368 112.56338,21.6210526 110.467606,21.6210526 C108.304225,21.6210526 106.952113,20.8 106.68169,18.1315789 L115.064789,18.1315789 C115.470423,18.2 116.75493,16.7631579 116.75493,16.2157895 Z M106.68169,14.9157895 C107.087324,12.3842105 108.23662,11.5631579 109.656338,11.5631579 C111.278873,11.5631579 112.022535,13 112.022535,14.9157895 L106.68169,14.9157895 Z"></path>
                            <path d="M127.842254,7.66315789 C126.287324,7.66315789 125.205634,8.21052632 124.529577,8.68947368 L124.529577,1.3 C124.529577,0.615789474 123.921127,0.205263158 122.569014,0.205263158 L121.622535,0.205263158 C120.270423,0.205263158 119.661972,0.547368421 119.661972,1.3 L119.661972,24.2894737 C119.661972,24.9736842 120.270423,25.3842105 121.622535,25.3842105 L122.028169,25.3842105 C123.109859,25.3842105 123.785915,25.2473684 123.921127,24.4947368 L124.259155,23.0578947 C125.002817,24.4947368 126.625352,25.5210526 128.653521,25.5210526 C132.169014,25.5210526 134.805634,22.3052632 134.805634,16.5578947 C134.738028,11.1526316 132.23662,7.66315789 127.842254,7.66315789 Z M127.166197,21.5526316 C125.949296,21.5526316 125.070423,20.5947368 124.461972,19.5684211 L124.461972,12.1789474 C125.002817,11.9052632 125.746479,11.5631579 126.760563,11.5631579 C128.856338,11.5631579 129.802817,13.2736842 129.802817,16.6263158 C129.802817,19.7736842 128.991549,21.5526316 127.166197,21.5526316 Z"></path>
                        </g>
                        <path d="M143.594366,16.6947368 C143.188732,13.3421053 139.132394,10.8105263 136.56338,10.4684211 C137.509859,11.1526316 138.456338,11.7684211 139.267606,12.5894737 C140.687324,13.9578947 141.295775,15.6 140.822535,17.5842105 C140.349296,19.5 139.2,20.9368421 137.780282,22.2368421 C134.602817,25.2473684 130.749296,27.3 126.760563,28.9421053 C119.526761,31.9526316 111.95493,33.5947368 104.247887,34.2789474 C99.1098592,34.7578947 94.0394366,34.6894737 89.0366197,33.7315789 C86.1971831,33.1842105 83.3577465,32.4315789 80.9915493,30.7210526 C78.5577465,29.0105263 77.7464789,26.8210526 78.5577465,24.2894737 L77.543662,20.3894737 L77.543662,20.3894737 C76.4619718,21.2105263 74.3661972,22.9894737 73.0816901,25.4526316 C71.5267606,28.4631579 72.1352113,31.3368421 74.771831,33.5263158 C77.1380282,35.5105263 79.9774648,36.4684211 82.9521127,37.1526316 C89.2394366,38.5894737 95.5943662,38.5210526 101.949296,37.9736842 C108.84507,37.3578947 115.538028,35.9894737 122.095775,33.8684211 C127.504225,32.0894737 132.777465,29.9 137.442254,26.5473684 C139.402817,25.1105263 141.228169,23.5368421 142.512676,21.4157895 C143.256338,19.9105263 143.797183,18.4052632 143.594366,16.6947368 Z" id="Shape" fill="url(#linearGradient-1)"></path>
                    </g>
                </g>
            </g>
        </g>
    </g>
</svg>